<svg id="app_store" data-name="app store" xmlns="http://www.w3.org/2000/svg" width="177.94" height="51.051" viewBox="0 0 177.94 51.051">
  <path id="Path_5036" data-name="Path 5036" d="M335.733,681.07a5.118,5.118,0,0,1-5.119,5.117H162.924a5.125,5.125,0,0,1-5.131-5.117V640.261a5.132,5.132,0,0,1,5.131-5.124H330.608a5.123,5.123,0,0,1,5.124,5.123h0V681.07Z" transform="translate(-157.793 -635.137)" fill="#fff"/>
  <path id="Path_5038" data-name="Path 5038" d="M335.733,681.07a5.118,5.118,0,0,1-5.119,5.117H162.924a5.125,5.125,0,0,1-5.131-5.117V640.261a5.132,5.132,0,0,1,5.131-5.124H330.608a5.123,5.123,0,0,1,5.124,5.123h0V681.07Z" transform="translate(-157.793 -635.137)" fill="#fff"/>
  <path id="Path_5040" data-name="Path 5040" d="M270.461,694.954a7.575,7.575,0,0,1,3.609-6.356,7.762,7.762,0,0,0-6.112-3.3c-2.571-.27-5.065,1.538-6.375,1.538-1.336,0-3.353-1.512-5.526-1.467a8.137,8.137,0,0,0-6.849,4.176c-2.962,5.126-.753,12.66,2.085,16.8,1.419,2.031,3.078,4.3,5.249,4.216,2.124-.086,2.918-1.352,5.481-1.352,2.54,0,3.285,1.352,5.5,1.3,2.28-.035,3.715-2.039,5.085-4.086a16.746,16.746,0,0,0,2.325-4.734,7.329,7.329,0,0,1-4.47-6.735Zm-4.183-12.385a7.455,7.455,0,0,0,1.707-5.343,7.6,7.6,0,0,0-4.912,2.54,7.094,7.094,0,0,0-1.751,5.146,6.275,6.275,0,0,0,4.957-2.343Z" transform="translate(-230.1 -668.948)"/>
  <g id="Group_339" data-name="Group 339" transform="translate(56.441 22.163)">
    <path id="Path_5041" data-name="Path 5041" d="M459.471,765.481H456.5l-1.626-5.108h-5.652l-1.549,5.108h-2.89l5.6-17.39h3.459l5.626,17.39Zm-5.085-7.251-1.47-4.541q-.233-.7-.877-3.276h-.052q-.259,1.11-.826,3.276l-1.446,4.541Zm19.46.827a7.1,7.1,0,0,1-1.738,5.056,5.1,5.1,0,0,1-3.866,1.652,3.871,3.871,0,0,1-3.581-1.778v6.579h-2.786v-13.5q0-2.009-.1-4.121h2.451l.156,1.987h.052a4.958,4.958,0,0,1,7.935-.493,6.933,6.933,0,0,1,1.482,4.621Zm-2.839.1a5.17,5.17,0,0,0-.826-3.02,2.855,2.855,0,0,0-2.426-1.237,2.9,2.9,0,0,0-1.87.683,3.169,3.169,0,0,0-1.1,1.794,3.631,3.631,0,0,0-.129.848v2.092a3.354,3.354,0,0,0,.839,2.31,2.785,2.785,0,0,0,2.18.942,2.856,2.856,0,0,0,2.451-1.213A5.337,5.337,0,0,0,471.008,759.159Zm17.265-.1a7.1,7.1,0,0,1-1.738,5.056,5.1,5.1,0,0,1-3.868,1.652,3.871,3.871,0,0,1-3.581-1.778v6.579H476.3v-13.5q0-2.009-.1-4.121h2.451l.155,1.987h.052a4.96,4.96,0,0,1,7.937-.493,6.939,6.939,0,0,1,1.482,4.621Zm-2.84.1a5.169,5.169,0,0,0-.827-3.02,2.85,2.85,0,0,0-2.423-1.237,2.911,2.911,0,0,0-1.873.683,3.167,3.167,0,0,0-1.1,1.794,3.724,3.724,0,0,0-.131.848v2.092a3.366,3.366,0,0,0,.838,2.31,2.792,2.792,0,0,0,2.183.942,2.853,2.853,0,0,0,2.451-1.213A5.337,5.337,0,0,0,485.433,759.159ZM504.4,760.6a4.644,4.644,0,0,1-1.546,3.613,6.854,6.854,0,0,1-4.738,1.522,8.273,8.273,0,0,1-4.5-1.083l.644-2.322a7.754,7.754,0,0,0,4.026,1.084,3.8,3.8,0,0,0,2.451-.709,2.317,2.317,0,0,0,.88-1.895,2.427,2.427,0,0,0-.724-1.781,6.712,6.712,0,0,0-2.4-1.341q-4.568-1.7-4.57-4.981a4.4,4.4,0,0,1,1.613-3.509,6.378,6.378,0,0,1,4.271-1.368,8.442,8.442,0,0,1,3.949.826l-.7,2.271a6.906,6.906,0,0,0-3.342-.8,3.4,3.4,0,0,0-2.306.723,2.067,2.067,0,0,0-.7,1.576,2.13,2.13,0,0,0,.8,1.7,9.026,9.026,0,0,0,2.528,1.341,8.573,8.573,0,0,1,3.3,2.114A4.406,4.406,0,0,1,504.4,760.6Zm9.237-5.571h-3.072v6.088q0,2.323,1.626,2.321a4.9,4.9,0,0,0,1.238-.129l.077,2.116a6.317,6.317,0,0,1-2.167.308,3.341,3.341,0,0,1-2.581-1.008,4.94,4.94,0,0,1-.929-3.381v-6.321H506v-2.091h1.83v-2.3l2.737-.826v3.122h3.072v2.1Zm13.832,4.076a6.878,6.878,0,0,1-1.652,4.747,5.89,5.89,0,0,1-4.593,1.909,5.614,5.614,0,0,1-4.4-1.83,6.668,6.668,0,0,1-1.639-4.618,6.822,6.822,0,0,1,1.69-4.772,5.859,5.859,0,0,1,4.556-1.858,5.732,5.732,0,0,1,4.438,1.832,6.581,6.581,0,0,1,1.6,4.589Zm-2.889.064a5.612,5.612,0,0,0-.746-2.958,2.758,2.758,0,0,0-2.5-1.494,2.8,2.8,0,0,0-2.555,1.494,5.707,5.707,0,0,0-.748,3.011,5.6,5.6,0,0,0,.748,2.96,2.858,2.858,0,0,0,5.036-.025,5.636,5.636,0,0,0,.77-2.987Zm11.951-3.78a4.85,4.85,0,0,0-.878-.077,2.63,2.63,0,0,0-2.272,1.111,4.184,4.184,0,0,0-.7,2.476v6.579H529.9V756.89q0-1.975-.081-3.948h2.427l.1,2.4h.077a4.3,4.3,0,0,1,1.393-1.988,3.37,3.37,0,0,1,2.014-.672,4.479,4.479,0,0,1,.7.051l0,2.658ZM549,758.618a6.511,6.511,0,0,1-.1,1.264h-8.36a3.636,3.636,0,0,0,1.213,2.841,4.148,4.148,0,0,0,2.734.875,9.25,9.25,0,0,0,3.383-.592l.437,1.933a10.459,10.459,0,0,1-4.2.775A6.1,6.1,0,0,1,539.514,764a6.338,6.338,0,0,1-1.664-4.6,7.182,7.182,0,0,1,1.55-4.72,5.342,5.342,0,0,1,4.385-2.011,4.675,4.675,0,0,1,4.106,2.011A6.767,6.767,0,0,1,549,758.618Zm-2.657-.723a3.769,3.769,0,0,0-.541-2.142,2.433,2.433,0,0,0-2.219-1.163,2.642,2.642,0,0,0-2.218,1.136,4.163,4.163,0,0,0-.825,2.167l5.8,0Z" transform="translate(-444.786 -747.833)"/>
  </g>
  <g id="Group_340" data-name="Group 340" transform="translate(58.072 8.716)">
    <path id="Path_5042" data-name="Path 5042" d="M455.085,688.523a17.766,17.766,0,0,1-2-.1v-8.408a15.189,15.189,0,0,1,2.359-.178c3.2,0,4.668,1.572,4.668,4.135C460.108,686.927,458.369,688.523,455.085,688.523Zm.468-7.609a5.6,5.6,0,0,0-1.1.089v6.391a7.241,7.241,0,0,0,.926.038c2.094,0,3.286-1.192,3.286-3.424A2.789,2.789,0,0,0,455.553,680.914Zm9.142,7.673a2.933,2.933,0,0,1-2.968-3.17,3,3,0,0,1,3.07-3.259,2.91,2.91,0,0,1,2.968,3.158,3.02,3.02,0,0,1-3.07,3.271Zm.052-5.428c-.989,0-1.623.925-1.623,2.219,0,1.269.647,2.194,1.611,2.194s1.61-.989,1.61-2.22c0-1.255-.634-2.192-1.6-2.192Zm13.289-.874-1.928,6.163h-1.256l-.8-2.676a20.3,20.3,0,0,1-.5-1.99h-.026a13.343,13.343,0,0,1-.494,1.99l-.85,2.676h-1.269l-1.814-6.163h1.408l.7,2.93q.247,1.047.418,1.979h.026a20.276,20.276,0,0,1,.507-1.965l.876-2.942h1.116l.838,2.879c.2.7.367,1.382.5,2.029h.037a17.734,17.734,0,0,1,.418-2.029l.749-2.879Zm7.1,6.163h-1.37v-3.538c0-1.09-.418-1.636-1.243-1.636a1.423,1.423,0,0,0-1.37,1.509v3.665h-1.37v-4.4c0-.545-.013-1.129-.051-1.763h1.205l.064.951h.038a2.214,2.214,0,0,1,1.954-1.077c1.294,0,2.144.989,2.144,2.6v3.69Zm3.778,0H487.54v-8.99h1.371Zm4.994.14a2.934,2.934,0,0,1-2.968-3.17,3,3,0,0,1,3.069-3.259,2.91,2.91,0,0,1,2.968,3.158,3.018,3.018,0,0,1-3.069,3.271Zm.051-5.428c-.99,0-1.623.925-1.623,2.219,0,1.269.648,2.194,1.609,2.194s1.61-.989,1.61-2.22c0-1.255-.631-2.192-1.6-2.192Zm8.419,5.288-.1-.709h-.037a2.1,2.1,0,0,1-1.8.849,1.792,1.792,0,0,1-1.889-1.814c0-1.521,1.319-2.308,3.6-2.308v-.114c0-.811-.43-1.218-1.28-1.218a2.885,2.885,0,0,0-1.61.457l-.278-.9a3.94,3.94,0,0,1,2.116-.533c1.611,0,2.423.849,2.423,2.549v2.27a9.316,9.316,0,0,0,.089,1.472l-1.235,0Zm-.188-3.069c-1.522,0-2.285.369-2.285,1.243a.873.873,0,0,0,.94.963,1.312,1.312,0,0,0,1.345-1.254Zm7.986,3.069-.064-.989h-.038a2.066,2.066,0,0,1-1.979,1.129c-1.486,0-2.587-1.307-2.587-3.145,0-1.927,1.141-3.285,2.7-3.285a1.852,1.852,0,0,1,1.738.838h.028v-3.537h1.371v7.329c0,.6.014,1.154.051,1.661Zm-.2-3.626a1.491,1.491,0,0,0-1.443-1.6c-1.016,0-1.636.9-1.636,2.168,0,1.243.644,2.094,1.609,2.094a1.538,1.538,0,0,0,1.471-1.636v-1.027Zm10.065,3.766a2.933,2.933,0,0,1-2.967-3.17,3,3,0,0,1,3.069-3.259,2.91,2.91,0,0,1,2.968,3.158,3.018,3.018,0,0,1-3.07,3.271Zm.051-5.428c-.988,0-1.622.925-1.622,2.219,0,1.269.647,2.194,1.609,2.194s1.61-.989,1.61-2.22c0-1.255-.631-2.192-1.6-2.192Zm10.386,5.288H529.1v-3.538c0-1.09-.418-1.636-1.243-1.636a1.421,1.421,0,0,0-1.368,1.509v3.665h-1.371v-4.4c0-.545-.013-1.129-.051-1.763h1.2l.064.951h.038a2.213,2.213,0,0,1,1.953-1.078c1.294,0,2.145.989,2.145,2.6Zm9.216-5.135h-1.507V686.3c0,.762.264,1.142.8,1.142a2.7,2.7,0,0,0,.608-.064l.038,1.04a3.036,3.036,0,0,1-1.063.153c-1.08,0-1.725-.6-1.725-2.156v-3.107h-.9v-1.027h.9v-1.129l1.345-.406v1.534h1.507v1.028Zm7.252,5.135h-1.369v-3.512c0-1.1-.417-1.661-1.243-1.661a1.343,1.343,0,0,0-1.371,1.458v3.715h-1.369v-8.99h1.369v3.7h.027a2.078,2.078,0,0,1,1.854-1c1.3,0,2.1,1.014,2.1,2.625v3.665Zm7.43-2.752h-4.111a1.769,1.769,0,0,0,1.943,1.825,4.629,4.629,0,0,0,1.661-.291l.213.951a5.149,5.149,0,0,1-2.068.38,2.861,2.861,0,0,1-3.069-3.106,3.01,3.01,0,0,1,2.915-3.31c1.575,0,2.563,1.167,2.563,2.93a2.643,2.643,0,0,1-.047.621Zm-1.256-.976c0-.951-.48-1.623-1.355-1.623a1.624,1.624,0,0,0-1.5,1.623Z" transform="translate(-453.081 -679.457)"/>
  </g>
</svg>
