<svg xmlns="http://www.w3.org/2000/svg" width="355.887" height="102.103" viewBox="0 0 355.887 102.103">
  <g id="app_store" data-name="app store" transform="translate(-2.379 -2.378)">
    <path id="Path_5036" data-name="Path 5036" d="M513.68,727a10.236,10.236,0,0,1-10.238,10.235H168.055A10.25,10.25,0,0,1,157.793,727V645.385a10.263,10.263,0,0,1,10.262-10.248H503.429a10.247,10.247,0,0,1,10.248,10.246v0l0,81.619Z" transform="translate(-155.414 -632.759)" fill="#fff"/>
    <path id="Path_5038" data-name="Path 5038" d="M513.68,727a10.236,10.236,0,0,1-10.238,10.235H168.055A10.25,10.25,0,0,1,157.793,727V645.385a10.263,10.263,0,0,1,10.262-10.248H503.429a10.247,10.247,0,0,1,10.248,10.246v0l0,81.619Z" transform="translate(-155.414 -632.759)" fill="#fff"/>
    <path id="Path_5040" data-name="Path 5040" d="M293.122,712.683c-.076-8.424,6.9-12.521,7.218-12.712a15.523,15.523,0,0,0-12.224-6.607c-5.142-.541-10.13,3.076-12.75,3.076-2.671,0-6.706-3.024-11.053-2.935a16.274,16.274,0,0,0-13.7,8.353c-5.924,10.253-1.506,25.32,4.17,33.607,2.839,4.061,6.157,8.591,10.5,8.431,4.249-.173,5.835-2.7,10.961-2.7,5.08,0,6.57,2.7,11,2.6,4.559-.071,7.43-4.077,10.17-8.173a33.494,33.494,0,0,0,4.65-9.468,14.659,14.659,0,0,1-8.94-13.47Zm-8.365-24.771a14.91,14.91,0,0,0,3.414-10.687,15.2,15.2,0,0,0-9.824,5.081c-2.107,2.462-3.989,6.5-3.5,10.292,3.715.277,7.529-1.873,9.913-4.686Z" transform="translate(-210.019 -658.292)"/>
    <g id="Group_339" data-name="Group 339" transform="translate(115.263 46.705)">
      <path id="Path_5041" data-name="Path 5041" d="M474.157,783.129H468.22l-3.252-10.217h-11.3l-3.1,10.217h-5.78l11.2-34.781h6.917l11.252,34.781Zm-10.17-14.5-2.941-9.082q-.467-1.391-1.754-6.552h-.1q-.518,2.219-1.652,6.552l-2.891,9.082Zm38.921,1.655q0,6.4-3.477,10.112a10.2,10.2,0,0,1-7.733,3.3q-4.984,0-7.163-3.557V793.3h-5.573V766.293q0-4.018-.207-8.243h4.9l.311,3.975h.1a9.917,9.917,0,0,1,15.871-.985,13.867,13.867,0,0,1,2.964,9.241Zm-5.678.2a10.34,10.34,0,0,0-1.652-6.04,5.71,5.71,0,0,0-4.852-2.475,5.8,5.8,0,0,0-3.741,1.367,6.338,6.338,0,0,0-2.193,3.588,7.265,7.265,0,0,0-.259,1.7v4.184a6.707,6.707,0,0,0,1.678,4.621,5.571,5.571,0,0,0,4.36,1.884,5.713,5.713,0,0,0,4.9-2.425A10.673,10.673,0,0,0,497.23,770.485Zm34.531-.2q0,6.4-3.477,10.112a10.2,10.2,0,0,1-7.736,3.3q-4.984,0-7.163-3.557V793.3h-5.574V766.293q0-4.018-.207-8.243h4.9l.311,3.975h.1a9.919,9.919,0,0,1,15.873-.985,13.879,13.879,0,0,1,2.964,9.241Zm-5.681.2a10.338,10.338,0,0,0-1.655-6.04,5.7,5.7,0,0,0-4.847-2.475,5.821,5.821,0,0,0-3.746,1.367,6.334,6.334,0,0,0-2.191,3.588,7.45,7.45,0,0,0-.261,1.7v4.184a6.731,6.731,0,0,0,1.676,4.621,5.584,5.584,0,0,0,4.366,1.884,5.707,5.707,0,0,0,4.9-2.425A10.673,10.673,0,0,0,526.081,770.485Zm37.94,2.888a9.289,9.289,0,0,1-3.093,7.226q-3.4,3.042-9.476,3.045a16.546,16.546,0,0,1-9.009-2.166l1.289-4.644A15.509,15.509,0,0,0,551.784,779a7.6,7.6,0,0,0,4.9-1.419,4.635,4.635,0,0,0,1.76-3.789A4.855,4.855,0,0,0,557,770.231a13.427,13.427,0,0,0-4.8-2.681q-9.137-3.407-9.14-9.963a8.794,8.794,0,0,1,3.226-7.017,12.756,12.756,0,0,1,8.543-2.736,16.884,16.884,0,0,1,7.9,1.652l-1.4,4.542a13.813,13.813,0,0,0-6.685-1.6,6.8,6.8,0,0,0-4.611,1.445,4.134,4.134,0,0,0-1.4,3.152,4.26,4.26,0,0,0,1.6,3.405,18.054,18.054,0,0,0,5.056,2.681,17.145,17.145,0,0,1,6.606,4.229,8.813,8.813,0,0,1,2.125,6.032ZM582.5,762.231h-6.144v12.176q0,4.646,3.252,4.642a9.8,9.8,0,0,0,2.476-.259l.154,4.232a12.633,12.633,0,0,1-4.335.617,6.681,6.681,0,0,1-5.163-2.015q-1.855-2.015-1.859-6.761V762.22h-3.66v-4.182h3.66v-4.592l5.474-1.652v6.244H582.5v4.192Zm27.664,8.151a13.756,13.756,0,0,1-3.3,9.495,11.779,11.779,0,0,1-9.186,3.819,11.229,11.229,0,0,1-8.8-3.659,13.337,13.337,0,0,1-3.279-9.236,13.644,13.644,0,0,1,3.38-9.545,11.719,11.719,0,0,1,9.113-3.717,11.464,11.464,0,0,1,8.875,3.664,13.162,13.162,0,0,1,3.2,9.178Zm-5.777.128a11.225,11.225,0,0,0-1.493-5.917,5.517,5.517,0,0,0-5.009-2.987,5.6,5.6,0,0,0-5.11,2.987,11.413,11.413,0,0,0-1.5,6.022,11.2,11.2,0,0,0,1.5,5.92,5.717,5.717,0,0,0,10.073-.05,11.272,11.272,0,0,0,1.54-5.974Zm23.9-7.561a9.694,9.694,0,0,0-1.757-.154,5.261,5.261,0,0,0-4.544,2.222,8.367,8.367,0,0,0-1.391,4.953v13.159h-5.574V765.948q.007-3.949-.162-7.9h4.854l.2,4.8h.154a8.6,8.6,0,0,1,2.787-3.975,6.741,6.741,0,0,1,4.029-1.343,8.966,8.966,0,0,1,1.394.1l0,5.316Zm24.927,6.453a13.033,13.033,0,0,1-.2,2.527H636.286a7.273,7.273,0,0,0,2.426,5.682,8.3,8.3,0,0,0,5.469,1.751,18.5,18.5,0,0,0,6.766-1.184l.873,3.865a20.919,20.919,0,0,1-8.41,1.55q-5.835,0-9.166-3.429a12.677,12.677,0,0,1-3.328-9.21,14.364,14.364,0,0,1,3.1-9.44,10.683,10.683,0,0,1,8.771-4.022A9.349,9.349,0,0,1,651,761.515a13.534,13.534,0,0,1,2.212,7.888Zm-5.315-1.446a7.539,7.539,0,0,0-1.083-4.283,4.866,4.866,0,0,0-4.439-2.326,5.284,5.284,0,0,0-4.437,2.271,8.326,8.326,0,0,0-1.65,4.333l11.607.005Z" transform="translate(-444.786 -747.833)"/>
    </g>
    <g id="Group_340" data-name="Group 340" transform="translate(118.526 19.811)">
      <path id="Path_5042" data-name="Path 5042" d="M457.089,697.59a35.548,35.548,0,0,1-4.008-.2V680.571a30.364,30.364,0,0,1,4.719-.356c6.392,0,9.335,3.144,9.335,8.27C467.135,694.4,463.658,697.59,457.089,697.59Zm.936-15.219a11.2,11.2,0,0,0-2.207.178v12.783a14.509,14.509,0,0,0,1.851.076c4.188,0,6.572-2.384,6.572-6.847C464.241,684.58,462.084,682.371,458.025,682.371Zm18.284,15.347c-3.6,0-5.937-2.689-5.937-6.341,0-3.805,2.384-6.518,6.141-6.518,3.55,0,5.937,2.561,5.937,6.317,0,3.852-2.461,6.542-6.141,6.542Zm.1-10.856c-1.979,0-3.247,1.85-3.247,4.438,0,2.538,1.294,4.388,3.221,4.388s3.221-1.978,3.221-4.44c0-2.509-1.268-4.385-3.195-4.385Zm26.579-1.749-3.856,12.325h-2.512l-1.6-5.352a40.6,40.6,0,0,1-.991-3.981h-.052a26.685,26.685,0,0,1-.988,3.981l-1.7,5.352h-2.539l-3.628-12.325h2.815l1.4,5.859q.494,2.094.837,3.957h.052A40.558,40.558,0,0,1,491.243,691l1.751-5.883h2.233l1.676,5.758c.405,1.4.735,2.765.991,4.059h.073a35.464,35.464,0,0,1,.837-4.059l1.5-5.758,2.69,0Zm14.2,12.325h-2.74v-7.077c0-2.18-.837-3.272-2.486-3.272a2.845,2.845,0,0,0-2.74,3.018v7.331h-2.74v-8.8c0-1.09-.026-2.258-.1-3.525h2.41l.128,1.9h.076a4.429,4.429,0,0,1,3.908-2.153c2.588,0,4.287,1.978,4.287,5.2l0,7.38Zm7.555,0H522V679.457h2.742Zm9.989.28c-3.6,0-5.937-2.689-5.937-6.341,0-3.805,2.384-6.518,6.138-6.518,3.553,0,5.937,2.561,5.937,6.317,0,3.852-2.46,6.542-6.138,6.542Zm.1-10.856c-1.979,0-3.247,1.85-3.247,4.438,0,2.538,1.3,4.388,3.218,4.388s3.221-1.978,3.221-4.44c0-2.509-1.263-4.385-3.192-4.385Zm16.838,10.577-.2-1.419H551.4a4.209,4.209,0,0,1-3.6,1.7,3.584,3.584,0,0,1-3.777-3.628c0-3.042,2.638-4.615,7.2-4.615v-.227c0-1.623-.86-2.436-2.559-2.436a5.771,5.771,0,0,0-3.221.915l-.557-1.8a7.879,7.879,0,0,1,4.232-1.066c3.221,0,4.847,1.7,4.847,5.1v4.54a18.632,18.632,0,0,0,.177,2.943l-2.47,0Zm-.377-6.139c-3.043,0-4.57.737-4.57,2.485a1.746,1.746,0,0,0,1.88,1.926,2.623,2.623,0,0,0,2.69-2.509Zm15.973,6.139-.128-1.978h-.076a4.132,4.132,0,0,1-3.958,2.258c-2.972,0-5.174-2.613-5.174-6.291,0-3.855,2.282-6.571,5.4-6.571a3.7,3.7,0,0,1,3.477,1.675h.055v-7.074h2.742v14.659c0,1.192.029,2.308.1,3.322Zm-.405-7.253a2.981,2.981,0,0,0-2.886-3.2c-2.031,0-3.273,1.8-3.273,4.336,0,2.486,1.289,4.187,3.218,4.187a3.076,3.076,0,0,0,2.941-3.272v-2.055Zm20.13,7.533c-3.6,0-5.934-2.689-5.934-6.341,0-3.805,2.384-6.518,6.139-6.518,3.552,0,5.936,2.561,5.936,6.317,0,3.852-2.457,6.542-6.141,6.542Zm.1-10.856c-1.976,0-3.244,1.85-3.244,4.438,0,2.538,1.294,4.388,3.218,4.388s3.221-1.978,3.221-4.44c.006-2.509-1.263-4.385-3.195-4.385Zm20.773,10.577h-2.742v-7.077c0-2.18-.837-3.272-2.487-3.272a2.843,2.843,0,0,0-2.737,3.018v7.331h-2.742v-8.8c0-1.09-.026-2.258-.1-3.525h2.41l.128,1.9h.076a4.427,4.427,0,0,1,3.905-2.156c2.588,0,4.29,1.979,4.29,5.2ZM626.3,687.167h-3.014v5.985c0,1.524.528,2.284,1.595,2.284a5.4,5.4,0,0,0,1.216-.128l.076,2.08a6.073,6.073,0,0,1-2.126.306c-2.159,0-3.451-1.192-3.451-4.312v-6.215h-1.8v-2.054h1.8v-2.258l2.69-.813v3.068H626.3v2.057Zm14.5,10.271h-2.737v-7.025c0-2.206-.834-3.322-2.486-3.322a2.687,2.687,0,0,0-2.742,2.917v7.43H630.1V679.457h2.737v7.4h.055a4.157,4.157,0,0,1,3.707-2.005c2.609,0,4.2,2.028,4.2,5.251v7.331Zm14.86-5.5h-8.222a3.538,3.538,0,0,0,3.885,3.651,9.257,9.257,0,0,0,3.322-.583l.426,1.9a10.3,10.3,0,0,1-4.136.76c-3.856,0-6.138-2.436-6.138-6.212s2.337-6.62,5.83-6.62c3.15,0,5.126,2.334,5.126,5.86a5.291,5.291,0,0,1-.094,1.241Zm-2.512-1.952c0-1.9-.96-3.246-2.711-3.246-1.574,0-2.818,1.369-3,3.246Z" transform="translate(-453.081 -679.457)"/>
    </g>
  </g>
</svg>
