<svg xmlns="http://www.w3.org/2000/svg" width="226.734" height="67.18" viewBox="0 0 226.734 67.18">
  <g id="app_store" data-name="app store" transform="translate(0)">
    <path id="Path_5036" data-name="Path 5036" d="M381.528,692.891a6.435,6.435,0,0,1-6.436,6.434H164.244a6.444,6.444,0,0,1-6.451-6.434V641.58a6.452,6.452,0,0,1,6.451-6.443H375.084a6.442,6.442,0,0,1,6.443,6.441v0l0,51.311Z" transform="translate(-156.297 -633.642)" fill="#fff"/>
    <path id="Path_5037" data-name="Path 5037" d="M370.533,696.271H159.692a7.947,7.947,0,0,1-7.947-7.931v-51.31a7.952,7.952,0,0,1,7.947-7.94H370.531a7.955,7.955,0,0,1,7.946,7.94v51.31a7.946,7.946,0,0,1-7.945,7.931Z" transform="translate(-151.745 -629.091)" fill="#6d2b90"/>
    <path id="Path_5038" data-name="Path 5038" d="M381.528,692.891a6.435,6.435,0,0,1-6.436,6.434H164.244a6.444,6.444,0,0,1-6.451-6.434V641.58a6.452,6.452,0,0,1,6.451-6.443H375.084a6.442,6.442,0,0,1,6.443,6.441v0l0,51.311Z" transform="translate(-156.297 -633.642)" fill="#010101"/>
    <path id="Path_5039" data-name="Path 5039" d="M692.76,629.091H579.827l44.234,67.18h68.7a7.952,7.952,0,0,0,7.947-7.936v-51.3A7.954,7.954,0,0,0,692.76,629.091Z" transform="translate(-473.972 -629.091)" fill="#fff" opacity="0.1"/>
    <path id="Path_5040" data-name="Path 5040" d="M276.293,699.516a9.525,9.525,0,0,1,4.538-7.992,9.759,9.759,0,0,0-7.685-4.154c-3.233-.34-6.368,1.934-8.015,1.934-1.68,0-4.216-1.9-6.949-1.845a10.231,10.231,0,0,0-8.612,5.251c-3.724,6.446-.947,15.918,2.621,21.128,1.785,2.553,3.87,5.4,6.6,5.3,2.671-.109,3.668-1.7,6.891-1.7,3.193,0,4.13,1.7,6.914,1.636,2.866-.045,4.671-2.563,6.393-5.138a21.056,21.056,0,0,0,2.923-5.953,9.216,9.216,0,0,1-5.621-8.468Zm-5.259-15.573a9.373,9.373,0,0,0,2.146-6.718A9.552,9.552,0,0,0,267,680.419a8.92,8.92,0,0,0-2.2,6.47,7.89,7.89,0,0,0,6.232-2.946Z" transform="translate(-224.049 -665.323)" fill="#fff"/>
    <g id="Group_339" data-name="Group 339" transform="translate(72.462 29.362)">
      <path id="Path_5041" data-name="Path 5041" d="M463.251,770.022h-3.732l-2.044-6.423h-7.107l-1.948,6.423h-3.634l7.042-21.866h4.349l7.074,21.866Zm-6.393-9.118-1.849-5.709q-.293-.875-1.1-4.119h-.066q-.326,1.4-1.039,4.119l-1.818,5.709Zm24.468,1.04a8.926,8.926,0,0,1-2.186,6.357,6.41,6.41,0,0,1-4.861,2.077,4.867,4.867,0,0,1-4.5-2.236v8.273h-3.5V759.438q0-2.526-.13-5.182h3.082l.2,2.5h.066a6.234,6.234,0,0,1,9.978-.619,8.718,8.718,0,0,1,1.864,5.81Zm-3.57.128a6.5,6.5,0,0,0-1.039-3.8,3.59,3.59,0,0,0-3.05-1.556,3.644,3.644,0,0,0-2.352.859,3.985,3.985,0,0,0-1.379,2.256,4.569,4.569,0,0,0-.163,1.066v2.63a4.217,4.217,0,0,0,1.055,2.9,3.5,3.5,0,0,0,2.741,1.185,3.592,3.592,0,0,0,3.082-1.525A6.71,6.71,0,0,0,477.756,762.073Zm21.709-.128a8.927,8.927,0,0,1-2.186,6.357,6.414,6.414,0,0,1-4.863,2.077,4.867,4.867,0,0,1-4.5-2.236v8.273h-3.5V759.438q0-2.526-.13-5.182h3.082l.2,2.5h.066a6.236,6.236,0,0,1,9.979-.619,8.725,8.725,0,0,1,1.864,5.81Zm-3.571.128a6.5,6.5,0,0,0-1.04-3.8,3.584,3.584,0,0,0-3.047-1.556,3.66,3.66,0,0,0-2.355.859,3.983,3.983,0,0,0-1.377,2.256,4.683,4.683,0,0,0-.164,1.066v2.63a4.231,4.231,0,0,0,1.053,2.9,3.51,3.51,0,0,0,2.745,1.185,3.588,3.588,0,0,0,3.082-1.525A6.71,6.71,0,0,0,495.893,762.073Zm23.852,1.816a5.84,5.84,0,0,1-1.944,4.543,8.618,8.618,0,0,1-5.957,1.914,10.4,10.4,0,0,1-5.664-1.362l.81-2.92a9.75,9.75,0,0,0,5.062,1.364,4.776,4.776,0,0,0,3.081-.892,2.914,2.914,0,0,0,1.106-2.382,3.052,3.052,0,0,0-.911-2.24,8.439,8.439,0,0,0-3.017-1.686q-5.744-2.142-5.746-6.263a5.529,5.529,0,0,1,2.028-4.412,8.019,8.019,0,0,1,5.371-1.72,10.616,10.616,0,0,1,4.965,1.038l-.879,2.856a8.685,8.685,0,0,0-4.2-1.005,4.272,4.272,0,0,0-2.9.909,2.6,2.6,0,0,0-.879,1.981,2.679,2.679,0,0,0,1.007,2.141,11.351,11.351,0,0,0,3.179,1.686,10.778,10.778,0,0,1,4.153,2.658,5.541,5.541,0,0,1,1.336,3.792Zm11.615-7H527.5v7.655q0,2.921,2.045,2.918a6.157,6.157,0,0,0,1.556-.163l.1,2.66a7.941,7.941,0,0,1-2.725.388,4.2,4.2,0,0,1-3.246-1.267q-1.166-1.267-1.169-4.251v-7.947h-2.3v-2.629h2.3v-2.887l3.441-1.039v3.925h3.862v2.635Zm17.391,5.125a8.648,8.648,0,0,1-2.077,5.969,7.405,7.405,0,0,1-5.775,2.4,7.059,7.059,0,0,1-5.534-2.3,8.384,8.384,0,0,1-2.061-5.806,8.578,8.578,0,0,1,2.125-6,7.367,7.367,0,0,1,5.729-2.337,7.207,7.207,0,0,1,5.579,2.3,8.275,8.275,0,0,1,2.013,5.77Zm-3.632.081a7.056,7.056,0,0,0-.939-3.72,3.468,3.468,0,0,0-3.149-1.878,3.519,3.519,0,0,0-3.213,1.878,7.175,7.175,0,0,0-.94,3.786,7.039,7.039,0,0,0,.94,3.722,3.594,3.594,0,0,0,6.332-.031,7.087,7.087,0,0,0,.968-3.756Zm15.026-4.753a6.1,6.1,0,0,0-1.1-.1,3.307,3.307,0,0,0-2.856,1.4,5.26,5.26,0,0,0-.874,3.114v8.273h-3.5v-10.8q0-2.483-.1-4.964h3.052l.128,3.017h.1a5.408,5.408,0,0,1,1.752-2.5,4.238,4.238,0,0,1,2.533-.844,5.637,5.637,0,0,1,.876.064l0,3.342Zm15.671,4.057a8.2,8.2,0,0,1-.128,1.589H565.176a4.573,4.573,0,0,0,1.525,3.572,5.216,5.216,0,0,0,3.438,1.1,11.629,11.629,0,0,0,4.253-.744l.549,2.43a13.151,13.151,0,0,1-5.287.974,7.667,7.667,0,0,1-5.762-2.156,7.97,7.97,0,0,1-2.092-5.79,9.03,9.03,0,0,1,1.949-5.935,6.716,6.716,0,0,1,5.514-2.528,5.878,5.878,0,0,1,5.162,2.528,8.509,8.509,0,0,1,1.39,4.959Zm-3.341-.909a4.74,4.74,0,0,0-.681-2.693,3.059,3.059,0,0,0-2.79-1.463,3.322,3.322,0,0,0-2.789,1.428,5.234,5.234,0,0,0-1.037,2.724l7.3,0Z" transform="translate(-444.786 -747.833)" fill="#fff"/>
    </g>
    <g id="Group_340" data-name="Group 340" transform="translate(74.514 12.454)">
      <path id="Path_5042" data-name="Path 5042" d="M455.6,690.857a22.344,22.344,0,0,1-2.52-.128V680.157a19.085,19.085,0,0,1,2.966-.224c4.018,0,5.869,1.977,5.869,5.2C461.916,688.849,459.73,690.857,455.6,690.857Zm.588-9.568a7.04,7.04,0,0,0-1.387.112v8.036a9.121,9.121,0,0,0,1.164.048c2.633,0,4.132-1.5,4.132-4.3C460.1,682.678,458.741,681.289,456.189,681.289Zm11.494,9.648a3.688,3.688,0,0,1-3.732-3.986,3.774,3.774,0,0,1,3.861-4.1,3.659,3.659,0,0,1,3.732,3.971,3.8,3.8,0,0,1-3.861,4.113Zm.066-6.825c-1.244,0-2.041,1.163-2.041,2.79,0,1.6.814,2.759,2.025,2.759s2.025-1.244,2.025-2.792c0-1.577-.8-2.757-2.008-2.757Zm16.709-1.1-2.424,7.749h-1.579l-1-3.365a25.526,25.526,0,0,1-.623-2.5h-.033a16.774,16.774,0,0,1-.621,2.5l-1.068,3.365h-1.6l-2.281-7.749H475l.878,3.683q.311,1.317.526,2.488h.033a25.5,25.5,0,0,1,.638-2.471l1.1-3.7h1.4l1.053,3.62c.255.877.462,1.738.623,2.552h.046a22.3,22.3,0,0,1,.526-2.552l.942-3.62,1.691,0Zm8.924,7.749H491.66v-4.449c0-1.37-.526-2.057-1.563-2.057a1.789,1.789,0,0,0-1.722,1.9v4.609h-1.723v-5.534c0-.685-.016-1.42-.064-2.216H488.1l.081,1.2h.048a2.784,2.784,0,0,1,2.457-1.354c1.627,0,2.7,1.244,2.7,3.268l0,4.64Zm4.75,0h-1.724v-11.3h1.724Zm6.28.176a3.689,3.689,0,0,1-3.732-3.986,3.774,3.774,0,0,1,3.859-4.1,3.658,3.658,0,0,1,3.732,3.971,3.8,3.8,0,0,1-3.859,4.113Zm.064-6.825c-1.244,0-2.041,1.163-2.041,2.79,0,1.6.815,2.759,2.023,2.759s2.025-1.244,2.025-2.792c0-1.577-.794-2.757-2.007-2.757Zm10.586,6.649-.125-.892h-.046a2.646,2.646,0,0,1-2.266,1.068,2.253,2.253,0,0,1-2.375-2.281c0-1.913,1.658-2.9,4.529-2.9v-.143c0-1.02-.541-1.531-1.609-1.531a3.628,3.628,0,0,0-2.025.575l-.35-1.132a4.953,4.953,0,0,1,2.661-.67c2.025,0,3.047,1.068,3.047,3.205v2.854a11.705,11.705,0,0,0,.112,1.85l-1.553,0Zm-.237-3.859c-1.913,0-2.873.463-2.873,1.562a1.1,1.1,0,0,0,1.182,1.211,1.649,1.649,0,0,0,1.691-1.577Zm10.042,3.859-.081-1.244h-.048a2.6,2.6,0,0,1-2.488,1.42c-1.869,0-3.253-1.643-3.253-3.955,0-2.424,1.435-4.131,3.394-4.131a2.329,2.329,0,0,1,2.186,1.053h.035v-4.447h1.724v9.216c0,.749.018,1.451.064,2.088Zm-.255-4.56a1.874,1.874,0,0,0-1.814-2.009c-1.277,0-2.058,1.132-2.058,2.726,0,1.563.81,2.632,2.023,2.632a1.934,1.934,0,0,0,1.849-2.057V686.2Zm12.655,4.735a3.688,3.688,0,0,1-3.731-3.986,3.774,3.774,0,0,1,3.859-4.1,3.658,3.658,0,0,1,3.732,3.971,3.8,3.8,0,0,1-3.86,4.113Zm.064-6.825c-1.242,0-2.04,1.163-2.04,2.79,0,1.6.814,2.759,2.023,2.759s2.025-1.244,2.025-2.792c0-1.577-.794-2.757-2.008-2.757Zm13.059,6.649h-1.724v-4.449c0-1.37-.526-2.057-1.563-2.057a1.787,1.787,0,0,0-1.72,1.9v4.609h-1.724v-5.534c0-.685-.016-1.42-.064-2.216h1.515l.081,1.2h.048a2.783,2.783,0,0,1,2.455-1.356c1.627,0,2.7,1.244,2.7,3.268Zm11.588-6.457h-1.895v3.763c0,.958.332,1.436,1,1.436a3.393,3.393,0,0,0,.764-.08l.048,1.308a3.818,3.818,0,0,1-1.336.192c-1.357,0-2.169-.749-2.169-2.711V684.3h-1.131v-1.292h1.131v-1.42l1.691-.511v1.929h1.895V684.3Zm9.118,6.457h-1.721v-4.416c0-1.387-.524-2.089-1.563-2.089a1.689,1.689,0,0,0-1.724,1.834v4.671h-1.721v-11.3h1.721v4.655h.034a2.613,2.613,0,0,1,2.331-1.26c1.64,0,2.643,1.275,2.643,3.3v4.609Zm9.342-3.46h-5.169a2.224,2.224,0,0,0,2.442,2.3,5.819,5.819,0,0,0,2.089-.366l.268,1.2a6.474,6.474,0,0,1-2.6.478A3.6,3.6,0,0,1,573.609,687c0-2.376,1.469-4.162,3.665-4.162,1.981,0,3.223,1.467,3.223,3.684a3.325,3.325,0,0,1-.059.78Zm-1.579-1.227c0-1.2-.6-2.041-1.7-2.041a2.043,2.043,0,0,0-1.883,2.041Z" transform="translate(-453.081 -679.457)" fill="#fff"/>
    </g>
  </g>
</svg>
