<svg xmlns="http://www.w3.org/2000/svg" width="367.028" height="273.48" viewBox="0 0 367.028 273.48">
  <g id="Appreciation-rafiki" transform="translate(0 -55)">
    <g id="freepik--background-complete--inject-3" transform="translate(0 55)">
      <rect id="Rectangle_178" data-name="Rectangle 178" width="367.028" height="0.184" transform="translate(0 240.33)" fill="#f0f0f0"/>
      <rect id="Rectangle_179" data-name="Rectangle 179" width="42.59" height="0.184" transform="translate(275.08 245.909)" fill="#f0f0f0"/>
      <rect id="Rectangle_180" data-name="Rectangle 180" width="7.157" height="0.184" transform="translate(319.924 249.579)" fill="#f0f0f0"/>
      <rect id="Rectangle_181" data-name="Rectangle 181" width="9.616" height="0.184" transform="translate(196.074 249.036)" fill="#f0f0f0"/>
      <rect id="Rectangle_182" data-name="Rectangle 182" width="46.312" height="0.184" transform="translate(145.541 249.036)" fill="#f0f0f0"/>
      <rect id="Rectangle_183" data-name="Rectangle 183" width="7.311" height="0.184" transform="translate(95.215 247.876)" fill="#f0f0f0"/>
      <rect id="Rectangle_184" data-name="Rectangle 184" width="12.325" height="0.184" transform="translate(235.317 244.852)" fill="#f0f0f0"/>
      <rect id="Rectangle_185" data-name="Rectangle 185" width="21.581" height="0.184" transform="translate(47.662 247.788)" fill="#f0f0f0"/>
      <path id="Path_1162" data-name="Path 1162" d="M184.133,262.591H42.394A4.191,4.191,0,0,1,38.21,258.4V59.155A4.191,4.191,0,0,1,42.394,55H184.133a4.191,4.191,0,0,1,4.191,4.191V258.4A4.191,4.191,0,0,1,184.133,262.591ZM42.394,55.147a4.008,4.008,0,0,0-4,4.008V258.4a4.008,4.008,0,0,0,4,4.008H184.133a4.015,4.015,0,0,0,4.008-4.008V59.155a4.015,4.015,0,0,0-4.008-4.008Z" transform="translate(-10.162 -55)" fill="#f0f0f0"/>
      <path id="Path_1163" data-name="Path 1163" d="M400.438,262.591H258.691A4.2,4.2,0,0,1,254.5,258.4V59.155A4.2,4.2,0,0,1,258.691,55H400.438a4.191,4.191,0,0,1,4.177,4.155V258.4A4.191,4.191,0,0,1,400.438,262.591ZM258.691,55.147a4.015,4.015,0,0,0-4.008,4.008V258.4a4.015,4.015,0,0,0,4.008,4.008H400.438a4.015,4.015,0,0,0,4.008-4.008V59.155a4.015,4.015,0,0,0-4.008-4.008Z" transform="translate(-67.683 -55)" fill="#f0f0f0"/>
      <rect id="Rectangle_186" data-name="Rectangle 186" width="51.435" height="100.045" transform="translate(113.661 240.33) rotate(180)" fill="#fafafa"/>
      <rect id="Rectangle_187" data-name="Rectangle 187" width="4.243" height="100.045" transform="translate(66.469 240.33) rotate(180)" fill="#f0f0f0"/>
      <rect id="Rectangle_188" data-name="Rectangle 188" width="118.425" height="21.611" transform="translate(109.697 143.141)" fill="#e6e6e6"/>
      <path id="Path_1164" data-name="Path 1164" d="M290.73,339.018H239.955c-8.376,0-9.785-3.024-9.785-12.112V219.734a.734.734,0,0,1,1.468,0V326.906c0,8.5.976,10.644,8.317,10.644H290.73a.734.734,0,1,1,0,1.468Z" transform="translate(-61.212 -98.615)" fill="#e6e6e6"/>
      <rect id="Rectangle_189" data-name="Rectangle 189" width="160.186" height="7.502" transform="translate(62.233 140.286)" fill="#f0f0f0"/>
      <rect id="Rectangle_190" data-name="Rectangle 190" width="51.435" height="100.045" transform="translate(273.855 240.33) rotate(180)" fill="#fafafa"/>
      <rect id="Rectangle_191" data-name="Rectangle 191" width="4.243" height="100.045" transform="translate(226.662 240.33) rotate(180)" fill="#f0f0f0"/>
      <rect id="Rectangle_192" data-name="Rectangle 192" width="133.481" height="44.139" transform="translate(305.683 106.842) rotate(90)" fill="#f0f0f0"/>
      <rect id="Rectangle_193" data-name="Rectangle 193" width="39.294" height="39.294" transform="translate(303.261 110.197) rotate(90)" fill="#e6e6e6"/>
      <rect id="Rectangle_194" data-name="Rectangle 194" width="39.294" height="39.294" transform="translate(303.261 153.014) rotate(90)" fill="#e6e6e6"/>
      <rect id="Rectangle_195" data-name="Rectangle 195" width="39.294" height="39.294" transform="translate(303.261 195.832) rotate(90)" fill="#e6e6e6"/>
      <path id="Path_1165" data-name="Path 1165" d="M391.91,204.41H374.52a4.074,4.074,0,0,0,4.074,4.074h9.242A4.074,4.074,0,0,0,391.91,204.41Z" transform="translate(-99.601 -94.735)" fill="#f0f0f0"/>
      <path id="Path_1166" data-name="Path 1166" d="M391.91,262.74H374.52a4.067,4.067,0,0,0,4.074,4.074h9.242a4.067,4.067,0,0,0,4.074-4.074Z" transform="translate(-99.601 -110.247)" fill="#f0f0f0"/>
      <path id="Path_1167" data-name="Path 1167" d="M391.91,321.07H374.52a4.067,4.067,0,0,0,4.074,4.074h9.242a4.067,4.067,0,0,0,4.074-4.074Z" transform="translate(-99.601 -125.759)" fill="#f0f0f0"/>
      <rect id="Rectangle_196" data-name="Rectangle 196" width="133.481" height="11.987" transform="translate(317.67 106.842) rotate(90)" fill="#fafafa"/>
      <rect id="Rectangle_197" data-name="Rectangle 197" width="51.839" height="82.376" transform="translate(96 93.959) rotate(180)" fill="#e6e6e6"/>
      <rect id="Rectangle_198" data-name="Rectangle 198" width="51.839" height="82.376" transform="translate(93.783 93.959) rotate(180)" fill="#f5f5f5"/>
      <rect id="Rectangle_199" data-name="Rectangle 199" width="73.809" height="43.889" transform="translate(89.812 15.87) rotate(90)" fill="#fff"/>
      <rect id="Rectangle_200" data-name="Rectangle 200" width="73.809" height="1.674" transform="translate(47.589 15.87) rotate(90)" fill="#e6e6e6"/>
      <rect id="Rectangle_201" data-name="Rectangle 201" width="48.551" height="5.755" transform="translate(92.139 69.713) rotate(180)" fill="#f5f5f5"/>
      <rect id="Rectangle_202" data-name="Rectangle 202" width="51.839" height="82.376" transform="translate(170.852 93.959) rotate(180)" fill="#e6e6e6"/>
      <rect id="Rectangle_203" data-name="Rectangle 203" width="51.839" height="82.376" transform="translate(168.642 93.959) rotate(180)" fill="#f5f5f5"/>
      <rect id="Rectangle_204" data-name="Rectangle 204" width="73.809" height="43.889" transform="translate(164.664 15.87) rotate(90)" fill="#fff"/>
      <rect id="Rectangle_205" data-name="Rectangle 205" width="73.809" height="1.674" transform="translate(122.448 15.863) rotate(90)" fill="#e6e6e6"/>
      <rect id="Rectangle_206" data-name="Rectangle 206" width="48.551" height="5.755" transform="translate(166.998 69.713) rotate(180)" fill="#f5f5f5"/>
      <rect id="Rectangle_207" data-name="Rectangle 207" width="51.839" height="82.376" transform="translate(245.704 93.959) rotate(180)" fill="#e6e6e6"/>
      <rect id="Rectangle_208" data-name="Rectangle 208" width="51.839" height="82.376" transform="translate(243.494 93.959) rotate(180)" fill="#f5f5f5"/>
      <rect id="Rectangle_209" data-name="Rectangle 209" width="73.809" height="43.889" transform="translate(239.523 15.87) rotate(90)" fill="#fff"/>
      <rect id="Rectangle_210" data-name="Rectangle 210" width="73.809" height="1.674" transform="translate(197.3 15.87) rotate(90)" fill="#e6e6e6"/>
      <rect id="Rectangle_211" data-name="Rectangle 211" width="48.551" height="5.755" transform="translate(241.85 69.713) rotate(180)" fill="#f5f5f5"/>
      <rect id="Rectangle_212" data-name="Rectangle 212" width="51.839" height="82.376" transform="translate(320.563 93.959) rotate(180)" fill="#e6e6e6"/>
      <rect id="Rectangle_213" data-name="Rectangle 213" width="51.839" height="82.376" transform="translate(318.346 93.959) rotate(180)" fill="#f5f5f5"/>
      <rect id="Rectangle_214" data-name="Rectangle 214" width="73.809" height="43.889" transform="translate(314.382 15.863) rotate(90)" fill="#fff"/>
      <rect id="Rectangle_215" data-name="Rectangle 215" width="73.809" height="1.674" transform="translate(272.159 15.87) rotate(90)" fill="#e6e6e6"/>
      <rect id="Rectangle_216" data-name="Rectangle 216" width="48.551" height="5.755" transform="translate(316.702 69.713) rotate(180)" fill="#f5f5f5"/>
      <path id="Path_1168" data-name="Path 1168" d="M238.421,238.286h11.092l-2.694-21.6h-11.1Z" transform="translate(-62.688 -98)" fill="#f5f5f5"/>
      <path id="Path_1169" data-name="Path 1169" d="M235.081,238.286h11.092l-2.694-21.6h-11.1Z" transform="translate(-61.8 -98)" fill="#fafafa"/>
      <path id="Path_1170" data-name="Path 1170" d="M203.63,245.224h8.023l1.542-2.444h-8.023Z" transform="translate(-54.154 -104.939)" fill="#f0f0f0"/>
      <path id="Path_1171" data-name="Path 1171" d="M145.07,245.224h48.558l1.534-2.444H151.618Z" transform="translate(-38.58 -104.939)" fill="#fafafa"/>
      <path id="Path_1172" data-name="Path 1172" d="M283.814,237.67h-3.5a6.2,6.2,0,0,0-6.2,6.2h15.907a6.2,6.2,0,0,0-6.2-6.2Z" transform="translate(-72.898 -103.58)" fill="#f5f5f5"/>
      <path id="Path_1173" data-name="Path 1173" d="M233.731,227.488h11.092l-1.343-10.8h-11.1Z" transform="translate(-61.8 -98)" fill="#f5f5f5"/>
      <path id="Path_1174" data-name="Path 1174" d="M260.929,209.559H182.436a1.086,1.086,0,0,1-1.079-1.226l6.049-48.389a1.086,1.086,0,0,1,1.079-.954h78.493a1.086,1.086,0,0,1,1.079,1.219l-6.049,48.4A1.086,1.086,0,0,1,260.929,209.559Z" transform="translate(-48.228 -82.655)" fill="#f0f0f0"/>
      <path id="Path_1175" data-name="Path 1175" d="M259.339,209.559H180.846a1.086,1.086,0,0,1-1.079-1.226l6.041-48.389a1.1,1.1,0,0,1,1.079-.954h78.5a1.079,1.079,0,0,1,1.079,1.219l-6.049,48.4A1.086,1.086,0,0,1,259.339,209.559Z" transform="translate(-47.805 -82.655)" fill="#fafafa"/>
      <path id="Path_1176" data-name="Path 1176" d="M183.219,207.726l5.66-45.291a.308.308,0,0,1,.308-.264h75.351a.3.3,0,0,1,.308.338l-5.667,45.3a.294.294,0,0,1-.3.264H183.52a.308.308,0,0,1-.3-.345Z" transform="translate(-48.725 -83.501)" fill="#e6e6e6"/>
      <path id="Path_1177" data-name="Path 1177" d="M224.1,243.35h14.476a1.8,1.8,0,0,1,1.8,1.8v.228H222.3v-.228a1.8,1.8,0,0,1,1.8-1.8Z" transform="translate(-59.119 -105.09)" fill="#fafafa"/>
      <path id="Path_1178" data-name="Path 1178" d="M245.868,243.35h8.662a1.8,1.8,0,0,1,1.8,1.8v.228H244.07v-.228A1.8,1.8,0,0,1,245.868,243.35Z" transform="translate(-64.909 -105.09)" fill="#f5f5f5"/>
      <path id="Path_1179" data-name="Path 1179" d="M106.672,285.228h-32.9a11.533,11.533,0,0,1-11.532-11.3L61,213.694a8.4,8.4,0,0,1,8.4-8.574H90.024a8.4,8.4,0,0,1,8.354,7.451Z" transform="translate(-16.222 -94.923)" fill="#e6e6e6"/>
      <path id="Path_1180" data-name="Path 1180" d="M98.78,305.665h32.2a4.507,4.507,0,0,1,4.507,4.507v.139a1.644,1.644,0,0,1-1.644,1.644H98.78v-6.291Z" transform="translate(-26.27 -121.659)" fill="#e6e6e6"/>
      <path id="Path_1181" data-name="Path 1181" d="M142.166,364.832a.734.734,0,0,1-.734-.58l-10.277-49.534h-17.9l-10.277,49.534a.749.749,0,1,1-1.468-.3l10.4-50.114a.734.734,0,0,1,.734-.587h19.085a.734.734,0,0,1,.734.587l10.409,50.114a.734.734,0,0,1-.573.866.522.522,0,0,1-.139.015Z" transform="translate(-26.993 -123.68)" fill="#e6e6e6"/>
      <path id="Path_1182" data-name="Path 1182" d="M103.006,364.832a.734.734,0,0,1-.734-.58L92,314.718H74.1L63.823,364.252a.749.749,0,1,1-1.468-.3l10.409-50.114a.734.734,0,0,1,.734-.587H92.583a.734.734,0,0,1,.734.587l10.4,50.114a.734.734,0,0,1-.573.866.478.478,0,0,1-.139.015Z" transform="translate(-16.579 -123.68)" fill="#e6e6e6"/>
    </g>
    <g id="freepik--Shadow--inject-3" transform="translate(41.188 311.861)">
      <ellipse id="Ellipse_49" data-name="Ellipse 49" cx="142.326" cy="8.31" rx="142.326" ry="8.31" fill="#f5f5f5"/>
    </g>
    <g id="freepik--character-2--inject-3" transform="translate(197.766 125.294)">
      <path id="Path_1183" data-name="Path 1183" d="M314.61,211.849c-.551,4.287-1.152,8.6-1.791,12.883L310.9,237.769a11.253,11.253,0,0,1-1.857,4.4,14.367,14.367,0,0,1-3.032,3.105,23.417,23.417,0,0,1-6.739,3.406,40.777,40.777,0,0,1-6.8,1.6c-1.138.176-2.268.294-3.406.389s-2.239.154-3.45.154l-.374-4.14c1.975-.455,4.067-.984,6.027-1.637a44.309,44.309,0,0,0,5.682-2.2,18.734,18.734,0,0,0,4.617-2.936,7.144,7.144,0,0,0,1.373-1.7,4.126,4.126,0,0,0,.477-1.615l.213-3.09c.073-1.1.176-2.2.272-3.289q.286-3.281.653-6.54c.477-4.36,1.042-8.684,1.725-13.022Z" transform="translate(-273.623 -166.69)" fill="#e4897b"/>
      <path id="Path_1184" data-name="Path 1184" d="M317.692,202.707s-6.533,16.722-.33,47.868h29.627c.2-4.551-2.657-26.727,1.732-48.154a76.6,76.6,0,0,0-9.917-1.248,107.426,107.426,0,0,0-12.589,0,55.262,55.262,0,0,0-8.522,1.534Z" transform="translate(-281.455 -164.118)" fill="#fff000"/>
      <path id="Path_1186" data-name="Path 1186" d="M322.339,207.015c1.865,4.955-2.606,21.567-2.606,21.567l-12.3-6.151s.58-8.28,3.4-14.681S320.327,201.583,322.339,207.015Z" transform="translate(-279.525 -164.638)" fill="#fff000"/>
      <path id="Path_1188" data-name="Path 1188" d="M362.968,402.294h-5.542L353.11,389.47h5.542Z" transform="translate(-291.673 -214.244)" fill="#e4897b"/>
      <path id="Path_1189" data-name="Path 1189" d="M303.9,389.47l.756,6.614H310.2l-.763-6.614Z" transform="translate(-278.586 -214.244)" fill="#ce6f64"/>
      <path id="Path_1190" data-name="Path 1190" d="M358.652,389.47H353.11l2.232,6.614h5.535Z" transform="translate(-291.673 -214.244)" fill="#ce6f64"/>
      <path id="Path_1191" data-name="Path 1191" d="M329.67,268.54s-11.011,30.83-7.553,46.693c3.773,17.36,22.2,47.405,22.2,47.405h10.145s-13.573-28.628-15.731-45.827c-2.342-18.66,10.057-34.4,10.057-48.272Z" transform="translate(-283.252 -182.083)" fill="#5c2d91"/>
      <path id="Path_1192" data-name="Path 1192" d="M329.67,268.54s-11.011,30.83-7.553,46.693c3.773,17.36,22.2,47.405,22.2,47.405h10.145s-13.573-28.628-15.731-45.827c-2.342-18.66,10.057-34.4,10.057-48.272Z" transform="translate(-283.252 -182.083)" opacity="0.7"/>
      <path id="Path_1193" data-name="Path 1193" d="M310.9,402.294h-5.535L303.89,389.47h5.542Z" transform="translate(-278.583 -214.244)" fill="#e4897b"/>
      <path id="Path_1194" data-name="Path 1194" d="M310.722,268.54s-21.589,29.927-20.987,46.811c.624,17.566,9.073,47.288,9.073,47.288h9.381s-3.839-28.694-3.428-45.945c.455-18.807,25.435-33.649,25.435-48.154Z" transform="translate(-274.816 -182.083)" fill="#5c2d91"/>
      <path id="Path_1195" data-name="Path 1195" d="M310.722,268.54s-21.589,29.927-20.987,46.811c.624,17.566,9.073,47.288,9.073,47.288h9.381s-3.839-28.694-3.428-45.945c.455-18.807,25.435-33.649,25.435-48.154Z" transform="translate(-274.816 -182.083)" opacity="0.7"/>
      <path id="Path_1196" data-name="Path 1196" d="M354.869,406.06h6.753a.477.477,0,0,1,.47.382l1.094,4.918a.815.815,0,0,1-.807.991c-2.2-.037-3.758-.169-6.5-.169-1.681,0-5.138.176-7.473.176s-2.628-2.3-1.674-2.5c4.265-.94,5.872-2.2,7.238-3.45a1.336,1.336,0,0,1,.9-.345Z" transform="translate(-289.842 -218.656)" fill="#1b0d2b"/>
      <path id="Path_1197" data-name="Path 1197" d="M301.151,406.06H307.2a.492.492,0,0,1,.477.382l1.094,4.918a.815.815,0,0,1-.8.991c-2.2-.037-5.337-.169-8.075-.169-3.208,0-5.975.176-9.734.176-2.276,0-2.936-2.3-1.953-2.5,4.331-.954,7.869-1.05,11.613-3.362a2.555,2.555,0,0,1,1.329-.433Z" transform="translate(-274.296 -218.656)" fill="#1b0d2b"/>
      <path id="Path_1198" data-name="Path 1198" d="M287.061,259.05l-6.041.4,2.826,6.482a5.315,5.315,0,0,0,4.97-3.883Z" transform="translate(-272.501 -179.559)" fill="#e4897b"/>
      <path id="Path_1199" data-name="Path 1199" d="M276.57,261.648l3.355,4.536,2.738-.1-2.826-6.482Z" transform="translate(-271.318 -179.706)" fill="#e4897b"/>
      <path id="Path_1200" data-name="Path 1200" d="M352.682,215.6c.969-4.889,2.855-4.045,4.639-1.637a154.184,154.184,0,0,0-1.057,19.533C355.016,231.425,351.067,223.791,352.682,215.6Z" transform="translate(-291.457 -167.057)" opacity="0.2"/>
      <path id="Path_1201" data-name="Path 1201" d="M341.322,181.92c-.793,4.052-1.586,11.473,1.248,14.182,0,0-1.108,4.1-8.64,4.1-8.273,0-3.949-4.1-3.949-4.1,4.514-1.079,4.4-4.4,3.612-7.583Z" transform="translate(-285.221 -159.047)" fill="#e4897b"/>
      <path id="Path_1202" data-name="Path 1202" d="M339.891,185.59,335.31,189.5a12.587,12.587,0,0,1,.389,2.2c1.725-.25,4.1-2.143,4.28-3.949a6,6,0,0,0-.088-2.158Z" transform="translate(-286.939 -160.023)" fill="#ce6f64"/>
      <path id="Path_1203" data-name="Path 1203" d="M330.96,160.7c-2.885.683-5.924,9.066-2.782,11.378S336.414,159.432,330.96,160.7Z" transform="translate(-284.689 -153.384)" fill="#263238"/>
      <path id="Path_1204" data-name="Path 1204" d="M341.408,171.861c-1.608,5.256-2.283,8.412-5.638,10.5-5.036,3.149-11.011-.874-11.011-6.5,0-5.072,2.635-12.809,8.368-13.683a7.495,7.495,0,0,1,8.28,9.682Z" transform="translate(-284.133 -153.774)" fill="#e4897b"/>
      <path id="Path_1205" data-name="Path 1205" d="M344.166,178.063c-3.09.484-5.527-11.011,2.591-11.9C356.6,165.048,349.143,177.285,344.166,178.063Z" transform="translate(-288.521 -154.838)" fill="#263238"/>
      <path id="Path_1206" data-name="Path 1206" d="M344.487,164.817c-3.883.073-15.239-2.254-16.707-8.552-.6-2.584,3.868-5.961,8.376-5.454-5.953,2.613-1.277,6.79,5.036,6.24C348.407,156.412,349.728,164.722,344.487,164.817Z" transform="translate(-284.922 -150.761)" fill="#263238"/>
      <path id="Path_1207" data-name="Path 1207" d="M352.91,166.918s3.92-.286,2.936,3.208A4.4,4.4,0,0,0,352.91,166.918Z" transform="translate(-291.62 -155.056)" fill="#263238"/>
      <path id="Path_1208" data-name="Path 1208" d="M351.48,166.191s3.369,2.033,4.052-1.542A4.448,4.448,0,0,1,351.48,166.191Z" transform="translate(-291.239 -154.454)" fill="#263238"/>
      <path id="Path_1209" data-name="Path 1209" d="M346.818,182.713a5.241,5.241,0,0,1-3.707,1.468c-1.828-.037-2.2-1.8-1.27-3.252.852-1.307,2.833-2.87,4.456-2.129A2.354,2.354,0,0,1,346.818,182.713Z" transform="translate(-288.545 -158.167)" fill="#e4897b"/>
      <path id="Path_1210" data-name="Path 1210" d="M349.583,395.655h13.264v-3.567l-14.828-.228Z" transform="translate(-290.319 -214.879)" fill="#fff000"/>
      <path id="Path_1211" data-name="Path 1211" d="M298.684,395.655h13.257v-3.612l-14.821-.184Z" transform="translate(-276.783 -214.879)" fill="#fff000"/>
      <path id="Path_1212" data-name="Path 1212" d="M335.534,174.456c-.1.433-.418.734-.734.661s-.426-.477-.323-.91.418-.734.734-.661S335.636,174.023,335.534,174.456Z" transform="translate(-286.708 -156.817)" fill="#263238"/>
      <path id="Path_1213" data-name="Path 1213" d="M328.844,172.847c-.1.44-.418.734-.734.668s-.426-.477-.323-.91.418-.734.734-.668S328.946,172.414,328.844,172.847Z" transform="translate(-284.928 -156.39)" fill="#263238"/>
      <path id="Path_1214" data-name="Path 1214" d="M330.223,174a15.986,15.986,0,0,1-2.973,3.215,2.577,2.577,0,0,0,1.982.888Z" transform="translate(-284.796 -156.941)" fill="#de5753"/>
      <path id="Path_1215" data-name="Path 1215" d="M332.235,181.4a4.322,4.322,0,0,1-.984-.117.139.139,0,0,1-.1-.161.132.132,0,0,1,.161-.1,3.523,3.523,0,0,0,3.127-.675.132.132,0,1,1,.184.191,3.619,3.619,0,0,1-2.386.859Z" transform="translate(-285.832 -158.619)" fill="#263238"/>
      <path id="Path_1216" data-name="Path 1216" d="M337.844,172.432a.272.272,0,0,1-.235-.161,2.085,2.085,0,0,0-1.468-1.241.257.257,0,0,1-.213-.3.264.264,0,0,1,.3-.22,2.591,2.591,0,0,1,1.82,1.549.264.264,0,0,1-.132.352A.293.293,0,0,1,337.844,172.432Z" transform="translate(-287.102 -156.012)" fill="#263238"/>
      <path id="Path_1217" data-name="Path 1217" d="M326.9,169.672a.25.25,0,0,1-.169-.059.264.264,0,0,1-.037-.367,2.6,2.6,0,0,1,2.2-1,.264.264,0,0,1,.228.294.257.257,0,0,1-.286.228,2.085,2.085,0,0,0-1.718.807A.25.25,0,0,1,326.9,169.672Z" transform="translate(-284.634 -155.41)" fill="#263238"/>
      <path id="Path_1218" data-name="Path 1218" d="M354.993,406.873a1.7,1.7,0,0,1-1.094-.279.793.793,0,0,1-.272-.7.411.411,0,0,1,.22-.367c.609-.316,2.4.778,2.606.91a.128.128,0,0,1-.044.235,6.312,6.312,0,0,1-1.417.2Zm-.822-1.145a.3.3,0,0,0-.169.037.154.154,0,0,0-.088.147.528.528,0,0,0,.183.477,2.628,2.628,0,0,0,1.96.1A5.306,5.306,0,0,0,354.171,405.728Z" transform="translate(-291.809 -218.499)" fill="#5c2d91"/>
      <path id="Path_1219" data-name="Path 1219" d="M356.829,406.219a.081.081,0,0,1-.059,0c-.58-.308-1.681-1.52-1.564-2.136a.411.411,0,0,1,.411-.345.734.734,0,0,1,.565.169c.639.521.734,2.121.778,2.2a.154.154,0,0,1-.059.125A.125.125,0,0,1,356.829,406.219Zm-1.116-2.246h-.059c-.176,0-.184.1-.191.132-.073.367.631,1.285,1.2,1.718a3.185,3.185,0,0,0-.653-1.74.477.477,0,0,0-.3-.11Z" transform="translate(-292.228 -218.037)" fill="#5c2d91"/>
      <path id="Path_1220" data-name="Path 1220" d="M302.241,406.871a2.114,2.114,0,0,1-1.351-.338.734.734,0,0,1-.242-.639.441.441,0,0,1,.213-.352c.675-.374,2.9.734,3.156.888a.132.132,0,0,1,.066.132.125.125,0,0,1-.1.11A9.238,9.238,0,0,1,302.241,406.871Zm-1.006-1.145a.455.455,0,0,0-.242.051.161.161,0,0,0-.088.139.5.5,0,0,0,.161.418,3.584,3.584,0,0,0,2.474.154A7.135,7.135,0,0,0,301.235,405.726Z" transform="translate(-277.72 -218.498)" fill="#5c2d91"/>
      <path id="Path_1221" data-name="Path 1221" d="M304.443,406.216h-.051c-.668-.3-1.989-1.468-1.894-2.121,0-.147.132-.33.492-.367a.94.94,0,0,1,.734.22,3.546,3.546,0,0,1,.859,2.136.118.118,0,0,1-.051.117A.155.155,0,0,1,304.443,406.216Zm-1.351-2.246h-.073c-.242,0-.257.117-.257.147-.066.382.837,1.321,1.52,1.732a3.1,3.1,0,0,0-.734-1.71.675.675,0,0,0-.455-.169Z" transform="translate(-278.212 -218.033)" fill="#5c2d91"/>
      <path id="Path_1222" data-name="Path 1222" d="M302.85,210.68a11.745,11.745,0,0,1,16.4,2.936,11.782,11.782,0,0,1,13.47,19.335l-19.364,13.47-13.463-19.342a11.745,11.745,0,0,1,2.958-16.4Z" transform="translate(-276.956 -166.13)" fill="#92278f"/>
      <path id="Path_1223" data-name="Path 1223" d="M302.85,210.68a11.745,11.745,0,0,1,16.4,2.936,11.782,11.782,0,0,1,13.47,19.335l-19.364,13.47-13.463-19.342a11.745,11.745,0,0,1,2.958-16.4Z" transform="translate(-276.956 -166.13)" fill="#fff" opacity="0.3"/>
      <path id="Path_1224" data-name="Path 1224" d="M269.639,233.255a9.631,9.631,0,0,1,11.459-7.341,9.624,9.624,0,0,1,18.8,4.1l-4.1,18.8-18.8-4.1a9.623,9.623,0,0,1-7.355-11.459Z" transform="translate(-269.415 -168.791)" fill="#92278f"/>
      <path id="Path_1225" data-name="Path 1225" d="M269.639,233.255a9.631,9.631,0,0,1,11.459-7.341,9.624,9.624,0,0,1,18.8,4.1l-4.1,18.8-18.8-4.1a9.623,9.623,0,0,1-7.355-11.459Z" transform="translate(-269.415 -168.791)" fill="#fff" opacity="0.5"/>
      <path id="Path_1226" data-name="Path 1226" d="M284.514,243.656a16.193,16.193,0,0,1,22.455-4.448,16.192,16.192,0,1,1,26.905,18.023l-18.016,26.894-26.9-18.021a16.149,16.149,0,0,1-4.441-22.448Z" transform="translate(-272.699 -172.372)" fill="#92278f"/>
      <path id="Path_1227" data-name="Path 1227" d="M284.514,243.656a16.193,16.193,0,0,1,22.455-4.448,16.192,16.192,0,1,1,26.905,18.023l-18.016,26.894-26.9-18.021a16.149,16.149,0,0,1-4.441-22.448Z" transform="translate(-272.699 -172.372)" fill="#fff" opacity="0.7"/>
      <path id="Path_1228" data-name="Path 1228" d="M359.38,208.81c.484,1.028.881,1.938,1.263,2.936s.734,1.923,1.116,2.936c.734,1.945,1.343,3.92,1.894,5.939a62.508,62.508,0,0,1,1.4,6.159l.264,1.578.191,1.608c.073.536.1,1.086.139,1.63l.059.822v1.277a11.393,11.393,0,0,1-1.233,4.133,25.054,25.054,0,0,1-1.762,2.988,47.611,47.611,0,0,1-3.971,4.977,79.56,79.56,0,0,1-8.955,8.427l-2.936-2.936c2.4-3.061,4.786-6.225,6.952-9.367a53.727,53.727,0,0,0,2.936-4.742,18.226,18.226,0,0,0,1.057-2.276,4.47,4.47,0,0,0,.367-1.578h0v-.169l-.1-.661c-.066-.448-.125-.881-.228-1.336l-.264-1.336-.316-1.351c-.44-1.8-.954-3.6-1.534-5.4s-1.211-3.6-1.879-5.388c-.323-.9-.668-1.784-1.02-2.672l-1.05-2.584Z" transform="translate(-290.008 -166.198)" fill="#e4897b"/>
      <path id="Path_1229" data-name="Path 1229" d="M359.434,203.225c4.94,1.9,8.486,19.974,8.486,19.974l-11.745,4.632s-3.942-9.08-5.263-15.8C349.5,204.964,353.841,201.067,359.434,203.225Z" transform="translate(-291.017 -164.555)" fill="#fff000"/>
      <path id="Path_1231" data-name="Path 1231" d="M346.632,265.55l-5.432,1.468,4.5,5.454s4.353-2.254,3.413-4.7Z" transform="translate(-288.505 -181.288)" fill="#e4897b"/>
      <path id="Path_1232" data-name="Path 1232" d="M335.84,272.056l3.935,4.272,4.5-3.355-4.5-5.454Z" transform="translate(-287.08 -181.812)" fill="#e4897b"/>
    </g>
  </g>
</svg>
