<svg id="check" xmlns="http://www.w3.org/2000/svg" xmlns:xlink="http://www.w3.org/1999/xlink" width="53.165" height="53.165" viewBox="0 0 53.165 53.165">
  <defs>
    <linearGradient id="linear-gradient" x1="0.5" x2="0.5" y2="1" gradientUnits="objectBoundingBox">
      <stop offset="0" stop-color="#92278f"/>
      <stop offset="1" stop-color="#5c2d91"/>
    </linearGradient>
  </defs>
  <path id="Path_6342" data-name="Path 6342" d="M1011.848,7314.388s-.206,6.993,0,7.816-1.132,1.336,1.131,4.525a38.706,38.706,0,0,0,6.479,6.479,6.21,6.21,0,0,0,3.291,2.057c2.262.617-.926,3.5,5.348,1.028s4.628-1.337,8.639-3.084,4.936.308,6.376-2.982,2.982,4.732,2.777-5.348,0-8.639,0-10.49,1.44-1.338,0-4.114,6.17-1.235-1.851-3.086-5.45-4.627-12.135-1.85-3.394.822-7.61,3.187-3.8,1.852-4.833,2.47S1011.848,7314.388,1011.848,7314.388Z" transform="translate(-1003.368 -7294.778)" fill="#fff000"/>
  <path id="check-2" data-name="check" d="M28.583,55.165A26.583,26.583,0,1,0,2,28.583,26.582,26.582,0,0,0,28.583,55.165Zm9.4-35.982a2.66,2.66,0,1,1,3.759,3.764L26.714,37.974l-.011.011a2.65,2.65,0,0,1-3.759,0l-.011-.011-7.51-7.51a2.658,2.658,0,1,1,3.759-3.759l5.641,5.638L37.982,19.186Z" transform="translate(-2 -2)" fill-rule="evenodd" fill="url(#linear-gradient)"/>
</svg>
