<svg id="gift" xmlns="http://www.w3.org/2000/svg" width="94.738" height="81.666" viewBox="0 0 94.738 81.666">
  <path id="Path_4979" data-name="Path 4979" d="M2498.781,1583.239v29.134l38.01,17.224v-36.279Z" transform="translate(-2496.846 -1547.931)" fill="#f52e2e"/>
  <path id="Path_4980" data-name="Path 4980" d="M2780.146,1598.009l53.157-9.345v30.055l-53.157,15.569Z" transform="translate(-2740.202 -1552.622)" fill="#c11919"/>
  <path id="Path_4981" data-name="Path 4981" d="M2486.395,1524.582l-1.935-1.1v-8.062s39.945,8.795,39.945,9.894v9.345Z" transform="translate(-2484.459 -1489.274)" fill="#f52e2e"/>
  <path id="Path_4982" data-name="Path 4982" d="M2833.3,1516.811l1.636-.275v-10.948l-54.794,11.223v9.738Z" transform="translate(-2740.202 -1480.769)" fill="#c11919"/>
  <path id="Path_4983" data-name="Path 4983" d="M2484.459,1458.65l57.046-8.867,37.692,7.538-54.793,11.223Z" transform="translate(-2484.459 -1432.503)" fill="#f52e2e"/>
  <path id="Path_4984" data-name="Path 4984" d="M2833.3,1588.664l-53.157,10.657v3.31s33.924-8.274,42.934-8,10.223.643,10.223.643Z" transform="translate(-2740.202 -1552.622)" fill="#a71818"/>
  <path id="Path_4985" data-name="Path 4985" d="M2498.781,1583.239l38.01,11.39v3.309l-38.01-13.967Z" transform="translate(-2496.846 -1547.931)" fill="#db2525"/>
  <path id="Path_4986" data-name="Path 4986" d="M2506.819,1632.36l-.5-1.059-1.17.024.87-1.047-.171-1.231,1.036.412,1.064-.784-.23,1.3.829.746-1.179.393Z" transform="translate(-2502.355 -1587.228)" fill="#fff"/>
  <path id="Path_4987" data-name="Path 4987" d="M2521.012,1765.676l-1.028-.4-.912.621.062-1.1-.872-.675,1.066-.281.373-1.038.6.927,1.1.034-.7.854Z" transform="translate(-2513.696 -1703.236)" fill="#fff"/>
  <path id="Path_4988" data-name="Path 4988" d="M2560.127,1681.442l-1.611-.917-1.668.807.375-1.815-1.283-1.338,1.843-.2.875-1.634.764,1.689,1.824.328-1.37,1.248Z" transform="translate(-2546.283 -1628.454)" fill="#fff"/>
  <path id="Path_4989" data-name="Path 4989" d="M2623.4,1784.1l-.956-.485-.942.512.166-1.059-.778-.737,1.059-.169.46-.968.488.954,1.063.139-.756.759Z" transform="translate(-2602.458 -1719.141)" fill="#fff"/>
  <path id="Path_4990" data-name="Path 4990" d="M2657.357,1662.97l-1.615-.211-1.09,1.211-.3-1.6-1.488-.662,1.431-.778.17-1.62,1.182,1.12,1.593-.339-.7,1.471Z" transform="translate(-2630.116 -1613.723)" fill="#fff"/>
  <path id="Path_4991" data-name="Path 4991" d="M2692.865,1748.263l-.64-.482-.761.255.261-.759-.477-.645.8.014.466-.653.234.767.766.241-.657.46Z" transform="translate(-2663.313 -1688.698)" fill="#fff"/>
  <path id="Path_4992" data-name="Path 4992" d="M2741.894,1702.379l-1.008-.409-.909.6.078-1.085-.85-.679,1.056-.261.384-1.018.574.923,1.087.05-.7.832Z" transform="translate(-2704.792 -1648.508)" fill="#fff"/>
  <path id="Path_4993" data-name="Path 4993" d="M2712.29,1835.044l-1.629-1.009-1.755.771.455-1.861-1.275-1.431,1.911-.142.967-1.655.726,1.774,1.872.408-1.463,1.238Z" transform="translate(-2677.877 -1761.112)" fill="#fff"/>
  <path id="Path_4994" data-name="Path 4994" d="M2803.229,1818.93l-1.8-.272-1.242,1.326-.3-1.792-1.644-.772,1.613-.836.226-1.8,1.293,1.276,1.784-.342-.813,1.624Z" transform="translate(-2755.861 -1748.194)" fill="#aee4ff"/>
  <path id="Path_4995" data-name="Path 4995" d="M2846.979,1726.447l-1.593-.575-1.377.986.054-1.693-1.364-1,1.628-.471.534-1.607.951,1.4,1.694.012-1.04,1.337Z" transform="translate(-2794.305 -1668.016)" fill="#aee4ff"/>
  <path id="Path_4996" data-name="Path 4996" d="M3122.5,1660.391l-.643-.588-.849.2.36-.793-.448-.747.865.1.571-.657.175.853.8.341-.758.429Z" transform="translate(-3034.942 -1612.506)" fill="#aee4ff"/>
  <path id="Path_4997" data-name="Path 4997" d="M3030.481,1645.041l-.464-.634-.785.023.459-.637-.264-.74.748.24.622-.48,0,.786.649.443-.747.245Z" transform="translate(-2955.639 -1599.456)" fill="#aee4ff"/>
  <path id="Path_4998" data-name="Path 4998" d="M2947.237,1749.406l-.873-1.566-1.786-.168,1.219-1.315-.392-1.75,1.627.753,1.544-.913-.214,1.78,1.345,1.186-1.759.347Z" transform="translate(-2882.421 -1687.36)" fill="#aee4ff"/>
  <path id="Path_4999" data-name="Path 4999" d="M2981.344,1700.739l-1.029-.622-1.1.495.274-1.171-.81-.889,1.2-.1.6-1.045.467,1.108,1.177.243-.909.787Z" transform="translate(-2911.918 -1646.675)" fill="#aee4ff"/>
  <path id="Path_5000" data-name="Path 5000" d="M3086.52,1777.492l-.759-.721-1.023.216.451-.944-.522-.907,1.037.137.7-.777.19,1.029.955.427-.92.5Z" transform="translate(-3003.585 -1713.352)" fill="#aee4ff"/>
  <path id="Path_5001" data-name="Path 5001" d="M3138.362,1717.608l-.448-.294-.5.2.141-.516-.345-.409.535-.025.283-.454.188.5.52.128-.418.334Z" transform="translate(-3049.033 -1662.853)" fill="#aee4ff"/>
  <path id="Path_5002" data-name="Path 5002" d="M2804.246,1700.877l-.531-.158-.431.348-.015-.554-.464-.3.522-.185.144-.535.337.439.553-.028-.314.456Z" transform="translate(-2759.8 -1648.479)" fill="#aee4ff"/>
  <path id="Path_5003" data-name="Path 5003" d="M2928.812,1672.182l-.382-.366-.519.107.23-.477-.262-.46.525.072.356-.392.094.521.483.218-.467.25Z" transform="translate(-2867.977 -1623.547)" fill="#aee4ff"/>
  <path id="Path_5004" data-name="Path 5004" d="M2900.53,1823.606l-1.517-1.77-2.318.246,1.214-1.99-.949-2.128,2.267.541,1.73-1.561.187,2.323,2.02,1.163-2.151.9Z" transform="translate(-2841.006 -1750.064)" fill="#aee4ff"/>
  <path id="Path_5005" data-name="Path 5005" d="M2595.642,1543.629l-.421,40.388,7.915,3.587-.127-42.15Z" transform="translate(-2580.258 -1513.671)" fill="#f4be38"/>
  <path id="Path_5006" data-name="Path 5006" d="M2963.567,1541.8l.6,43.267,7.612-2.229-1.125-42.489Z" transform="translate(-2898.844 -1510.837)" fill="#f4be38"/>
  <path id="Path_5007" data-name="Path 5007" d="M3048.534,1680.376l-1.931-1.26-2.133.877.6-2.227-1.493-1.758,2.3-.115,1.211-1.963.822,2.155,2.241.545-1.8,1.448Z" transform="translate(-2968.047 -1626.369)" fill="#aee4ff"/>
  <path id="Path_5008" data-name="Path 5008" d="M2605.7,1481.134l53.932-10.575-6.479-1.3-54.819,10.046Z" transform="translate(-2582.954 -1449.352)" fill="#ffde39"/>
  <path id="Path_5009" data-name="Path 5009" d="M2723.593,1487.19l-37.481-9.054,5.969-.928,38.6,8.53Z" transform="translate(-2658.87 -1456.224)" fill="#ffde39"/>
  <path id="Path_5010" data-name="Path 5010" d="M2817.336,1468.466c-.259-.167-.6.008-.836.2a1.658,1.658,0,0,0-.685,1.058c-.04.43.319.906.746.84a1.542,1.542,0,0,0,.645-.4,2.088,2.088,0,0,1,1.61-.4,1.044,1.044,0,0,0,.634.01.551.551,0,0,0,.139-.784,1.235,1.235,0,0,0-.762-.442,3.53,3.53,0,0,0-1.5-.034Z" transform="translate(-2771.05 -1448.605)" fill="#fff" opacity="0.33"/>
  <g id="Group_329" data-name="Group 329" transform="translate(20.528)">
    <path id="Path_5011" data-name="Path 5011" d="M2836.195,1321.95a10.055,10.055,0,0,0-4.812,2.529,19.937,19.937,0,0,0-3.421,4.291,39.565,39.565,0,0,0-5.738,16.629,3.378,3.378,0,0,0,.191,1.942c.576,1.093,2.074,1.265,3.294,1.074a13.05,13.05,0,0,0,6.3-3.077,28.822,28.822,0,0,0,4.668-5.325,31.255,31.255,0,0,0,3.95-6.93,9.723,9.723,0,0,0,.76-3.726,10.533,10.533,0,0,0-.507-2.674C2840.147,1324.225,2839.392,1321.35,2836.195,1321.95Z" transform="translate(-2797.078 -1321.87)" fill="#f4be38"/>
    <path id="Path_5012" data-name="Path 5012" d="M2838.378,1332.845a13.069,13.069,0,0,0,.9-8.767c3.292,1.093,5.833,4.061,7.329,7.085a31.218,31.218,0,0,1,2.633,9.726,3.26,3.26,0,0,1-.253,2.262,3.127,3.127,0,0,1-.658.657,32.509,32.509,0,0,1-19.452,7.161,20.023,20.023,0,0,1-3.362-.162,3.075,3.075,0,0,1-1.84-.752c-1.31-1.376.8-2.182,1.713-2.763a39.68,39.68,0,0,0,3.845-2.791,34.724,34.724,0,0,0,6.482-6.969A29.6,29.6,0,0,0,2838.378,1332.845Z" transform="translate(-2798.015 -1323.78)" fill="#ffde39"/>
    <path id="Path_5013" data-name="Path 5013" d="M2675.669,1345.636a10.055,10.055,0,0,1,5.232,1.478,19.929,19.929,0,0,1,4.235,3.49,39.566,39.566,0,0,1,9.057,15.08,3.382,3.382,0,0,1,.216,1.94c-.337,1.189-1.767,1.667-3,1.733a13.051,13.051,0,0,1-6.8-1.706,28.854,28.854,0,0,1-5.669-4.244,31.268,31.268,0,0,1-5.3-5.962,9.732,9.732,0,0,1-1.515-3.488,10.5,10.5,0,0,1-.057-2.721C2672.274,1348.68,2672.417,1345.711,2675.669,1345.636Z" transform="translate(-2667.199 -1342.424)" fill="#f4be38"/>
    <path id="Path_5014" data-name="Path 5014" d="M2645.529,1358.907a13.069,13.069,0,0,1-2.695-8.391c-2.995,1.75-4.865,5.181-5.7,8.449a31.209,31.209,0,0,0-.562,10.061,3.254,3.254,0,0,0,.717,2.16,3.1,3.1,0,0,0,.78.507,32.5,32.5,0,0,0,20.513,2.978,20,20,0,0,0,3.256-.855,3.074,3.074,0,0,0,1.645-1.117c1-1.618-1.24-1.969-2.248-2.349a39.636,39.636,0,0,1-4.34-1.935,34.72,34.72,0,0,1-7.784-5.476A29.641,29.641,0,0,1,2645.529,1358.907Z" transform="translate(-2636.417 -1346.646)" fill="#ffde39"/>
    <path id="Path_5015" data-name="Path 5015" d="M2848.642,1453.91l1.644-1.291a1.617,1.617,0,0,1-.58,1.291,26.4,26.4,0,0,1-6.117,4.959,1.643,1.643,0,0,0,1.565,0l6.422-2.256-3.635,2.166a3.234,3.234,0,0,0,1.434-.16l3.921-1.051a13.737,13.737,0,0,1-5.4,2.8,41.063,41.063,0,0,1-6.029,1.089,2.982,2.982,0,0,1-1.823-.147.974.974,0,0,1-.512-.627c-.092-.456.262-.868.59-1.2a6.61,6.61,0,0,1,1.516-1.39c.813-.415,1.726-.63,2.543-1.072A30.683,30.683,0,0,0,2848.642,1453.91Z" transform="translate(-2812.081 -1434.956)" fill="#f4be38"/>
    <path id="Path_5016" data-name="Path 5016" d="M2719.892,1476.841a31.878,31.878,0,0,1-4.962-1.535l-2.427-.9c-.038.675.675,1.119,1.3,1.385a30.018,30.018,0,0,0,5.786,1.814,16.081,16.081,0,0,1-3.668.064,2.315,2.315,0,0,0,1.844.683,27.789,27.789,0,0,1,5.5.944c-.36.885-1.489,1.112-2.442,1.182a44.108,44.108,0,0,1-6.32.012c-.056.529.67.728,1.2.729a62.32,62.32,0,0,0,10.514-.582c.726-.123,1.586-.4,1.752-1.116.149-.643-.372-1.245-.91-1.627a4.061,4.061,0,0,0-3.072-.942A12.106,12.106,0,0,1,2719.892,1476.841Z" transform="translate(-2702.223 -1453.802)" fill="#f4be38"/>
    <g id="Group_328" data-name="Group 328" transform="translate(22.017 20.107)">
      <path id="Path_5017" data-name="Path 5017" d="M2799.521,1473.492a3.823,3.823,0,0,0,1.869,4.292,4.858,4.858,0,0,0,1.771.472c1.776.163,3.784-.5,4.563-2.106a3.611,3.611,0,0,0-.6-3.842C2805.049,1469.928,2800.449,1470.114,2799.521,1473.492Z" transform="translate(-2799.398 -1470.71)" fill="#ffde39"/>
      <path id="Path_5018" data-name="Path 5018" d="M2807.724,1494.145c-.778,1.6-2.787,2.269-4.563,2.106a4.862,4.862,0,0,1-1.771-.472,3.754,3.754,0,0,1-1.863-2.39l-.006.021a3.822,3.822,0,0,0,1.869,4.292,4.857,4.857,0,0,0,1.771.472c1.776.163,3.785-.5,4.563-2.106a3.4,3.4,0,0,0,.178-2.384A3.015,3.015,0,0,1,2807.724,1494.145Z" transform="translate(-2799.398 -1490.326)" fill="#f4be38"/>
    </g>
    <path id="Path_5019" data-name="Path 5019" d="M2651.792,1383.01a32.3,32.3,0,0,0-.426,5.988,3.1,3.1,0,0,0,.382,1.69.612.612,0,0,0,.427.3c.339.024.527-.38.6-.712.259-1.241.232-2.524.4-3.78a5.459,5.459,0,0,1,1.531-3.395,5.748,5.748,0,0,0,1.071-.989c.7-1.056.242-4.076-1.487-3.674S2652.027,1381.593,2651.792,1383.01Z" transform="translate(-2649.34 -1370.769)" fill="#fff" opacity="0.33"/>
    <path id="Path_5020" data-name="Path 5020" d="M2650.361,1484.531c.129.281.313.6.621.624.373.025.6-.4.7-.76a2.4,2.4,0,0,0,.108-1.047c-.094-.535-.707-1.127-1.27-.906C2649.67,1482.774,2650.109,1483.978,2650.361,1484.531Z" transform="translate(-2648.183 -1460.709)" fill="#fff" opacity="0.33"/>
  </g>
  <path id="Path_5021" data-name="Path 5021" d="M2810.171,1475.518a1.679,1.679,0,0,0-.521,1.483.977.977,0,0,0,1.235.733c.433-.187.6-.714.96-1.02a3.327,3.327,0,0,1,1.868-.421.83.83,0,0,0,.613-.278.586.586,0,0,0-.02-.633,1.15,1.15,0,0,0-.524-.4A3.36,3.36,0,0,0,2810.171,1475.518Z" transform="translate(-2765.695 -1454.044)" fill="#fff" opacity="0.59"/>
</svg>
