<svg xmlns="http://www.w3.org/2000/svg" xmlns:xlink="http://www.w3.org/1999/xlink" width="226.734" height="67.18" viewBox="0 0 226.734 67.18">
  <defs>
    <linearGradient id="linear-gradient" x1="0.5" y1="-0.003" x2="0.5" y2="0.993" gradientUnits="objectBoundingBox">
      <stop offset="0" stop-color="#267caf"/>
      <stop offset="0.286" stop-color="#4a92b4"/>
      <stop offset="0.767" stop-color="#79bcba"/>
      <stop offset="1" stop-color="#88cebc"/>
    </linearGradient>
    <linearGradient id="linear-gradient-2" x1="0.638" y1="0.141" x2="0.339" y2="0.948" gradientUnits="objectBoundingBox">
      <stop offset="0" stop-color="#f48879"/>
      <stop offset="0.119" stop-color="#f5907a"/>
      <stop offset="0.713" stop-color="#fbb777"/>
      <stop offset="1" stop-color="#fdc874"/>
    </linearGradient>
    <linearGradient id="linear-gradient-3" x1="0.866" y1="0.172" x2="0.048" y2="1.029" gradientUnits="objectBoundingBox">
      <stop offset="0" stop-color="#eb413d"/>
      <stop offset="0.167" stop-color="#d94452"/>
      <stop offset="0.575" stop-color="#af487a"/>
      <stop offset="0.862" stop-color="#954b92"/>
      <stop offset="1" stop-color="#894a9c"/>
    </linearGradient>
    <linearGradient id="linear-gradient-4" x1="0.106" y1="0.073" x2="0.888" y2="0.85" gradientUnits="objectBoundingBox">
      <stop offset="0" stop-color="#54c0ac"/>
      <stop offset="1" stop-color="#dde79a"/>
    </linearGradient>
  </defs>
  <g id="store" transform="translate(0)">
    <path id="Path_5026" data-name="Path 5026" d="M381.527,362.357a6.435,6.435,0,0,1-6.436,6.434H164.244a6.443,6.443,0,0,1-6.451-6.434V311.046a6.452,6.452,0,0,1,6.451-6.443H375.083a6.442,6.442,0,0,1,6.443,6.441h0l0,51.312Z" transform="translate(-156.298 -303.108)" fill="#fff"/>
    <path id="Path_5027" data-name="Path 5027" d="M370.532,365.736H159.692a7.948,7.948,0,0,1-7.947-7.931V306.5a7.952,7.952,0,0,1,7.947-7.94H370.53a7.956,7.956,0,0,1,7.947,7.94v51.31a7.947,7.947,0,0,1-7.945,7.931Z" transform="translate(-151.745 -298.556)" fill="#6c2b90"/>
    <path id="Path_5028" data-name="Path 5028" d="M381.527,362.357a6.435,6.435,0,0,1-6.436,6.434H164.244a6.443,6.443,0,0,1-6.451-6.434V311.046a6.452,6.452,0,0,1,6.451-6.443H375.083a6.442,6.442,0,0,1,6.443,6.441h0l0,51.312Z" transform="translate(-156.298 -303.108)" fill="#010101"/>
    <path id="Path_5029" data-name="Path 5029" d="M692.759,298.556H579.827l44.234,67.18h68.7a7.952,7.952,0,0,0,7.947-7.936V306.5A7.954,7.954,0,0,0,692.759,298.556Z" transform="translate(-473.973 -298.556)" fill="#fff" opacity="0.1"/>
    <g id="Group_337" data-name="Group 337" transform="translate(23.745 13.093)">
      <path id="Path_5030" data-name="Path 5030" d="M445.748,364.189a4.474,4.474,0,0,1-1.15,3.284,5.109,5.109,0,1,1-3.613-8.7,4.374,4.374,0,0,1,1.971.493,3.576,3.576,0,0,1,1.478,1.149l-.821.821a3.062,3.062,0,0,0-2.627-1.15,3.267,3.267,0,0,0-2.628,1.15,3.965,3.965,0,0,0,0,5.583,4.228,4.228,0,0,0,2.628,1.15,3.6,3.6,0,0,0,2.792-1.15,2.719,2.719,0,0,0,.821-1.971h-3.613v-1.314h4.762v.657Zm7.554-4.106h-4.434v3.12h4.106v1.15h-4.106v3.12H453.3v1.314h-5.747v-9.853H453.3Zm5.419,8.7h-1.314v-8.7h-2.792v-1.149h6.9v1.149h-2.792Zm7.554,0v-9.853h1.314v9.853Zm6.9,0h-1.314v-8.7h-2.792v-1.149H475.8v1.149h-2.792v8.7Zm15.6-1.314a5.155,5.155,0,1,1,1.478-3.613A4.829,4.829,0,0,1,488.772,367.474Zm-6.24-.821a3.876,3.876,0,0,0,2.628,1.15,3.267,3.267,0,0,0,2.627-1.15,3.961,3.961,0,0,0,1.15-2.792,3.382,3.382,0,0,0-1.15-2.791,3.874,3.874,0,0,0-2.627-1.15,3.267,3.267,0,0,0-2.628,1.15,3.962,3.962,0,0,0-1.149,2.791A3.383,3.383,0,0,0,482.532,366.652Zm9.525,2.135v-9.853h1.478l4.762,7.718v-7.718h1.313v9.853H498.3l-5.091-8.046v8.046Z" transform="translate(-389.376 -356.973)" fill="#fff"/>
      <path id="Path_5031" data-name="Path 5031" d="M478.24,425.588a6.909,6.909,0,0,0-7.061,7.061,7.009,7.009,0,0,0,7.061,7.061,6.909,6.909,0,0,0,7.061-7.061A6.813,6.813,0,0,0,478.24,425.588Zm0,11.167a4.283,4.283,0,0,1,0-8.539,3.978,3.978,0,0,1,3.941,4.269A4.076,4.076,0,0,1,478.24,436.755Zm-15.272-11.167a6.909,6.909,0,0,0-7.062,7.061,7.009,7.009,0,0,0,7.062,7.061,6.909,6.909,0,0,0,7.061-7.061A6.813,6.813,0,0,0,462.968,425.588Zm0,11.167a4.283,4.283,0,0,1,0-8.539,3.978,3.978,0,0,1,3.941,4.269A4.076,4.076,0,0,1,462.968,436.755Zm-18.228-9.032v2.956H451.8a6.209,6.209,0,0,1-1.642,3.777,7.268,7.268,0,0,1-5.419,2.135,7.646,7.646,0,0,1-7.718-7.882,7.746,7.746,0,0,1,7.718-7.882,8.143,8.143,0,0,1,5.419,2.135l2.135-2.135a10.523,10.523,0,0,0-7.39-2.956,10.839,10.839,0,1,0,0,21.676,9.45,9.45,0,0,0,7.554-3.12,9.885,9.885,0,0,0,2.628-6.9,6.16,6.16,0,0,0-.164-1.806Zm74.554,2.3a6.381,6.381,0,0,0-5.912-4.434c-3.613,0-6.569,2.792-6.569,7.061a6.872,6.872,0,0,0,6.9,7.061,6.737,6.737,0,0,0,5.748-3.12l-2.3-1.642a4,4,0,0,1-3.448,1.971,3.563,3.563,0,0,1-3.448-2.135l9.36-3.941-.328-.821Zm-9.525,2.3a3.989,3.989,0,0,1,3.613-4.105,2.9,2.9,0,0,1,2.628,1.478l-6.24,2.628Zm-7.718,6.733h3.12V418.527h-3.12Zm-4.926-11.988a5.407,5.407,0,0,0-3.777-1.642,7.056,7.056,0,0,0-6.733,7.061,6.8,6.8,0,0,0,6.733,6.9,4.715,4.715,0,0,0,3.613-1.642h.164v.985c0,2.627-1.478,4.105-3.777,4.105a3.649,3.649,0,0,1-3.449-2.463l-2.627,1.149a6.774,6.774,0,0,0,6.24,4.106c3.613,0,6.568-2.135,6.568-7.225V425.917h-2.956v1.15Zm-3.613,9.689a4.283,4.283,0,0,1,0-8.539c2.135,0,3.777,1.806,3.777,4.269S495.647,436.755,493.512,436.755Zm40.068-18.228h-7.39v20.527h3.12v-7.718h4.27a6.412,6.412,0,1,0,0-12.809Zm.164,9.853h-4.434v-7.062h4.434a3.607,3.607,0,0,1,3.613,3.449,3.758,3.758,0,0,1-3.613,3.613Zm18.885-2.956c-2.3,0-4.6.985-5.419,3.12L550,429.693a2.9,2.9,0,0,1,2.792-1.478,3.086,3.086,0,0,1,3.284,2.627v.164a6.515,6.515,0,0,0-3.12-.821c-2.956,0-5.912,1.642-5.912,4.6,0,2.792,2.464,4.6,5.091,4.6a4.621,4.621,0,0,0,3.941-1.971h.164v1.642H559.2v-7.882a6.215,6.215,0,0,0-6.569-5.747Zm-.328,11.331c-.985,0-2.463-.493-2.463-1.806,0-1.642,1.806-2.135,3.284-2.135a6.346,6.346,0,0,1,2.792.657A3.825,3.825,0,0,1,552.3,436.755Zm17.243-10.838-3.448,8.868h-.164l-3.613-8.868h-3.284l5.419,12.481-3.12,6.9h3.12l8.375-19.378h-3.284Zm-27.588,13.137h3.12V418.527h-3.12Z" transform="translate(-387.876 -401.459)" fill="#fff"/>
      <g id="Group_336" data-name="Group 336" transform="translate(0)">
        <path id="Path_5032" data-name="Path 5032" d="M248.428,353.686a3.211,3.211,0,0,0-.657,2.3v36.291a3.249,3.249,0,0,0,.821,2.3l.164.164,20.363-20.363v-.329Z" transform="translate(-247.771 -353.146)" fill="url(#linear-gradient)"/>
        <path id="Path_5033" data-name="Path 5033" d="M340.172,422.764l-6.733-6.733v-.493l6.733-6.733.164.164,8.047,4.6c2.3,1.314,2.3,3.448,0,4.762Z" transform="translate(-312.255 -394.637)" fill="url(#linear-gradient-2)"/>
        <path id="Path_5034" data-name="Path 5034" d="M277.851,443.6l-6.9-6.9-20.527,20.527c.821.821,1.971.821,3.449.164L277.851,443.6" transform="translate(-249.77 -415.631)" fill="url(#linear-gradient-3)"/>
        <path id="Path_5035" data-name="Path 5035" d="M277.851,365.673l-23.975-13.63c-1.478-.821-2.627-.657-3.449.164l20.527,20.363,6.9-6.9Z" transform="translate(-249.77 -351.503)" fill="url(#linear-gradient-4)"/>
      </g>
    </g>
  </g>
</svg>
