<svg xmlns="http://www.w3.org/2000/svg" xmlns:xlink="http://www.w3.org/1999/xlink" width="1080" height="1771.021" xmlns:v="https://vecta.io/nano"><defs><linearGradient id="A" x1=".5" x2=".5" y2="1"><stop offset="0" stop-color="#92278f"/><stop offset="1" stop-color="#5c2d91"/></linearGradient><clipPath id="B"><path fill="none" stroke="#707070" stroke-width="4" d="M0 0h1080v1675H0z"/></clipPath><path id="C" d="M999.971 1129.741c0 1.183-.712 2.249-1.805 2.701s-2.35.202-3.187-.634-1.086-2.094-.634-3.187 1.519-1.805 2.701-1.805c1.615.001 2.923 1.309 2.924 2.924z"/><path id="D" d="M855.716 1256.263c0 1.183-.712 2.25-1.805 2.703s-2.351.203-3.188-.634-1.087-2.095-.634-3.188 1.52-1.806 2.703-1.805c1.615 0 2.924 1.309 2.924 2.924z"/><path id="E" d="M891.785 1256.263c.001 1.615-1.308 2.925-2.924 2.926s-2.925-1.308-2.926-2.923 1.308-2.926 2.923-2.927c.776-.001 1.52.307 2.069.856s.858 1.292.858 2.068z"/><path id="F" d="M106.27 1189.406a3.6 3.6 0 0 1-6.146 2.552 3.6 3.6 0 0 1 2.552-6.146c.953 0 1.867.379 2.541 1.053s1.053 1.588 1.053 2.541z"/><path id="G" d="M150.597 1189.406a3.6 3.6 0 0 1-6.143 2.554 3.6 3.6 0 0 1 2.543-6.148c.954-.001 1.87.377 2.545 1.051s1.055 1.589 1.055 2.543z"/></defs><path fill="url(#A)" d="M0 0h1080v1617H0z"/><g clip-path="url(#B)" fill="none" stroke="#fff" stroke-width="3"><path d="M203.631-871.77s112.6 572.385-49.536 1291.687 68.845 1250.9 379.283 1255.144" style="mix-blend-mode:soft-light"/><path d="M278.784-697.986s115.307 379.237 12.908 821.676-254.71 934.678 163.5 1379.031m-120.054 670.857c-4.3-9.578-430.188-325.3-311.526-995.918S51.753 204.566-202.803-162.836m1540.141-947.838s8.546 624.561-262.438 1157.32-145.767 1217.763 141.551 1479.466m153.013-2322.696s43.428 447.6-125.731 773.082-392.97 655.727-79.422 1415.243m-76.66 100.226c-2.387-12.46-417.794-600.672-195.3-1124.363s189.189-879.49 14.582-1431.729" style="mix-blend-mode:soft-light"/></g><g fill="#fff"><path d="M1080 1771.021H0v-205.323q538.3-124.092 1080 0z"/><circle cx="852.795" cy="1129.742" r="2.925"/><circle cx="888.858" cy="1129.742" r="2.925"/><circle cx="924.921" cy="1129.742" r="2.925"/><circle cx="960.984" cy="1129.742" r="2.925"/><use xlink:href="#C"/><circle cx="852.795" cy="1161.371" r="2.925"/><circle cx="888.858" cy="1161.371" r="2.925"/><circle cx="924.921" cy="1161.371" r="2.925"/><circle cx="960.984" cy="1161.371" r="2.925"/><path d="M999.971 1161.371c-.001 1.615-1.311 2.923-2.925 2.922s-2.923-1.31-2.923-2.925 1.309-2.923 2.924-2.923c.776 0 1.52.308 2.069.857s.856 1.293.855 2.069z"/><circle cx="852.795" cy="1193" r="2.925"/><circle cx="888.858" cy="1193" r="2.925"/><circle cx="924.921" cy="1193" r="2.925"/><circle cx="960.984" cy="1193" r="2.925"/><use xlink:href="#C" y="63.258"/><circle cx="852.795" cy="1224.63" r="2.925"/><circle cx="888.858" cy="1224.63" r="2.925"/><circle cx="924.921" cy="1224.63" r="2.925"/><circle cx="960.984" cy="1224.63" r="2.925"/><path d="M999.971 1224.63c-.001 1.615-1.311 2.923-2.925 2.922s-2.923-1.31-2.923-2.925 1.309-2.923 2.924-2.923c.776 0 1.52.308 2.068.857s.856 1.293.856 2.069z"/><use xlink:href="#D"/><use xlink:href="#E"/><use xlink:href="#D" x="72.131"/><use xlink:href="#E" x="72.126"/><path d="M999.972 1256.263c0 1.183-.712 2.249-1.805 2.701s-2.35.202-3.187-.634-1.086-2.094-.634-3.187 1.519-1.805 2.701-1.805c.776 0 1.519.308 2.068.856s.856 1.292.856 2.068z"/><circle cx="102.675" cy="1033.901" r="3.595"/><circle cx="147.001" cy="1033.901" r="3.595"/><circle cx="191.327" cy="1033.901" r="3.595"/><circle cx="235.653" cy="1033.901" r="3.595"/><path d="M283.573 1033.9c0 1.985-1.609 3.594-3.594 3.594s-3.594-1.609-3.594-3.594 1.609-3.594 3.594-3.594 3.593 1.609 3.594 3.594z"/><circle cx="102.675" cy="1072.777" r="3.595"/><circle cx="147.001" cy="1072.777" r="3.595"/><circle cx="191.327" cy="1072.777" r="3.595"/><circle cx="235.653" cy="1072.777" r="3.595"/><path d="M283.573 1072.778c-.003 1.984-1.614 3.59-3.598 3.588s-3.591-1.612-3.59-3.596 1.61-3.592 3.594-3.592a3.59 3.59 0 0 1 3.594 3.6z"/><circle cx="102.675" cy="1111.653" r="3.595"/><circle cx="147.001" cy="1111.653" r="3.595"/><circle cx="191.327" cy="1111.653" r="3.595"/><circle cx="235.653" cy="1111.653" r="3.595"/><path d="M283.573 1111.656c-.003 1.985-1.615 3.591-3.6 3.588s-3.591-1.615-3.588-3.599 1.614-3.591 3.599-3.589 3.592 1.615 3.589 3.6z"/><circle cx="102.675" cy="1150.53" r="3.595"/><circle cx="147.001" cy="1150.53" r="3.595"/><circle cx="191.327" cy="1150.53" r="3.595"/><circle cx="235.653" cy="1150.53" r="3.595"/><path d="M283.573 1150.531c-.003 1.984-1.614 3.59-3.598 3.588s-3.591-1.612-3.59-3.596 1.61-3.592 3.594-3.592c.954 0 1.869.379 2.543 1.055s1.052 1.591 1.051 2.545z"/><use xlink:href="#F"/><use xlink:href="#G"/><use xlink:href="#F" x="88.651"/><use xlink:href="#G" x="88.651"/><path d="M283.572 1189.406c0 1.985-1.609 3.594-3.594 3.594s-3.594-1.609-3.594-3.594 1.609-3.594 3.594-3.594a3.59 3.59 0 0 1 3.594 3.594z"/></g></svg>