<svg xmlns="http://www.w3.org/2000/svg" xmlns:xlink="http://www.w3.org/1999/xlink" width="1920" height="1068.261" xmlns:v="https://vecta.io/nano"><defs><linearGradient id="A" x1=".5" x2=".5" y2="1"><stop offset="0" stop-color="#92278f"/><stop offset="1" stop-color="#5c2d91"/></linearGradient><clipPath id="B"><path fill="none" stroke="#707070" stroke-width="4" d="M0 0h1920v995H0z"/></clipPath><path id="C" d="M1709.971 803.741c0 1.183-.712 2.249-1.805 2.701s-2.35.202-3.187-.634-1.086-2.094-.634-3.187 1.519-1.805 2.701-1.805c1.615.001 2.923 1.309 2.924 2.924z"/><path id="D" d="M1565.716 930.263c0 1.183-.712 2.25-1.805 2.703s-2.351.203-3.188-.634-1.087-2.095-.634-3.188 1.52-1.806 2.703-1.805c1.615 0 2.924 1.309 2.924 2.924z"/><path id="E" d="M1601.785 930.263c.001 1.615-1.308 2.925-2.924 2.926s-2.925-1.308-2.926-2.923 1.308-2.926 2.923-2.927c.776-.001 1.52.307 2.069.856s.858 1.292.858 2.068z"/><path id="F" d="M177.27 412.906a3.6 3.6 0 0 1-6.146 2.552 3.6 3.6 0 0 1 2.552-6.146c.953 0 1.867.379 2.541 1.053s1.053 1.588 1.053 2.541z"/><path id="G" d="M221.597 412.906a3.6 3.6 0 0 1-6.143 2.554 3.6 3.6 0 0 1 2.543-6.148c.954-.001 1.87.377 2.545 1.051s1.055 1.589 1.055 2.543z"/></defs><path fill="url(#A)" d="M0 0h1920v1006H0z"/><g clip-path="url(#B)" fill="none" stroke="#fff" stroke-width="3"><path d="M362.01-687.356s200.182 451.3-88.064 1018.443 122.391 986.281 674.281 989.631" style="mix-blend-mode:soft-light"/><path d="M495.617-550.334s204.991 299.013 22.947 647.858S65.748 834.48 809.225 1184.835m-213.424 528.944c-7.647-7.552-764.778-256.482-553.824-785.241S92.006 161.289-360.539-128.39m2738.03-747.332s15.193 492.441-466.557 912.5-259.141 960.157 251.647 1166.5m272.021-1831.352s77.2 352.915-223.521 609.544-698.614 517.018-141.194 1115.862m-136.285 79.023c-4.244-9.824-742.744-473.606-347.209-886.515s336.343-693.442 25.927-1128.86" style="mix-blend-mode:soft-light"/></g><g fill="#fff"><path d="M1920 1068.261H0V862.938q956.975-124.092 1920 0z"/><circle cx="1562.795" cy="803.742" r="2.925"/><circle cx="1598.858" cy="803.742" r="2.925"/><circle cx="1634.921" cy="803.742" r="2.925"/><circle cx="1670.984" cy="803.742" r="2.925"/><use xlink:href="#C"/><circle cx="1562.795" cy="835.371" r="2.925"/><circle cx="1598.858" cy="835.371" r="2.925"/><circle cx="1634.921" cy="835.371" r="2.925"/><circle cx="1670.984" cy="835.371" r="2.925"/><path d="M1709.971 835.371c-.001 1.615-1.311 2.923-2.925 2.922s-2.923-1.31-2.923-2.925 1.309-2.923 2.924-2.923c.776 0 1.52.308 2.069.857s.856 1.293.855 2.069z"/><circle cx="1562.795" cy="867" r="2.925"/><circle cx="1598.858" cy="867" r="2.925"/><circle cx="1634.921" cy="867" r="2.925"/><circle cx="1670.984" cy="867" r="2.925"/><use xlink:href="#C" y="63.258"/><circle cx="1562.795" cy="898.63" r="2.925"/><circle cx="1598.858" cy="898.63" r="2.925"/><circle cx="1634.921" cy="898.63" r="2.925"/><circle cx="1670.984" cy="898.63" r="2.925"/><path d="M1709.971 898.63c-.001 1.615-1.311 2.923-2.925 2.922s-2.923-1.31-2.923-2.925 1.309-2.923 2.924-2.923c.776 0 1.52.308 2.068.857s.856 1.293.856 2.069z"/><use xlink:href="#D"/><use xlink:href="#E"/><use xlink:href="#D" x="72.131"/><use xlink:href="#E" x="72.126"/><path d="M1709.972 930.263c0 1.183-.712 2.249-1.805 2.701s-2.35.202-3.187-.634-1.086-2.094-.634-3.187 1.519-1.805 2.701-1.805c.776 0 1.519.308 2.068.856s.856 1.292.856 2.068z"/><circle cx="173.675" cy="257.401" r="3.595"/><circle cx="218.001" cy="257.401" r="3.595"/><circle cx="262.327" cy="257.401" r="3.595"/><circle cx="306.653" cy="257.401" r="3.595"/><path d="M354.573 257.4c0 1.985-1.609 3.594-3.594 3.594s-3.594-1.609-3.594-3.594 1.609-3.594 3.594-3.594 3.593 1.609 3.594 3.594z"/><circle cx="173.675" cy="296.277" r="3.595"/><circle cx="218.001" cy="296.277" r="3.595"/><circle cx="262.327" cy="296.277" r="3.595"/><circle cx="306.653" cy="296.277" r="3.595"/><path d="M354.573 296.278c-.003 1.984-1.614 3.59-3.598 3.588s-3.591-1.612-3.59-3.596 1.61-3.592 3.594-3.592a3.59 3.59 0 0 1 3.594 3.6z"/><circle cx="173.675" cy="335.153" r="3.595"/><circle cx="218.001" cy="335.153" r="3.595"/><circle cx="262.327" cy="335.153" r="3.595"/><circle cx="306.653" cy="335.153" r="3.595"/><path d="M354.573 335.156c-.003 1.985-1.615 3.591-3.6 3.588s-3.591-1.615-3.588-3.599 1.614-3.591 3.599-3.589 3.592 1.615 3.589 3.6z"/><circle cx="173.675" cy="374.03" r="3.595"/><circle cx="218.001" cy="374.03" r="3.595"/><circle cx="262.327" cy="374.03" r="3.595"/><circle cx="306.653" cy="374.03" r="3.595"/><path d="M354.573 374.031c-.003 1.984-1.614 3.59-3.598 3.588s-3.591-1.612-3.59-3.596 1.61-3.592 3.594-3.592c.954 0 1.869.379 2.543 1.055s1.052 1.591 1.051 2.545z"/><use xlink:href="#F"/><use xlink:href="#G"/><use xlink:href="#F" x="88.651"/><use xlink:href="#G" x="88.651"/><path d="M354.572 412.906c0 1.985-1.609 3.594-3.594 3.594s-3.594-1.609-3.594-3.594 1.609-3.594 3.594-3.594a3.59 3.59 0 0 1 3.594 3.594z"/></g></svg>