<svg xmlns="http://www.w3.org/2000/svg" width="137.97" height="102.589" viewBox="0 0 137.97 102.589">
  <g id="logo" transform="translate(-165.59 -169.536)">
    <rect id="Rectangle_3" data-name="Rectangle 3" width="8.789" height="8.792" transform="translate(294.771 188.86)" fill="#fff"/>
    <rect id="Rectangle_4" data-name="Rectangle 4" width="8.789" height="8.792" transform="translate(182.274 222.593)" fill="#fff"/>
    <path id="Path_1" data-name="Path 1" d="M271.666,178.325V209.09h23.106V200.3h8.789v17.578H165.594V195.907h8.789V209.09h26.969V195.907h8.789V209.09h8.789V195.907h8.789V209.09h4.4V195.907H240.9V209.09H245.3V195.907h8.789V209.09h8.789V178.325H165.594v-8.789H303.561v8.789Z" transform="translate(-0.002)" fill="#fff"/>
    <g id="Group_1" data-name="Group 1" transform="translate(165.591 231.708)">
      <path id="Path_2" data-name="Path 2" d="M201.1,357.558v31.833h-6.048L172.87,370.064v19.327h-7.276V357.558h6.094l22.136,19.327V357.558Z" transform="translate(-165.594 -357.558)" fill="#fff"/>
    </g>
    <g id="Group_2" data-name="Group 2" transform="translate(202.087 238.711)">
      <path id="Path_3" data-name="Path 3" d="M299.205,389.607v13.961h-6.64v-3.047c-1.319,2.228-3.865,3.411-7.458,3.411-5.73,0-9.141-3.183-9.141-7.413,0-4.32,3.047-7.322,10.5-7.322h5.639c0-3.047-1.819-4.82-5.639-4.82a11.764,11.764,0,0,0-7.049,2.274l-2.547-4.957a18.809,18.809,0,0,1,10.551-2.956C294.885,378.738,299.205,382.194,299.205,389.607Zm-7.094,6.23v-2.5h-4.866c-3.32,0-4.366,1.228-4.366,2.865,0,1.773,1.5,2.956,4,2.956A5.227,5.227,0,0,0,292.111,395.837Z" transform="translate(-275.967 -378.738)" fill="#fff"/>
    </g>
    <g id="Group_3" data-name="Group 3" transform="translate(252.329 238.711)">
      <path id="Path_4" data-name="Path 4" d="M451.148,389.607v13.961h-6.639v-3.047c-1.319,2.228-3.866,3.411-7.458,3.411-5.73,0-9.141-3.183-9.141-7.413,0-4.32,3.047-7.322,10.505-7.322h5.639c0-3.047-1.819-4.82-5.639-4.82a11.766,11.766,0,0,0-7.049,2.274l-2.546-4.957a18.808,18.808,0,0,1,10.55-2.956C446.828,378.738,451.148,382.194,451.148,389.607Zm-7.094,6.23v-2.5h-4.866c-3.32,0-4.366,1.228-4.366,2.865,0,1.773,1.5,2.956,4,2.956A5.227,5.227,0,0,0,444.054,395.837Z" transform="translate(-427.91 -378.738)" fill="#fff"/>
    </g>
    <g id="Group_4" data-name="Group 4" transform="translate(276.911 229.798)">
      <path id="Path_5" data-name="Path 5" d="M528.9,373.292c0,7.686-5.321,12.6-12.187,12.6-3.274,0-5.912-1.046-7.686-3.183v2.82h-6.776V351.782h7.094v11.869a9.5,9.5,0,0,1,7.367-2.956C523.582,360.7,528.9,365.607,528.9,373.292Zm-7.185,0c0-4.229-2.683-6.776-6.23-6.776s-6.23,2.547-6.23,6.776,2.683,6.776,6.23,6.776S521.718,377.521,521.718,373.292Z" transform="translate(-502.254 -351.782)" fill="#fff"/>
    </g>
    <path id="Path_6" data-name="Path 6" d="M303.558,407.09v5.8H254.131l-5.089-5.8-9.03-10.287-14.083,16.04-60.339.046v-5.8h58.143l12.413-15.108-9.093-12.142h7.956l5.185,7.139,5.32-7.139h7.549L243.97,391.8l12.674,15.29Z" transform="translate(0 -140.765)" fill="#fff"/>
    <path id="Path_7" data-name="Path 7" d="M422.979,468.05l-5.128-5.8h.04Z" transform="translate(-168.848 -195.925)" fill="#fff"/>
  </g>
</svg>
