<svg xmlns="http://www.w3.org/2000/svg" xmlns:xlink="http://www.w3.org/1999/xlink" width="82.818" height="61.58" viewBox="0 0 82.818 61.58">
  <defs>
    <linearGradient id="linear-gradient" x1="0.5" x2="0.5" y2="1" gradientUnits="objectBoundingBox">
      <stop offset="0" stop-color="#92278f"/>
      <stop offset="1" stop-color="#5c2d91"/>
    </linearGradient>
    <linearGradient id="linear-gradient-2" x1="0.5" x2="0.5" y2="1" gradientUnits="objectBoundingBox">
      <stop offset="0" stop-color="#5c2d91"/>
      <stop offset="1" stop-color="#92278f"/>
    </linearGradient>
    <linearGradient id="linear-gradient-6" x1="0.5" x2="0.5" y2="1" gradientUnits="objectBoundingBox">
      <stop offset="0" stop-color="#fdd001"/>
      <stop offset="1" stop-color="#fff000"/>
    </linearGradient>
  </defs>
  <g id="logo" transform="translate(-165.59 -169.537)">
    <rect id="Rectangle_3" data-name="Rectangle 3" width="5.276" height="5.278" transform="translate(243.132 181.136)" fill="#6e2b90"/>
    <rect id="Rectangle_4" data-name="Rectangle 4" width="5.276" height="5.278" transform="translate(175.605 201.384)" fill="#5e2c91"/>
    <path id="Path_1" data-name="Path 1" d="M229.265,174.812v18.467h13.87V188h5.276v10.551H165.594V185.366h5.276v7.913h16.188v-7.913h5.276v7.913h5.276v-7.913h5.276v7.913h2.64v-7.913H210.8v7.913h2.638v-7.913h5.276v7.913h5.276V174.812h-58.4v-5.276H248.41v5.276Z" transform="translate(-0.003)" fill="url(#linear-gradient)"/>
    <g id="Group_1" data-name="Group 1" transform="translate(165.591 206.855)">
      <path id="Path_2" data-name="Path 2" d="M186.907,357.558v19.108h-3.63l-13.315-11.6v11.6h-4.367V357.558h3.658l13.288,11.6v-11.6Z" transform="translate(-165.594 -357.558)" fill="url(#linear-gradient-2)"/>
    </g>
    <g id="Group_2" data-name="Group 2" transform="translate(187.498 211.059)">
      <path id="Path_3" data-name="Path 3" d="M289.916,385.262v8.38H285.93v-1.829c-.792,1.338-2.32,2.047-4.477,2.047-3.44,0-5.487-1.911-5.487-4.45,0-2.593,1.829-4.395,6.306-4.395h3.385c0-1.829-1.092-2.893-3.385-2.893a7.062,7.062,0,0,0-4.231,1.365l-1.529-2.975a11.29,11.29,0,0,1,6.333-1.774C287.323,378.738,289.916,380.813,289.916,385.262ZM285.658,389v-1.5h-2.921c-1.993,0-2.621.737-2.621,1.72,0,1.064.9,1.774,2.4,1.774A3.137,3.137,0,0,0,285.658,389Z" transform="translate(-275.967 -378.738)" fill="url(#linear-gradient-2)"/>
    </g>
    <g id="Group_3" data-name="Group 3" transform="translate(217.656 211.059)">
      <path id="Path_4" data-name="Path 4" d="M441.859,385.262v8.38h-3.985v-1.829c-.792,1.338-2.32,2.047-4.477,2.047-3.44,0-5.487-1.911-5.487-4.45,0-2.593,1.829-4.395,6.306-4.395H437.6c0-1.829-1.092-2.893-3.385-2.893a7.063,7.063,0,0,0-4.231,1.365l-1.529-2.975a11.29,11.29,0,0,1,6.333-1.774C439.266,378.738,441.859,380.813,441.859,385.262ZM437.6,389v-1.5H434.68c-1.993,0-2.621.737-2.621,1.72,0,1.064.9,1.774,2.4,1.774A3.138,3.138,0,0,0,437.6,389Z" transform="translate(-427.91 -378.738)" fill="url(#linear-gradient-2)"/>
    </g>
    <g id="Group_4" data-name="Group 4" transform="translate(232.412 205.709)">
      <path id="Path_5" data-name="Path 5" d="M518.25,364.694c0,4.613-3.194,7.561-7.316,7.561a5.707,5.707,0,0,1-4.613-1.911v1.693h-4.067V351.782h4.258v7.125a5.7,5.7,0,0,1,4.422-1.774C515.056,357.132,518.25,360.08,518.25,364.694Zm-4.313,0c0-2.539-1.611-4.067-3.74-4.067s-3.74,1.529-3.74,4.067,1.61,4.067,3.74,4.067S513.937,367.232,513.937,364.694Z" transform="translate(-502.254 -351.782)" fill="url(#linear-gradient-2)"/>
    </g>
    <path id="Path_6" data-name="Path 6" d="M248.407,396.2v3.481H218.738l-3.055-3.481-5.421-6.175-8.453,9.628-36.219.028V396.2h34.9l7.451-9.069-5.458-7.288h4.776l3.112,4.285,3.194-4.285H218.1l-5.458,7.179,7.608,9.178Z" transform="translate(0 -168.562)" fill="url(#linear-gradient-6)"/>
    <path id="Path_7" data-name="Path 7" d="M420.929,465.731l-3.078-3.481h.024Z" transform="translate(-202.191 -234.615)" fill="#c1e00a"/>
  </g>
</svg>
