<svg xmlns="http://www.w3.org/2000/svg" xmlns:xlink="http://www.w3.org/1999/xlink" viewBox="0 0 663.61 463.58"><defs><style>.cls-1{fill:url(#linear-gradient);}.cls-2{fill:url(#linear-gradient-2);}.cls-3{fill:url(#linear-gradient-3);}.cls-4{fill:url(#linear-gradient-4);}.cls-5{fill:url(#linear-gradient-5);}.cls-6{fill:url(#linear-gradient-6);}.cls-7{fill:url(#linear-gradient-7);}.cls-8{fill:url(#linear-gradient-8);}.cls-9{fill:url(#linear-gradient-9);}.cls-10{fill:url(#linear-gradient-10);}.cls-11{fill:url(#linear-gradient-11);}</style><linearGradient id="linear-gradient" x1="629.91" y1="113.79" x2="662.39" y2="113.79" gradientUnits="userSpaceOnUse"><stop offset="0" stop-color="#fdd001"/><stop offset="1" stop-color="#fff000"/></linearGradient><linearGradient id="linear-gradient-2" x1="628.69" y1="113.79" x2="663.61" y2="113.79" gradientUnits="userSpaceOnUse"><stop offset="0" stop-color="#5c2d91"/><stop offset="1" stop-color="#92278f"/></linearGradient><linearGradient id="linear-gradient-3" x1="84.04" y1="265.14" x2="116.52" y2="265.14" xlink:href="#linear-gradient"/><linearGradient id="linear-gradient-4" x1="82.82" y1="265.14" x2="117.74" y2="265.14" xlink:href="#linear-gradient-2"/><linearGradient id="linear-gradient-5" x1="0" y1="113.66" x2="663.61" y2="113.66" xlink:href="#linear-gradient-2"/><linearGradient id="linear-gradient-6" x1="549.88" y1="357.31" x2="663.61" y2="357.31" xlink:href="#linear-gradient-2"/><linearGradient id="linear-gradient-7" x1="137.47" y1="386.95" x2="251.2" y2="386.95" xlink:href="#linear-gradient-2"/><linearGradient id="linear-gradient-8" x1="412.41" y1="386.95" x2="526.14" y2="386.95" xlink:href="#linear-gradient-2"/><linearGradient id="linear-gradient-9" x1="331.03" y1="463.58" x2="331.03" y2="310.32" xlink:href="#linear-gradient"/><linearGradient id="linear-gradient-10" x1="266.28" y1="386.95" x2="395.79" y2="386.95" xlink:href="#linear-gradient-2"/><linearGradient id="linear-gradient-11" x1="0" y1="386.95" x2="113.74" y2="386.95" xlink:href="#linear-gradient-2"/></defs><g id="Layer_2" data-name="Layer 2"><g id="Layer_1_copy" data-name="Layer 1 copy"><rect class="cls-1" x="629.91" y="97.54" width="32.48" height="32.49"/><path class="cls-2" d="M663.61,131.26H628.69V96.32h34.92v34.94Zm-32.48-2.45h30v-30h-30Z"/><rect class="cls-3" x="84.04" y="248.89" width="32.48" height="32.49"/><path class="cls-4" d="M117.74,282.61H82.82V247.67h34.92v34.94Zm-32.48-2.45h30v-30h-30Z"/><polygon class="cls-5" points="0 34.78 469.56 34.78 473.56 34.78 473.56 38.78 473.56 188.54 473.56 192.54 469.56 192.54 426.78 192.54 422.78 192.54 422.78 188.54 422.78 128.37 388 128.37 388 188.54 388 192.54 384 192.54 362.61 192.54 358.61 192.54 358.61 188.54 358.61 128.37 323.82 128.37 323.82 188.54 323.82 192.54 319.82 192.54 298.42 192.54 294.42 192.54 294.42 188.54 294.42 128.37 259.63 128.37 259.63 188.54 259.63 192.54 255.63 192.54 212.85 192.54 208.85 192.54 208.85 188.54 208.85 128.37 174.06 128.37 174.06 188.54 174.06 192.54 170.06 192.54 38.78 192.54 34.78 192.54 34.78 188.54 34.78 128.37 0 128.37 0 227.33 663.61 227.33 663.61 149.76 628.83 149.76 628.83 188.54 628.83 192.54 624.83 192.54 512.35 192.54 508.35 192.54 508.35 188.54 508.35 38.78 508.35 34.78 512.35 34.78 663.61 34.78 663.61 0 0 0 0 34.78"/><path class="cls-6" d="M584.6,310.32V251.06H549.88V463.57H663.61V310.32h-79ZM628.88,345v83.8H584.6V345h44.28Z"/><path class="cls-7" d="M137.47,345h79v24.53h-79v94H251.2V310.32H137.47Zm79,63.27v20.53H172.2V404.31h44.29Z"/><path class="cls-8" d="M412.41,345h79v24.53h-79v94H526.14V310.32H412.41Zm79,63.27v20.53H447.14V404.31h44.28Z"/><polygon class="cls-9" points="395.79 350.13 360.21 385.71 395.79 421.28 395.79 463.35 395.56 463.58 379.96 463.58 331.16 414.76 282.34 463.58 266.87 463.58 266.28 462.98 266.28 421.52 302.09 385.71 266.28 349.9 266.28 310.32 284.82 310.32 331.16 356.64 377.48 310.32 395.79 310.32 395.79 350.13"/><path class="cls-10" d="M392.79,313.32v35.57l-34.7,34.7L356,385.71l2.13,2.12,34.7,34.69v38.06H381.2l-47.92-47.94-2.12-2.12L329,412.64,281.1,460.58H269.28V422.77l34.93-34.94,2.12-2.12-2.12-2.12-34.93-34.93V313.32h14.3L329,358.77l2.12,2.12,2.12-2.12,45.44-45.45h14.07m3-3H377.48l-46.32,46.32-46.34-46.32H266.28V349.9l35.81,35.81-35.81,35.81V463l.59.6h15.47l48.82-48.82L380,463.58h15.6l.23-.23V421.28l-35.58-35.57,35.58-35.58V310.32Z"/><polygon class="cls-11" points="38.72 310.33 0 310.33 0 463.58 34.72 463.58 34.72 349.05 34.72 345.05 38.72 345.05 75.02 345.05 79.02 345.05 79.02 349.05 79.02 463.58 113.73 463.58 113.73 310.33 40.2 310.33 38.72 310.33"/></g></g></svg>