<svg xmlns="http://www.w3.org/2000/svg" width="252.752" height="243.593" viewBox="0 0 252.752 243.593">
  <g id="Online_Groceries-cuate" data-name="Online Groceries-cuate" transform="translate(0 0)">
    <g id="freepik--background-complete--inject-70" transform="translate(11.244 0)">
      <path id="Path_5198" data-name="Path 5198" d="M384.511,47.362l.122,46.759a4.733,4.733,0,0,1-4.722,4.745l-74.155.192a4.733,4.733,0,0,1-4.745-4.722l-.122-46.759a4.408,4.408,0,0,1,4.4-4.414L380.1,43A4.4,4.4,0,0,1,384.511,47.362Z" transform="translate(-156.234 -43)" fill="#dbdbdb"/>
      <path id="Path_5199" data-name="Path 5199" d="M418.01,116.594a4.35,4.35,0,1,1-1.28-3.076A4.35,4.35,0,0,1,418.01,116.594Z" transform="translate(-201.685 -72.031)" fill="#a6a6a6"/>
      <path id="Path_5200" data-name="Path 5200" d="M427.232,116.568a4.356,4.356,0,1,1-4.362-4.338,4.356,4.356,0,0,1,4.362,4.338Z" transform="translate(-205.546 -72.022)" fill="#92278f"/>
      <rect id="Rectangle_91" data-name="Rectangle 91" width="15.699" height="10.849" rx="4.2" transform="translate(151.695 8.183) rotate(-0.15)" fill="#92278f"/>
      <path id="Path_5201" data-name="Path 5201" d="M420.982,62.737h-7.1a2.979,2.979,0,0,1-2.985-2.9h0a2.974,2.974,0,0,1,2.962-3h7.1a2.968,2.968,0,0,1,2.979,2.968h0A2.974,2.974,0,0,1,420.982,62.737Z" transform="translate(-202.352 -48.798)" fill="#fff"/>
      <path id="Path_5202" data-name="Path 5202" d="M311.473,92.484l-.645.383a.157.157,0,0,1-.215-.052.151.151,0,0,1,.058-.215l.877-.534a.143.143,0,0,1,.215.174v4.182a.157.157,0,1,1-.308,0Z" transform="translate(-160.3 -63.561)" fill="#f8f8f8"/>
      <path id="Path_5203" data-name="Path 5203" d="M314.56,96.27l2.12-1.922a1.19,1.19,0,0,0,.389-.877,1.162,1.162,0,0,0-1.162-1.162,1.208,1.208,0,0,0-.8.3l-.221.2a.157.157,0,1,1-.215-.227l.221-.209a1.516,1.516,0,0,1,1.011-.383,1.423,1.423,0,0,1,1.092.482,1.452,1.452,0,0,1,.395.993,1.5,1.5,0,0,1-.488,1.109l-1.818,1.649h2.155a.163.163,0,0,1,0,.319h-2.561a.134.134,0,0,1-.116-.046A.168.168,0,0,1,314.56,96.27Z" transform="translate(-161.948 -63.537)" fill="#f8f8f8"/>
      <path id="Path_5204" data-name="Path 5204" d="M324.021,92.256l-1.162,1.208a1.574,1.574,0,0,1,.784.418,1.539,1.539,0,0,1,.447,1.092,1.51,1.51,0,0,1-.447,1.092,1.545,1.545,0,0,1-1.092.459,1.516,1.516,0,0,1-1.092-.453.163.163,0,1,1,.227-.227,1.237,1.237,0,0,0,1.742,0,1.22,1.22,0,0,0,0-1.742,1.2,1.2,0,0,0-.86-.354.163.163,0,0,1-.128-.064h0a.174.174,0,0,1,0-.238l1.127-1.162h-1.742a.157.157,0,0,1-.163-.163.163.163,0,0,1,.163-.163h2.126a.163.163,0,0,1,.145.238.274.274,0,0,1-.076.058Z" transform="translate(-164.828 -63.525)" fill="#f8f8f8"/>
      <path id="Path_5205" data-name="Path 5205" d="M330.609,95.59h-2.486a.145.145,0,0,1-.116-.25l2.625-3.287h0a.145.145,0,0,1,.221,0,.162.162,0,0,1,.052.076h0v3.119h.3a.163.163,0,0,1,.163.157.157.157,0,0,1-.163.157h-.3v.784a.163.163,0,0,1-.319,0Zm0-.308V92.611l-2.149,2.677Z" transform="translate(-167.583 -63.543)" fill="#f8f8f8"/>
      <path id="Path_5206" data-name="Path 5206" d="M342.305,96.082a.157.157,0,0,1,0-.226.168.168,0,0,1,.238,0,1.2,1.2,0,0,0,.86.354,1.231,1.231,0,0,0,.854-.36,1.208,1.208,0,0,0,.36-.86,1.248,1.248,0,0,0-.354-.865,1.231,1.231,0,0,0-.86-.348,1.161,1.161,0,0,0-.865.36.157.157,0,0,1-.227,0,.087.087,0,0,1-.041-.052h0a.127.127,0,0,1,0-.052h0l.215-1.835a.128.128,0,0,1,.064-.116.139.139,0,0,1,.1-.041h2.12a.163.163,0,1,1,0,.325h-1.981l-.163,1.353a1.51,1.51,0,0,1,.772-.209,1.493,1.493,0,0,1,1.092.441,1.528,1.528,0,0,1,.453,1.092,1.545,1.545,0,0,1-.447,1.1,1.626,1.626,0,0,1-1.092.453A1.562,1.562,0,0,1,342.305,96.082Z" transform="translate(-173.575 -63.558)" fill="#f8f8f8"/>
      <path id="Path_5207" data-name="Path 5207" d="M349.489,92.907a1.835,1.835,0,0,1,1.591-.987.157.157,0,0,1,.163.145.168.168,0,0,1-.157.168,1.539,1.539,0,0,0-1.324.831,2.938,2.938,0,0,0-.325.912,1.487,1.487,0,0,1,1.127-.517,1.5,1.5,0,1,1-1.5,1.562,1.748,1.748,0,0,1,0-.3A3.763,3.763,0,0,1,349.489,92.907Zm-.11,2.085a.284.284,0,0,0,0,.081.1.1,0,0,1,0,.046,1.162,1.162,0,1,0,0-.157Z" transform="translate(-176.427 -63.508)" fill="#f8f8f8"/>
      <path id="Path_5208" data-name="Path 5208" d="M356.624,96.235l1.678-4h-2.2a.163.163,0,0,1-.157-.157.157.157,0,0,1,.151-.157h2.41a.191.191,0,0,1,.1,0,.175.175,0,0,1,.081.1.111.111,0,0,1,0,.134l-1.742,4.193a.157.157,0,0,1-.139.1.116.116,0,0,1-.064,0,.168.168,0,0,1-.122-.215Z" transform="translate(-179.316 -63.508)" fill="#f8f8f8"/>
      <path id="Path_5209" data-name="Path 5209" d="M363.775,91.87a.947.947,0,0,1,.947.941.935.935,0,0,1-.383.767,1.475,1.475,0,1,1-1.127,0,.958.958,0,0,1-.378-.767.935.935,0,0,1,.941-.941Zm0,4.24a1.162,1.162,0,1,0-1.162-1.162A1.162,1.162,0,0,0,363.775,96.11Zm0-2.654a.645.645,0,0,0,.639-.645.636.636,0,1,0-.639.645Z" transform="translate(-181.978 -63.487)" fill="#f8f8f8"/>
      <path id="Path_5210" data-name="Path 5210" d="M377.655,91.84a1.493,1.493,0,0,1,1.5,1.318.266.266,0,0,0,0,.035v.389a3.827,3.827,0,0,1-.43,1.818,1.893,1.893,0,0,1-1.591.993h0a.157.157,0,0,1-.168-.151.168.168,0,0,1,.157-.168,1.539,1.539,0,0,0,1.324-.831,2.843,2.843,0,0,0,.325-.912,1.481,1.481,0,0,1-1.162.505,1.5,1.5,0,0,1,0-3Zm1.2,1.493a1.188,1.188,0,1,0-1.188,1.188A1.188,1.188,0,0,0,378.851,93.333Z" transform="translate(-187.767 -63.474)" fill="#f8f8f8"/>
      <path id="Path_5211" data-name="Path 5211" d="M383.369,94.109a2.859,2.859,0,0,1,.43-1.591,1.289,1.289,0,0,1,2.259,0,2.944,2.944,0,0,1,.447,1.591,2.9,2.9,0,0,1-.441,1.586,1.283,1.283,0,0,1-2.277,0A2.9,2.9,0,0,1,383.369,94.109Zm.32,0a2.579,2.579,0,0,0,.383,1.411,1.115,1.115,0,0,0,.877.546,1.086,1.086,0,0,0,.865-.581,2.736,2.736,0,0,0,0-2.823.97.97,0,0,0-1.742,0,2.56,2.56,0,0,0-.383,1.446Z" transform="translate(-190.81 -63.479)" fill="#f8f8f8"/>
      <path id="Path_5212" data-name="Path 5212" d="M391.782,92.263l-.639.378a.192.192,0,0,1-.081,0,.157.157,0,0,1-.076-.29l.877-.534a.163.163,0,0,1,.215.058.2.2,0,0,1,0,.116v4.182a.151.151,0,0,1-.157.157.163.163,0,0,1-.157-.157Z" transform="translate(-193.972 -63.456)" fill="#f8f8f8"/>
      <path id="Path_5213" data-name="Path 5213" d="M394.851,96.069l2.126-1.922a1.172,1.172,0,1,0-1.58-1.731l-.221.2a.145.145,0,0,1-.221,0,.151.151,0,0,1,0-.221l.221-.209a1.539,1.539,0,0,1,1-.383,1.488,1.488,0,0,1,1,2.584l-1.818,1.649h2.155a.163.163,0,0,1,.151.163.151.151,0,0,1-.151.157h-2.567a.168.168,0,0,1-.116-.041.18.18,0,0,1,.012-.244Z" transform="translate(-195.601 -63.458)" fill="#f8f8f8"/>
      <path id="Path_5214" data-name="Path 5214" d="M411.045,92.039l-1.162,1.214a1.548,1.548,0,0,1,.749,2.6,1.545,1.545,0,0,1-1.092.459,1.493,1.493,0,0,1-1.092-.453.163.163,0,0,1,.227-.227,1.243,1.243,0,0,0,.86.348,1.217,1.217,0,0,0,0-2.433.163.163,0,0,1-.128-.064h0a.163.163,0,0,1,0-.232l1.127-1.162h-1.742a.163.163,0,0,1-.163-.163.157.157,0,0,1,.163-.163h2.126a.157.157,0,0,1,.163.139.138.138,0,0,1,0,.07.1.1,0,0,1-.035.07Z" transform="translate(-201.312 -63.441)" fill="#f8f8f8"/>
      <path id="Path_5215" data-name="Path 5215" d="M417.64,95.412h-2.486a.128.128,0,0,1-.1-.035.151.151,0,0,1,0-.221l2.625-3.281h0a.151.151,0,0,1,.221,0,.163.163,0,0,1,.052.076.11.11,0,0,0,0,.029h0V95.1h.3a.157.157,0,1,1,0,.308h-.3v.755a.157.157,0,0,1-.163.157.163.163,0,0,1-.157-.157Zm0-.314V92.433L415.5,95.1Z" transform="translate(-204.074 -63.469)" fill="#f8f8f8"/>
      <path id="Path_5216" data-name="Path 5216" d="M422.615,95.843a.157.157,0,0,1,0-.227.163.163,0,0,1,.232,0,1.22,1.22,0,0,0,2.073-.871,1.2,1.2,0,0,0-.354-.865,1.214,1.214,0,0,0-.86-.348,1.2,1.2,0,0,0-.865.36.157.157,0,0,1-.227,0,.116.116,0,0,1-.041-.052h0a.163.163,0,0,1,0-.052v-.035l.215-1.835a.192.192,0,0,1,.174-.157h2.12a.163.163,0,0,1,.163.163.157.157,0,0,1-.163.163H423.1l-.157,1.353a1.539,1.539,0,0,1,2.323,1.33,1.521,1.521,0,0,1-.447,1.092,1.551,1.551,0,0,1-2.184,0Z" transform="translate(-207.243 -63.441)" fill="#f8f8f8"/>
      <path id="Path_5217" data-name="Path 5217" d="M429.791,92.7a1.835,1.835,0,0,1,1.591-.993.157.157,0,0,1,.163.145.174.174,0,0,1-.157.174,1.533,1.533,0,0,0-1.324.825,2.9,2.9,0,0,0-.319.912,1.5,1.5,0,1,1-.378,1.045,2.544,2.544,0,0,1,0-.3A3.786,3.786,0,0,1,429.791,92.7Zm-.1,2.079a.389.389,0,0,0,0,.087.127.127,0,0,1,0,.046,1.226,1.226,0,1,0,0-.157Z" transform="translate(-210.091 -63.42)" fill="#f8f8f8"/>
      <rect id="Rectangle_92" data-name="Rectangle 92" width="39.708" height="1.951" transform="translate(151.78 40.817) rotate(-0.15)" fill="#a6a6a6"/>
      <rect id="Rectangle_93" data-name="Rectangle 93" width="28.11" height="1.951" transform="translate(151.792 45.156) rotate(-0.15)" fill="#a6a6a6"/>
      <rect id="Rectangle_94" data-name="Rectangle 94" width="19.805" height="1.951" transform="translate(186.008 8.093) rotate(-0.15)" fill="#a6a6a6"/>
      <rect id="Rectangle_95" data-name="Rectangle 95" width="42.908" height="42.908" transform="translate(198.6 99.349)" fill="#ebebeb"/>
      <path id="Path_5218" data-name="Path 5218" d="M425.178,225.92a1.446,1.446,0,0,1,1.458,1.458v.743a12.33,12.33,0,0,1,5.262,1.87,1.812,1.812,0,0,1,1.016,1.626,1.864,1.864,0,0,1-1.9,1.864,1.958,1.958,0,0,1-1.016-.3,12.2,12.2,0,0,0-3.485-1.493V238.2c5.157,1.289,7.364,3.357,7.364,6.969,0,3.734-2.9,6.208-7.231,6.615v2.062a1.446,1.446,0,0,1-1.458,1.458,1.475,1.475,0,0,1-1.493-1.458v-2.1a14.687,14.687,0,0,1-6.969-2.648,1.874,1.874,0,1,1,2.068-3.119,12.034,12.034,0,0,0,5.024,2.271v-6.691c-4.954-1.289-7.26-3.154-7.26-6.969,0-3.63,2.9-6.139,7.12-6.476V227.4a1.475,1.475,0,0,1,1.5-1.475Zm-1.353,11.563v-6c-2.172.2-3.258,1.353-3.258,2.846S421.211,236.635,423.825,237.483ZM426.5,242.2v6.174c2.172-.232,3.357-1.318,3.357-2.95,0-1.493-.743-2.4-3.357-3.194Z" transform="translate(-204.41 -119.683)" fill="#fff"/>
      <rect id="Rectangle_96" data-name="Rectangle 96" width="42.908" height="42.908" transform="translate(0 62.992)" fill="#ebebeb"/>
      <path id="Path_5219" data-name="Path 5219" d="M87.166,187.281H67.158L62.25,169.509l28.139-.029,1.016-4.1h3.189v1.162H92.306ZM68.04,186.12H86.26L90.1,170.642H63.772Z" transform="translate(-56.192 -94.304)" fill="#fff"/>
      <path id="Path_5220" data-name="Path 5220" d="M74.769,205.754,73.7,205.3l1.789-4.251H89.108l1.475,4.292-1.1.378-1.2-3.508H76.261Z" transform="translate(-60.992 -109.257)" fill="#fff"/>
      <rect id="Rectangle_97" data-name="Rectangle 97" width="25.555" height="1.162" transform="translate(8.085 79.242)" fill="#fff"/>
      <rect id="Rectangle_98" data-name="Rectangle 98" width="23.115" height="1.162" transform="translate(9.144 83.652) rotate(-0.25)" fill="#fff"/>
      <rect id="Rectangle_99" data-name="Rectangle 99" width="20.949" height="1.162" transform="translate(10.367 88.059)" fill="#fff"/>
      <rect id="Rectangle_100" data-name="Rectangle 100" width="1.162" height="16.535" transform="translate(20.537 75.862)" fill="#fff"/>
      <rect id="Rectangle_101" data-name="Rectangle 101" width="1.162" height="16.593" transform="translate(16.02 75.911) rotate(-4.58)" fill="#fff"/>
      <rect id="Rectangle_102" data-name="Rectangle 102" width="1.162" height="16.814" transform="translate(11.039 75.967) rotate(-10.42)" fill="#fff"/>
      <rect id="Rectangle_103" data-name="Rectangle 103" width="16.593" height="1.162" transform="matrix(0.08, -0.997, 0.997, 0.08, 23.647, 92.365)" fill="#fff"/>
      <rect id="Rectangle_104" data-name="Rectangle 104" width="16.814" height="1.162" transform="translate(26.938 92.298) rotate(-79.59)" fill="#fff"/>
      <path id="Path_5221" data-name="Path 5221" d="M72.813,209.456a2.5,2.5,0,1,1,2.5-2.5A2.5,2.5,0,0,1,72.813,209.456Zm0-3.845a1.342,1.342,0,1,0,1.342,1.342A1.342,1.342,0,0,0,72.813,205.612Z" transform="translate(-59.571 -110.682)" fill="#fff"/>
      <path id="Path_5222" data-name="Path 5222" d="M99.923,209.456a2.5,2.5,0,1,1,2.5-2.5A2.5,2.5,0,0,1,99.923,209.456Zm0-3.845a1.342,1.342,0,1,0,1.342,1.342,1.342,1.342,0,0,0-1.342-1.342Z" transform="translate(-70.936 -110.682)" fill="#fff"/>
    </g>
    <g id="freepik--Shadows--inject-70" transform="translate(0.72 215.378)">
      <ellipse id="Ellipse_21" data-name="Ellipse 21" cx="106.539" cy="14.107" rx="106.539" ry="14.107" transform="translate(33.575)" fill="#ebebeb"/>
      <ellipse id="Ellipse_22" data-name="Ellipse 22" cx="30.88" cy="5.912" rx="30.88" ry="5.912" transform="translate(0 0.813)" fill="#ebebeb"/>
    </g>
    <g id="freepik--Floor--inject-70" transform="translate(3.781 204.425)">
      <path id="Path_5223" data-name="Path 5223" d="M38.97,395.27l30.636-.139,30.642-.052,61.284-.1,61.284.1,30.642.052,30.642.139-30.642.145-30.642.046-61.284.1-61.284-.1-30.642-.052Z" transform="translate(-38.97 -394.98)" fill="#263238"/>
    </g>
    <g id="freepik--Device--inject-70" transform="translate(48.425 12.347)">
      <path id="Path_5224" data-name="Path 5224" d="M218.412,64.26H125.266a9.513,9.513,0,0,0-9.426,9.6V265.641a9.519,9.519,0,0,0,9.426,9.6h93.146a9.525,9.525,0,0,0,9.438-9.6V73.86A9.519,9.519,0,0,0,218.412,64.26Zm3.543,195.434c0,5.047-3.775,9.13-8.439,9.13H130.179c-4.675,0-8.456-4.066-8.456-9.13V81.126c0-10.28,3.781-10.779,8.456-10.779h16.692c.97,0,1.742,1.1,1.742,2.468V73.4c0,3.206,1.742,3.212,3.909,3.212h38.622c2.172,0,3.909,0,3.909-3.212v-.575c0-1.365.778-2.468,1.742-2.468H213.5c4.646,0,8.439,1.365,8.439,10.779Z" transform="translate(-115.839 -64.26)" fill="#262626"/>
      <path id="Path_5225" data-name="Path 5225" d="M226.2,87.3V264.087c0,5.047-3.775,9.13-8.439,9.13H134.426c-4.675,0-8.456-4.065-8.456-9.13V87.3c0-10.28,3.781-12.557,8.456-12.557h16.692c.97,0,1.742,1.1,1.742,2.468v.581C152.86,81,154.6,81,156.769,81h38.622c2.172,0,3.909,0,3.909-3.212v-.575c0-1.365.778-2.468,1.742-2.468h16.709C222.427,74.74,226.2,77.882,226.2,87.3Z" transform="translate(-120.086 -68.653)" fill="#fff"/>
      <path id="Path_5226" data-name="Path 5226" d="M213.26,77.711h-10.53a.65.65,0,0,1-.65-.65h0a.65.65,0,0,1,.65-.65h10.53a.651.651,0,0,1,.65.65h0A.65.65,0,0,1,213.26,77.711Z" transform="translate(-151.993 -69.353)" fill="#fff"/>
      <rect id="Rectangle_105" data-name="Rectangle 105" width="12.162" height="1.58" transform="translate(49.205 105.308)" fill="#c7c7c7"/>
      <rect id="Rectangle_106" data-name="Rectangle 106" width="25.526" height="25.525" transform="translate(12.209 30.596)" fill="#92278f"/>
      <rect id="Rectangle_107" data-name="Rectangle 107" width="25.526" height="25.525" transform="translate(12.209 30.596)" fill="#fff" opacity="0.5"/>
      <path id="Path_5227" data-name="Path 5227" d="M154.8,139.129l-3.357-1.121s-1.742,1.318-2.9-.923a2.747,2.747,0,0,1-3.456-1.98s-3.212-1.016-2.288-2.828,3.485.093,3.485.093a3.485,3.485,0,0,1,3.45,2.4s2.445,0,2.451,2.242Z" transform="translate(-127.072 -92.445)" fill="#263238"/>
      <path id="Path_5228" data-name="Path 5228" d="M145.47,134q1.353.709,2.683,1.44c.894.494,1.777.993,2.66,1.5s1.742,1.022,2.619,1.557,1.742,1.074,2.561,1.655l-.65-.395-.656-.389-1.313-.726-2.643-1.522-2.631-1.557Z" transform="translate(-128.261 -93.496)" fill="#fff"/>
      <path id="Path_5229" data-name="Path 5229" d="M161.095,134.627l.035-3.543s1.8-1.2.064-3.038a2.747,2.747,0,0,0-.749-3.914s.087-3.363-1.928-3.084-1.04,3.322-1.04,3.322a3.485,3.485,0,0,0,1.162,4.066s-.8,2.323,1.324,3.043Z" transform="translate(-133.193 -88.06)" fill="#263238"/>
      <path id="Path_5230" data-name="Path 5230" d="M159.75,123.85c.209,1,.412,1.992.61,2.991l.581,2.991.581,2.991.3,1.493.157.749.163.743c-.285-.976-.517-1.969-.738-2.962s-.424-1.986-.616-2.985-.383-2-.581-3S159.9,124.855,159.75,123.85Z" transform="translate(-134.247 -89.241)" fill="#fff"/>
      <path id="Path_5231" data-name="Path 5231" d="M156.007,134.249l-3.287-3.45s-2.77.68-3.008-2.643a3.619,3.619,0,0,1-3.13-4.216s-3.345-2.9-1.278-4.646,4.187,1.957,4.187,1.957a4.565,4.565,0,0,1,2.9,4.71s2.9,1.3,1.742,4Z" transform="translate(-127.908 -87.135)" fill="#455a64"/>
      <path id="Path_5232" data-name="Path 5232" d="M149.44,122.84c.825,1.011,1.615,2.056,2.375,3.113l.581.8.581.807c.186.267.366.54.546.807s.366.546.546.819c.36.546.709,1.1,1.057,1.649l.511.836.261.412.244.424c.674,1.121,1.3,2.271,1.893,3.432l-.25-.418-.25-.424-.25-.424-.256-.412-.505-.836-.517-.836c-.691-1.1-1.394-2.207-2.114-3.293-.348-.546-.72-1.086-1.08-1.626l-.546-.813-.552-.807-1.115-1.609C150.2,123.9,149.818,123.374,149.44,122.84Z" transform="translate(-129.925 -88.818)" fill="#fff"/>
      <path id="Path_5233" data-name="Path 5233" d="M167.322,143.732c.058.081.11.157.157.232,1.6,2.532-.494,4.559-.581,5.465s.656,1.539.238,1.835-.738-.581-1.655-.825c-.714-.174-2.532.645-4.187-.244a2.679,2.679,0,0,1-.4-.25,3.955,3.955,0,0,1-.767-.738,2.32,2.32,0,0,1-.168-.227l-.087-.122a4.832,4.832,0,0,1-.941-2.9,4.64,4.64,0,0,1,.07-.581,4.582,4.582,0,0,1,1.917-2.811,4.221,4.221,0,0,1,5.361.052q.163.139.331.3a7.024,7.024,0,0,1,.621.72Z" transform="translate(-133.903 -96.694)" fill="#fff"/>
      <path id="Path_5234" data-name="Path 5234" d="M164.627,153.12l.25.348-2.166,1.545a2.684,2.684,0,0,1-.4-.25Z" transform="translate(-135.321 -101.511)" fill="#dbdbdb"/>
      <path id="Path_5235" data-name="Path 5235" d="M162.053,152.24l.256.354-1.493,1.063a2.318,2.318,0,0,1-.168-.227l-.087-.122Z" transform="translate(-134.587 -101.143)" fill="#dbdbdb"/>
      <path id="Path_5236" data-name="Path 5236" d="M172.236,145.162c.058.081.11.157.157.232l-1.487,1.063-.256-.348,1.5-1.069Z" transform="translate(-138.817 -98.124)" fill="#dbdbdb"/>
      <path id="Path_5237" data-name="Path 5237" d="M171.2,143.586l-1.069.767L169.88,144l.993-.709Q171.042,143.429,171.2,143.586Z" transform="translate(-138.494 -97.391)" fill="#dbdbdb"/>
      <path id="Path_5238" data-name="Path 5238" d="M160.195,146.58l.25.354-1.5,1.051a4.647,4.647,0,0,1,.07-.581Z" transform="translate(-133.908 -98.77)" fill="#dbdbdb"/>
      <path id="Path_5239" data-name="Path 5239" d="M149.932,164.5a.116.116,0,0,1,.116.11v.18a1.522,1.522,0,0,1,.825.325.139.139,0,0,1,.064.11.122.122,0,0,1-.2.081,1.348,1.348,0,0,0-.7-.3v1.3c.709.145,1,.412,1,.865a.912.912,0,0,1-.993.86v.366a.113.113,0,0,1-.227,0v-.366a1.794,1.794,0,0,1-1.045-.453.133.133,0,0,1-.046-.1.122.122,0,0,1,.116-.116.1.1,0,0,1,.081.035,1.539,1.539,0,0,0,.906.424v-1.289c-.7-.157-.987-.412-.987-.877a.906.906,0,0,1,.976-.836v-.18a.116.116,0,0,1,.11-.139Zm-.1,1.742v-1.266c-.453,0-.749.279-.749.581s.151.563.749.709Zm.2.285V167.8a.681.681,0,0,0,.767-.627c0-.348-.174-.494-.755-.645Z" transform="translate(-129.628 -106.282)" fill="#a6a6a6"/>
      <path id="Path_5240" data-name="Path 5240" d="M153.7,168.049l1.516-1.371a.841.841,0,0,0-1.138-1.237l-.157.139a.1.1,0,0,1-.157,0,.11.11,0,0,1,0-.163l.157-.145a1.092,1.092,0,0,1,.72-.273,1.061,1.061,0,0,1,.709,1.847l-1.3,1.162H155.6a.113.113,0,0,1,0,.227h-1.829a.1.1,0,0,1-.081-.029A.122.122,0,0,1,153.7,168.049Z" transform="translate(-131.699 -106.492)" fill="#a6a6a6"/>
      <path id="Path_5241" data-name="Path 5241" d="M158.9,169.79a.232.232,0,1,1-.232.232A.232.232,0,0,1,158.9,169.79Z" transform="translate(-133.795 -108.5)" fill="#a6a6a6"/>
      <path id="Path_5242" data-name="Path 5242" d="M160.384,167.928a.11.11,0,0,1,0-.163.122.122,0,0,1,.168,0,.873.873,0,0,0,1.231-1.237.876.876,0,0,0-1.231.006.11.11,0,0,1-.163,0,.087.087,0,0,1,0-.035h0a.088.088,0,0,1,0-.041h0l.157-1.307a.085.085,0,0,1,.122-.087h1.51a.116.116,0,1,1,0,.232h-1.452l-.116.964a1.1,1.1,0,0,1,1.33.168,1.115,1.115,0,0,1,0,1.562,1.127,1.127,0,0,1-.778.319A1.1,1.1,0,0,1,160.384,167.928Z" transform="translate(-134.498 -106.516)" fill="#a6a6a6"/>
      <path id="Path_5243" data-name="Path 5243" d="M165.21,166.622a2.062,2.062,0,0,1,.314-1.133.923.923,0,0,1,1.626,0,2.213,2.213,0,0,1,0,2.271.923.923,0,0,1-1.626,0A2.079,2.079,0,0,1,165.21,166.622Zm.232,0a1.835,1.835,0,0,0,.273,1.011.778.778,0,0,0,.621.389.8.8,0,0,0,.621-.389,1.963,1.963,0,0,0,0-2.015.767.767,0,0,0-.621-.389.749.749,0,0,0-.621.389A1.829,1.829,0,0,0,165.442,166.622Z" transform="translate(-136.536 -106.493)" fill="#a6a6a6"/>
      <rect id="Rectangle_108" data-name="Rectangle 108" width="25.526" height="25.525" transform="translate(42.386 30.596)" fill="#92278f"/>
      <rect id="Rectangle_109" data-name="Rectangle 109" width="25.526" height="25.525" transform="translate(42.386 30.596)" fill="#fff" opacity="0.5"/>
      <path id="Path_5244" data-name="Path 5244" d="M206.977,134.45c3.235,3.281,6.487,6.72,6.487,6.72a1.533,1.533,0,0,1-1.162,1.092l-6.563-6.65-.337-.337-.227-.232-.674-.685-.232-.232-1.336-1.347-.227-.232c-1.318-1.33-2.323-2.323-2.608-2.643-1.464-1.487-8.6-4.565-8.6-4.565s-.581-.378.186-1.365c0,0,2.765,1.307,5.349,2.614L191,122.753a1.2,1.2,0,0,1,.534-1.022l3.45,2.283-3.09-2.979s.076-.482.906-.86l5.337,5.506-3.793-5.012a1.928,1.928,0,0,1,.906-.668s2.323,3.52,5.61,7.9l-3.473-5.86a1.284,1.284,0,0,1,.958-.453s2.706,6.453,5.57,9.769l.215.244c.1.11.2.215.3.319h0l1.045,1.034.227.232.68.68.227.232Z" transform="translate(-147.348 -87.627)" fill="#fff"/>
      <path id="Path_5245" data-name="Path 5245" d="M198.37,121.591s2.706,6.453,5.57,9.769l-1.231,1.162c-1.318-1.33-2.323-2.323-2.608-2.643-1.464-1.487-8.6-4.565-8.6-4.565s-.581-.378.186-1.365c0,0,2.765,1.307,5.349,2.614l-6.04-3.81a1.2,1.2,0,0,1,.534-1.022l3.45,2.283-3.09-2.979s.076-.482.906-.86l5.337,5.506-3.793-5.012a1.928,1.928,0,0,1,.906-.668s2.323,3.52,5.61,7.9l-3.473-5.86A1.284,1.284,0,0,1,198.37,121.591Z" transform="translate(-147.348 -87.627)" fill="#455a64"/>
      <path id="Path_5246" data-name="Path 5246" d="M214.135,141.347l-1.225,1.162-1.359-1.347L212.77,140c.1.11.2.215.3.319h0Z" transform="translate(-155.963 -96.011)" fill="#455a64"/>
      <path id="Path_5247" data-name="Path 5247" d="M216.169,143.4l-1.225,1.162-.674-.685,1.22-1.162Z" transform="translate(-157.103 -97.147)" fill="#455a64"/>
      <path id="Path_5248" data-name="Path 5248" d="M217.382,144.637l-1.225,1.162-.337-.337,1.225-1.162Z" transform="translate(-157.753 -97.814)" fill="#455a64"/>
      <path id="Path_5249" data-name="Path 5249" d="M202.338,164.5a.116.116,0,0,1,.11.11v.18a1.5,1.5,0,0,1,.825.325.134.134,0,0,1,.07.11.122.122,0,0,1-.122.116.1.1,0,0,1-.081-.035,1.365,1.365,0,0,0-.7-.3v1.3c.7.145,1,.412,1,.865a.912.912,0,0,1-.993.86v.366a.11.11,0,0,1-.221,0v-.366a1.742,1.742,0,0,1-1.045-.453.122.122,0,0,1-.052-.1.128.128,0,0,1,.116-.116.1.1,0,0,1,.081.035,1.55,1.55,0,0,0,.906.424v-1.289c-.7-.157-.982-.412-.982-.877a.9.9,0,0,1,.964-.865v-.18a.116.116,0,0,1,.122-.11Zm-.1,1.742v-1.266a.674.674,0,0,0-.743.581c0,.395.145.563.726.709Zm.209.285V167.8a.681.681,0,0,0,.767-.627c0-.348-.168-.494-.767-.645Z" transform="translate(-151.594 -106.282)" fill="#a6a6a6"/>
      <path id="Path_5250" data-name="Path 5250" d="M206.6,165.322l-.459.273h-.058a.111.111,0,0,1-.052-.209l.627-.383a.122.122,0,0,1,.151.046.128.128,0,0,1,0,.081v2.985a.11.11,0,0,1-.11.11.116.116,0,0,1-.11-.11Z" transform="translate(-153.624 -106.489)" fill="#a6a6a6"/>
      <path id="Path_5251" data-name="Path 5251" d="M209.262,169.79a.235.235,0,1,1-.232.232.232.232,0,0,1,.232-.232Z" transform="translate(-154.906 -108.5)" fill="#a6a6a6"/>
      <path id="Path_5252" data-name="Path 5252" d="M210.58,166.62a2.056,2.056,0,0,1,.308-1.133A1.016,1.016,0,0,1,211.7,165a1,1,0,0,1,.813.488,2.178,2.178,0,0,1,0,2.271,1,1,0,0,1-.813.488,1.016,1.016,0,0,1-.813-.488,2.079,2.079,0,0,1-.308-1.138Zm.227,0a1.835,1.835,0,0,0,.273,1.011.784.784,0,0,0,.621.389.8.8,0,0,0,.627-.389,2,2,0,0,0,0-2.015.773.773,0,0,0-.627-.389.761.761,0,0,0-.621.389,1.829,1.829,0,0,0-.256,1Z" transform="translate(-155.556 -106.492)" fill="#a6a6a6"/>
      <path id="Path_5253" data-name="Path 5253" d="M216.26,166.62a2.056,2.056,0,0,1,.308-1.133,1.016,1.016,0,0,1,.813-.488,1,1,0,0,1,.813.488,2.178,2.178,0,0,1,0,2.271,1,1,0,0,1-.813.488,1.017,1.017,0,0,1-.813-.488A2.079,2.079,0,0,1,216.26,166.62Zm.227,0a1.835,1.835,0,0,0,.273,1.011.691.691,0,0,0,1.243,0,1.963,1.963,0,0,0,0-2.015.691.691,0,0,0-1.243,0A1.83,1.83,0,0,0,216.486,166.62Z" transform="translate(-157.937 -106.492)" fill="#a6a6a6"/>
      <rect id="Rectangle_110" data-name="Rectangle 110" width="25.526" height="25.525" transform="translate(72.564 30.596)" fill="#92278f"/>
      <rect id="Rectangle_111" data-name="Rectangle 111" width="25.526" height="25.525" transform="translate(72.564 30.596)" fill="#fff" opacity="0.5"/>
      <path id="Path_5254" data-name="Path 5254" d="M249.413,137.289c2,6.511,8.131,5.68,9.873,5.146s7.271-3.281,5.268-9.792-8.538-5.006-9.7-4.646C253.531,128.409,247.415,130.784,249.413,137.289Z" transform="translate(-171.669 -90.809)" fill="#fff"/>
      <path id="Path_5255" data-name="Path 5255" d="M260,129.289s.273,2.451,4.571.982C264.588,130.27,261.678,127.18,260,129.289Z" transform="translate(-176.274 -91.212)" fill="#455a64"/>
      <path id="Path_5256" data-name="Path 5256" d="M260.451,129.009s2.021.134,1.446-3.549C261.9,125.46,258.982,127.365,260.451,129.009Z" transform="translate(-176.289 -89.916)" fill="#455a64"/>
      <path id="Path_5257" data-name="Path 5257" d="M257.7,129.782s-.7,1.9-3.833-.128C253.87,129.655,256.8,127.779,257.7,129.782Z" transform="translate(-173.704 -91.34)" fill="#455a64"/>
      <path id="Path_5258" data-name="Path 5258" d="M259.888,129.62s-1.882,1.591,1.742,4.338C261.618,133.958,262.559,129.841,259.888,129.62Z" transform="translate(-176.022 -91.66)" fill="#455a64"/>
      <path id="Path_5259" data-name="Path 5259" d="M258.175,130.2s-2.712-.761-2.358,3.874C255.817,134.07,259.975,132.63,258.175,130.2Z" transform="translate(-174.507 -91.882)" fill="#455a64"/>
      <path id="Path_5260" data-name="Path 5260" d="M258.429,128.221a4.861,4.861,0,0,0-1.69-4.141,1.557,1.557,0,0,0-1.429,1.22s2.323,1.3,2.474,3.4l.54-.319" transform="translate(-174.308 -89.337)" fill="#263238"/>
      <path id="Path_5261" data-name="Path 5261" d="M254.4,164.5a.116.116,0,0,1,.116.11v.18a1.522,1.522,0,0,1,.825.325.14.14,0,0,1,.064.11.122.122,0,0,1-.2.081,1.348,1.348,0,0,0-.7-.3v1.3c.709.145,1,.412,1,.865a.912.912,0,0,1-.993.86v.366a.113.113,0,0,1-.227,0v-.366a1.794,1.794,0,0,1-1.045-.453.134.134,0,0,1-.046-.1.122.122,0,0,1,.116-.116.1.1,0,0,1,.081.035,1.551,1.551,0,0,0,.906.424v-1.289c-.7-.157-.987-.412-.987-.877a.906.906,0,0,1,.976-.836v-.18a.116.116,0,0,1,.11-.139Zm-.1,1.742v-1.266c-.453,0-.749.279-.749.581s.151.563.749.709Zm.2.285V167.8a.681.681,0,0,0,.767-.627c0-.348-.163-.494-.767-.645Z" transform="translate(-173.423 -106.282)" fill="#a6a6a6"/>
      <path id="Path_5262" data-name="Path 5262" d="M258.663,165.319l-.465.273h-.052a.11.11,0,0,1-.1-.058.1.1,0,0,1,.041-.151l.627-.383a.116.116,0,0,1,.168.128v2.985a.11.11,0,0,1-.221,0Z" transform="translate(-175.448 -106.486)" fill="#a6a6a6"/>
      <path id="Path_5263" data-name="Path 5263" d="M261.332,169.79a.232.232,0,1,1-.232.232A.232.232,0,0,1,261.332,169.79Z" transform="translate(-176.735 -108.5)" fill="#a6a6a6"/>
      <path id="Path_5264" data-name="Path 5264" d="M262.814,167.917a.11.11,0,0,1,0-.163.122.122,0,0,1,.168,0,.873.873,0,0,0,1.231-1.237.876.876,0,0,0-1.231.006.11.11,0,0,1-.163,0,.087.087,0,0,1-.029-.035h0a.088.088,0,0,1,0-.041h0l.157-1.307a.116.116,0,0,1,.116-.11h1.516a.116.116,0,1,1,0,.232h-1.417l-.116.964a1.1,1.1,0,0,1,1.33.168,1.115,1.115,0,0,1,0,1.562,1.127,1.127,0,0,1-.778.319A1.1,1.1,0,0,1,262.814,167.917Z" transform="translate(-177.438 -106.504)" fill="#a6a6a6"/>
      <path id="Path_5265" data-name="Path 5265" d="M267.64,166.622a2.062,2.062,0,0,1,.314-1.133.923.923,0,0,1,1.626,0,2.213,2.213,0,0,1,0,2.271.923.923,0,0,1-1.626,0,2.079,2.079,0,0,1-.314-1.138Zm.232,0a1.836,1.836,0,0,0,.273,1.011.778.778,0,0,0,.621.389.8.8,0,0,0,.621-.389,1.963,1.963,0,0,0,0-2.015.767.767,0,0,0-.621-.389.749.749,0,0,0-.621.389,1.83,1.83,0,0,0-.3,1Z" transform="translate(-179.476 -106.493)" fill="#a6a6a6"/>
      <rect id="Rectangle_112" data-name="Rectangle 112" width="25.526" height="25.525" transform="translate(12.209 67.865)" fill="#92278f"/>
      <rect id="Rectangle_113" data-name="Rectangle 113" width="25.526" height="25.525" transform="translate(12.209 67.865)" fill="#fff" opacity="0.5"/>
      <path id="Path_5266" data-name="Path 5266" d="M161.2,193.079v12.591c0,.778-1.568,1.225-6.83,1.225s-6.824-.447-6.824-1.225V193.079c0-3.357,3.705-5.546,3.705-6.2V184.35H157.5v2.532C157.5,187.533,161.2,189.722,161.2,193.079Z" transform="translate(-129.133 -114.604)" fill="#fff"/>
      <rect id="Rectangle_114" data-name="Rectangle 114" width="6.946" height="2.12" transform="translate(21.774 68.579)" fill="#37474f"/>
      <rect id="Rectangle_115" data-name="Rectangle 115" width="13.654" height="6.807" transform="translate(18.417 81.804)" fill="#37474f"/>
      <path id="Path_5267" data-name="Path 5267" d="M149.512,229a.116.116,0,0,1,.116.11v.186a1.521,1.521,0,0,1,.825.325.139.139,0,0,1,.064.11.122.122,0,0,1-.2.081,1.347,1.347,0,0,0-.7-.3v1.3c.709.151,1,.412,1,.871a.918.918,0,0,1-.993.86v.36a.113.113,0,0,1-.227,0v-.366a1.742,1.742,0,0,1-1.045-.453.12.12,0,0,1,.07-.215.116.116,0,0,1,.081.035,1.516,1.516,0,0,0,.906.424V231c-.7-.157-.987-.407-.987-.871a.906.906,0,0,1,.976-.842v-.18A.116.116,0,0,1,149.512,229Zm-.1,1.742v-1.266c-.453,0-.749.279-.749.581s.151.569.749.714Zm.2.285v1.284a.682.682,0,0,0,.767-.633c0-.354-.163-.488-.767-.621Z" transform="translate(-129.452 -133.322)" fill="#a6a6a6"/>
      <path id="Path_5268" data-name="Path 5268" d="M155.35,229.713l-.842.865a1.1,1.1,0,0,1,.552,1.859,1.162,1.162,0,0,1-.778.325,1.1,1.1,0,0,1-.778-.325.116.116,0,0,1,.163-.163.894.894,0,0,0,.616.25.906.906,0,0,0,.616-.25.871.871,0,0,0-.616-1.487.122.122,0,0,1-.093-.046h0a.122.122,0,0,1,0-.168l.807-.831h-1.249a.116.116,0,1,1,0-.232h1.522a.116.116,0,0,1,.116.116.168.168,0,0,1,0,.052Z" transform="translate(-131.619 -133.535)" fill="#a6a6a6"/>
      <path id="Path_5269" data-name="Path 5269" d="M158.642,234.31a.226.226,0,0,1,.232.232.232.232,0,1,1-.465,0,.226.226,0,0,1,.232-.232Z" transform="translate(-133.686 -135.547)" fill="#a6a6a6"/>
      <path id="Path_5270" data-name="Path 5270" d="M160,231.121a2.1,2.1,0,0,1,.314-1.162.923.923,0,0,1,1.626,0,2.149,2.149,0,0,1,.314,1.162,2.108,2.108,0,0,1-.314,1.133.918.918,0,0,1-1.626,0A2.062,2.062,0,0,1,160,231.121Zm.232,0a1.829,1.829,0,0,0,.273,1,.767.767,0,0,0,.621.389.778.778,0,0,0,.616-.412,1.963,1.963,0,0,0,0-2.015.767.767,0,0,0-.621-.389.749.749,0,0,0-.621.389,1.836,1.836,0,0,0-.3,1.034Z" transform="translate(-134.352 -133.52)" fill="#a6a6a6"/>
      <path id="Path_5271" data-name="Path 5271" d="M165.629,231.121a2.1,2.1,0,0,1,.314-1.162.923.923,0,0,1,1.626,0,2.149,2.149,0,0,1,.314,1.162,2.108,2.108,0,0,1-.314,1.133.918.918,0,0,1-1.626,0A2.062,2.062,0,0,1,165.629,231.121Zm.232,0a1.829,1.829,0,0,0,.273,1,.767.767,0,0,0,.621.389.778.778,0,0,0,.621-.389,1.963,1.963,0,0,0,0-2.015.767.767,0,0,0-.621-.389.749.749,0,0,0-.621.389,1.835,1.835,0,0,0-.29,1.011Z" transform="translate(-136.712 -133.52)" fill="#a6a6a6"/>
      <rect id="Rectangle_116" data-name="Rectangle 116" width="25.526" height="25.525" transform="translate(42.386 67.865)" fill="#92278f"/>
      <rect id="Rectangle_117" data-name="Rectangle 117" width="25.526" height="25.525" transform="translate(42.386 67.865)" fill="#fff" opacity="0.5"/>
      <rect id="Rectangle_118" data-name="Rectangle 118" width="10.652" height="18.87" transform="translate(49.96 73.394)" fill="#fff"/>
      <rect id="Rectangle_119" data-name="Rectangle 119" width="10.652" height="18.87" transform="translate(49.96 73.394)" fill="#fff"/>
      <rect id="Rectangle_120" data-name="Rectangle 120" width="10.652" height="7.928" transform="translate(49.96 80.369)" fill="#455a64"/>
      <path id="Path_5272" data-name="Path 5272" d="M212.516,188.756H201.87l1.318-2.6h8Z" transform="translate(-151.905 -115.362)" fill="#fff"/>
      <path id="Path_5273" data-name="Path 5273" d="M212.516,188.756H201.87l1.318-2.6h8Z" transform="translate(-151.905 -115.362)" fill="#dbdbdb"/>
      <rect id="Rectangle_121" data-name="Rectangle 121" width="8.015" height="2.19" transform="translate(51.266 68.608)" fill="#fff"/>
      <path id="Path_5274" data-name="Path 5274" d="M201.658,229a.116.116,0,0,1,.11.11v.186a1.5,1.5,0,0,1,.825.325.134.134,0,0,1,.07.11.122.122,0,0,1-.209.081,1.33,1.33,0,0,0-.691-.3v1.3c.7.151,1,.412,1,.871a.918.918,0,0,1-.993.86v.36a.11.11,0,0,1-.221,0v-.366a1.742,1.742,0,0,1-1.045-.453.116.116,0,0,1-.052-.1.128.128,0,0,1,.116-.116.116.116,0,0,1,.081.035,1.516,1.516,0,0,0,.906.424V231c-.7-.157-.982-.407-.982-.871a.9.9,0,0,1,.976-.842v-.18A.116.116,0,0,1,201.658,229Zm-.1,1.742v-1.266a.674.674,0,0,0-.743.581c0,.378.145.569.743.714Zm.209.285v1.284a.68.68,0,0,0,.761-.633c0-.354-.163-.488-.761-.621Z" transform="translate(-151.309 -133.322)" fill="#a6a6a6"/>
      <path id="Path_5275" data-name="Path 5275" d="M205.417,232.572l1.516-1.371a.832.832,0,0,0-1.133-1.22l-.157.145a.113.113,0,1,1-.157-.163l.163-.151a1.092,1.092,0,0,1,.72-.273,1.061,1.061,0,0,1,.709,1.847l-1.3,1.162h1.539a.116.116,0,0,1,0,.232h-1.829a.11.11,0,0,1-.087-.035.122.122,0,0,1,.017-.174Z" transform="translate(-153.372 -133.548)" fill="#a6a6a6"/>
      <path id="Path_5276" data-name="Path 5276" d="M210.622,234.31a.232.232,0,1,1,0,.465.232.232,0,0,1-.232-.232.226.226,0,0,1,.232-.232Z" transform="translate(-155.476 -135.547)" fill="#a6a6a6"/>
      <path id="Path_5277" data-name="Path 5277" d="M212.1,232.462a.11.11,0,0,1,0-.163.122.122,0,0,1,.168,0,.866.866,0,0,0,.581.256.877.877,0,0,0,.616-.256.889.889,0,0,0,.256-.616.868.868,0,0,0-1.481-.616.122.122,0,0,1-.163,0,.069.069,0,0,1-.029-.041h0a.076.076,0,0,1,0-.035h0l.157-1.313a.093.093,0,0,1,.046-.081.087.087,0,0,1,.076-.029h1.516a.116.116,0,0,1,.116.116.11.11,0,0,1-.116.116h-1.417l-.116.964a1.074,1.074,0,0,1,.581-.145,1.1,1.1,0,0,1,1.1,1.1,1.075,1.075,0,0,1-.325.778,1.121,1.121,0,0,1-.778.325A1.1,1.1,0,0,1,212.1,232.462Z" transform="translate(-156.171 -133.56)" fill="#a6a6a6"/>
      <path id="Path_5278" data-name="Path 5278" d="M216.939,231.119a2.091,2.091,0,0,1,.308-1.162,1.016,1.016,0,0,1,.813-.488,1,1,0,0,1,.813.488,2.1,2.1,0,0,1,.319,1.162,2.062,2.062,0,0,1-.319,1.133,1.011,1.011,0,0,1-.813.494,1.028,1.028,0,0,1-.813-.494,2.056,2.056,0,0,1-.308-1.133Zm.227,0a1.83,1.83,0,0,0,.273,1,.691.691,0,0,0,1.243,0,1.963,1.963,0,0,0,0-2.015.691.691,0,0,0-1.243,0A1.835,1.835,0,0,0,217.166,231.119Z" transform="translate(-158.221 -133.519)" fill="#a6a6a6"/>
      <rect id="Rectangle_122" data-name="Rectangle 122" width="25.526" height="25.525" transform="translate(72.564 67.865)" fill="#92278f"/>
      <rect id="Rectangle_123" data-name="Rectangle 123" width="25.526" height="25.525" transform="translate(72.564 67.865)" fill="#fff" opacity="0.5"/>
      <path id="Path_5279" data-name="Path 5279" d="M264.123,193.079v12.591c0,.778-1.127,1.225-4.919,1.225s-4.913-.447-4.913-1.225V193.079c0-3.357,2.672-5.546,2.672-6.2V184.35h4.489v2.532C261.451,187.533,264.123,189.722,264.123,193.079Z" transform="translate(-173.88 -114.604)" fill="#fff"/>
      <rect id="Rectangle_124" data-name="Rectangle 124" width="5.001" height="2.12" transform="translate(82.826 68.579)" fill="#455a64"/>
      <rect id="Rectangle_125" data-name="Rectangle 125" width="7.039" height="4.873" transform="translate(81.81 82.768)" fill="#dbdbdb"/>
      <path id="Path_5280" data-name="Path 5280" d="M253.042,229a.116.116,0,0,1,.116.11v.186a1.521,1.521,0,0,1,.825.325.14.14,0,0,1,.064.11.122.122,0,0,1-.2.081,1.347,1.347,0,0,0-.7-.3v1.3c.709.151,1,.412,1,.871a.918.918,0,0,1-.993.86v.36a.113.113,0,0,1-.227,0v-.366a1.742,1.742,0,0,1-1.045-.453.12.12,0,0,1,.07-.215.116.116,0,0,1,.081.035,1.516,1.516,0,0,0,.906.424V231c-.7-.157-.987-.407-.987-.871a.906.906,0,0,1,.976-.842v-.18A.116.116,0,0,1,253.042,229Zm-.1,1.742v-1.266c-.453,0-.749.279-.749.581s.151.569.749.714Zm.2.285v1.284a.682.682,0,0,0,.767-.633c0-.354-.163-.488-.767-.621Z" transform="translate(-172.853 -133.322)" fill="#a6a6a6"/>
      <path id="Path_5281" data-name="Path 5281" d="M256.823,232.559l1.516-1.371a.835.835,0,1,0-1.121-1.237l-.163.145a.111.111,0,0,1-.151-.163l.157-.151a1.092,1.092,0,0,1,.72-.273,1.061,1.061,0,0,1,.709,1.847l-1.3,1.162h1.533a.116.116,0,1,1,0,.232h-1.812a.1.1,0,0,1-.081-.035A.122.122,0,0,1,256.823,232.559Z" transform="translate(-174.932 -133.535)" fill="#a6a6a6"/>
      <path id="Path_5282" data-name="Path 5282" d="M262.012,234.31a.227.227,0,0,1,.232.232.232.232,0,0,1-.465,0,.226.226,0,0,1,.232-.232Z" transform="translate(-177.02 -135.547)" fill="#a6a6a6"/>
      <path id="Path_5283" data-name="Path 5283" d="M263.319,231.121a2.1,2.1,0,0,1,.314-1.162.923.923,0,0,1,1.626,0,2.149,2.149,0,0,1,.314,1.162,2.108,2.108,0,0,1-.314,1.133.918.918,0,0,1-1.626,0A2.062,2.062,0,0,1,263.319,231.121Zm.232,0a1.829,1.829,0,0,0,.273,1,.691.691,0,0,0,1.243,0,1.963,1.963,0,0,0,0-2.015.691.691,0,0,0-1.243,0A1.835,1.835,0,0,0,263.552,231.121Z" transform="translate(-177.665 -133.52)" fill="#a6a6a6"/>
      <path id="Path_5284" data-name="Path 5284" d="M269,231.121a2.1,2.1,0,0,1,.314-1.162.923.923,0,0,1,1.626,0,2.149,2.149,0,0,1,.314,1.162,2.108,2.108,0,0,1-.314,1.133.918.918,0,0,1-1.626,0A2.062,2.062,0,0,1,269,231.121Zm.232,0a1.829,1.829,0,0,0,.273,1,.767.767,0,0,0,.621.389.778.778,0,0,0,.616-.412,1.963,1.963,0,0,0,0-2.015.767.767,0,0,0-.621-.389.749.749,0,0,0-.621.389A1.835,1.835,0,0,0,269.232,231.121Z" transform="translate(-180.046 -133.52)" fill="#a6a6a6"/>
      <rect id="Rectangle_126" data-name="Rectangle 126" width="25.526" height="25.525" transform="translate(12.209 115.687)" fill="#92278f"/>
      <rect id="Rectangle_127" data-name="Rectangle 127" width="25.526" height="25.525" transform="translate(12.209 115.687)" fill="#fff" opacity="0.5"/>
      <path id="Path_5285" data-name="Path 5285" d="M148.69,278.37a44.157,44.157,0,0,0,2,11.476h7.55c.215,0,2.805-6.011,2.805-12.028,0-6.278-4.356-7.353-4.356-7.788v-2.41h-4.426v2.41C152.244,270.466,148.69,272.806,148.69,278.37Zm8.416-6.255c2.161,0,3.92,5.866,2.323,6.435-2.236.807-4.309-6.418-2.323-6.435Z" transform="translate(-129.611 -149.512)" fill="#fff"/>
      <path id="Path_5286" data-name="Path 5286" d="M156.007,274.793c.122-1.5-3.189-1.162-4.571,3.758-1.051,3.729.139,11.424,3.856,11.424,4.437,0,4.71-6.528,4.42-6.789S155.455,281.554,156.007,274.793Z" transform="translate(-130.608 -152.19)" fill="#ebebeb"/>
      <path id="Path_5287" data-name="Path 5287" d="M153.21,268h6.243l-.43-2.753h-5.39Z" transform="translate(-131.506 -148.518)" fill="#455a64"/>
      <path id="Path_5288" data-name="Path 5288" d="M149.532,313a.11.11,0,0,1,.116.11v.186a1.521,1.521,0,0,1,.825.325.122.122,0,0,1,.064.1.116.116,0,0,1-.122.116.14.14,0,0,1-.081-.029,1.26,1.26,0,0,0-.7-.3v1.3c.709.151,1,.418,1,.871a.912.912,0,0,1-.993.86v.36a.113.113,0,0,1-.227,0v-.366a1.742,1.742,0,0,1-1.045-.453.11.11,0,0,1-.046-.093.116.116,0,0,1,.116-.116.122.122,0,0,1,.081.029,1.469,1.469,0,0,0,.906.424V315c-.7-.151-.987-.407-.987-.871a.912.912,0,0,1,.976-.842v-.174a.11.11,0,0,1,.11-.11Zm-.1,1.742v-1.266a.67.67,0,0,0-.749.616C148.684,314.429,148.835,314.62,149.433,314.742Zm.2.285v1.284a.682.682,0,0,0,.767-.633c0-.354-.163-.5-.767-.633Z" transform="translate(-129.46 -168.535)" fill="#a6a6a6"/>
      <path id="Path_5289" data-name="Path 5289" d="M153.412,316.452a.11.11,0,0,1,0-.163.122.122,0,0,1,.168,0,.894.894,0,0,0,.616.25.867.867,0,1,0-.645-1.481.11.11,0,0,1-.163,0,.1.1,0,0,1-.029-.041h0v-.035h0l.157-1.313a.093.093,0,0,1,.046-.081.111.111,0,0,1,.076-.029h1.51a.116.116,0,0,1,.116.116.11.11,0,0,1-.116.116h-1.417l-.116.964a1.162,1.162,0,0,1,.581-.145,1.1,1.1,0,0,1,.772,1.882,1.115,1.115,0,0,1-1.562,0Z" transform="translate(-131.569 -168.77)" fill="#a6a6a6"/>
      <path id="Path_5290" data-name="Path 5290" d="M158.622,318.29a.227.227,0,0,1,.232.232.232.232,0,0,1-.465,0,.226.226,0,0,1,.232-.232Z" transform="translate(-133.677 -170.753)" fill="#a6a6a6"/>
      <path id="Path_5291" data-name="Path 5291" d="M159.929,315.1a2.1,2.1,0,0,1,.314-1.162.923.923,0,0,1,1.626,0,2.149,2.149,0,0,1,.314,1.162,2.108,2.108,0,0,1-.314,1.133.918.918,0,0,1-1.626,0,2.062,2.062,0,0,1-.314-1.133Zm.232,0a1.853,1.853,0,0,0,.273,1.011.778.778,0,0,0,.621.389.8.8,0,0,0,.621-.389,1.969,1.969,0,0,0,0-2.021.778.778,0,0,0-.621-.389.767.767,0,0,0-.621.389A1.853,1.853,0,0,0,160.162,315.1Z" transform="translate(-134.322 -168.726)" fill="#a6a6a6"/>
      <path id="Path_5292" data-name="Path 5292" d="M165.609,315.1a2.1,2.1,0,0,1,.314-1.162.923.923,0,0,1,1.626,0,2.149,2.149,0,0,1,.314,1.162,2.108,2.108,0,0,1-.314,1.133.918.918,0,0,1-1.626,0A2.062,2.062,0,0,1,165.609,315.1Zm.232,0a1.853,1.853,0,0,0,.273,1.011.778.778,0,0,0,.621.389.8.8,0,0,0,.621-.389,1.969,1.969,0,0,0,0-2.021.778.778,0,0,0-.621-.389.767.767,0,0,0-.621.389,1.853,1.853,0,0,0-.279,1.011Z" transform="translate(-136.703 -168.726)" fill="#a6a6a6"/>
      <rect id="Rectangle_128" data-name="Rectangle 128" width="25.526" height="25.525" transform="translate(42.386 115.687)" fill="#92278f"/>
      <rect id="Rectangle_129" data-name="Rectangle 129" width="25.526" height="25.525" transform="translate(42.386 115.687)" fill="#fff" opacity="0.5"/>
      <rect id="Rectangle_130" data-name="Rectangle 130" width="19.996" height="14.206" rx="4.56" transform="translate(45.226 122.319)" fill="#fff"/>
      <rect id="Rectangle_131" data-name="Rectangle 131" width="15.461" height="1.777" transform="translate(47.491 120.542)" fill="#455a64"/>
      <rect id="Rectangle_132" data-name="Rectangle 132" width="20.124" height="7.312" transform="translate(45.226 125.763)" fill="#455a64"/>
      <path id="Path_5293" data-name="Path 5293" d="M212.617,284.878c0,1.7-2.73,3.078-6.1,3.078s-6.1-1.376-6.1-3.078,2.73-3.078,6.1-3.078S212.617,283.176,212.617,284.878Z" transform="translate(-151.297 -155.456)" fill="#fff"/>
      <path id="Path_5294" data-name="Path 5294" d="M201.358,313a.11.11,0,0,1,.116.11v.186a1.521,1.521,0,0,1,.825.325.116.116,0,0,1-.058.221.128.128,0,0,1-.081-.029,1.261,1.261,0,0,0-.7-.3v1.3c.709.151,1,.418,1,.871a.918.918,0,0,1-.993.86v.36a.113.113,0,0,1-.227,0v-.366a1.742,1.742,0,0,1-1.045-.453.116.116,0,0,1-.052-.093.122.122,0,0,1,.116-.116.14.14,0,0,1,.087.029,1.47,1.47,0,0,0,.906.424V315c-.7-.151-.987-.407-.987-.871a.912.912,0,0,1,.976-.842v-.174a.11.11,0,0,1,.11-.11Zm-.1,1.742v-1.266a.67.67,0,0,0-.749.616C200.51,314.429,200.644,314.62,201.259,314.742Zm.2.285v1.284a.682.682,0,0,0,.767-.633c0-.354-.163-.5-.767-.633Z" transform="translate(-151.184 -168.535)" fill="#a6a6a6"/>
      <path id="Path_5295" data-name="Path 5295" d="M207,316.108h-1.777a.1.1,0,0,1-.081-.18l1.882-2.323h0a.1.1,0,0,1,.157,0,.156.156,0,0,1,.035.058h0V315.9h.221a.116.116,0,1,1,0,.227h-.221v.581a.113.113,0,0,1-.227,0Zm0-.227v-1.9l-1.539,1.9Z" transform="translate(-153.264 -168.774)" fill="#a6a6a6"/>
      <path id="Path_5296" data-name="Path 5296" d="M210.922,318.29a.226.226,0,0,1,.232.232.232.232,0,0,1-.465,0,.226.226,0,0,1,.232-.232Z" transform="translate(-155.602 -170.753)" fill="#a6a6a6"/>
      <path id="Path_5297" data-name="Path 5297" d="M212.4,316.452a.11.11,0,0,1,0-.163.122.122,0,0,1,.168,0,.894.894,0,0,0,.616.25.867.867,0,1,0-.616-1.481.11.11,0,0,1-.163,0,.1.1,0,0,1-.029-.041h0v-.035h0l.157-1.313a.093.093,0,0,1,.046-.081.11.11,0,0,1,.076-.029h1.51a.116.116,0,1,1,0,.232h-1.435l-.116.964a1.162,1.162,0,0,1,.581-.145,1.1,1.1,0,0,1,.772,1.882,1.115,1.115,0,0,1-1.562,0Z" transform="translate(-156.306 -168.77)" fill="#a6a6a6"/>
      <path id="Path_5298" data-name="Path 5298" d="M217.229,315.1a2.1,2.1,0,0,1,.314-1.162.923.923,0,0,1,1.626,0,2.149,2.149,0,0,1,.314,1.162,2.108,2.108,0,0,1-.314,1.133.918.918,0,0,1-1.626,0,2.062,2.062,0,0,1-.314-1.133Zm.232,0a1.852,1.852,0,0,0,.273,1.011.691.691,0,0,0,1.243,0,1.969,1.969,0,0,0,0-2.021.691.691,0,0,0-1.243,0A1.853,1.853,0,0,0,217.462,315.1Z" transform="translate(-158.343 -168.726)" fill="#a6a6a6"/>
      <rect id="Rectangle_133" data-name="Rectangle 133" width="25.526" height="25.525" transform="translate(72.564 115.687)" fill="#92278f"/>
      <rect id="Rectangle_134" data-name="Rectangle 134" width="25.526" height="25.525" transform="translate(72.564 115.687)" fill="#fff" opacity="0.5"/>
      <path id="Path_5299" data-name="Path 5299" d="M264.441,285.069v6.8H252.32v-6.8c0-2.375.581-8.619,6.063-8.619S264.441,282.693,264.441,285.069Z" transform="translate(-173.054 -153.213)" fill="#fff"/>
      <path id="Path_5300" data-name="Path 5300" d="M264.094,303.627H251.281a.622.622,0,0,1-.621-.621h0a.616.616,0,0,1,.621-.616h12.812a.616.616,0,0,1,.616.616h0A.621.621,0,0,1,264.094,303.627Z" transform="translate(-172.358 -164.088)" fill="#fff"/>
      <rect id="Rectangle_135" data-name="Rectangle 135" width="3.822" height="2.927" transform="translate(83.413 121.849)" fill="#fff"/>
      <rect id="Rectangle_136" data-name="Rectangle 136" width="4.716" height="1.893" transform="translate(82.966 120.437)" fill="#455a64"/>
      <rect id="Rectangle_137" data-name="Rectangle 137" width="1.719" height="2.184" transform="translate(84.464 118.579)" fill="#455a64"/>
      <path id="Path_5301" data-name="Path 5301" d="M259.342,266.889a.819.819,0,0,0,.052,1.434c.581.343,3.682-.418,4.013-.383s1.1.383,1.2.383.447-.174.43-.331a4.066,4.066,0,0,0-1.876-1.121C262.357,266.686,260,266.384,259.342,266.889Z" transform="translate(-175.831 -149.089)" fill="#455a64"/>
      <path id="Path_5302" data-name="Path 5302" d="M253.3,313a.11.11,0,0,1,.116.11v.186a1.522,1.522,0,0,1,.825.325.122.122,0,0,1,.064.1.116.116,0,0,1-.122.116.14.14,0,0,1-.081-.029,1.26,1.26,0,0,0-.7-.3v1.3c.709.151,1,.418,1,.871a.912.912,0,0,1-.993.86v.36a.113.113,0,0,1-.226,0v-.366a1.742,1.742,0,0,1-1.045-.453.11.11,0,0,1-.046-.093.116.116,0,0,1,.116-.116.122.122,0,0,1,.081.029,1.487,1.487,0,0,0,.906.424V315c-.7-.151-.987-.407-.987-.871a.912.912,0,0,1,.976-.842v-.174a.11.11,0,0,1,.11-.11Zm-.1,1.742v-1.266a.67.67,0,0,0-.749.616C252.454,314.429,252.623,314.62,253.2,314.742Zm.2.285v1.284a.682.682,0,0,0,.767-.633c0-.354-.163-.5-.767-.633Z" transform="translate(-172.962 -168.535)" fill="#a6a6a6"/>
      <path id="Path_5303" data-name="Path 5303" d="M259.14,313.693l-.865.865a1.092,1.092,0,0,1,.581.3,1.1,1.1,0,0,1,.319.784,1.08,1.08,0,0,1-.325.778,1.092,1.092,0,0,1-1.557,0,.116.116,0,0,1,.163-.163.871.871,0,0,0,.616.25.883.883,0,0,0,.616-.25.859.859,0,0,0,.256-.616.871.871,0,0,0-.871-.871.122.122,0,0,1-.093-.046h0a.122.122,0,0,1,0-.168l.807-.83h-1.249a.116.116,0,0,1,0-.232h1.522a.116.116,0,0,1,.116.116.14.14,0,0,1,0,.052Z" transform="translate(-175.129 -168.741)" fill="#a6a6a6"/>
      <path id="Path_5304" data-name="Path 5304" d="M262.432,318.29a.226.226,0,0,1,.232.232.232.232,0,1,1-.465,0,.226.226,0,0,1,.232-.232Z" transform="translate(-177.196 -170.753)" fill="#a6a6a6"/>
      <path id="Path_5305" data-name="Path 5305" d="M263.9,316.452a.11.11,0,0,1,0-.163.122.122,0,0,1,.168,0,.894.894,0,0,0,.616.25.867.867,0,1,0-.645-1.481.11.11,0,0,1-.163,0,.1.1,0,0,1-.029-.041h0v-.035h0l.157-1.313a.093.093,0,0,1,.046-.081.111.111,0,0,1,.075-.029h1.551a.116.116,0,0,1,.116.116.11.11,0,0,1-.116.116h-1.417l-.116.964a1.163,1.163,0,0,1,.581-.145,1.1,1.1,0,0,1,.772,1.882,1.115,1.115,0,0,1-1.562,0Z" transform="translate(-177.888 -168.77)" fill="#a6a6a6"/>
      <path id="Path_5306" data-name="Path 5306" d="M268.739,315.1a2.1,2.1,0,0,1,.314-1.162.923.923,0,0,1,1.626,0,2.149,2.149,0,0,1,.314,1.162,2.107,2.107,0,0,1-.314,1.133.918.918,0,0,1-1.626,0A2.062,2.062,0,0,1,268.739,315.1Zm.232,0a1.852,1.852,0,0,0,.273,1.011.784.784,0,0,0,.621.389.8.8,0,0,0,.621-.389,1.969,1.969,0,0,0,0-2.021.691.691,0,0,0-1.243,0A1.853,1.853,0,0,0,268.972,315.1Z" transform="translate(-179.937 -168.726)" fill="#a6a6a6"/>
      <rect id="Rectangle_138" data-name="Rectangle 138" width="55.674" height="15.06" transform="translate(27.448 171.076)" fill="#263238"/>
      <path id="Path_5307" data-name="Path 5307" d="M175.934,371.025h-1.6l-.325.86a.372.372,0,0,1-.343.232.452.452,0,0,1-.128,0,.378.378,0,0,1-.221-.476l1.464-3.9a.383.383,0,0,1,.7,0l1.458,3.9a.372.372,0,0,1-.215.476.423.423,0,0,1-.128,0,.354.354,0,0,1-.337-.232Zm-.267-.726-.54-1.423-.534,1.423Z" transform="translate(-139.925 -191.389)" fill="#fff"/>
      <path id="Path_5308" data-name="Path 5308" d="M181.13,371.733v-3.9a.366.366,0,0,1,.366-.366h.778a2.323,2.323,0,0,1,0,4.646H181.5a.366.366,0,0,1-.366-.383Zm.738-.366h.407a1.58,1.58,0,1,0,0-3.159h-.407Z" transform="translate(-143.21 -191.37)" fill="#fff"/>
      <path id="Path_5309" data-name="Path 5309" d="M189,371.733v-3.9a.36.36,0,0,1,.36-.366h.8a2.323,2.323,0,0,1,0,4.646h-.813a.36.36,0,0,1-.348-.383Zm.732-.366h.43a1.58,1.58,0,1,0,0-3.159h-.412Z" transform="translate(-146.509 -191.37)" fill="#fff"/>
      <path id="Path_5310" data-name="Path 5310" d="M203.149,368.208H202.1v3.525a.366.366,0,1,1-.726,0v-3.525h-1.045a.372.372,0,0,1-.366-.372.366.366,0,0,1,.366-.366h2.823a.366.366,0,0,1,.366.366A.377.377,0,0,1,203.149,368.208Z" transform="translate(-151.104 -191.37)" fill="#fff"/>
      <path id="Path_5311" data-name="Path 5311" d="M210.83,367.953a2.428,2.428,0,0,1,0,3.345,2.16,2.16,0,0,1-1.58.709,2.242,2.242,0,0,1-1.62-.709,2.474,2.474,0,0,1,0-3.345,2.213,2.213,0,0,1,1.62-.7A2.137,2.137,0,0,1,210.83,367.953Zm-.081,1.673a1.708,1.708,0,0,0-.453-1.162,1.423,1.423,0,0,0-2.114,0,1.679,1.679,0,0,0-.453,1.162,1.644,1.644,0,0,0,.453,1.162,1.411,1.411,0,0,0,2.114,0,1.673,1.673,0,0,0,.453-1.162Z" transform="translate(-154.046 -191.278)" fill="#fff"/>
      <path id="Path_5312" data-name="Path 5312" d="M220.07,369.625a2.422,2.422,0,0,1,2.428-2.375,2.5,2.5,0,0,1,1.528.511.383.383,0,0,1-.465.581,1.65,1.65,0,0,0-1.063-.366,1.742,1.742,0,0,0-1.191.476,1.644,1.644,0,0,0-.482,1.162,1.6,1.6,0,0,0,.482,1.162,1.742,1.742,0,0,0,1.191.476,1.656,1.656,0,0,0,1.063-.36.4.4,0,0,1,.529.07.389.389,0,0,1-.064.529,2.474,2.474,0,0,1-1.528.517A2.416,2.416,0,0,1,220.07,369.625Z" transform="translate(-159.534 -191.278)" fill="#fff"/>
      <path id="Path_5313" data-name="Path 5313" d="M231.187,371.025h-1.6l-.325.86a.372.372,0,0,1-.343.232.452.452,0,0,1-.128,0,.372.372,0,0,1-.215-.476l1.458-3.9a.383.383,0,0,1,.7,0l1.458,3.9a.372.372,0,0,1-.215.476.423.423,0,0,1-.128,0,.354.354,0,0,1-.337-.232Zm-.267-.726-.54-1.423-.534,1.423Z" transform="translate(-163.089 -191.389)" fill="#fff"/>
      <path id="Path_5314" data-name="Path 5314" d="M239.386,371.553a.354.354,0,0,1-.227.459.624.624,0,0,1-.145,0h0a.5.5,0,0,1-.256-.075.622.622,0,0,1-.209-.232,1.742,1.742,0,0,1-.139-.79.534.534,0,0,0-.081-.285.582.582,0,0,0-.2-.192,1.452,1.452,0,0,0-.372-.163h-.778v1.435a.372.372,0,0,1-.372.366.36.36,0,0,1-.36-.366v-3.874a.36.36,0,0,1,.36-.366h1.162a1.417,1.417,0,0,1,.9,2.509,1.158,1.158,0,0,1,.232.244,1.283,1.283,0,0,1,.215.714,1.438,1.438,0,0,0,0,.389A.343.343,0,0,1,239.386,371.553Zm-.923-2.66a.68.68,0,0,0-.68-.685h-.813v1.359h.813a.674.674,0,0,0,.68-.674Z" transform="translate(-166.317 -191.37)" fill="#fff"/>
      <path id="Path_5315" data-name="Path 5315" d="M245.849,368.208H244.8v3.525a.366.366,0,0,1-.732,0v-3.525H243.02a.366.366,0,0,1-.36-.372.36.36,0,0,1,.36-.366h2.828a.366.366,0,0,1,.36.366A.372.372,0,0,1,245.849,368.208Z" transform="translate(-169.004 -191.37)" fill="#fff"/>
    </g>
    <g id="freepik--Character--inject-70" transform="translate(86.125 31.348)">
      <path id="Path_5316" data-name="Path 5316" d="M321.008,419.86c1.266.407,37.286-.058,38.645-.947.523-.331.761-5.581.865-11.941v-.2c0-1.307.041-2.66.046-4.025v-.581c.046-9.171-.1-18.69-.1-18.69l-24.1.244.726,18.51.029.738.145,3.827v.395s-13.712,6.348-15.1,7.481S319.742,419.46,321.008,419.86Z" transform="translate(-239.309 -217.082)" fill="#f7a9a0"/>
      <path id="Path_5317" data-name="Path 5317" d="M321.008,433.351c1.266.407,37.286-.058,38.645-.947.523-.331.761-5.581.865-11.941v-.2c0-1.307.041-2.66.046-4.025v-.581l-23.469.064.029.738.145,3.827v.395s-13.712,6.348-15.1,7.48S319.742,432.95,321.008,433.351Z" transform="translate(-239.309 -230.573)" fill="#ebebeb"/>
      <path id="Path_5318" data-name="Path 5318" d="M321.011,436.675c.784.256,14.735.168,25.659-.139,6.824-.186,12.458-.465,12.986-.807s.755-5.436.86-11.674v-.465l-23.231.041v.4s-13.707,6.342-15.1,7.475S319.75,436.274,321.011,436.675Z" transform="translate(-239.312 -233.897)" fill="#92278f"/>
      <path id="Path_5319" data-name="Path 5319" d="M322.021,443.405c6.069-.232,30.573-.581,36.59-.343.046,0,.046.041,0,.041-6.011.36-30.52.505-36.59.4C321.893,443.5,321.893,443.405,322.021,443.405Z" transform="translate(-239.933 -242.027)" fill="#263238"/>
      <path id="Path_5320" data-name="Path 5320" d="M344.891,423.687c2.381-.476,5.308-.145,7.155,1.533.076.064,0,.168-.1.145a33.68,33.68,0,0,0-7.057-1.376.151.151,0,1,1,0-.3Z" transform="translate(-249.497 -233.854)" fill="#263238"/>
      <path id="Path_5321" data-name="Path 5321" d="M341.9,425.517c2.387-.476,5.314-.145,7.161,1.533.07.064,0,.163-.1.139a33.819,33.819,0,0,0-7.045-1.371.151.151,0,1,1-.017-.3Z" transform="translate(-248.245 -234.621)" fill="#263238"/>
      <path id="Path_5322" data-name="Path 5322" d="M339.006,427.347c2.381-.476,5.308-.145,7.155,1.533.076.064,0,.163-.1.139a33.823,33.823,0,0,0-7.045-1.376.151.151,0,0,1-.012-.3Z" transform="translate(-247.044 -235.388)" fill="#263238"/>
      <path id="Path_5323" data-name="Path 5323" d="M340.367,417.761c1.708,1.289,3.914,1.8,5.895,2.5a.3.3,0,0,0,.372-.3.063.063,0,0,0,.058-.087,12.778,12.778,0,0,0-3.752-5.425c-1.011-.825-2.764-1.388-3.688-.081S339.374,417.006,340.367,417.761Zm-.633-1.917c-.453-2.619,2.381-1.278,3.1-.639a13.455,13.455,0,0,1,1.284,1.353,38.428,38.428,0,0,1,2.265,3.119c-.952-.407-1.934-.726-2.9-1.1C342.324,418.139,339.984,417.314,339.734,415.845Z" transform="translate(-247.047 -229.706)" fill="#263238"/>
      <path id="Path_5324" data-name="Path 5324" d="M359.854,417.153c-.581-1.481-2.434-1.342-3.607-.772a12.818,12.818,0,0,0-4.9,4.42.064.064,0,0,0,.035.1.29.29,0,0,0,.29.378c2.091-.227,4.356-.215,6.313-1.08C359.117,419.667,360.4,418.535,359.854,417.153Zm-5.076,3.125c-1.028.139-2.056.227-3.078.4.958-.854,1.876-1.742,2.9-2.515a14.313,14.313,0,0,1,1.557-1.016c.848-.459,3.914-1.109,2.869,1.33-.575,1.324-3.049,1.615-4.269,1.777Z" transform="translate(-252.264 -230.706)" fill="#263238"/>
      <path id="Path_5325" data-name="Path 5325" d="M327.251,435.447a4.9,4.9,0,0,1,3.659,1.435,4.745,4.745,0,0,1,1.405,3.229c0,.035-.064.035-.07,0a5.645,5.645,0,0,0-4.995-4.582.041.041,0,1,1,0-.081Z" transform="translate(-242.148 -238.866)" fill="#263238"/>
      <path id="Path_5326" data-name="Path 5326" d="M380.946,433.63c2.73-.029,2.782,4.216.046,4.246S378.21,433.665,380.946,433.63Z" transform="translate(-263.825 -238.106)" fill="#263238"/>
      <path id="Path_5327" data-name="Path 5327" d="M365.6,436.871c6.824-.186,12.458-.465,12.986-.807s.755-5.436.86-11.674C376.647,426.887,369.695,433.084,365.6,436.871Z" transform="translate(-258.242 -234.232)" fill="#263238"/>
      <path id="Path_5328" data-name="Path 5328" d="M378.88,204.86s-5.407,60.866-6.29,65.513c-.2,1.057-.331,6.807-.412,14.206-.186,16.134-.075,45.232-.075,45.232H346.71s.755-50.418,1.876-59.7S356.9,204.86,356.9,204.86Z" transform="translate(-250.323 -142.202)" fill="#414141"/>
      <path id="Path_5329" data-name="Path 5329" d="M348.648,412.251c3.961-.081,2.823-.11,6.784-.151,1.94,0,14.682-.128,16.494.168.041,0,.041.076,0,.081-1.812.3-14.554.192-16.494.174-3.961-.041-2.823-.07-6.784-.157a.058.058,0,1,1,0-.116Z" transform="translate(-251.111 -229.069)" fill="#263238"/>
      <path id="Path_5330" data-name="Path 5330" d="M382,298.621l.087-11.035c0-3.566,0-7.138.186-10.7.349-7.219,1.812-14.311,2.852-21.443s1.911-14.3,2.695-21.489c.883-8.044,1.661-16.105,2.492-24.155,0-.052.087-.052.081,0-1.191,14.374-2.526,28.743-4.518,43.03q-.743,5.332-1.62,10.64c-.581,3.583-1.162,7.173-1.464,10.791s-.325,7.109-.36,10.663q-.064,5.523-.11,11.035c-.081,8.177-.157,20.763-.238,28.935a.122.122,0,1,1-.244,0C381.892,317.613,381.933,305.91,382,298.621Z" transform="translate(-265.05 -144.257)" fill="#263238"/>
      <path id="Path_5331" data-name="Path 5331" d="M393.881,204.86s-10.762,60.866-11.645,65.513c-.2,1.057-.331,6.807-.412,14.206h0l-12.1-79.719Z" transform="translate(-259.969 -142.202)" fill="#263238"/>
      <path id="Path_5332" data-name="Path 5332" d="M371.726,421.611c1.289.314,37.17-2.7,38.477-3.688.5-.36.366-5.616,0-11.964v-.2c-.07-1.313-.145-2.66-.238-4.019,0-.192-.029-.377-.035-.581-.581-9.153-1.417-18.632-1.417-18.632l-24.021,1.946,2.033,18.411.081.732.418,3.81.041.395s-13.224,7.3-14.52,8.532S370.454,421.3,371.726,421.611Z" transform="translate(-260.54 -216.684)" fill="#f7a9a0"/>
      <path id="Path_5333" data-name="Path 5333" d="M371.726,435.059c1.289.314,37.17-2.7,38.477-3.688.5-.36.366-5.616,0-11.964v-.2c-.07-1.313-.145-2.66-.238-4.019,0-.192-.029-.378-.035-.581l-23.406,1.742.081.732.418,3.81.041.395s-13.224,7.3-14.52,8.532S370.454,434.746,371.726,435.059Z" transform="translate(-260.54 -230.132)" fill="#ebebeb"/>
      <path id="Path_5334" data-name="Path 5334" d="M371.726,438.38c1.289.314,37.17-2.7,38.477-3.688.5-.36.366-5.616,0-11.964v-.2l-23.179,1.684.041.395s-13.224,7.3-14.52,8.532S370.454,438.066,371.726,438.38Z" transform="translate(-260.54 -233.452)" fill="#92278f"/>
      <path id="Path_5335" data-name="Path 5335" d="M372.622,445.264c6.034-.656,30.456-2.736,36.473-2.9.052,0,.052.029,0,.035-5.971.784-30.4,2.666-36.473,2.991C372.5,445.369,372.495,445.281,372.622,445.264Z" transform="translate(-261.146 -241.766)" fill="#263238"/>
      <path id="Path_5336" data-name="Path 5336" d="M394.037,425.655c2.323-.645,5.285-.523,7.248,1.016.075.064,0,.168-.087.151a33.776,33.776,0,0,0-7.126-.865.157.157,0,0,1-.035-.3Z" transform="translate(-270.121 -234.608)" fill="#263238"/>
      <path id="Path_5337" data-name="Path 5337" d="M391.227,427.735c2.323-.645,5.285-.523,7.248,1.022.076.058,0,.163-.087.145a33.781,33.781,0,0,0-7.126-.865.157.157,0,0,1-.035-.3Z" transform="translate(-268.943 -235.48)" fill="#263238"/>
      <path id="Path_5338" data-name="Path 5338" d="M388.417,429.735c2.323-.645,5.285-.523,7.248,1.022.076.058,0,.168-.087.151a33.407,33.407,0,0,0-7.126-.871.157.157,0,0,1-.035-.3Z" transform="translate(-267.765 -236.319)" fill="#263238"/>
      <path id="Path_5339" data-name="Path 5339" d="M389.172,420.092c1.795,1.162,4.036,1.516,6.063,2.079.209.058.354-.145.349-.325a.064.064,0,0,0,.046-.093,12.778,12.778,0,0,0-4.124-5.146c-1.069-.749-2.857-1.162-3.682.18S388.127,419.407,389.172,420.092Zm-.784-1.864c-.639-2.579,2.282-1.44,3.043-.86a12.878,12.878,0,0,1,1.376,1.26,37.447,37.447,0,0,1,2.48,2.95c-.982-.337-1.981-.581-2.974-.889C391.152,420.33,388.76,419.645,388.388,418.228Z" transform="translate(-267.439 -230.678)" fill="#263238"/>
      <path id="Path_5340" data-name="Path 5340" d="M408.688,417.819c-.7-1.435-2.521-1.162-3.647-.511a12.737,12.737,0,0,0-4.577,4.751.064.064,0,0,0,.041.093c0,.186.1.4.319.36,2.068-.378,4.327-.523,6.22-1.527C408.148,420.392,409.35,419.178,408.688,417.819Zm-4.844,3.485c-1.011.209-2.033.372-3.038.622a36.575,36.575,0,0,1,2.736-2.718,13.3,13.3,0,0,1,1.481-1.132c.813-.511,3.822-1.377,2.956,1.132-.482,1.376-2.927,1.841-4.135,2.091Z" transform="translate(-272.854 -231.042)" fill="#263238"/>
      <path id="Path_5341" data-name="Path 5341" d="M376.291,439.06a4.855,4.855,0,0,1,3.769,1.109,4.7,4.7,0,0,1,1.678,3.09.035.035,0,0,1-.07,0,5.645,5.645,0,0,0-5.372-4.135.041.041,0,0,1-.006-.064Z" transform="translate(-262.718 -240.365)" fill="#263238"/>
      <path id="Path_5342" data-name="Path 5342" d="M429.728,432.481c2.718-.267,3.142,3.955.418,4.222S427,432.777,429.728,432.481Z" transform="translate(-284.351 -237.619)" fill="#fff000"/>
      <path id="Path_5343" data-name="Path 5343" d="M383.115,331.164l25.363-1.074s-6.923-55.668-7.051-59.089c-.331-8.874-6.232-66.18-6.232-66.18H364.21s1.957,13.23,5.3,21.617a38.907,38.907,0,0,1,6.482,2.962s2.9,37.9,3.008,42.624C379.218,281.367,383.115,331.164,383.115,331.164Z" transform="translate(-257.659 -142.185)" fill="#414141"/>
      <path id="Path_5344" data-name="Path 5344" d="M397.88,413.627c3.955-.25,2.817-.232,6.772-.441,1.94-.1,14.665-.749,16.489-.529a.041.041,0,1,1,0,.081c-1.795.378-14.52.807-16.471.871-3.961.128-2.823.046-6.784.134a.058.058,0,1,1-.006-.116Z" transform="translate(-271.751 -229.295)" fill="#263238"/>
      <path id="Path_5345" data-name="Path 5345" d="M413.53,210.6c1.162,14.433,2.323,28.865,3.653,43.286s2.875,28.917,4.762,43.327c1.051,8.044,2.224,19.381,3.485,27.4,0,.052-.076.075-.087,0-2.555-14.252-4.431-31.943-6.034-46.318s-2.9-28.807-4.065-43.234c-.656-8.16-1.249-16.326-1.876-24.486C413.339,210.489,413.519,210.489,413.53,210.6Z" transform="translate(-278.265 -144.572)" fill="#263238"/>
      <path id="Path_5346" data-name="Path 5346" d="M371.258,241.039a48.208,48.208,0,0,1,7.591,3.537c.093.052.029.2-.07.151-2.561-1.1-5.163-2.143-7.661-3.38a.169.169,0,0,1,.139-.308Z" transform="translate(-260.514 -157.362)" fill="#263238"/>
      <path id="Path_5347" data-name="Path 5347" d="M369.876,210.8c0-.087.163-.1.163,0,0,3.032.174,5.7.43,8.538.116,1.318,1.162,8.6,3.485,8.067.383-.093.581-.465.639-1.045a9.212,9.212,0,0,0-.308-2.23c-.25-1.522-.453-3.049-.581-4.588a41.82,41.82,0,0,1,.093-8.607.076.076,0,0,1,.151,0,78.885,78.885,0,0,0,.691,11.883c.285,1.893,1.243,4.745-.738,5.035s-3.322-4.478-3.566-5.808a43.53,43.53,0,0,1-.459-11.244Z" transform="translate(-259.963 -144.661)" fill="#263238"/>
      <path id="Path_5348" data-name="Path 5348" d="M376.556,239.658a11.882,11.882,0,0,1,.517,1.51,3.483,3.483,0,0,1,.215,1.243.093.093,0,0,1-.163,0,4.38,4.38,0,0,1-.529-1.2c-.174-.47-.36-.929-.517-1.406a.256.256,0,0,1,.476-.145Z" transform="translate(-262.635 -156.736)" fill="#263238"/>
      <path id="Path_5349" data-name="Path 5349" d="M199.968,401.822l-.058-1.162,61.255-3.148-4.542-27.3,1.144-.186,4.757,28.58Z" transform="translate(-188.782 -211.444)" fill="#c7c7c7"/>
      <ellipse id="Ellipse_23" data-name="Ellipse 23" cx="6.406" cy="6.406" rx="6.406" ry="6.406" transform="translate(5.664 191.939) rotate(-38.03)" fill="#37474f"/>
      <path id="Path_5350" data-name="Path 5350" d="M201,427.224a2.9,2.9,0,1,0,2.9-2.9A2.9,2.9,0,0,0,201,427.224Z" transform="translate(-189.239 -234.203)" fill="#ebebeb"/>
      <ellipse id="Ellipse_24" data-name="Ellipse 24" cx="6.406" cy="6.406" rx="6.406" ry="6.406" transform="translate(56.047 188.256) rotate(-13.35)" fill="#37474f"/>
      <path id="Path_5351" data-name="Path 5351" d="M285.48,427.224a2.9,2.9,0,1,0,2.9-2.9A2.9,2.9,0,0,0,285.48,427.224Z" transform="translate(-224.654 -234.203)" fill="#ebebeb"/>
      <path id="Path_5352" data-name="Path 5352" d="M218.844,407.845l-.064-1.162,61.261-3.148-5.959-35.794,1.15-.192,6.168,37.077Z" transform="translate(-196.693 -210.404)" fill="#c7c7c7"/>
      <ellipse id="Ellipse_25" data-name="Ellipse 25" cx="6.406" cy="6.406" rx="6.406" ry="6.406" transform="matrix(0.77, -0.638, 0.638, 0.77, 16.614, 199.235)" fill="#37474f"/>
      <path id="Path_5353" data-name="Path 5353" d="M219.85,439.384a2.9,2.9,0,1,0,2.9-2.9,2.9,2.9,0,0,0-2.9,2.9Z" transform="translate(-197.141 -239.301)" fill="#ebebeb"/>
      <ellipse id="Ellipse_26" data-name="Ellipse 26" cx="6.406" cy="6.406" rx="6.406" ry="6.406" transform="translate(66.448 205.196) rotate(-67.027)" fill="#37474f"/>
      <path id="Path_5354" data-name="Path 5354" d="M304.36,439.384a2.9,2.9,0,1,0,2.9-2.9,2.9,2.9,0,0,0-2.9,2.9Z" transform="translate(-232.569 -239.301)" fill="#ebebeb"/>
      <path id="Path_5355" data-name="Path 5355" d="M189.78,327.488l-8.95-40.794,60.982-9.873.616,42.618-.5.076Zm-7.55-39.848,8.456,38.535,50.581-7.719-.581-40.254Z" transform="translate(-180.784 -172.369)" fill="#a6a6a6"/>
      <rect id="Rectangle_139" data-name="Rectangle 139" width="1.162" height="40.655" transform="translate(14.473 112.57) rotate(-8.89)" fill="#a6a6a6"/>
      <rect id="Rectangle_140" data-name="Rectangle 140" width="1.162" height="40.829" transform="matrix(0.994, -0.11, 0.11, 0.994, 30.778, 109.932)" fill="#a6a6a6"/>
      <rect id="Rectangle_141" data-name="Rectangle 141" width="1.162" height="40.969" transform="translate(46.73 107.52) rotate(-2.47)" fill="#a6a6a6"/>
      <rect id="Rectangle_142" data-name="Rectangle 142" width="58.282" height="1.162" transform="translate(3.604 127.783) rotate(-10.26)" fill="#a6a6a6"/>
      <rect id="Rectangle_143" data-name="Rectangle 143" width="55.058" height="1.162" transform="translate(6.52 140.942) rotate(-8.45)" fill="#a6a6a6"/>
      <path id="Path_5356" data-name="Path 5356" d="M310.884,329.378,284.9,319.342V276.8l39.673,11.505Zm-24.823-10.832,24.108,9.293,12.923-38.727-37.031-10.768Z" transform="translate(-224.411 -172.36)" fill="#dbdbdb"/>
      <rect id="Rectangle_144" data-name="Rectangle 144" width="1.162" height="35.893" transform="translate(60.854 118.49) rotate(-69.05)" fill="#dbdbdb"/>
      <rect id="Rectangle_145" data-name="Rectangle 145" width="1.162" height="31.043" transform="translate(60.843 133.959) rotate(-67.81)" fill="#dbdbdb"/>
      <rect id="Rectangle_146" data-name="Rectangle 146" width="41.021" height="1.162" transform="translate(68.297 149.537) rotate(-82.42)" fill="#dbdbdb"/>
      <rect id="Rectangle_147" data-name="Rectangle 147" width="41.398" height="1.162" transform="matrix(0.22, -0.976, 0.976, 0.22, 77.486, 153.007)" fill="#dbdbdb"/>
      <rect id="Rectangle_148" data-name="Rectangle 148" width="34.417" height="1.162" transform="translate(60.5 105.036) rotate(-73.32)" fill="#dbdbdb"/>
      <rect id="Rectangle_149" data-name="Rectangle 149" width="37.768" height="1.162" transform="translate(98.781 116.079) rotate(-73.32)" fill="#dbdbdb"/>
      <rect id="Rectangle_150" data-name="Rectangle 150" width="2.323" height="45.441" transform="matrix(0.202, -0.979, 0.979, 0.202, 68.124, 72.711)" fill="#263238"/>
      <path id="Path_5357" data-name="Path 5357" d="M254.22,300.081l11.012,5.018,18.039-3.613-10.82-3.067Z" transform="translate(-211.55 -181.424)" fill="#92278f"/>
      <path id="Path_5358" data-name="Path 5358" d="M254.22,300.081l11.012,5.018,18.039-3.613-10.82-3.067Z" transform="translate(-211.55 -181.424)" opacity="0.1"/>
      <path id="Path_5359" data-name="Path 5359" d="M280.41,284.547c.139,4.646,1.231,26.873-3.061,27.3-1.516.157-2.9-3.3-3.961-8.45-.1-.505-.209-1.028-.308-1.562-.354-1.934-.668-4.066-.923-6.278q-.1-.767-.174-1.551c-.215-2.062-.383-4.182-.5-6.307-.029-.517-.058-1.028-.076-1.545s-.041-.877-.052-1.313c-.046-1.44-.075-2.9-.075-4.3v-1.562c.035-2.875.151-5.651.354-8.189.041-.5.087-.982.128-1.452.627-6.5,1.853-11.192,3.537-11.685C278.941,256.594,280.073,272.972,280.41,284.547Z" transform="translate(-218.702 -164.31)" fill="#e6a36e"/>
      <path id="Path_5360" data-name="Path 5360" d="M278.926,331.415a.741.741,0,0,1-.174.1.157.157,0,0,1-.076.058,9.218,9.218,0,0,0-3.978,2.666c-.1-.505-.209-1.028-.308-1.562a5.982,5.982,0,0,1,4.373-1.533.047.047,0,0,1,.041,0h.064a.14.14,0,1,1,.058.273Z" transform="translate(-220.005 -195.137)" fill="#cc8a58"/>
      <path id="Path_5361" data-name="Path 5361" d="M277.576,319.644a.715.715,0,0,1-.186.041.116.116,0,0,1-.087.029,8.45,8.45,0,0,0-4.484,1.475l-.145.11q-.1-.767-.174-1.551a5.953,5.953,0,0,1,4.977-.418.07.07,0,0,1,.035.035h.064a.145.145,0,0,1,0,.279Z" transform="translate(-219.213 -190.039)" fill="#cc8a58"/>
      <path id="Path_5362" data-name="Path 5362" d="M276.856,307.529a.71.71,0,0,1-.192,0,.11.11,0,0,1-.087,0,8.242,8.242,0,0,0-4.646.4,3.308,3.308,0,0,0-.325.151c-.029-.517-.058-1.028-.075-1.545a6.127,6.127,0,0,1,5.291.656.052.052,0,0,1,.029.041l.058.035C276.972,307.337,277.03,307.5,276.856,307.529Z" transform="translate(-218.806 -184.69)" fill="#cc8a58"/>
      <path id="Path_5363" data-name="Path 5363" d="M276.491,295.247a.712.712,0,0,1-.192,0,.093.093,0,0,1-.087,0,8.241,8.241,0,0,0-4.646.4,2.065,2.065,0,0,0-.256.122v-1.562a6.075,6.075,0,0,1,5.14.7.3.3,0,0,1,.035.041l.052.035C276.607,295.055,276.636,295.218,276.491,295.247Z" transform="translate(-218.714 -179.54)" fill="#cc8a58"/>
      <path id="Path_5364" data-name="Path 5364" d="M276.748,280.079a.662.662,0,0,1-.192-.041.174.174,0,0,1-.093,0,8.393,8.393,0,0,0-4.553-.738c.041-.5.087-.982.128-1.452a6.389,6.389,0,0,1,4.716,1.911v.046a.35.35,0,0,0,.047.046C276.882,279.922,276.893,280.085,276.748,280.079Z" transform="translate(-218.966 -172.799)" fill="#cc8a58"/>
      <path id="Path_5365" data-name="Path 5365" d="M291.506,288.977c-.639,4.571-3.287,26.524-7.591,25.938-1.516-.2-2.323-3.909-2.474-9.182,0-.517-.035-1.051-.041-1.6,0-1.975,0-4.118.139-6.348,0-.517.052-1.034.087-1.557.139-2.062.325-4.17.581-6.278.064-.511.122-1.016.186-1.522s.11-.865.168-1.289c.2-1.423.412-2.834.65-4.222.093-.505.18-1.022.267-1.522.511-2.805,1.1-5.477,1.742-7.91.116-.476.244-.935.366-1.388,1.708-6.191,3.694-10.489,5.436-10.57C294.735,261.349,293.109,277.605,291.506,288.977Z" transform="translate(-222.944 -165.958)" fill="#edaa76"/>
      <path id="Path_5366" data-name="Path 5366" d="M286.07,334.206a.447.447,0,0,1-.186.052.122.122,0,0,1-.087.041,8.5,8.5,0,0,0-4.356,1.661c0-.517-.035-1.051-.041-1.6a5.807,5.807,0,0,1,4.559-.465.069.069,0,0,1,.035.035h.058a.139.139,0,0,1,.017.273Z" transform="translate(-222.944 -196.185)" fill="#cc8a58"/>
      <path id="Path_5367" data-name="Path 5367" d="M286.754,322.206a.582.582,0,0,1-.2,0,.11.11,0,0,1-.087,0,8.184,8.184,0,0,0-4.646.378l-.163.07c0-.517.052-1.034.087-1.557a6.046,6.046,0,0,1,4.966.773.289.289,0,0,1,.035.041l.052.035C286.864,322.014,286.9,322.177,286.754,322.206Z" transform="translate(-223.053 -190.835)" fill="#cc8a58"/>
      <path id="Path_5368" data-name="Path 5368" d="M288.038,310.069a.673.673,0,0,1-.186-.046.093.093,0,0,1-.087,0,8.352,8.352,0,0,0-4.646-.709l-.348.064c.064-.511.122-1.016.186-1.522a6.459,6.459,0,0,1,5.094,1.893.053.053,0,0,1,0,.046.173.173,0,0,0,.046.046C288.183,309.906,288.189,310.074,288.038,310.069Z" transform="translate(-223.518 -185.371)" fill="#cc8a58"/>
      <path id="Path_5369" data-name="Path 5369" d="M289.688,297.966a.676.676,0,0,1-.186-.046.1.1,0,0,1-.093,0,8.375,8.375,0,0,0-4.646-.714,2.062,2.062,0,0,0-.273.058c.093-.505.18-1.022.267-1.522a6.389,6.389,0,0,1,4.937,1.9.058.058,0,0,1,.029.046l.046.047C289.833,297.8,289.839,297.972,289.688,297.966Z" transform="translate(-224.239 -180.296)" fill="#cc8a58"/>
      <path id="Path_5370" data-name="Path 5370" d="M292.537,283.056a1.024,1.024,0,0,1-.18-.087.173.173,0,0,1-.087,0,8.886,8.886,0,0,0-4.35-1.8c.116-.476.244-.935.366-1.388a7,7,0,0,1,4.315,2.979.081.081,0,0,1,0,.058l.035.052C292.7,282.934,292.683,283.1,292.537,283.056Z" transform="translate(-225.677 -173.609)" fill="#cc8a58"/>
      <path id="Path_5371" data-name="Path 5371" d="M253.506,301.28s.691,22.2.453,23.046-1.557,11.244-1.435,11.534,10.559,6.278,10.907,5.936.982-15.315.982-17.162.122-18.335.122-18.335Z" transform="translate(-210.836 -182.623)" fill="#92278f"/>
      <path id="Path_5372" data-name="Path 5372" d="M272.4,307.3,271.31,342.77s16.936-5,17.081-5.279a106.675,106.675,0,0,0,.772-11.912c-.215-1.568,1.272-21.919,1.272-21.919Z" transform="translate(-218.714 -183.62)" fill="#92278f"/>
      <path id="Path_5373" data-name="Path 5373" d="M272.4,307.3,271.31,342.77s16.936-5,17.081-5.279a106.675,106.675,0,0,0,.772-11.912c-.215-1.568,1.272-21.919,1.272-21.919Z" transform="translate(-218.714 -183.62)" opacity="0.1"/>
      <path id="Path_5374" data-name="Path 5374" d="M210.881,343.326l-21.141-8.851-.064-.3L180.75,293.46l26.281,10.768Zm-20.113-9.687,18.788,7.864-3.624-36.456-23.551-9.67Z" transform="translate(-180.75 -179.344)" fill="#dbdbdb"/>
      <rect id="Rectangle_151" data-name="Rectangle 151" width="1.162" height="39.534" transform="matrix(0.985, -0.173, 0.173, 0.985, 7.716, 118.053)" fill="#dbdbdb"/>
      <rect id="Rectangle_152" data-name="Rectangle 152" width="1.162" height="38.82" transform="matrix(0.99, -0.141, 0.141, 0.99, 16.328, 121.68)" fill="#dbdbdb"/>
      <rect id="Rectangle_153" data-name="Rectangle 153" width="1.157" height="22.438" transform="matrix(0.331, -0.944, 0.944, 0.331, 6.149, 145.777)" fill="#dbdbdb"/>
      <rect id="Rectangle_154" data-name="Rectangle 154" width="1.162" height="24.985" transform="translate(3.505 129.111) rotate(-68.38)" fill="#dbdbdb"/>
      <path id="Path_5375" data-name="Path 5375" d="M228.931,344.571,223.89,305.4l75.119-8.927L285.3,337.659l-.36.046Zm-3.74-38.163,4.745,36.868,54.5-6.679,12.9-38.756Z" transform="translate(-198.835 -180.606)" fill="#ebebeb"/>
      <rect id="Rectangle_155" data-name="Rectangle 155" width="1.162" height="37.96" transform="translate(41.847 123.356) rotate(-4.98)" fill="#ebebeb"/>
      <rect id="Rectangle_156" data-name="Rectangle 156" width="38.535" height="1.162" transform="matrix(0.058, -0.998, 0.998, 0.058, 59.699, 159.32)" fill="#ebebeb"/>
      <rect id="Rectangle_157" data-name="Rectangle 157" width="39.848" height="1.162" transform="translate(73.706 157.679) rotate(-79.3)" fill="#ebebeb"/>
      <rect id="Rectangle_158" data-name="Rectangle 158" width="68.358" height="1.162" transform="matrix(0.994, -0.112, 0.112, 0.994, 26.893, 137.002)" fill="#ebebeb"/>
      <rect id="Rectangle_159" data-name="Rectangle 159" width="61.767" height="1.162" transform="translate(28.308 151.009) rotate(-5.97)" fill="#ebebeb"/>
      <path id="Path_5376" data-name="Path 5376" d="M345.144,147.338c-3.119,4.9-14.659,22.651-21.861,22.651-4.333,0-19.027-7.388-22.267-9.873-3.793-2.9,6.389-12.075,8.991-10.994,3.223,1.33,12.051,6.482,14.113,6.482,1.841,0,7.115-5.918,17.151-12.452C346.428,139.748,347.833,143.11,345.144,147.338Z" transform="translate(-230.817 -115.747)" fill="#f7a9a0"/>
      <path id="Path_5377" data-name="Path 5377" d="M292.654,159.715a65.57,65.57,0,0,1-8.781-5.535c-1.446-1.353-5.314-5.558-4.385-6.766s2.155-.076,2.155-.076-1.336-2.015-.314-3.177,2.9.7,2.9.7-1.237-2.19-.116-3.247,2.677,1.1,2.677,1.1-1.225-1.951.064-2.434c1.551-.581,3.4,3.27,5.111,4.646.389.314,8.305,5.808,8.305,5.808Z" transform="translate(-222.082 -115.107)" fill="#f7a9a0"/>
      <path id="Path_5378" data-name="Path 5378" d="M291.823,144.165a11.034,11.034,0,0,0,5.088,5.459c.046.035,0,.116-.046.087-2.712-1.365-4.257-2.422-5.181-5.483C291.643,144.078,291.759,144.037,291.823,144.165Z" transform="translate(-227.252 -116.726)" fill="#263238"/>
      <path id="Path_5379" data-name="Path 5379" d="M287.474,147.8a16.441,16.441,0,0,0,5.471,5.808c.035,0,0,.093-.046.07-2.73-1.661-4.246-2.753-5.552-5.808C287.283,147.767,287.4,147.668,287.474,147.8Z" transform="translate(-225.429 -118.254)" fill="#263238"/>
      <path id="Path_5380" data-name="Path 5380" d="M283.445,152.559a14.82,14.82,0,0,0,5.843,5.39.064.064,0,0,1-.052.11,10.547,10.547,0,0,1-5.86-5.436C283.283,152.449,283.335,152.4,283.445,152.559Z" transform="translate(-223.752 -120.235)" fill="#263238"/>
      <path id="Path_5381" data-name="Path 5381" d="M281.853,146.739c2,6.511,8.131,5.68,9.873,5.146s7.271-3.281,5.268-9.792-8.538-5.006-9.7-4.646C285.971,137.847,279.855,140.229,281.853,146.739Z" transform="translate(-222.967 -113.771)" fill="#92278f"/>
      <path id="Path_5382" data-name="Path 5382" d="M292.47,138.741s.273,2.451,4.565.982C297.035,139.746,294.131,136.633,292.47,138.741Z" transform="translate(-227.585 -114.177)" fill="#455a64"/>
      <path id="Path_5383" data-name="Path 5383" d="M292.891,138.439s2.015.134,1.446-3.549C294.337,134.9,291.422,136.807,292.891,138.439Z" transform="translate(-227.588 -112.869)" fill="#455a64"/>
      <path id="Path_5384" data-name="Path 5384" d="M290.143,139.23s-.7,1.9-3.833-.128C286.31,139.1,289.243,137.221,290.143,139.23Z" transform="translate(-225.002 -114.3)" fill="#455a64"/>
      <path id="Path_5385" data-name="Path 5385" d="M292.326,139.07s-1.888,1.591,1.742,4.338C294.057,143.408,295,139.273,292.326,139.07Z" transform="translate(-227.319 -114.622)" fill="#455a64"/>
      <path id="Path_5386" data-name="Path 5386" d="M290.614,139.646s-2.718-.761-2.358,3.874C288.256,143.52,292.409,142.08,290.614,139.646Z" transform="translate(-225.804 -114.844)" fill="#455a64"/>
      <path id="Path_5387" data-name="Path 5387" d="M290.869,137.671a4.861,4.861,0,0,0-1.69-4.141,1.556,1.556,0,0,0-1.429,1.22s2.323,1.3,2.474,3.4l.54-.325" transform="translate(-225.606 -112.299)" fill="#455a64"/>
      <path id="Path_5388" data-name="Path 5388" d="M313.4,150.169a38.448,38.448,0,0,0-1.957-5.332c-.854-1.551-6.156-6.162-7.219-5.076-1.371,1.406,1.162,4.675,2.619,6.11,0,0-3.171,3.252-1.859,5.988S313.4,150.169,313.4,150.169Z" transform="translate(-232.348 -114.843)" fill="#f7a9a0"/>
      <path id="Path_5389" data-name="Path 5389" d="M303.95,140.751c-.325,2.184,1.7,3.949,3.008,5.448a.18.18,0,0,1-.058.29c-1.243,1.452-2.567,3.862-2.056,5.808a.046.046,0,0,1-.087.029c-.831-2.015.279-4.484,1.742-5.988-1.359-1.516-3.316-3.374-2.561-5.593C303.939,140.734,303.956,140.74,303.95,140.751Z" transform="translate(-232.322 -115.321)" fill="#263238"/>
      <path id="Path_5390" data-name="Path 5390" d="M349.47,150.431l9.7,8.648s5.517-6.644,7.806-12.992-3.171-5.587-7.045-3.02S349.47,150.431,349.47,150.431Z" transform="translate(-251.48 -115.506)" fill="#fff000"/>
      <path id="Path_5391" data-name="Path 5391" d="M362.071,162.9a90.136,90.136,0,0,1-8.2-7.591c-.035,0,0-.081.052-.046.7.7,4.983,4.356,8.206,7.585C362.181,162.884,362.123,162.936,362.071,162.9Z" transform="translate(-253.319 -121.407)" fill="#263238"/>
      <path id="Path_5392" data-name="Path 5392" d="M370.746,146.108c-2.283,6.348-7.8,12.975-7.8,12.975l-4.466-3.99c2.956-4.066,7.73-10.7,10.106-13.9C370.735,141.079,372.105,142.345,370.746,146.108Z" transform="translate(-255.257 -115.509)" fill="#263238"/>
      <path id="Path_5393" data-name="Path 5393" d="M358.446,186.031c.581.581,36.3.238,36.479,0,.476-.645-4.995-23.673-9.1-32.408-5.262-11.2-8.05-12.133-9.711-12.777-2.126-.8-7.678-.47-8.59-.058-1.028.465-3.647,5.7-4.873,9.873C360.189,158.99,357.929,185.491,358.446,186.031Z" transform="translate(-255.212 -115.161)" fill="#fff000"/>
      <path id="Path_5394" data-name="Path 5394" d="M376.169,154.253c-.18,11-.645,24-3.688,27.674-4.611,5.558-16.134,11.261-20.856,12.313-1.963.436-7.475-14.4-5.366-14.845,4.489-.941,14.746-5.192,15.681-6.116s4.46-11.534,7.289-19.834C372.626,143.462,376.274,147.882,376.169,154.253Z" transform="translate(-249.936 -118.183)" fill="#f7a9a0"/>
      <path id="Path_5395" data-name="Path 5395" d="M333.1,201.29s-5.93,1.51-9.763,2.683c-2.137.65-5.7,2.1-7.051,3.3-2.021,1.789-9.327,10.576-7.237,12.394,1.893,1.644,7.213-6.7,7.213-6.7s-6.11,7.951-3.485,9.513,7.4-8.671,7.4-8.671-6.1,8.305-3.113,9.484c2.253.894,7.08-8.131,7.08-8.131s-5.186,7.173-2.9,8.189c2.515,1.121,7.5-6.923,7.5-6.923,6.226,1.609,9.844-.174,12.272-1.742C341.61,214.305,333.1,201.29,333.1,201.29Z" transform="translate(-234.38 -140.705)" fill="#f7a9a0"/>
      <path id="Path_5396" data-name="Path 5396" d="M320.8,216.423c-.755.906-1.522,1.818-2.19,2.794s-1.307,1.963-1.882,2.991a20.545,20.545,0,0,0-1.853,4.217,43.38,43.38,0,0,1,4.007-7.033c.668-.97,1.284-1.975,1.951-2.945C320.856,216.423,320.822,216.4,320.8,216.423Z" transform="translate(-236.979 -147.045)" fill="#263238"/>
      <path id="Path_5397" data-name="Path 5397" d="M327.544,220.475a24.886,24.886,0,0,0-5.035,7.37c-.041.1,0,.1.081,0,.813-1.26,4.112-6.139,4.983-7.353C327.585,220.475,327.561,220.457,327.544,220.475Z" transform="translate(-240.171 -148.745)" fill="#263238"/>
      <path id="Path_5398" data-name="Path 5398" d="M334.359,223a18.19,18.19,0,0,0-3.729,5.808c-.046.1.041.087.1,0,1.208-1.957,2.137-3.485,3.694-5.761C334.446,223,334.394,223,334.359,223Z" transform="translate(-243.577 -149.806)" fill="#263238"/>
      <path id="Path_5399" data-name="Path 5399" d="M377.55,163.362l12.864,1.922s.964-8.584-.61-15.141-5.715-2.9-7.55,1.336S377.55,163.362,377.55,163.362Z" transform="translate(-263.252 -117.761)" fill="#fff000"/>
      <path id="Path_5400" data-name="Path 5400" d="M391.014,173.205a91.014,91.014,0,0,1-11.035-1.626c-.046,0-.029-.081,0-.07.97.186,6.569.778,11.035,1.615C391.1,173.135,391.078,173.205,391.014,173.205Z" transform="translate(-264.258 -128.22)" fill="#263238"/>
      <path id="Path_5401" data-name="Path 5401" d="M379.272,164.278c.581-1.458,1.423-3.531,1.9-5.018h-.035c-.377.772-.72,1.562-1.051,2.364l.035-.145c.081-.447.151-.894.2-1.347h0c-.134.441-.244.883-.337,1.336-.058.279-.1.581-.145.848-.174.424-.616,1.458-.784,1.876-.279.714-1.864,4.577-1.789,4.594s1.318.145,1.551.186c.064,0,.076-.093,0-.087-.232,0-1.214-.18-1.313-.2.267-.743.61-1.469.906-2.207S378.987,165.01,379.272,164.278Z" transform="translate(-263.132 -123.086)" fill="#263238"/>
      <path id="Path_5402" data-name="Path 5402" d="M399.537,163.166c-.1.389-.18.778-.25,1.162a3.382,3.382,0,0,1-.052.407c-.035-.964-.116-1.928-.244-2.9h-.035a46.585,46.585,0,0,1,0,4.85c0,.784-.058,1.574-.1,2.358,0,.4-.052.807-.07,1.208s-.075,1.365-.075,1.365c-.221-.041-.964-.134-1.231-.157-.064,0-.064.052,0,.058.227.035,1.365.256,1.371.232,0-.424.11-.923.151-1.342s.07-.772.1-1.162c.058-.831.1-1.661.134-2.5v-1.371c.064-.348.151-.7.209-1.045s.128-.79.168-1.162C399.642,163.119,399.555,163.09,399.537,163.166Z" transform="translate(-271.584 -124.163)" fill="#263238"/>
      <path id="Path_5403" data-name="Path 5403" d="M374.619,141.458c1.98.581,5.622-2.277,7.132-4.693a41.289,41.289,0,0,0-.139-4.2c-.046-1.347-.07-2.846,0-4.216,0-.279-8.712,1.586-8.712,1.586a21.991,21.991,0,0,1,.523,5.3,3.276,3.276,0,0,1-.093.581.9.9,0,0,0,0,.093C373.086,136.951,372.7,140.912,374.619,141.458Z" transform="translate(-261.302 -110.116)" fill="#f7a9a0"/>
      <path id="Path_5404" data-name="Path 5404" d="M381.081,128.38c-.534,2.323-2.323,7.8-6.894,7.637a5.609,5.609,0,0,1-.877-.1.334.334,0,0,1,0-.093,3.386,3.386,0,0,0,.093-.581,21.76,21.76,0,0,0-.523-5.314S379.2,128.612,381.081,128.38Z" transform="translate(-261.294 -110.14)" fill="#263238"/>
      <path id="Path_5405" data-name="Path 5405" d="M378.75,106.274c1.162,2.968.256,11.883-1.742,14.014-2.9,3.09-8.026,3.769-10.739.186-2.631-3.485-1.237-15.066,1.04-17.034C370.654,100.536,377.025,101.889,378.75,106.274Z" transform="translate(-257.924 -99.04)" fill="#f7a9a0"/>
      <path id="Path_5406" data-name="Path 5406" d="M374.983,119.83s.047.035.041.058c-.075.581-.064,1.3.459,1.551v.035C374.821,121.317,374.815,120.388,374.983,119.83Z" transform="translate(-262.137 -106.556)" fill="#263238"/>
      <path id="Path_5407" data-name="Path 5407" d="M375.6,118.84c.976,0,.86,1.969-.041,1.946S374.787,118.822,375.6,118.84Z" transform="translate(-262.156 -106.141)" fill="#263238"/>
      <path id="Path_5408" data-name="Path 5408" d="M368.708,119.53a.045.045,0,0,0-.046.046c0,.581-.139,1.3-.691,1.464v.035C368.644,121.017,368.789,120.1,368.708,119.53Z" transform="translate(-259.235 -106.43)" fill="#263238"/>
      <path id="Path_5409" data-name="Path 5409" d="M367.773,118.386c-.964-.128-1.162,1.812-.261,1.928S368.581,118.5,367.773,118.386Z" transform="translate(-258.801 -105.948)" fill="#263238"/>
      <path id="Path_5410" data-name="Path 5410" d="M376.426,116.361c-.261-.081-.488-.2-.738-.308a1.3,1.3,0,0,1-.691-.459.407.407,0,0,1,.093-.494,1.016,1.016,0,0,1,1.034-.046,1.458,1.458,0,0,1,.825.7.441.441,0,0,1-.523.61Z" transform="translate(-262.162 -104.504)" fill="#263238"/>
      <path id="Path_5411" data-name="Path 5411" d="M366.827,115.719a7.2,7.2,0,0,0,.784-.157,1.289,1.289,0,0,0,.772-.314.412.412,0,0,0,0-.5,1.022,1.022,0,0,0-1-.25,1.469,1.469,0,0,0-.947.517.436.436,0,0,0,.395.7Z" transform="translate(-258.551 -104.304)" fill="#263238"/>
      <path id="Path_5412" data-name="Path 5412" d="M375.365,129.565c-.157.134-.308.319-.528.325a1.626,1.626,0,0,1-.639-.186s-.041,0-.029.029a.825.825,0,0,0,.743.372.645.645,0,0,0,.505-.505C375.429,129.565,375.382,129.548,375.365,129.565Z" transform="translate(-261.833 -110.634)" fill="#263238"/>
      <path id="Path_5413" data-name="Path 5413" d="M372.8,121.63a2.05,2.05,0,0,1-1.417.836,2.456,2.456,0,0,1-.743,0,.54.54,0,0,1-.139,0,.582.582,0,0,1-.128,0,.145.145,0,0,1-.116-.139h0a.173.173,0,0,1,0-.058h0v-.052a9.936,9.936,0,0,1,.1-1.162c-.174.076-1.063.412-1.034.168a30.735,30.735,0,0,1,1.161-6.162c0-.064.116-.041.11,0-.151,1.928-.645,3.822-.825,5.761a3.294,3.294,0,0,1,.987-.238c.064,0-.192,1.353-.18,1.562a2.857,2.857,0,0,0,2.161-.534C372.8,121.543,372.843,121.589,372.8,121.63Z" transform="translate(-259.805 -104.54)" fill="#263238"/>
      <path id="Path_5414" data-name="Path 5414" d="M372.09,127.006a2.427,2.427,0,0,0,.929.807,1.068,1.068,0,0,0,.662.081c.488-.1.528-.54.459-.923a2.55,2.55,0,0,0-.18-.581A3.177,3.177,0,0,1,372.09,127.006Z" transform="translate(-260.963 -109.306)" fill="#263238"/>
      <path id="Path_5415" data-name="Path 5415" d="M373.69,128.232a1.069,1.069,0,0,0,.662.081c.488-.1.529-.54.459-.923A1.127,1.127,0,0,0,373.69,128.232Z" transform="translate(-261.633 -109.725)" fill="#ff98b9"/>
      <path id="Path_5416" data-name="Path 5416" d="M365.963,104.847c2.95,2.027,6.969-1.028,6.969-1.028a3.218,3.218,0,0,0,3.258,2.033s.581,5,1.893,4.989c2.01,0,2.637-6.824,2-8.166a3.565,3.565,0,0,0-2.323-1.684A3.293,3.293,0,0,0,376.4,99c-1.371-1.051-6.1.36-6.1.36a4.419,4.419,0,0,0-1.208-1.638,1.243,1.243,0,0,0-1.789.163,2.946,2.946,0,0,1,.482,1.231c.232,1.464-.958,1.464-.947.134a2.067,2.067,0,0,1,.465-1.365c-.581-.871-1.551-1.162-2.137-.691C364.1,98.041,363.524,103.163,365.963,104.847Z" transform="translate(-257.676 -96.975)" fill="#263238"/>
      <path id="Path_5417" data-name="Path 5417" d="M386.27,120.258s1.824-2.962,3.154-2.323.081,4.844-1.4,5.5a1.545,1.545,0,0,1-2.114-.709Z" transform="translate(-266.756 -105.724)" fill="#f7a9a0"/>
      <path id="Path_5418" data-name="Path 5418" d="M389.64,120.07s.035.029,0,.041a3.91,3.91,0,0,0-1.87,2.555.854.854,0,0,1,1.26-.308.035.035,0,0,1,0,.058.964.964,0,0,0-1.028.395,4.942,4.942,0,0,0-.447.871c-.046.1-.221.058-.192-.052h0C387.253,122.254,388.194,120.291,389.64,120.07Z" transform="translate(-267.362 -106.657)" fill="#263238"/>
    </g>
    <g id="freepik--Plant--inject-70" transform="translate(0 113.087)">
      <path id="Path_5419" data-name="Path 5419" d="M78.716,307.882a160.087,160.087,0,0,0-.232-16.843A214.711,214.711,0,0,0,73.2,256.68c-1.469-6.354-3.287-12.6-5.175-18.846-.058-.192-.36-.139-.308.058,5.849,22.012,10.64,44.72,10.309,67.6-.087,6.389-.831,12.69-1.44,19.056,0,.168.267.238.3.064A95.923,95.923,0,0,0,78.716,307.882Z" transform="translate(-47.237 -237.714)" fill="#d8cc11"/>
      <path id="Path_5420" data-name="Path 5420" d="M62.552,238s-8.851,22.476-6.871,27.762,6.069,6.389,6.069,6.389-5.425,7.748-1.632,15,12.2,6.911,12.777,15.135C72.873,302.287,73.343,267.9,62.552,238Z" transform="translate(-42.074 -237.834)" fill="#fff000"/>
      <path id="Path_5421" data-name="Path 5421" d="M76.162,291.5a.163.163,0,0,0,0-.116,205.853,205.853,0,0,0-8.619-45.214c0-.041-.081-.029-.07,0Q70.1,256.044,72.119,266a9.809,9.809,0,0,0-4.222-2.358c-.035,0-.046.035,0,.046a11.174,11.174,0,0,1,4.362,2.9c.261,1.307.511,2.608.755,3.914-1.98-2.213-4.722-3.31-7.469-4.356a.035.035,0,0,0,0,.064c2.857,1.162,5.709,2.66,7.649,5.128q1.011,5.593,1.777,11.227a10.733,10.733,0,0,0-5.279-3.026c-.064,0-.1.076-.035.093a11.128,11.128,0,0,1,5.355,3.432h.035q.261,1.975.5,3.967a13.573,13.573,0,0,0-3.7-2.23v.052a12.686,12.686,0,0,1,3.705,2.457H75.6c.145,1.26.29,2.521.418,3.781a18.038,18.038,0,0,0-7.51-5.366.052.052,0,0,0-.035.093,19.538,19.538,0,0,1,7.405,5.7.168.168,0,0,0,.186.058q.29,2.9.505,5.808a.023.023,0,0,0,.046,0Q76.4,294.481,76.162,291.5Z" transform="translate(-46.321 -241.248)" fill="#263238"/>
      <path id="Path_5422" data-name="Path 5422" d="M67.726,271.261a11.122,11.122,0,0,0-5.32-1.661.035.035,0,0,0,0,.07,21.239,21.239,0,0,1,5.262,1.742A.088.088,0,0,0,67.726,271.261Z" transform="translate(-45 -251.081)" fill="#263238"/>
      <path id="Path_5423" data-name="Path 5423" d="M70.529,312.445a11.07,11.07,0,0,0-4-1.365c-.046,0-.052.064,0,.076a15.061,15.061,0,0,1,3.949,1.382C70.535,312.567,70.581,312.474,70.529,312.445Z" transform="translate(-46.728 -268.47)" fill="#263238"/>
      <path id="Path_5424" data-name="Path 5424" d="M110.275,286.39a60.228,60.228,0,0,0-10.251,8.956,36.816,36.816,0,0,0-7.19,12.2,91.142,91.142,0,0,0-5.355,29.132,71.047,71.047,0,0,0,1.58,16.4.157.157,0,0,0,.308-.058,91.764,91.764,0,0,1,.151-28.644c1.522-9.293,3.909-19.41,9.821-26.966,3.218-4.118,7.231-7.353,11.2-10.7C110.752,286.529,110.49,286.239,110.275,286.39Z" transform="translate(-55.519 -258.102)" fill="#d8cc11"/>
      <path id="Path_5425" data-name="Path 5425" d="M89.74,329.677a54.847,54.847,0,0,1,7.469-9.548c4.431-4.431,8.16-7.579,8.712-10.506s-4.437-5.088-4.437-5.088,6.133,1.1,7.812-1.469,2.486-17.476,2.486-17.476-11.151,7.963-16.349,19.125S89.74,329.677,89.74,329.677Z" transform="translate(-56.473 -257.784)" fill="#fff000"/>
      <path id="Path_5426" data-name="Path 5426" d="M107.921,292.132c-4.687,4.606-9.415,9.519-12.2,15.577a59.728,59.728,0,0,0-2.439,6.394h0c-.145.441-.285.883-.424,1.324a.157.157,0,0,0,0,.07,125.4,125.4,0,0,0-3.171,13.77c0,.029.041.041.047,0,.482-2.323,1.011-4.646,1.6-7.01a.133.133,0,0,0,.064,0,10.049,10.049,0,0,1,2.9-.743c.07,0,.064-.122,0-.116a10.856,10.856,0,0,0-2.9.529c.54-2.108,1.127-4.217,1.789-6.29a30.913,30.913,0,0,1,6.609-.865v-.035a24.94,24.94,0,0,0-6.5.552l.354-1.063a34.154,34.154,0,0,1,4.4-.749s0-.046,0-.046a21.523,21.523,0,0,0-4.309.523c.581-1.795,1.266-3.566,1.992-5.285a31.938,31.938,0,0,1,2.108-4.065,26.5,26.5,0,0,1,3.566-.639c.035,0,.029-.058,0-.058a9.682,9.682,0,0,0-3.34.331c.581-.947,1.2-1.876,1.864-2.776h0a18.753,18.753,0,0,1,7.591-.581c.046,0,.064-.064,0-.076a15.975,15.975,0,0,0-7.277.2c.267-.348.534-.7.813-1.04a16.513,16.513,0,0,1,4.646-.738v-.052a12.237,12.237,0,0,0-4.356.389c2.068-2.567,4.35-4.983,6.609-7.37C108.118,292.086,108.037,292.034,107.921,292.132Z" transform="translate(-56.452 -260.505)" fill="#263238"/>
      <path id="Path_5427" data-name="Path 5427" d="M119.223,309.583a9.78,9.78,0,0,0-2.219-.076c-.087,0-.081.151,0,.157.738,0,1.469-.035,2.207,0a.046.046,0,0,0,.012-.081Z" transform="translate(-67.876 -267.798)" fill="#263238"/>
      <path id="Path_5428" data-name="Path 5428" d="M104.568,334.55a9.988,9.988,0,0,0-3.438.685v.052c1.162-.273,2.283-.383,3.427-.581A.079.079,0,1,0,104.568,334.55Z" transform="translate(-61.247 -278.309)" fill="#263238"/>
      <path id="Path_5429" data-name="Path 5429" d="M101.824,326a7.3,7.3,0,0,0-1.464.134.041.041,0,1,0,0,.081,7.238,7.238,0,0,0,1.464-.064.076.076,0,0,0,0-.151Z" transform="translate(-60.908 -274.724)" fill="#263238"/>
      <path id="Path_5430" data-name="Path 5430" d="M33.27,313.632a50.613,50.613,0,0,1,10.367,4.884,30.955,30.955,0,0,1,8.63,8.2,76.8,76.8,0,0,1,11.076,22.354,59.858,59.858,0,0,1,2.509,13.637.134.134,0,0,1-.261,0,77.209,77.209,0,0,0-6.755-23.156c-3.38-7.126-7.649-14.781-14.183-19.532-3.554-2.585-7.55-4.28-11.529-6.069A.175.175,0,0,1,33.27,313.632Z" transform="translate(-32.695 -269.535)" fill="#d8cc11"/>
      <path id="Path_5431" data-name="Path 5431" d="M60.506,343.783a46.624,46.624,0,0,0-8.253-6c-4.611-2.561-8.358-4.246-9.5-6.482s2.416-5.14,2.416-5.14-4.7,2.323-6.656.61S32.46,313.21,32.46,313.21s10.861,3.862,17.65,11.7S60.506,343.783,60.506,343.783Z" transform="translate(-32.46 -269.363)" fill="#fff000"/>
      <path id="Path_5432" data-name="Path 5432" d="M63.442,343.22c-5.436-10.2-12.684-19.427-22.622-25.52h0a49.839,49.839,0,0,1,7.277,5.692,11.534,11.534,0,0,0-5.843,1.231.035.035,0,0,0,0,.064,15.97,15.97,0,0,1,6.034-1,.106.106,0,0,0,.064,0c.354.331.7.674,1.045,1.016a18.125,18.125,0,0,0-3.119.412s0,.046,0,.046a15.717,15.717,0,0,1,3.3-.273,66.864,66.864,0,0,1,5.123,5.808,5.107,5.107,0,0,0-2.178.157.041.041,0,0,0,0,.081,11.616,11.616,0,0,1,2.323-.029c.3.378.581.755.889,1.161a20.908,20.908,0,0,0-6.6.639v.052a26.5,26.5,0,0,1,6.772-.441c.279.366.54.743.813,1.115a14.235,14.235,0,0,0-3.926.453.041.041,0,1,0,0,.075,15.1,15.1,0,0,1,4.065-.314c1.162,1.609,2.288,3.258,3.369,4.919a3.7,3.7,0,0,0-1.742.1v.046a7.714,7.714,0,0,1,1.864.093q1.446,2.253,2.8,4.559C63.308,343.429,63.517,343.353,63.442,343.22Z" transform="translate(-35.965 -271.245)" fill="#263238"/>
      <path id="Path_5433" data-name="Path 5433" d="M62.939,347.055a8.336,8.336,0,0,0-3.159.389v.046a23.739,23.739,0,0,1,3.136-.325C63,347.166,63.009,347.061,62.939,347.055Z" transform="translate(-43.913 -283.543)" fill="#263238"/>
      <path id="Path_5434" data-name="Path 5434" d="M47.826,325.657a5.336,5.336,0,0,0-1.458.081.046.046,0,0,0,0,.087c.476-.052.952-.035,1.429-.046a.064.064,0,0,0,.029-.122Z" transform="translate(-38.278 -274.574)" fill="#263238"/>
      <path id="Path_5435" data-name="Path 5435" d="M87.177,400.7H62.65l3.5-25.618.894-6.569H82.786l.889,6.569Z" transform="translate(-45.116 -292.546)" fill="#545454"/>
      <path id="Path_5436" data-name="Path 5436" d="M86.2,375.079H68.67l.894-6.569H85.31Z" transform="translate(-47.64 -292.546)" fill="#313131"/>
      <rect id="Rectangle_160" data-name="Rectangle 160" width="20.246" height="5.564" transform="translate(19.671 73.688)" fill="#505050"/>
    </g>
  </g>
</svg>
