<svg id="QR_Code-rafiki" data-name="QR Code-rafiki" xmlns="http://www.w3.org/2000/svg" xmlns:xlink="http://www.w3.org/1999/xlink" width="337.85" height="249.137" viewBox="0 0 337.85 249.137">
  <defs>
    <linearGradient id="linear-gradient" x1="0.5" x2="0.5" y2="1" gradientUnits="objectBoundingBox">
      <stop offset="0" stop-color="#fdd001"/>
      <stop offset="1" stop-color="#fff000"/>
    </linearGradient>
  </defs>
  <g id="freepik--background-complete--inject-25" transform="translate(0 0)">
    <rect id="Rectangle_193" data-name="Rectangle 193" width="22.379" height="0.169" transform="translate(281.619 232.096)" fill="#ebebeb"/>
    <rect id="Rectangle_194" data-name="Rectangle 194" width="5.872" height="0.169" transform="translate(217.934 233.934)" fill="#ebebeb"/>
    <rect id="Rectangle_195" data-name="Rectangle 195" width="12.967" height="0.169" transform="translate(267.976 225.826)" fill="#ebebeb"/>
    <rect id="Rectangle_196" data-name="Rectangle 196" width="29.184" height="0.169" transform="translate(35.447 226.961)" fill="#ebebeb"/>
    <rect id="Rectangle_197" data-name="Rectangle 197" width="4.277" height="0.169" transform="translate(70.651 226.961)" fill="#ebebeb"/>
    <rect id="Rectangle_198" data-name="Rectangle 198" width="63.3" height="0.169" transform="translate(88.834 229.812)" fill="#ebebeb"/>
    <path id="Path_5523" data-name="Path 5523" d="M172.533,246.088H42.068a3.858,3.858,0,0,1-3.858-3.858V58.824A3.858,3.858,0,0,1,42.068,55H172.533a3.858,3.858,0,0,1,3.858,3.858V242.23A3.858,3.858,0,0,1,172.533,246.088ZM42.068,55.135a3.7,3.7,0,0,0-3.689,3.689V242.23a3.7,3.7,0,0,0,3.689,3.689H172.533a3.7,3.7,0,0,0,3.689-3.689V58.824a3.7,3.7,0,0,0-3.689-3.689Z" transform="translate(-12.391 -55)" fill="#ebebeb"/>
    <path id="Path_5524" data-name="Path 5524" d="M388.836,246.088H258.358a3.865,3.865,0,0,1-3.858-3.858V58.824A3.865,3.865,0,0,1,258.358,55H388.836a3.858,3.858,0,0,1,3.845,3.824V242.23A3.858,3.858,0,0,1,388.836,246.088ZM258.358,55.135a3.7,3.7,0,0,0-3.689,3.689V242.23a3.7,3.7,0,0,0,3.689,3.689H388.836a3.7,3.7,0,0,0,3.689-3.689V58.824a3.7,3.7,0,0,0-3.689-3.689Z" transform="translate(-82.534 -55)" fill="#ebebeb"/>
    <rect id="Rectangle_199" data-name="Rectangle 199" width="337.85" height="0.169" transform="translate(0 221.224)" fill="#ebebeb"/>
    <rect id="Rectangle_200" data-name="Rectangle 200" width="58.387" height="54.401" transform="translate(112.545 159.688)" fill="#e6e6e6"/>
    <rect id="Rectangle_201" data-name="Rectangle 201" width="7.453" height="4.757" transform="translate(114.383 215.798)" fill="#e0e0e0"/>
    <rect id="Rectangle_202" data-name="Rectangle 202" width="118.558" height="53.874" transform="translate(170.932 159.688)" fill="#e6e6e6"/>
    <rect id="Rectangle_203" data-name="Rectangle 203" width="7.453" height="64.874" transform="translate(291.085 155.681)" fill="#e6e6e6"/>
    <rect id="Rectangle_204" data-name="Rectangle 204" width="51.394" height="47.069" transform="translate(176.709 163.979)" fill="#f5f5f5"/>
    <path id="Path_5525" data-name="Path 5525" d="M274.36,344.749h13.723l4.946-47.069H279.313Z" transform="translate(-88.975 -133.701)" fill="#fafafa"/>
    <path id="Path_5526" data-name="Path 5526" d="M299.87,344.749h2.73l4.946-47.069h-2.73Z" transform="translate(-97.248 -133.701)" fill="#fafafa"/>
    <rect id="Rectangle_205" data-name="Rectangle 205" width="51.394" height="47.069" transform="translate(118.106 163.979)" fill="#f5f5f5"/>
    <rect id="Rectangle_206" data-name="Rectangle 206" width="51.394" height="47.069" transform="translate(235.874 163.979)" fill="#f5f5f5"/>
    <path id="Path_5527" data-name="Path 5527" d="M342.2,285.394H163.42v64.867h3.973v-3.649H340.17v3.635h3.98V285.38Zm-174.8,5.872H222.01V313.8H167.393Zm0,49.5V317.151H222.01V340.76Zm113.707,0H225.976v-49.5h55.117Zm59.1,0H285.08V317.151h55.09Zm0-26.96H285.08V291.265h55.09Z" transform="translate(-52.997 -129.712)" fill="#f0f0f0"/>
    <path id="Path_5528" data-name="Path 5528" d="M211.774,304.792a2.385,2.385,0,1,1-.7-1.691A2.392,2.392,0,0,1,211.774,304.792Z" transform="translate(-67.127 -135.232)" fill="#ebebeb"/>
    <path id="Path_5529" data-name="Path 5529" d="M209.4,308.8a2.392,2.392,0,0,1-2.169-1.392,2.385,2.385,0,1,0,4.554.993,2.3,2.3,0,0,0-.223-.993A2.385,2.385,0,0,1,209.4,308.8Z" transform="translate(-67.133 -136.857)" fill="#e0e0e0"/>
    <ellipse id="Ellipse_27" data-name="Ellipse 27" cx="2.385" cy="2.385" rx="2.385" ry="2.385" transform="translate(139.877 194.919)" fill="#ebebeb"/>
    <path id="Path_5530" data-name="Path 5530" d="M209.4,349.862a2.392,2.392,0,0,1-2.169-1.392,2.385,2.385,0,1,0,4.554.993,2.3,2.3,0,0,0-.223-.993A2.385,2.385,0,0,1,209.4,349.862Z" transform="translate(-67.133 -150.172)" fill="#e0e0e0"/>
    <path id="Path_5531" data-name="Path 5531" d="M390.074,304.792a2.385,2.385,0,1,1-.7-1.693,2.392,2.392,0,0,1,.7,1.693Z" transform="translate(-124.949 -135.232)" fill="#ebebeb"/>
    <path id="Path_5532" data-name="Path 5532" d="M387.685,308.8a2.385,2.385,0,0,1-2.162-1.392,2.3,2.3,0,0,0-.223.993,2.392,2.392,0,1,0,4.554-.993,2.392,2.392,0,0,1-2.169,1.392Z" transform="translate(-124.952 -136.857)" fill="#e0e0e0"/>
    <path id="Path_5533" data-name="Path 5533" d="M328.111,333.4a2.385,2.385,0,1,1-2.385-2.385A2.385,2.385,0,0,1,328.111,333.4Z" transform="translate(-104.859 -144.51)" fill="#ebebeb"/>
    <path id="Path_5534" data-name="Path 5534" d="M325.725,337.412a2.385,2.385,0,0,1-2.162-1.392,2.3,2.3,0,0,0-.223.993,2.385,2.385,0,1,0,4.554-.993A2.392,2.392,0,0,1,325.725,337.412Z" transform="translate(-104.859 -146.135)" fill="#e0e0e0"/>
    <ellipse id="Ellipse_28" data-name="Ellipse 28" cx="2.385" cy="2.385" rx="2.385" ry="2.385" transform="translate(260.348 194.919)" fill="#ebebeb"/>
    <path id="Path_5535" data-name="Path 5535" d="M387.685,349.862a2.385,2.385,0,0,1-2.162-1.392,2.3,2.3,0,0,0-.223.993,2.392,2.392,0,1,0,4.554-.993A2.392,2.392,0,0,1,387.685,349.862Z" transform="translate(-124.952 -150.172)" fill="#e0e0e0"/>
    <rect id="Rectangle_207" data-name="Rectangle 207" width="45.65" height="68.036" transform="translate(44.934 15.149)" opacity="0.1"/>
    <rect id="Rectangle_208" data-name="Rectangle 208" width="45.65" height="68.036" transform="translate(43.083 13.298)" fill="#ebebeb"/>
    <rect id="Rectangle_209" data-name="Rectangle 209" width="39.353" height="58.651" transform="translate(47.157 19.048)" fill="#f5f5f5"/>
    <path id="Path_5536" data-name="Path 5536" d="M105.838,112.489a7.892,7.892,0,1,1-2.312-5.587,7.9,7.9,0,0,1,2.312,5.587Z" transform="translate(-29.2 -71.082)" fill="#e0e0e0"/>
    <path id="Path_5537" data-name="Path 5537" d="M88.41,143.412l6.581-7.872,2.419,7.872Z" transform="translate(-28.671 -81.119)" fill="#ebebeb"/>
    <path id="Path_5538" data-name="Path 5538" d="M78.924,95.788c-5.52,8.994-1.527,20.163,4.73,27.5.966,1.128,2.588-.507,1.628-1.628-5.608-6.554-9.345-16.649-4.392-24.717.784-1.264-1.21-2.419-1.987-1.155Z" transform="translate(-24.746 -68.05)" fill="#ebebeb"/>
    <path id="Path_5539" data-name="Path 5539" d="M118.516,95.24,114.3,99.558l4.216,3.608,3.838-3.96Z" transform="translate(-37.067 -68.05)" fill="#ebebeb"/>
    <path id="Path_5540" data-name="Path 5540" d="M109.41,74.68l1.851,1.851v68.036H65.611l-1.851-1.851h45.65Z" transform="translate(-20.677 -61.382)" fill="#e0e0e0"/>
    <path id="Path_5541" data-name="Path 5541" d="M54.08,272.265c0-5.75,6.757-10.622,16.115-12.284L60.959,248.94H93.6l-9.244,11.041c9.352,1.662,16.122,6.534,16.122,12.284,0,6.338-8.21,52.664-19.035,62.84l3.379,4.054H69.7l3.379-4.054C62.29,324.929,54.08,278.6,54.08,272.265Z" transform="translate(-17.538 -117.895)" fill="#f0f0f0"/>
    <path id="Path_5542" data-name="Path 5542" d="M103.765,338.038c-3.892-2.824-6.575-8.683-6.575-15.474,0-9.541,5.3-17.284,11.825-17.284a8.5,8.5,0,0,1,3.2.676A223.708,223.708,0,0,1,103.765,338.038Z" transform="translate(-31.519 -136.166)" fill="#e0e0e0"/>
    <path id="Path_5543" data-name="Path 5543" d="M61.155,269.74c4.345,2.554,7.433,8.784,7.433,16.028,0,8.879-4.581,16.217-10.473,17.163-2.534-11.3-4.054-21.224-4.054-23.92C54.074,275.369,56.79,272.085,61.155,269.74Z" transform="translate(-17.532 -124.64)" fill="#e6e6e6"/>
    <path id="Path_5544" data-name="Path 5544" d="M408.124,187.787a3.379,3.379,0,0,1-.743,1.081,3.035,3.035,0,0,1-.561.459,3.108,3.108,0,0,1-1.791.52,2.108,2.108,0,0,1-1.784-1.764,2.169,2.169,0,0,1,.987-2.182l.351.574a1.5,1.5,0,0,0-.676,1.487c.1.561.608,1.2,1.135,1.216a2.7,2.7,0,0,0,2.453-1.662,2.27,2.27,0,0,0-.581-2.608,2.757,2.757,0,0,0-2.358-.851,5.243,5.243,0,0,0-3.473,2.581,12,12,0,0,0-1.182,8.23,20.466,20.466,0,0,0,1.277,4.25c.115.284.237.568.365.845.473,1.074,1,2.115,1.513,3.142a28.065,28.065,0,0,1,3.264,8.96c.041.3.074.608.095.919s.034.588.041.885v.595a20.22,20.22,0,0,1-9.223,17.447l-.142-.716a19.82,19.82,0,0,0,8.683-16.494v-.912a4.9,4.9,0,0,0-.041-.757,1.663,1.663,0,0,0-.041-.446,14.186,14.186,0,0,0-.27-1.716,30.371,30.371,0,0,0-2.973-7.433,48.47,48.47,0,0,1-2.027-4.412,21.051,21.051,0,0,1-.723-2.088,18.139,18.139,0,0,1-.446-1.926,12.439,12.439,0,0,1,1.264-8.7,5.946,5.946,0,0,1,3.987-2.9,3.3,3.3,0,0,1,2.284.527,3.12,3.12,0,0,1,.561.446.6.6,0,0,1,.074.061,2.96,2.96,0,0,1,.7,3.338Z" transform="translate(-128.776 -96.635)" fill="#e6e6e6"/>
    <path id="Path_5545" data-name="Path 5545" d="M407.351,223.967c-1.169-2.311-3.453-4.473-5.081-4.831l.142-.676c1.838.4,4.27,2.7,5.541,5.189Z" transform="translate(-130.456 -108.01)" fill="#e6e6e6"/>
    <path id="Path_5546" data-name="Path 5546" d="M410.525,227.68h-.676a5.568,5.568,0,0,1,1.77-4.21l.459.5a4.886,4.886,0,0,0-1.554,3.71Z" transform="translate(-132.913 -109.635)" fill="#e6e6e6"/>
    <path id="Path_5547" data-name="Path 5547" d="M399.928,203.786a42.4,42.4,0,0,0-4.318-5.21l.493-.466a45.6,45.6,0,0,1,4.385,5.3Z" transform="translate(-128.296 -101.411)" fill="#e6e6e6"/>
    <rect id="Rectangle_210" data-name="Rectangle 210" width="2.284" height="0.676" transform="matrix(0.398, -0.917, 0.917, 0.398, 272.099, 103.102)" fill="#e6e6e6"/>
    <path id="Path_5548" data-name="Path 5548" d="M413.814,192.631a6.183,6.183,0,0,1-2.824-1.041l.378-.561a5.5,5.5,0,0,0,2.52.932Z" transform="translate(-133.284 -99.114)" fill="#e6e6e6"/>
    <rect id="Rectangle_211" data-name="Rectangle 211" width="2.595" height="0.676" transform="translate(277.763 87.921) rotate(-71.83)" fill="#e6e6e6"/>
    <path id="Path_5549" data-name="Path 5549" d="M406.823,196.845a1.351,1.351,0,0,1,1.581.236,1.882,1.882,0,0,1,0,1.905c-.615,1.541-2.628,5.912-4.73,4.054C401.674,201.352,405.222,197.575,406.823,196.845Z" transform="translate(-130.718 -100.95)" fill="#e6e6e6"/>
    <path id="Path_5550" data-name="Path 5550" d="M394.832,196.381a1.351,1.351,0,0,1,0,1.595,1.911,1.911,0,0,1-1.885.284c-1.615-.385-6.237-1.743-4.73-4.054C389.629,191.949,393.879,194.895,394.832,196.381Z" transform="translate(-125.802 -99.878)" fill="#e6e6e6"/>
    <path id="Path_5551" data-name="Path 5551" d="M399.686,213.924c-1.912-2.831-6.149-4.547-9.94-4.054-1.777.243-2.027,2.926-1.48,4.358a6.564,6.564,0,0,0,3.615,3.324,7.825,7.825,0,0,0,5.473.426C399.051,217.4,400.618,215.3,399.686,213.924Z" transform="translate(-125.831 -105.197)" fill="#e6e6e6"/>
    <path id="Path_5552" data-name="Path 5552" d="M419.344,215.611a10.923,10.923,0,0,0-6.014.446c-1.851.845-3.284,2.946-2.7,4.906a3.108,3.108,0,0,0,3.345,2.189,6.948,6.948,0,0,0,3.892-2.176,5.656,5.656,0,0,0,1.689-2.433C419.817,217.577,420.337,215.746,419.344,215.611Z" transform="translate(-133.124 -107.019)" fill="#e6e6e6"/>
    <path id="Path_5553" data-name="Path 5553" d="M411.932,181.7a4.426,4.426,0,0,1-.459-2.378,2.284,2.284,0,0,1,1.392-1.872,1.568,1.568,0,0,1,1.987.926,2.919,2.919,0,0,1-.676,2.622A2.2,2.2,0,0,1,411.932,181.7Z" transform="translate(-133.435 -94.681)" fill="#e6e6e6"/>
    <path id="Path_5554" data-name="Path 5554" d="M420.331,194.333a4.243,4.243,0,0,1-7.041-2.7,4.392,4.392,0,0,1,4.2-.676,4.676,4.676,0,0,1,2.838,3.378Z" transform="translate(-134.03 -99.005)" fill="#e6e6e6"/>
    <path id="Path_5555" data-name="Path 5555" d="M406.429,265.949l1.446,1.73h-6.433l1.453-1.73c-3.007-2.831-5.534-12.217-6.919-19.122l-.142-.716a52.256,52.256,0,0,1-1.014-6.831c0-2.446,2.872-4.514,6.838-5.216l-3.919-4.683h13.825l-3.919,4.683c3.966.676,6.838,2.77,6.838,5.216C414.483,241.962,411,261.618,406.429,265.949Z" transform="translate(-128.04 -111.551)" fill="#f0f0f0"/>
  </g>
  <g id="freepik--Shadow--inject-25" transform="translate(34.657 233.84)">
    <ellipse id="freepik--path--inject-25" cx="131.012" cy="7.649" rx="131.012" ry="7.649" fill="#f5f5f5"/>
  </g>
  <g id="freepik--Device--inject-25" transform="translate(150.845 10.438)">
    <path id="Path_5556" data-name="Path 5556" d="M305.683,252.469H240.62a12.2,12.2,0,0,1-12.332-13.257L239.167,83.7a14.426,14.426,0,0,1,14.19-13.25H318.42A12.2,12.2,0,0,1,330.751,83.7L319.872,239.212a14.433,14.433,0,0,1-14.19,13.257Z" transform="translate(-224.864 -70.448)" fill="#92278f"/>
    <path id="Path_5557" data-name="Path 5557" d="M300.683,252.469H235.62a12.2,12.2,0,0,1-12.332-13.257L234.167,83.7a14.426,14.426,0,0,1,14.19-13.25H313.42A12.2,12.2,0,0,1,325.751,83.7L314.873,239.212A14.433,14.433,0,0,1,300.683,252.469Z" transform="translate(-223.242 -70.448)" fill="#263238"/>
    <path id="Path_5558" data-name="Path 5558" d="M314.694,75H297.8a2.4,2.4,0,0,0-2.318,1.919l-.1.534a5.865,5.865,0,0,1-5.662,4.689h-16.1a4.933,4.933,0,0,1-5.007-4.689v-.534A2.027,2.027,0,0,0,266.591,75H249.7a11.122,11.122,0,0,0-10.926,10.21L227.893,240.721a9.406,9.406,0,0,0,9.5,10.217h65.063a11.122,11.122,0,0,0,10.926-10.217L324.262,85.209A9.4,9.4,0,0,0,314.694,75Z" transform="translate(-224.739 -71.923)" fill="#92278f"/>
    <path id="Path_5559" data-name="Path 5559" d="M324.164,85.182,313.292,240.695a11.129,11.129,0,0,1-10.933,10.21H237.3a9.385,9.385,0,0,1-9.494-10.21L238.675,85.182A11.122,11.122,0,0,1,249.6,75h16.892a2.027,2.027,0,0,1,2.027,1.926v.527a4.946,4.946,0,0,0,5.007,4.73H289.6a5.852,5.852,0,0,0,5.656-4.73l.108-.527A2.4,2.4,0,0,1,297.758,75H314.65a9.406,9.406,0,0,1,9.514,10.183Z" transform="translate(-224.709 -71.924)" fill="#fff" opacity="0.8"/>
    <path id="Path_5560" data-name="Path 5560" d="M314.6,292.56l-1.3,18.69a11.129,11.129,0,0,1-10.933,10.21H237.3a9.385,9.385,0,0,1-9.494-10.21l1.3-18.69Z" transform="translate(-224.709 -142.479)" fill="#263238"/>
    <path id="Path_5561" data-name="Path 5561" d="M314.6,292.56l-1.3,18.69a11.129,11.129,0,0,1-10.933,10.21H237.3a9.385,9.385,0,0,1-9.494-10.21l1.3-18.69Z" transform="translate(-224.709 -142.479)" fill="#fff" opacity="0.5"/>
    <g id="Group_496" data-name="Group 496" transform="translate(50.806 3.474)" opacity="0.7">
      <path id="Path_5562" data-name="Path 5562" d="M300.992,76.88a1.4,1.4,0,0,1-1.351,1.291,1.183,1.183,0,0,1-1.2-1.291,1.4,1.4,0,0,1,1.351-1.291,1.182,1.182,0,0,1,1.2,1.291Z" transform="translate(-298.433 -75.59)"/>
      <path id="Path_5563" data-name="Path 5563" d="M313.126,75.59h-4.433a1.405,1.405,0,0,0-1.385,1.291,1.189,1.189,0,0,0,1.2,1.291h4.433a1.4,1.4,0,0,0,1.351-1.291,1.183,1.183,0,0,0-1.169-1.291Z" transform="translate(-301.31 -75.59)"/>
    </g>
    <path id="Path_5564" data-name="Path 5564" d="M254.71,84.832h1.365l.095-1.372H254.8Z" transform="translate(-233.447 -74.668)" fill="#92278f"/>
    <path id="Path_5565" data-name="Path 5565" d="M258.855,82.8l-.095,1.372h1.365l.1-1.372.095-1.365h-1.372Z" transform="translate(-234.761 -74.013)" fill="#92278f"/>
    <path id="Path_5566" data-name="Path 5566" d="M263.094,79.41,263,80.782l-.095,1.365-.095,1.372h1.365l.1-1.372.095-1.365.095-1.372Z" transform="translate(-236.074 -73.354)" fill="#92278f"/>
    <path id="Path_5567" data-name="Path 5567" d="M349.878,79.55l-.068.98h-.676L349,82.557h.676l-.068,1.007h6.02l.277-4.014Zm2.5,3.007h-2.027l.142-2.027h2.027Z" transform="translate(-264.025 -73.4)" fill="#92278f"/>
    <path id="Path_5578" data-name="Path 5578" d="M325.779,126.36H240.06l2.02-28.9H327.8Z" transform="translate(-228.696 -79.208)" fill="#92278f"/>
    <path id="Path_5579" data-name="Path 5579" d="M228.065,239.866a9.5,9.5,0,0,0,2.561,7.291L321.7,76.88a9.46,9.46,0,0,0-6.757-2.75H249.87a11.136,11.136,0,0,0-10.926,10.217Z" transform="translate(-224.796 -71.642)" fill="#fff" opacity="0.2"/>
    <rect id="Rectangle_212" data-name="Rectangle 212" width="18.703" height="0.676" transform="translate(33.188 42.017) rotate(-86.02)" fill="#e0e0e0"/>
    <rect id="Rectangle_213" data-name="Rectangle 213" width="18.703" height="0.676" transform="translate(54.564 42.014) rotate(-86.02)" fill="#e0e0e0"/>
    <rect id="Rectangle_214" data-name="Rectangle 214" width="18.703" height="0.676" transform="matrix(0.069, -0.998, 0.998, 0.069, 75.908, 42.002)" fill="#e0e0e0"/>
    <ellipse id="Ellipse_29" data-name="Ellipse 29" cx="20.995" cy="21.345" rx="20.995" ry="21.345" transform="translate(29.849 76.387)" fill="url(#linear-gradient)"/>
    <path id="Path_5955" data-name="Path 5955" d="M70.846,155.643l6.463,6.463L87.74,151.674" transform="translate(-28.487 -59.241)" fill="none" stroke="#92278f" stroke-width="7"/>
  </g>
  <g id="freepik--Character--inject-25" transform="translate(81.719 53.15)">
    <path id="Path_5904" data-name="Path 5904" d="M189.306,403.924l5.27-1.27-2.723-12.244-5.264,1.27Z" transform="translate(-142.23 -216.923)" fill="#ff887b"/>
    <path id="Path_5905" data-name="Path 5905" d="M195.178,406.624l-5.757,1.392a.453.453,0,0,0-.351.459l.2,4.892a.811.811,0,0,0,.851.77.616.616,0,0,0,.155,0c2.027-.541,5.027-1.385,7.642-2.027,3.041-.737,3.331-.628,6.906-1.493,2.162-.52,2.176-2.838,1.223-2.811-4.358.095-5.365.237-9.5-1.095a2.561,2.561,0,0,0-1.372-.088Z" transform="translate(-143.034 -222.164)" fill="#263238"/>
    <path id="Path_5906" data-name="Path 5906" d="M191.854,390.42l1.405,6.311-5.27,1.27-1.4-6.311Z" transform="translate(-142.23 -216.927)" opacity="0.2"/>
    <path id="Path_5907" data-name="Path 5907" d="M199.02,405.288a.135.135,0,0,1-.108-.047.122.122,0,0,1,0-.176c.2-.182,2.027-1.737,2.737-1.534a.419.419,0,0,1,.284.277.676.676,0,0,1-.068.676,2.027,2.027,0,0,1-1.189.628A9.878,9.878,0,0,1,199.02,405.288Zm.338-.27a3.507,3.507,0,0,0,2.277-.676.432.432,0,0,0,.041-.432.156.156,0,0,0-.108-.115.6.6,0,0,0-.243,0,6.831,6.831,0,0,0-1.966,1.223Z" transform="translate(-146.214 -221.173)" fill="#92278f"/>
    <path id="Path_5908" data-name="Path 5908" d="M198.941,404.873a.149.149,0,0,1-.074-.1,3.727,3.727,0,0,1,.277-2.176.865.865,0,0,1,.622-.372c.345-.054.514.095.547.223.25.568-.676,1.973-1.237,2.412h-.054a.162.162,0,0,1-.081.014Zm.412-2.122a2.892,2.892,0,0,0-.243,1.75c.534-.534,1.142-1.615.993-1.946,0-.034-.054-.135-.277-.081h-.074a.635.635,0,0,0-.419.27Z" transform="translate(-146.195 -220.751)" fill="#92278f"/>
    <path id="Path_5909" data-name="Path 5909" d="M130.62,402.918l5.352.838,2.169-12.352-5.358-.845Z" transform="translate(-124.079 -216.972)" fill="#ff887b"/>
    <path id="Path_5910" data-name="Path 5910" d="M134.727,408.719l-5.858-.912a.453.453,0,0,0-.5.291l-1.682,4.595a.8.8,0,0,0,.493,1.041.607.607,0,0,0,.149.041c2.115.29,5.176.642,7.831,1.061,3.095.487,3.324.676,6.953,1.264,2.2.345,3.095-1.791,2.2-2.135-4.054-1.574-5.041-1.831-8.358-4.642a2.594,2.594,0,0,0-1.23-.6Z" transform="translate(-122.787 -222.563)" fill="#263238"/>
    <path id="Path_5911" data-name="Path 5911" d="M138.575,391.408l-1.264,7.176-5.352-.838,1.257-7.176Z" transform="translate(-124.514 -216.975)" opacity="0.2"/>
    <path id="Path_5912" data-name="Path 5912" d="M139.658,408.7a.108.108,0,0,1-.081-.081.122.122,0,0,1,.081-.155c.257-.088,2.527-.838,3.108-.372a.405.405,0,0,1,.162.365.676.676,0,0,1-.311.574,2.027,2.027,0,0,1-1.351.122,9.1,9.1,0,0,1-1.608-.453Zm.412-.115a3.361,3.361,0,0,0,2.378.223.439.439,0,0,0,.2-.378.182.182,0,0,0-.054-.149.716.716,0,0,0-.23-.081,6.982,6.982,0,0,0-2.3.385Z" transform="translate(-126.982 -222.607)" fill="#92278f"/>
    <path id="Path_5913" data-name="Path 5913" d="M139.573,407.957a.169.169,0,0,1-.034-.128,3.534,3.534,0,0,1,1.088-1.906.892.892,0,0,1,.716-.108c.345.088.446.291.426.419,0,.622-1.385,1.568-2.068,1.757h-.054A.135.135,0,0,1,139.573,407.957Zm1.189-1.811a2.913,2.913,0,0,0-.892,1.527c.676-.291,1.676-1.054,1.662-1.419,0,0,0-.149-.223-.182h-.081a.676.676,0,0,0-.466.1Z" transform="translate(-126.971 -221.909)" fill="#92278f"/>
    <path id="Path_5917" data-name="Path 5917" d="M179.565,268.507l.6,1.845-3.466,1.291-5.689-.892-2.77-1.6a18.094,18.094,0,0,1,5.96-1.595C177.8,267.156,179.565,268.507,179.565,268.507Z" transform="translate(-136.279 -177.058)" fill="#fff" opacity="0.2"/>
    <path id="Path_5918" data-name="Path 5918" d="M169.956,235.85l7.73,65.185,5.737,41.1a1.946,1.946,0,0,1-1.507,2.25l-6.379,1.628a1.919,1.919,0,0,1-2.027-1.574c-2.027-8.494-7.473-25.068-8.5-41.346,0,0-10.811-41.522-13.034-54.367L151.3,237.12Z" transform="translate(-130.786 -166.8)" fill="#242424"/>
    <path id="Path_5919" data-name="Path 5919" d="M161.831,259.15s1.966,18.48,0,33.5c0,0-4.156-17.237-6.041-24.041Z" transform="translate(-132.242 -174.356)" opacity="0.2"/>
    <path id="Path_5920" data-name="Path 5920" d="M154.859,231.16,148.345,304.7l-8.271,39.258a1.7,1.7,0,0,1-2.027,1.453l-7.014-1.459a2.061,2.061,0,0,1-1.46-2.2c.676-8.48.27-22.3,4.406-37.285,0,0,.466-50.678,2.237-73.172Z" transform="translate(-123.736 -165.279)" fill="#232322"/>
    <path id="Path_5921" data-name="Path 5921" d="M227.21,181.2l1.412-1.96,5.122,3.149a19.035,19.035,0,0,1-3.379,2.3,2.385,2.385,0,0,1-2.547-.243l-.189-.149a2.243,2.243,0,0,1-.419-3.095Z" transform="translate(-155.261 -148.441)" fill="#ff8b7b"/>
    <path id="Path_5922" data-name="Path 5922" d="M233.655,174.95l2.683,4.635-1.7,1.419-5.122-3.156Z" transform="translate(-156.152 -147.05)" fill="#ff8b7b"/>
    <path id="Path_5923" data-name="Path 5923" d="M173.434,184.85a161.623,161.623,0,0,0,16.217,2.9c2.7.351,14.23-2.3,19.2-3.162a.98.98,0,0,0,.939-1.392l-.608-4.331a1.9,1.9,0,0,0-.426-1.149,1.953,1.953,0,0,0-1.723-.257c-6.575,1.081-15.967,1.757-15.967,1.757a54.641,54.641,0,0,1-13.879-4.52C164.5,168.992,170.617,184.121,173.434,184.85Z" transform="translate(-136.676 -146.551)" fill="#263238"/>
    <path id="Path_5924" data-name="Path 5924" d="M173.434,184.85a161.623,161.623,0,0,0,16.217,2.9c2.7.351,14.23-2.3,19.2-3.162a.98.98,0,0,0,.939-1.392l-.608-4.331a1.9,1.9,0,0,0-.426-1.149,1.953,1.953,0,0,0-1.723-.257c-6.575,1.081-15.967,1.757-15.967,1.757a54.641,54.641,0,0,1-13.879-4.52C164.5,168.992,170.617,184.121,173.434,184.85Z" transform="translate(-136.676 -146.551)" opacity="0.1"/>
    <path id="Path_5925" data-name="Path 5925" d="M239.395,181.326l-5.825-1.155,3.568-12.23,5.818,1.155Z" transform="translate(-157.466 -144.776)" fill="#92278f"/>
    <path id="Path_5926" data-name="Path 5926" d="M246.782,168.559l-3.987,13.683a.676.676,0,0,1-.777.466l-.338-.068a.676.676,0,0,0,.77-.466l3.987-13.69a.676.676,0,0,0-.514-.845l.338.068a.676.676,0,0,1,.52.851Z" transform="translate(-160.096 -144.679)" fill="#92278f"/>
    <path id="Path_5927" data-name="Path 5927" d="M246.782,168.559l-3.987,13.683a.676.676,0,0,1-.777.466l-.338-.068a.676.676,0,0,0,.77-.466l3.987-13.69a.676.676,0,0,0-.514-.845l.338.068a.676.676,0,0,1,.52.851Z" transform="translate(-160.096 -144.679)" opacity="0.3"/>
    <path id="Path_5928" data-name="Path 5928" d="M242.916,167.043l-5.8-1.149a.676.676,0,0,0-.777.466l-3.987,13.683a.676.676,0,0,0,.514.845l5.811,1.155a.676.676,0,0,0,.77-.466l3.987-13.69a.676.676,0,0,0-.514-.845Zm-3.9,13.615-5.845-1.182,3.561-12.23,5.818,1.155Z" transform="translate(-157.061 -144.109)" fill="#92278f"/>
    <path id="Path_5929" data-name="Path 5929" d="M242.956,169.1l-3.561,12.23-5.825-1.155,3.568-12.23Z" transform="translate(-157.466 -144.776)" fill="#92278f"/>
    <path id="Path_5930" data-name="Path 5930" d="M242.956,169.1l-3.561,12.23-5.825-1.155,3.568-12.23Z" transform="translate(-157.466 -144.776)" fill="#fff" opacity="0.7"/>
    <path id="Path_5931" data-name="Path 5931" d="M232.077,175.887l1.311-1.385a.243.243,0,0,1,.412.088l.182.527a1.169,1.169,0,0,1-.122.993l-1.987,3.129-2.345-1.561Z" transform="translate(-156.156 -146.878)" fill="#ff8b7b"/>
    <path id="Path_5932" data-name="Path 5932" d="M161.09,188.933c.1,17.791,1.162,24.474-1.48,24.467-4.912,0-22.859.676-23.906.5-7.75-1.1-2.993-18.744-3.1-21.508-.068-1.7-.209-3.379-.432-5.075a15.929,15.929,0,0,0-.676-2.98,5.214,5.214,0,0,0-3.068-3.561c-1.419-.473-2.973-.061-4.466-.162s-3.189-1.135-3.007-2.615a3.379,3.379,0,0,1,1.068-1.791c2.176-2.318,4.622-4.615,5.48-7.669.365-1.277.439-2.7,1.162-3.811,2.987-4.588,10.136-.115,13.669,1.2,2.277.838,4.338,2.088,6.6,2.933,2.372.892,6.541,1.1,9.581,1.223C161.259,170.189,161.09,188.933,161.09,188.933Z" transform="translate(-120.94 -143.08)" fill="#263238"/>
    <path id="Path_5933" data-name="Path 5933" d="M150.53,158.18c.75,3,.581,7.885.6,11.264,0,3.135,8.108,5.743,8.108,5.743s3.345-2.824.757-4.933c-2.169-1.77-2.473-3.831-2.027-6.311Z" transform="translate(-130.536 -141.611)" fill="#ff8b7b"/>
    <path id="Path_5934" data-name="Path 5934" d="M155.018,161.68l4.426,3.378a13.563,13.563,0,0,0-.257,2.088c-1.608-.149-3.9-1.791-4.162-3.453A5.6,5.6,0,0,1,155.018,161.68Z" transform="translate(-131.963 -142.746)" opacity="0.2"/>
    <path id="Path_5935" data-name="Path 5935" d="M149.424,146.1c.574,5.075.676,8.068,3.379,10.554,4.054,3.73,10.237,1.074,11.19-4.054.858-4.629-.23-12.163-5.318-13.919a6.966,6.966,0,0,0-9.23,7.433Z" transform="translate(-130.166 -135.159)" fill="#ff8b7b"/>
    <path id="Path_5936" data-name="Path 5936" d="M164.886,156.017a59.481,59.481,0,0,0,1.189,7.433c-3.466,0-6.757.182-10.244.169-.48-.365-4.73-4.054-4.419-4.4,1.176-1.21,2.615-2.574,1.25-3.939-.419-.419-.2-1.169-.257-1.75,1.257,1.892,6.081,3.257,8.284,2.851Z" transform="translate(-130.817 -140.103)" fill="#263238"/>
    <path id="Path_5937" data-name="Path 5937" d="M163.2,158.56c-.737.264.331,1.351,1.5,1.412h2.088a1.405,1.405,0,0,0,1.257-.676c.216-.4.209-.824-.122-.946a3.973,3.973,0,0,0-1.561-.142,14.783,14.783,0,0,0-3.162.351Z" transform="translate(-134.567 -141.613)" fill="#ff8b7b"/>
    <path id="Path_5938" data-name="Path 5938" d="M167.36,159.013h0a3.743,3.743,0,0,1-3.379-.622.128.128,0,0,1,0-.182.135.135,0,0,1,.149,0,3.568,3.568,0,0,0,3.176.574.128.128,0,0,1,.162.095h0a.128.128,0,0,1-.095.149Z" transform="translate(-134.886 -141.614)" fill="#263238"/>
    <path id="Path_5939" data-name="Path 5939" d="M164.635,155.138a6.243,6.243,0,0,0-3.162.73,5.406,5.406,0,0,1-3.183.574,6.507,6.507,0,0,0,3.169,1.257,5.865,5.865,0,0,0,3.433-.622,4.683,4.683,0,0,0,4.135.372c-1.291.311-1.8-1.446-3.135-2.061A5.6,5.6,0,0,0,164.635,155.138Z" transform="translate(-133.053 -140.623)" fill="#263238"/>
    <path id="Path_5940" data-name="Path 5940" d="M164.635,155.138a6.243,6.243,0,0,0-3.162.73,5.406,5.406,0,0,1-3.183.574,6.507,6.507,0,0,0,3.169,1.257,5.865,5.865,0,0,0,3.433-.622,4.683,4.683,0,0,0,4.135.372c-1.291.311-1.8-1.446-3.135-2.061A5.6,5.6,0,0,0,164.635,155.138Z" transform="translate(-133.053 -140.623)" opacity="0.1"/>
    <path id="Path_5941" data-name="Path 5941" d="M153.889,148.1a3.48,3.48,0,0,1,.473,1.872,9.317,9.317,0,0,0-1.405,1.764c-.574.946-.757,2.128-1.493,2.96,0,0-.162.1-.135.088a36.192,36.192,0,0,1-1.608-3.379,14.54,14.54,0,0,1,4.169-3.3Z" transform="translate(-130.273 -138.342)" fill="#263238"/>
    <path id="Path_5942" data-name="Path 5942" d="M146.5,155.615a4.872,4.872,0,0,0,2.777,2.466c1.608.547,2.514-.872,2.135-2.46-.331-1.405-1.574-3.378-3.23-3.264a2.182,2.182,0,0,0-1.682,3.257Z" transform="translate(-129.136 -139.722)" fill="#ff8b7b"/>
    <path id="Path_5943" data-name="Path 5943" d="M162.229,151.007c0,.412.257.737.534.723s.473-.358.446-.77-.257-.743-.527-.73S162.209,150.588,162.229,151.007Z" transform="translate(-134.33 -139.033)" fill="#263238"/>
    <path id="Path_5944" data-name="Path 5944" d="M168.639,150.63c0,.419.257.743.527.723s.473-.358.453-.777-.257-.73-.534-.716S168.619,150.231,168.639,150.63Z" transform="translate(-136.408 -138.913)" fill="#263238"/>
    <path id="Path_5945" data-name="Path 5945" d="M166.62,150.64a12.71,12.71,0,0,0,2.7,2.507c-.554.838-1.919.737-1.919.737Z" transform="translate(-135.754 -139.166)" fill="#ff5652"/>
    <path id="Path_5946" data-name="Path 5946" d="M159.9,148.537a.223.223,0,0,0,.23-.108,1.973,1.973,0,0,1,1.52-.892.25.25,0,0,0,.25-.236.237.237,0,0,0-.237-.25h0a2.426,2.426,0,0,0-1.932,1.108.25.25,0,0,0,.061.338.3.3,0,0,0,.108.041Z" transform="translate(-133.507 -138.002)" fill="#263238"/>
    <path id="Path_5947" data-name="Path 5947" d="M169.865,148.125a.25.25,0,0,0,.142,0,.236.236,0,0,0,.1-.331,2.419,2.419,0,0,0-1.845-1.284.25.25,0,0,0-.264.23.243.243,0,0,0,.223.257h0a1.946,1.946,0,0,1,1.426,1.034A.277.277,0,0,0,169.865,148.125Z" transform="translate(-136.201 -137.827)" fill="#263238"/>
    <path id="Path_5948" data-name="Path 5948" d="M140.87,183.39s.27,9.135-1.541,13.365a6.782,6.782,0,0,1-1.993,2.96c-.264-1.689-.615-3.378-1.034-4.993a15.479,15.479,0,0,0-1.02-2.872l-.162-2.115Z" transform="translate(-125.539 -149.787)" opacity="0.4"/>
    <path id="Path_5949" data-name="Path 5949" d="M143.738,239.81c-.061.291-.236,1.8-.466,2.8a8.243,8.243,0,0,1-3.453,4.689c-1.351.716-.568-5.575-.568-5.575l.257-2.169Z" transform="translate(-126.805 -168.003)" opacity="0.2"/>
    <path id="Path_5950" data-name="Path 5950" d="M136.456,239.93l5.2,2.365h0a7.527,7.527,0,0,1-3.1,4.818l-.446.311s-5.047-4.811-4.365-6.257Z" transform="translate(-125.07 -168.123)" fill="#ff8b7b"/>
    <path id="Path_5951" data-name="Path 5951" d="M122.5,203.332c0,7.473,2.541,10.244,4.73,16.663a2.7,2.7,0,0,0,3.176,1.764c2.48-.554,4.912-2.378,3.379-5.595a63.308,63.308,0,0,1-2.507-12.419,9.5,9.5,0,0,1,0-3.378c.75-3.189,3.757-9.521,4.453-13.764.588-3.629,1.351-8.162-.372-9.669C127.352,169.865,122.5,189.014,122.5,203.332Z" transform="translate(-121.446 -147.201)" fill="#263238"/>
    <path id="Path_5952" data-name="Path 5952" d="M136,170.28h0a1.676,1.676,0,0,0,2.338,1.176c1.635-.8,6.183.723,7.98.338v-3.115c0-.676-6.081-3.007-7.872-3.156C135.406,165.286,135.446,167.867,136,170.28Z" transform="translate(-125.73 -143.988)" opacity="0.4"/>
    <path id="Path_5953" data-name="Path 5953" d="M161.674,141.8a6.647,6.647,0,0,0-6.2.3,20.189,20.189,0,0,0-4.466,3.595c-1.432,1.392-2.811,2.7-4.223,4.054a.8.8,0,0,1-1.291-.23c-.162-.345-.318-.676-.514-1.034a.831.831,0,0,1-.088-.676c.162-.514.338-1.027.487-1.534a11.8,11.8,0,0,1,1.872-10.811c1.574-2.027,4.608-2.027,7.1-1.507A9.568,9.568,0,0,1,160.4,138.3a1.642,1.642,0,0,1,1.514.378,2.7,2.7,0,0,1,.939,1.3,1.8,1.8,0,0,1,0,1.541.878.878,0,0,1-1.176.27Z" transform="translate(-128.68 -133.659)" fill="#92278f"/>
    <path id="Path_5954" data-name="Path 5954" d="M163.021,139.31a3.831,3.831,0,0,1,.784,1.351,7.3,7.3,0,0,0-2.831.615,4.534,4.534,0,0,0-.784-1.351C161.17,139.7,162.048,139.533,163.021,139.31Z" transform="translate(-133.669 -135.492)" fill="#fff"/>
  </g>
</svg>
