<svg id="Shop_giveaway-bro" data-name="Shop giveaway-bro" xmlns="http://www.w3.org/2000/svg" xmlns:xlink="http://www.w3.org/1999/xlink" width="284.913" height="284.089" viewBox="0 0 284.913 284.089">
  <defs>
    <linearGradient id="linear-gradient" x1="0.5" x2="0.5" y2="1" gradientUnits="objectBoundingBox">
      <stop offset="0" stop-color="#fdd001"/>
      <stop offset="1" stop-color="#fff000"/>
    </linearGradient>
  </defs>
  <g id="freepik--Shadow--inject-25" transform="translate(0 268.396)">
    <ellipse id="freepik--path--inject-25" cx="134.398" cy="7.847" rx="134.398" ry="7.847" fill="#f5f5f5"/>
  </g>
  <g id="freepik--background-simple--inject-15" transform="translate(11.624 0)">
    <path id="Path_5956" data-name="Path 5956" d="M189.295,17.093s-46.889-8.525-86.3,23.662-53.236,85.586-65.56,128.56S42.566,251.1,78.8,264.182s54.361-17.878,100.735-26.808,59.988-4.314,94.383-36.942,31.213-95.926-6.788-136.94S189.295,17.093,189.295,17.093Z" transform="translate(-33.506 -16.071)" fill="#f0f0f0"/>
    <path id="Path_5957" data-name="Path 5957" d="M189.295,17.093s-46.889-8.525-86.3,23.662-53.236,85.586-65.56,128.56S42.566,251.1,78.8,264.182s54.361-17.878,100.735-26.808,59.988-4.314,94.383-36.942,31.213-95.926-6.788-136.94S189.295,17.093,189.295,17.093Z" transform="translate(-33.506 -16.071)" fill="#fff" opacity="0.16"/>
  </g>
  <g id="freepik--Circles--inject-15" transform="translate(13.212 2.105)">
    <path id="Path_5958" data-name="Path 5958" d="M66.845,70.37a3.025,3.025,0,1,1,3.025-3.025A3.025,3.025,0,0,1,66.845,70.37Zm0-5.445a2.408,2.408,0,1,1,0,.024Z" transform="translate(-47.067 -37.233)" fill="#263238"/>
    <path id="Path_5959" data-name="Path 5959" d="M156.391,115.042a3.751,3.751,0,1,1,3.751-3.751,3.751,3.751,0,0,1-3.751,3.751Zm0-6.9a3.146,3.146,0,1,0,3.146,3.146A3.146,3.146,0,0,0,156.391,108.145Z" transform="translate(-82.149 -54.305)" fill="#263238"/>
    <path id="Path_5960" data-name="Path 5960" d="M137.557,35.014a2.027,2.027,0,1,1,2.027-2.027,2.027,2.027,0,0,1-2.027,2.027Zm0-3.449a1.41,1.41,0,1,1,0,.024Z" transform="translate(-75.391 -24.057)" fill="#263238"/>
    <path id="Path_5961" data-name="Path 5961" d="M167.945,42.03a2.275,2.275,0,1,1,2.275-2.275A2.275,2.275,0,0,1,167.945,42.03Zm0-3.945a1.67,1.67,0,1,0,1.67,1.67A1.67,1.67,0,0,0,167.945,38.085Z" transform="translate(-87.296 -26.632)" fill="#263238"/>
    <path id="Path_5962" data-name="Path 5962" d="M55.619,240.178a4,4,0,1,1,4-4,4,4,0,0,1-4,4Zm0-7.393a3.394,3.394,0,1,0,3.394,3.394A3.394,3.394,0,0,0,55.619,232.785Z" transform="translate(-42.248 -103.535)" fill="#263238"/>
    <path id="Path_5963" data-name="Path 5963" d="M452.509,271.436a2.523,2.523,0,1,1,2.517-2.517,2.523,2.523,0,0,1-2.517,2.517Zm0-4.435a1.918,1.918,0,1,0,1.912,1.918A1.918,1.918,0,0,0,452.509,267Z" transform="translate(-199.593 -117.047)" fill="#263238"/>
    <path id="Path_5964" data-name="Path 5964" d="M443.057,153.954a2.027,2.027,0,1,1,2.027-2.027,2.027,2.027,0,0,1-2.027,2.027Zm0-3.449a1.422,1.422,0,1,0,1.422,1.422,1.422,1.422,0,0,0-1.422-1.422Z" transform="translate(-196.058 -71.036)" fill="#263238"/>
    <path id="Path_5965" data-name="Path 5965" d="M302.779,26.568a3.509,3.509,0,1,1,3.509-3.509,3.509,3.509,0,0,1-3.509,3.509Zm0-6.407a2.9,2.9,0,1,0,2.9,2.9,2.9,2.9,0,0,0-2.9-2.9Z" transform="translate(-140.066 -19.55)" fill="#263238"/>
    <path id="Path_5966" data-name="Path 5966" d="M359.711,24.74a1.785,1.785,0,1,1,1.779-1.779,1.785,1.785,0,0,1-1.779,1.779Zm0-2.959a1.18,1.18,0,1,0,1.174,1.18A1.21,1.21,0,0,0,359.711,21.781Z" transform="translate(-163.231 -20.19)" fill="#263238"/>
    <path id="Path_5967" data-name="Path 5967" d="M200.7,359.272a3.261,3.261,0,1,1,3.261-3.261,3.261,3.261,0,0,1-3.261,3.261Zm0-5.917a2.656,2.656,0,1,0,2.656,2.656A2.656,2.656,0,0,0,200.7,353.355Z" transform="translate(-99.844 -151.158)" fill="#263238"/>
    <path id="Path_5968" data-name="Path 5968" d="M190.5,297.346a2.033,2.033,0,1,1,2.027-2.033A2.033,2.033,0,0,1,190.5,297.346Zm0-3.455a1.436,1.436,0,1,0,0-.006Z" transform="translate(-96.298 -127.669)" fill="#263238"/>
    <path id="Path_5969" data-name="Path 5969" d="M116.621,433.03a2.275,2.275,0,1,1,2.269-2.275,2.275,2.275,0,0,1-2.269,2.275Zm0-3.945a1.658,1.658,0,1,1,0,.024Z" transform="translate(-67.022 -181.07)" fill="#263238"/>
    <path id="Path_5970" data-name="Path 5970" d="M37.673,340.343a1.537,1.537,0,1,1,1.531-1.537,1.537,1.537,0,0,1-1.531,1.537Zm0-2.462a.932.932,0,1,0,.926.926.932.932,0,0,0-.926-.926Z" transform="translate(-36.13 -145.044)" fill="#263238"/>
    <path id="Path_5971" data-name="Path 5971" d="M445.425,407.98a2.765,2.765,0,1,1,2.765-2.777,2.765,2.765,0,0,1-2.765,2.777Zm0-4.925a2.16,2.16,0,1,0,2.16,2.148,2.16,2.16,0,0,0-2.16-2.148Z" transform="translate(-196.702 -170.789)" fill="#263238"/>
    <path id="Path_5972" data-name="Path 5972" d="M477.119,328.808a3.509,3.509,0,1,1,3.509-3.509,3.509,3.509,0,0,1-3.509,3.509Zm0-6.407a2.9,2.9,0,1,0,2.9,2.9,2.9,2.9,0,0,0-2.9-2.9Z" transform="translate(-208.927 -138.93)" fill="#263238"/>
  </g>
  <g id="freepik--Device--inject-15" transform="translate(122.127 22.343)">
    <rect id="Rectangle_215" data-name="Rectangle 215" width="124.936" height="231.449" transform="translate(1.168 11.762)" fill="#fff"/>
    <path id="Path_5975" data-name="Path 5975" d="M342.813,303.994H217.883a.3.3,0,0,1-.3-.3V72.243a.3.3,0,0,1,.3-.3h124.93a.3.3,0,0,1,.3.3V303.7A.3.3,0,0,1,342.813,303.994Zm-124.634-.605H342.51V72.545H218.185Z" transform="translate(-216.715 -60.481)" fill="#263238"/>
    <rect id="Rectangle_216" data-name="Rectangle 216" width="124.936" height="17.013" transform="translate(1.168 11.762)" fill="#92278f"/>
    <path id="Path_5976" data-name="Path 5976" d="M342.813,89.558H217.883a.3.3,0,0,1-.3-.3V72.243a.3.3,0,0,1,.3-.3h124.93a.3.3,0,0,1,.3.3V89.256A.3.3,0,0,1,342.813,89.558Zm-124.634-.605H342.51V72.545H218.185Z" transform="translate(-216.715 -60.481)" fill="#263238"/>
    <path id="Path_5977" data-name="Path 5977" d="M395.864,90.038a2.136,2.136,0,1,0-.617,1.532,2.142,2.142,0,0,0,.617-1.532Z" transform="translate(-285.442 -66.793)" fill="#fff"/>
    <path id="Path_5978" data-name="Path 5978" d="M393.54,92.3a2.42,2.42,0,1,1,2.42-2.42A2.42,2.42,0,0,1,393.54,92.3Zm0-4.284a1.815,1.815,0,1,0,1.815,1.815A1.815,1.815,0,0,0,393.54,88.017Z" transform="translate(-285.26 -66.611)" fill="#263238"/>
    <path id="Path_5979" data-name="Path 5979" d="M405.474,90.038a2.136,2.136,0,1,0-.617,1.532,2.142,2.142,0,0,0,.617-1.532Z" transform="translate(-289.238 -66.793)" fill="#fff"/>
    <path id="Path_5980" data-name="Path 5980" d="M403.15,92.3a2.42,2.42,0,1,1,2.42-2.42A2.42,2.42,0,0,1,403.15,92.3Zm0-4.284a1.815,1.815,0,1,0,1.815,1.815A1.815,1.815,0,0,0,403.15,88.017Z" transform="translate(-289.056 -66.611)" fill="#263238"/>
    <path id="Path_5981" data-name="Path 5981" d="M415.084,90.038a2.136,2.136,0,1,0-.617,1.532,2.142,2.142,0,0,0,.617-1.532Z" transform="translate(-293.033 -66.793)" fill="#fff"/>
    <path id="Path_5982" data-name="Path 5982" d="M412.76,92.3a2.42,2.42,0,1,1,2.42-2.42A2.42,2.42,0,0,1,412.76,92.3Zm0-4.284a1.815,1.815,0,1,0,1.815,1.815,1.815,1.815,0,0,0-1.815-1.815Z" transform="translate(-292.852 -66.611)" fill="#263238"/>
    <rect id="Rectangle_217" data-name="Rectangle 217" width="124.936" height="18.211" transform="translate(1.168 225)" fill="#92278f"/>
    <path id="Path_5983" data-name="Path 5983" d="M342.813,443.206H217.883a.3.3,0,0,1-.3-.3V424.692a.3.3,0,0,1,.3-.3h124.93a.3.3,0,0,1,.3.3V442.91A.3.3,0,0,1,342.813,443.206ZM218.179,442.6H342.51V424.995H218.185Z" transform="translate(-216.715 -199.693)" fill="#263238"/>
    <path id="Path_5984" data-name="Path 5984" d="M305.017,72.44,218.07,224.124v54.27L336.127,72.44Z" transform="translate(-216.908 -60.678)" opacity="0.04"/>
    <path id="Path_5985" data-name="Path 5985" d="M374.162,228.154,372.1,226.66,296.95,359.413,299,364.8h75.161Z" transform="translate(-248.065 -121.593)" opacity="0.04"/>
    <path id="Path_5986" data-name="Path 5986" d="M346,110.3a1.543,1.543,0,0,0,1.543-1.543V93.324A1.543,1.543,0,0,0,346,91.782a1.464,1.464,0,0,0-.284.03V62.946A9.953,9.953,0,0,0,335.762,53H226.1a9.946,9.946,0,0,0-9.953,9.953V295.884a9.953,9.953,0,0,0,9.953,9.953H335.762a9.959,9.959,0,0,0,9.953-9.953V154.171a1.464,1.464,0,0,0,.284,0,1.543,1.543,0,0,0,1.543-1.543V137.2A1.549,1.549,0,0,0,346,135.651a1.463,1.463,0,0,0-.284,0v-3.485a1.463,1.463,0,0,0,.284.03,1.543,1.543,0,0,0,1.543-1.543v-15.38A1.543,1.543,0,0,0,346,113.732a1.462,1.462,0,0,0-.284.03v-3.491A1.464,1.464,0,0,0,346,110.3Zm-6.05,180.519H221.916V70.164H339.949Z" transform="translate(-216.15 -53)" fill="#263238"/>
    <path id="Path_5987" data-name="Path 5987" d="M310.406,230.591s-3.527-16.7-7.829-20.419-12.137,0-12.137,0,12.33,8.8,14.871,19.966Z" transform="translate(-245.493 -114.428)" fill="#263238"/>
    <path id="Path_5988" data-name="Path 5988" d="M310.227,230.731h0l-5.094-.454a.3.3,0,0,1-.266-.236c-2.493-10.89-14.629-19.693-14.756-19.784a.3.3,0,0,1-.121-.272.284.284,0,0,1,.169-.242c.327-.157,8.053-3.763,12.457.042s7.787,19.9,7.932,20.571a.3.3,0,0,1-.073.266A.29.29,0,0,1,310.227,230.731Zm-4.84-1.047,4.465.405c-.575-2.559-3.836-16.559-7.647-19.851-3.515-3.025-9.608-.871-11.338-.163,2.154,1.676,12.149,9.747,14.514,19.609Z" transform="translate(-245.314 -114.241)" fill="#263238"/>
    <path id="Path_5989" data-name="Path 5989" d="M297.809,209.791s-5.088-3.914-9.4,4.889,8.809,15.658,8.809,15.658h-7.26s-14.272-5.875-11.144-14.871S293.876,205.876,297.809,209.791Z" transform="translate(-240.726 -114.022)" fill="#fff000"/>
    <path id="Path_5990" data-name="Path 5990" d="M297.025,230.458h-7.26a.393.393,0,0,1-.115,0c-.145-.061-14.52-6.086-11.314-15.252a12.13,12.13,0,0,1,9.075-7.8c4.029-.92,8.319-.1,10.424,2.009a.3.3,0,0,1-.4.454,4.6,4.6,0,0,0-3.594-.684c-2,.472-3.8,2.317-5.342,5.445-4.126,8.47,8.549,15.186,8.676,15.253a.3.3,0,0,1,.151.345A.3.3,0,0,1,297.025,230.458Zm-7.194-.605h6.05c-2.995-1.851-11.622-7.986-7.956-15.488,1.634-3.328,3.57-5.282,5.76-5.8a5,5,0,0,1,1.585-.109,13.056,13.056,0,0,0-7.756-.484,11.545,11.545,0,0,0-8.615,7.405c-2.892,8.355,9.989,14.067,10.933,14.472Z" transform="translate(-240.528 -113.841)" fill="#263238"/>
    <path id="Path_5991" data-name="Path 5991" d="M319.24,230.591s3.521-16.7,7.829-20.419,12.131,0,12.131,0-12.324,8.8-14.871,19.966Z" transform="translate(-256.869 -114.428)" fill="#263238"/>
    <path id="Path_5992" data-name="Path 5992" d="M319.042,230.758a.3.3,0,0,1-.3-.369c.145-.684,3.594-16.844,7.926-20.571s12.137-.2,12.463-.042a.3.3,0,0,1,.169.242.284.284,0,0,1-.127.272c-.121.091-12.264,8.87-14.75,19.784a.309.309,0,0,1-.266.236l-5.094.454Zm12.875-22.065a7.261,7.261,0,0,0-4.84,1.573c-3.812,3.291-7.079,17.291-7.647,19.851l4.465-.405c2.366-9.862,12.33-17.933,14.52-19.609a18.508,18.508,0,0,0-6.5-1.41Z" transform="translate(-256.67 -114.268)" fill="#263238"/>
    <path id="Path_5993" data-name="Path 5993" d="M332.18,209.791s5.088-3.914,9.39,4.889-8.8,15.658-8.8,15.658h7.26s14.272-5.875,11.138-14.871S336.094,205.876,332.18,209.791Z" transform="translate(-261.98 -114.022)" fill="#fff000"/>
    <path id="Path_5994" data-name="Path 5994" d="M339.828,230.458h-7.26a.309.309,0,0,1-.139-.575c.127-.067,12.8-6.812,8.676-15.253-1.549-3.158-3.352-5-5.354-5.445a4.6,4.6,0,0,0-3.588.684.3.3,0,0,1-.393-.454c2.105-2.105,6.4-2.928,10.424-2.009a12.2,12.2,0,0,1,9.075,7.8c3.182,9.166-11.169,15.192-11.314,15.253A.394.394,0,0,1,339.828,230.458Zm-6.135-.605h6.05c.95-.405,13.825-6.117,10.921-14.472a11.5,11.5,0,0,0-8.615-7.405,13.081,13.081,0,0,0-7.762.484,5.04,5.04,0,0,1,1.591.109c2.19.514,4.126,2.468,5.754,5.8C345.316,221.866,336.718,228,333.693,229.853Z" transform="translate(-261.787 -113.841)" fill="#263238"/>
    <rect id="Rectangle_219" data-name="Rectangle 219" width="74.829" height="61.319" transform="translate(28.285 125.91)" fill="#fff"/>
    <path id="Path_5995" data-name="Path 5995" d="M337.531,322.558H262.7a.3.3,0,0,1-.3-.3V260.913a.3.3,0,0,1,.3-.3h74.829a.3.3,0,0,1,.3.3v61.325a.3.3,0,0,1-.3.321Zm-74.526-.605h74.224V261.215H263.005Z" transform="translate(-234.418 -135.002)" fill="#263238"/>
    <rect id="Rectangle_220" data-name="Rectangle 220" width="14.908" height="61.319" transform="translate(48.553 125.91)" fill="#fff000"/>
    <path id="Path_5996" data-name="Path 5996" d="M311.086,322.558H296.2a.309.309,0,0,1-.3-.3V260.912a.309.309,0,0,1,.3-.3h14.883a.3.3,0,0,1,.3.3v61.325a.3.3,0,0,1-.3.321Zm-14.605-.605h14.3V261.215H296.505Z" transform="translate(-247.65 -135.002)" fill="#263238"/>
    <rect id="Rectangle_221" data-name="Rectangle 221" width="22.658" height="61.319" transform="translate(80.455 125.91)" fill="#fff"/>
    <path id="Path_5997" data-name="Path 5997" d="M371.59,322.558H348.933a.3.3,0,0,1-.3-.3V260.913a.3.3,0,0,1,.3-.3H371.59a.3.3,0,0,1,.3.3v61.325a.3.3,0,0,1-.3.321Zm-22.355-.605h22.053V261.215H349.235Z" transform="translate(-268.477 -135.002)" fill="#263238"/>
    <rect id="Rectangle_222" data-name="Rectangle 222" width="75.192" height="7.889" transform="translate(28.188 122.558)" fill="#263238"/>
    <path id="Path_5998" data-name="Path 5998" d="M337.722,263.57h-75.18a.3.3,0,0,1-.3-.3V255.4a.3.3,0,0,1,.3-.3h75.18a.3.3,0,0,1,.3.3v7.865A.3.3,0,0,1,337.722,263.57Zm-74.883-.605h74.587V255.7H262.845Z" transform="translate(-234.355 -132.826)" fill="#263238"/>
    <rect id="Rectangle_223" data-name="Rectangle 223" width="78.664" height="12.681" transform="translate(26.367 116.188)" fill="#fff"/>
    <path id="Path_5999" data-name="Path 5999" d="M338.2,257.81H259.553a.3.3,0,0,1-.3-.3V244.8a.3.3,0,0,1,.3-.3H338.2a.3.3,0,0,1,.3.3v12.705a.309.309,0,0,1-.3.3Zm-78.362-.605H337.89v-12.1H259.843Z" transform="translate(-233.174 -128.639)" fill="#263238"/>
    <rect id="Rectangle_224" data-name="Rectangle 224" width="23.82" height="12.681" transform="translate(81.212 116.188)" fill="#fff"/>
    <path id="Path_6000" data-name="Path 6000" d="M374,257.81h-23.82a.3.3,0,0,1-.3-.3V244.8a.3.3,0,0,1,.3-.3H374a.3.3,0,0,1,.3.3v12.705a.309.309,0,0,1-.3.3Zm-23.517-.605H373.7v-12.1H350.485Z" transform="translate(-268.971 -128.639)" fill="#263238"/>
    <rect id="Rectangle_225" data-name="Rectangle 225" width="15.67" height="12.681" transform="translate(47.675 116.188)" fill="#fff000"/>
    <path id="Path_6001" data-name="Path 6001" d="M310.442,257.81H294.8a.308.308,0,0,1-.3-.3V244.8a.3.3,0,0,1,.3-.3h15.67a.3.3,0,0,1,.3.3v12.705a.3.3,0,0,1-.333.3Zm-15.367-.605H310.14v-12.1H295.075Z" transform="translate(-247.097 -128.639)" fill="#263238"/>
    <path id="Path_6002" data-name="Path 6002" d="M257.438,163.421h0a.484.484,0,0,1,.26-.6l2.42-1a.484.484,0,0,1,.605.26h0a.484.484,0,0,1-.26.605l-2.42,1A.478.478,0,0,1,257.438,163.421Zm14.157,1.742,2.42-1a.472.472,0,0,0,.26-.605v-.03a.478.478,0,0,0-.605-.26l-2.42,1a.484.484,0,0,0-.266.605h0a.478.478,0,0,0,.611.29Zm1.857,6.437-2.42-1.113a.478.478,0,0,0-.605.236h0a.484.484,0,0,0,.23.641l2.384,1.107a.478.478,0,0,0,.641-.23h0a.484.484,0,0,0-.23-.641Zm-15.87,13.371,2.42-1a.478.478,0,0,0,.26-.605h0a.484.484,0,0,0-.6-.26l-2.42,1a.484.484,0,0,0-.26.605h0A.484.484,0,0,0,257.583,184.971Zm21.406-2.662,2.42-1a.49.49,0,0,0,.26-.605h0a.49.49,0,0,0-.6-.26l-2.42,1a.484.484,0,0,0-.26.605v.03A.478.478,0,0,0,278.989,182.309Zm12.923-12.233,2.42-1a.478.478,0,0,0,.26-.605h0a.478.478,0,0,0-.605-.26l-2.42,1a.484.484,0,0,0-.26.605h0a.484.484,0,0,0,.605.266Zm-35.623,23.329,2.42-1a.478.478,0,0,0,.26-.605h0a.478.478,0,0,0-.605-.266l-2.42,1a.478.478,0,0,0-.266.605v.03A.484.484,0,0,0,256.288,193.405Zm13.5-10.642,2.42-1a.478.478,0,0,0,.26-.605h0a.478.478,0,0,0-.6-.266l-2.42,1a.478.478,0,0,0-.266.605v.03A.484.484,0,0,0,269.792,182.763Zm8.73,24.769,2.42-1a.478.478,0,0,0,.26-.605v-.03a.484.484,0,0,0-.605-.26l-2.42,1a.484.484,0,0,0-.26.605h0a.484.484,0,0,0,.605.3Zm-13.528-10.691,2.42-1a.478.478,0,0,0,.26-.605v-.03a.478.478,0,0,0-.605-.26l-2.42,1a.484.484,0,0,0-.26.605h0A.484.484,0,0,0,264.995,196.842ZM258.811,177.4l2.42-1a.478.478,0,0,0,.26-.6h0a.478.478,0,0,0-.605-.26l-2.42,1a.484.484,0,0,0-.26.605h0A.484.484,0,0,0,258.811,177.4Zm7.436,11.1,2.42-1a.478.478,0,0,0,.26-.605v-.03a.484.484,0,0,0-.605-.26l-2.42,1a.484.484,0,0,0-.266.605h0A.484.484,0,0,0,266.247,188.5Zm-4.538-18.834,2.42-1a.472.472,0,0,0,.26-.605v-.03a.478.478,0,0,0-.6-.26l-2.42,1a.484.484,0,0,0-.266.6h0a.484.484,0,0,0,.623.3Zm-17.5,27.649-.478-2.589a.484.484,0,0,0-.563-.381h0a.478.478,0,0,0-.381.557l.478,2.589a.484.484,0,0,0,.563.381h.03a.478.478,0,0,0,.363-.557ZM242.4,175.533l-.484-2.589a.478.478,0,0,0-.557-.381h0a.478.478,0,0,0-.387.557l.484,2.589a.478.478,0,0,0,.557.381h.036a.478.478,0,0,0,.363-.575Zm40.911,23.251,2.42-1a.478.478,0,0,0,.26-.605h0a.472.472,0,0,0-.605-.26l-2.42,1a.484.484,0,0,0-.26.605h0a.478.478,0,0,0,.617.242Zm-16.033-40.675,2.42-1a.478.478,0,0,0,.26-.605h0a.478.478,0,0,0-.605-.266l-2.42,1a.478.478,0,0,0-.266.605v.03a.484.484,0,0,0,.623.212Zm12.687,9.009,1.712,2a.478.478,0,0,0,.678.048h0a.478.478,0,0,0,.048-.678l-1.712-2a.478.478,0,0,0-.678-.048h0a.478.478,0,0,0-.048.678Zm-30.9-9.8,1.712,2a.478.478,0,0,0,.678.048h0a.484.484,0,0,0,.054-.678l-1.718-1.991a.478.478,0,0,0-.678-.054h0a.478.478,0,0,0-.048.69Zm.206,36.549,1.712,1.99a.478.478,0,0,0,.678.054h0a.478.478,0,0,0,.048-.678l-1.712-2a.478.478,0,0,0-.678-.048h0a.478.478,0,0,0-.048.69Zm10.431-6.05,1.712,2a.484.484,0,0,0,.678.054h0a.478.478,0,0,0,.048-.678l-1.712-1.991a.478.478,0,0,0-.678-.054h0a.472.472,0,0,0-.048.659Zm-23.6,22.053,1.712,1.99a.484.484,0,0,0,.678.054h0a.478.478,0,0,0,.048-.678l-1.712-1.991a.484.484,0,0,0-.678-.054h0a.478.478,0,0,0-.042.666Zm48.813-51.427,1.712,2a.478.478,0,0,0,.678.048h0a.484.484,0,0,0,.054-.678l-1.718-1.991a.478.478,0,0,0-.678-.054h0a.478.478,0,0,0-.042.641Zm-24.763-2.614,1.712,1.991a.484.484,0,0,0,.678.054h0a.478.478,0,0,0,.048-.678l-1.712-1.991a.484.484,0,0,0-.678-.054h0a.478.478,0,0,0-.042.641Zm-7.357,43.713,1.712,1.99a.484.484,0,0,0,.678.054h0a.478.478,0,0,0,.048-.678l-1.688-2.015a.484.484,0,0,0-.678-.054h0a.478.478,0,0,0-.073.7Zm35.049-13.365,1.718,2a.472.472,0,0,0,.672.048h0a.478.478,0,0,0,.054-.678l-1.718-2a.478.478,0,0,0-.678-.048h0a.478.478,0,0,0-.048.678Zm-14.091,3.854,1.712,2a.478.478,0,0,0,.678.048h0a.478.478,0,0,0,.048-.678l-1.712-2a.478.478,0,0,0-.678-.048h0a.478.478,0,0,0-.048.678Zm-1.361,8.053,1.718,2a.478.478,0,0,0,.678.048h0a.478.478,0,0,0,.048-.678l-1.712-2a.478.478,0,0,0-.678-.048h0a.484.484,0,0,0-.054.678Zm8.192-9.426,1.712,2a.478.478,0,0,0,.678.048h0a.478.478,0,0,0,.048-.678l-1.712-2a.478.478,0,0,0-.678-.048h0a.478.478,0,0,0-.048.678Zm-23.112,22.386,1.712,2a.478.478,0,0,0,.678.048h0a.478.478,0,0,0,.048-.678l-1.712-2a.478.478,0,0,0-.678-.048h0a.478.478,0,0,0-.048.684Zm8.894-7.52-1.978,1.73a.478.478,0,0,0-.048.678h0a.478.478,0,0,0,.678.042l1.972-1.73a.478.478,0,0,0,.048-.678h0a.478.478,0,0,0-.672-.036Zm16.571-26.252,1.712,2a.478.478,0,0,0,.678.048h0a.478.478,0,0,0,.048-.678l-1.712-2a.478.478,0,0,0-.678-.048h0a.478.478,0,0,0-.048.684Zm-39.974,7.635,1.712,2a.478.478,0,0,0,.678.048h0a.478.478,0,0,0,.048-.678l-1.712-2a.478.478,0,0,0-.678-.048h0a.478.478,0,0,0-.048.684Zm8.119-11.042,1.712,2a.478.478,0,0,0,.678.048h0a.484.484,0,0,0,.054-.678l-1.718-2a.478.478,0,0,0-.678-.048h0a.478.478,0,0,0-.048.684Z" transform="translate(-223.986 -93.305)" fill="#92278f"/>
    <path id="Path_6003" data-name="Path 6003" d="M254.14,261.421v-.03a.484.484,0,0,1,.26-.605l2.42-1a.484.484,0,0,1,.605.26h0a.484.484,0,0,1-.266.605l-2.42,1a.484.484,0,0,1-.6-.23Zm14.157,1.742,2.42-1a.472.472,0,0,0,.26-.605v-.03a.478.478,0,0,0-.605-.26l-2.42,1a.484.484,0,0,0-.266.605h0A.484.484,0,0,0,268.3,263.164Zm1.851,6.431-2.384-1.107a.472.472,0,0,0-.635.23h0a.472.472,0,0,0,.23.635l2.384,1.107a.478.478,0,0,0,.641-.23h0A.484.484,0,0,0,270.148,269.6Zm-15.87,13.371,2.42-1a.484.484,0,0,0,.26-.6v-.03a.484.484,0,0,0-.605-.26l-2.42,1a.484.484,0,0,0-.26.605h0a.484.484,0,0,0,.605.29ZM275.69,280.3l2.42-1a.49.49,0,0,0,.26-.605h0a.484.484,0,0,0-.605-.266l-2.42,1a.478.478,0,0,0-.26.605v.03A.478.478,0,0,0,275.69,280.3Zm-22.7,11.1,2.42-1a.478.478,0,0,0,.26-.605h0a.472.472,0,0,0-.605-.26l-2.42,1a.478.478,0,0,0-.266.605h0A.478.478,0,0,0,252.99,291.4Zm13.5-10.642,2.42-1a.478.478,0,0,0,.26-.605h0a.472.472,0,0,0-.6-.26l-2.42,1a.478.478,0,0,0-.266.605v.03a.484.484,0,0,0,.611.23Zm-4.8,14.079,2.42-1a.484.484,0,0,0,.26-.605v-.03a.49.49,0,0,0-.605-.26l-2.42,1a.484.484,0,0,0-.26.605h0A.484.484,0,0,0,261.7,294.837Zm-3.261-27.177,2.42-1a.478.478,0,0,0,.26-.605h0a.478.478,0,0,0-.605-.26l-2.42,1a.484.484,0,0,0-.266.6h0A.484.484,0,0,0,258.435,267.659Zm-17.5,27.649-.478-2.59a.484.484,0,0,0-.563-.381h-.03a.478.478,0,0,0-.381.557l.478,2.589a.484.484,0,0,0,.563.381h.03a.478.478,0,0,0,.369-.557Zm-1.815-21.781-.484-2.59a.478.478,0,0,0-.557-.381h-.03a.478.478,0,0,0-.387.557l.484,2.59a.478.478,0,0,0,.557.381h0a.478.478,0,0,0,.405-.575Zm40.911,23.257,2.42-1a.478.478,0,0,0,.26-.605v-.03a.478.478,0,0,0-.605-.26l-2.42,1a.484.484,0,0,0-.26.6h0a.484.484,0,0,0,.593.278Zm-34.262-41.438,1.712,2a.484.484,0,0,0,.678.054h0a.484.484,0,0,0,.054-.678L246.5,254.73a.484.484,0,0,0-.678-.054h0a.472.472,0,0,0-.061.653Zm.206,36.549,1.712,2a.478.478,0,0,0,.678.048h0a.478.478,0,0,0,.048-.678l-1.712-2a.478.478,0,0,0-.678-.048h0a.478.478,0,0,0-.061.659Zm10.89-38.086,1.712,1.99a.478.478,0,0,0,.678.054h0a.478.478,0,0,0,.048-.678l-1.712-2a.478.478,0,0,0-.678-.048h0a.478.478,0,0,0-.061.659Zm13.595,34.238,1.712,2a.484.484,0,0,0,.678.054h0a.478.478,0,0,0,.048-.678l-1.712-1.991a.478.478,0,0,0-.678-.054h0a.478.478,0,0,0-.06.653Zm-16.263,21,1.712,2a.478.478,0,0,0,.678.048h0a.478.478,0,0,0,.048-.678l-1.712-2a.478.478,0,0,0-.678-.048h0a.478.478,0,0,0-.048.678Zm8.894-7.52-1.978,1.736a.472.472,0,0,0-.048.672h0a.472.472,0,0,0,.672.048l1.978-1.736a.478.478,0,0,0,.048-.678h0a.478.478,0,0,0-.7-.042Zm16.517-26.252,1.712,2a.478.478,0,0,0,.678.048h0a.478.478,0,0,0,.048-.678l-1.712-2a.478.478,0,0,0-.678-.048h0a.478.478,0,0,0-.048.678Zm-39.931,7.635,1.712,2a.478.478,0,0,0,.678.048h0a.478.478,0,0,0,.048-.678l-1.712-1.991a.478.478,0,0,0-.678-.054h0a.478.478,0,0,0-.048.678ZM247.8,271.87l1.712,2a.478.478,0,0,0,.678.048h0a.484.484,0,0,0,.054-.678l-1.718-2a.478.478,0,0,0-.678-.048h0a.478.478,0,0,0-.067.678Z" transform="translate(-224.645 -132.002)" fill="#92278f"/>
    <path id="Path_6004" data-name="Path 6004" d="M358.092,300.833h0a.484.484,0,0,1-.121.672l-2.16,1.5a.478.478,0,0,1-.666-.121h0a.484.484,0,0,1,.121-.672l2.16-1.5a.478.478,0,0,1,.666.121Zm-14.2,1.355-2.16,1.5a.478.478,0,0,0-.115.665h0a.484.484,0,0,0,.672.121l2.16-1.5a.484.484,0,0,0,.121-.672h0a.484.484,0,0,0-.678-.115Zm-3.2-5.881,2.571.569a.472.472,0,0,0,.569-.363v-.03a.472.472,0,0,0-.363-.569l-2.565-.569a.478.478,0,0,0-.6.363v.03a.472.472,0,0,0,.393.569ZM353.3,279.827l-2.16,1.476a.484.484,0,0,0-.121.672h0a.478.478,0,0,0,.666.121l2.16-1.5a.484.484,0,0,0,.121-.672h0A.478.478,0,0,0,353.3,279.827Zm-20.335,7.224-2.172,1.513a.484.484,0,0,0-.121.672h0a.478.478,0,0,0,.665.121l2.16-1.5a.484.484,0,0,0,.121-.672h0A.484.484,0,0,0,332.966,287.051Zm19.772-15.73-2.16,1.513a.478.478,0,0,0-.121.666h0a.484.484,0,0,0,.672.121l2.154-1.5a.484.484,0,0,0,.121-.672h0a.478.478,0,0,0-.666-.139Zm-10.89,13.31-2.154,1.513a.478.478,0,0,0-.121.666h0a.478.478,0,0,0,.666.121l2.16-1.5a.484.484,0,0,0,.121-.672h0a.478.478,0,0,0-.666-.139Zm1.652-14.793-2.16,1.5a.484.484,0,0,0-.121.672h0a.478.478,0,0,0,.666.121l2.16-1.5a.484.484,0,0,0,.121-.672h0a.478.478,0,0,0-.665-.121Zm9.075,25.828-2.16,1.507a.478.478,0,0,0-.121.665h0a.484.484,0,0,0,.672.121l2.16-1.5a.484.484,0,0,0,.121-.672h0A.484.484,0,0,0,352.574,295.666Zm11.108-30.777,1.029,2.42a.472.472,0,0,0,.6.254h.03a.478.478,0,0,0,.254-.605l-1.029-2.42a.484.484,0,0,0-.605-.254h-.03a.484.484,0,0,0-.266.605Zm6.486,20.891,1.029,2.42a.472.472,0,0,0,.605.254h.03a.478.478,0,0,0,.254-.605l-1.029-2.42a.484.484,0,0,0-.605-.254h0a.484.484,0,0,0-.3.605ZM325.2,271.913l-2.172,1.525a.478.478,0,0,0-.121.666h0a.484.484,0,0,0,.672.121l2.16-1.5a.484.484,0,0,0,.121-.672h0a.484.484,0,0,0-.672-.139ZM367.6,304.965l-2.105-1.579a.484.484,0,0,0-.672.1h0a.49.49,0,0,0,.1.678l2.105,1.573a.484.484,0,0,0,.672-.1h0a.484.484,0,0,0-.109-.672Zm-8.1-35.636-2.093-1.579a.484.484,0,0,0-.672.1h0a.484.484,0,0,0,.1.672l2.105,1.579a.484.484,0,0,0,.672-.1h0a.484.484,0,0,0-.121-.672Zm-2.42,39.538-2.093-1.549a.49.49,0,0,0-.678.1h0a.49.49,0,0,0,.1.678l2.105,1.573a.484.484,0,0,0,.672-.1h0a.478.478,0,0,0-.1-.7Zm-20.673-30.493-2.105-1.579a.484.484,0,0,0-.672.1h0a.472.472,0,0,0,.1.672l2.1,1.579a.49.49,0,0,0,.678-.1h0a.484.484,0,0,0-.091-.672Zm11.356-24.037-2.105-1.579a.49.49,0,0,0-.678.1h0a.484.484,0,0,0,.1.672l2.105,1.579a.484.484,0,0,0,.672-.1h0a.478.478,0,0,0-.085-.672Zm-7.055,9.263,1.555-2.118a.478.478,0,0,0-.1-.672h0a.478.478,0,0,0-.672.1l-1.555,2.118a.484.484,0,0,0,.1.672h0a.484.484,0,0,0,.672-.1Zm-10.527,29.2-2.105-1.573a.472.472,0,0,0-.672.1h0a.484.484,0,0,0,.1.672l2.105,1.573a.478.478,0,0,0,.672-.1h0A.484.484,0,0,0,330.189,292.8ZM367.567,276.7l-2.105-1.573a.478.478,0,0,0-.672.091h0a.49.49,0,0,0,.1.678l2.106,1.573a.484.484,0,0,0,.672-.1h0a.478.478,0,0,0-.079-.659Zm-5.542,12.536-2.105-1.573a.478.478,0,0,0-.672.091h0a.49.49,0,0,0,.1.678l2.105,1.573a.484.484,0,0,0,.672-.1h0a.484.484,0,0,0-.079-.659Z" transform="translate(-258.282 -131.864)" fill="#92278f"/>
    <path id="Path_6005" data-name="Path 6005" d="M370.216,185.326h.03a.478.478,0,0,0,.424-.532l-.3-2.614a.478.478,0,0,0-.532-.417h0a.484.484,0,0,0-.417.532l.3,2.614a.478.478,0,0,0,.5.417Zm-8.361-11.556-.3-2.614a.478.478,0,0,1,.424-.532h.03a.484.484,0,0,1,.532.423l.3,2.614a.478.478,0,0,1-.424.532h-.03a.478.478,0,0,1-.526-.417Zm-6.534,1.482,2.124,1.549a.484.484,0,0,1,.109.672h0a.478.478,0,0,1-.672.109l-2.124-1.555a.484.484,0,0,1-.109-.672h0a.484.484,0,0,1,.672-.1Zm-4.042,20.359-.3-2.614a.484.484,0,0,1,.417-.532h.03a.478.478,0,0,1,.532.417l.3,2.614a.478.478,0,0,1-.423.532h0a.484.484,0,0,1-.563-.417Zm-8.01-20.032-.3-2.614a.478.478,0,0,1,.417-.532h.03a.484.484,0,0,1,.532.424l.3,2.614a.484.484,0,0,1-.424.532h-.03a.484.484,0,0,1-.532-.424Zm1.246,25.241-.3-2.614a.478.478,0,0,1,.424-.532h.03a.478.478,0,0,1,.526.424l.3,2.614a.484.484,0,0,1-.424.532h-.03A.484.484,0,0,1,344.515,200.82Zm2.8-16.971-.3-2.608a.478.478,0,0,1,.424-.532h.03a.484.484,0,0,1,.532.424l.3,2.614a.484.484,0,0,1-.417.532h-.03a.478.478,0,0,1-.532-.43ZM337.3,194.855l-.3-2.614a.478.478,0,0,1,.424-.532h.03a.484.484,0,0,1,.532.417l.3,2.614a.478.478,0,0,1-.423.532h-.03a.484.484,0,0,1-.532-.417Zm20.038-3.987-.3-2.614a.484.484,0,0,1,.424-.532h.03a.478.478,0,0,1,.532.424l.3,2.614a.484.484,0,0,1-.423.532h-.03a.478.478,0,0,1-.532-.424ZM344,189.718l-.3-2.614a.478.478,0,0,1,.424-.532h.03a.484.484,0,0,1,.532.424l.3,2.614a.478.478,0,0,1-.417.532h0a.484.484,0,0,1-.563-.424Zm18.713-5.124-.3-2.614a.478.478,0,0,1,.417-.532h.03a.484.484,0,0,1,.532.424l.3,2.614a.484.484,0,0,1-.423.532h-.03A.484.484,0,0,1,362.714,184.594Zm-15.791,28.672,2.493-.829a.484.484,0,0,1,.605.309h0a.478.478,0,0,1-.3.6l-2.5.829a.484.484,0,0,1-.605-.309h0a.478.478,0,0,1,.309-.605Zm19.966-8.936,2.481-.853a.478.478,0,0,1,.6.309h0a.49.49,0,0,1-.309.605l-2.462.9a.49.49,0,0,1-.6-.309h0a.478.478,0,0,1,.29-.653Zm-40.125-24.588-.3-2.614a.478.478,0,0,1,.424-.532h0a.484.484,0,0,1,.532.424l.3,2.614a.484.484,0,0,1-.423.532h-.03a.484.484,0,0,1-.5-.423Zm43.362-5.609-.3-2.614a.478.478,0,0,1,.424-.532h.03a.478.478,0,0,1,.526.424l.3,2.614a.478.478,0,0,1-.423.532h-.03a.484.484,0,0,1-.532-.423ZM356.1,167.4l-2.577-.538a.478.478,0,0,1-.369-.569h0a.472.472,0,0,1,.563-.369l2.577.538a.478.478,0,0,1,.369.569h0a.478.478,0,0,1-.563.369Zm23.5,22.331-2.577-.538a.478.478,0,0,1-.369-.569h0a.484.484,0,0,1,.569-.375l2.571.538a.484.484,0,0,1,.375.569h0a.484.484,0,0,1-.569.375Zm-32.1,17.467-2.571-.538a.478.478,0,0,1-.375-.563v-.03a.484.484,0,0,1,.569-.375l2.577.538a.478.478,0,0,1,.369.569h0a.478.478,0,0,1-.569.4Zm.278-12.064-2.571-.538a.484.484,0,0,1-.375-.569h0a.484.484,0,0,1,.569-.369l2.577.538a.478.478,0,0,1,.369.569h0a.478.478,0,0,1-.569.369ZM375.6,179.27l-2.6-.538a.484.484,0,0,1-.375-.569h0a.478.478,0,0,1,.569-.369l2.577.532a.484.484,0,0,1,.369.569v.03a.484.484,0,0,1-.557.351Zm-34.752,27.577-2.571-.538a.484.484,0,0,1-.375-.569v-.03a.478.478,0,0,1,.569-.369l2.577.538a.478.478,0,0,1,.369.563h0a.484.484,0,0,1-.587.405ZM339.034,183.9l-2.571-.538a.484.484,0,0,1-.375-.569h0a.484.484,0,0,1,.569-.375l2.577.538a.478.478,0,0,1,.369.569v-.018a.484.484,0,0,1-.569.393Zm-6.4,5.052-2.577-.538a.484.484,0,0,1-.369-.569v-.03a.478.478,0,0,1,.569-.369l2.577.538a.478.478,0,0,1,.369.563h0a.484.484,0,0,1-.569.405Zm4.3-11.725-2.577-.538a.478.478,0,0,1-.369-.569v-.03a.484.484,0,0,1,.569-.369l2.571.538a.484.484,0,0,1,.375.569v.03a.478.478,0,0,1-.569.393Zm-8.47,31.056-2.571-.538a.484.484,0,0,1-.375-.569h0a.478.478,0,0,1,.569-.369l2.577.538a.478.478,0,0,1,.369.563v.03a.484.484,0,0,1-.544.375Zm2.293-11.423-.563,2.571a.478.478,0,0,1-.575.363h-.03a.472.472,0,0,1-.363-.569l.563-2.571a.472.472,0,0,1,.569-.363h.03a.478.478,0,0,1,.393.593ZM345.774,169.7l-2.571-.538a.484.484,0,0,1-.375-.569v-.03a.478.478,0,0,1,.569-.369l2.577.538a.478.478,0,0,1,.369.569v.03a.478.478,0,0,1-.569.369Zm12.621,38.721-2.577-.538a.478.478,0,0,1-.369-.569h0a.484.484,0,0,1,.569-.369l2.571.538a.484.484,0,0,1,.375.569h0a.478.478,0,0,1-.575.339Zm5.748-12.445-2.577-.538a.478.478,0,0,1-.369-.569h0a.484.484,0,0,1,.569-.375l2.571.538a.484.484,0,0,1,.375.569v.03a.478.478,0,0,1-.575.315Z" transform="translate(-259.347 -97.598)" fill="#92278f"/>
    <path id="Path_6006" data-name="Path 6006" d="M229.66,133.45v.417a6.353,6.353,0,0,0,12.705,0v-.417Z" transform="translate(-221.486 -84.776)" fill="#fff"/>
    <path id="Path_6007" data-name="Path 6007" d="M235.775,140.325a6.655,6.655,0,0,1-6.655-6.655c0-.121,0-.236,0-.357v-.079a.3.3,0,0,1,.3-.284H242.08a.3.3,0,0,1,.3.284v.436a6.655,6.655,0,0,1-6.607,6.655Zm-6.05-6.77v.115a6.05,6.05,0,0,0,12.1,0v-.115Z" transform="translate(-221.273 -84.579)" fill="#263238"/>
    <path id="Path_6008" data-name="Path 6008" d="M249.44,133.45v.417a6.353,6.353,0,0,0,12.705,0v-.417Z" transform="translate(-229.299 -84.776)" fill="#92278f"/>
    <path id="Path_6009" data-name="Path 6009" d="M255.552,140.325a6.655,6.655,0,0,1-6.655-6.655,3.544,3.544,0,0,1,0-.357v-.079a.3.3,0,0,1,.3-.284h12.657a.3.3,0,0,1,.3.284v.436a6.655,6.655,0,0,1-6.607,6.655Zm-6.05-6.77v.115a6.05,6.05,0,0,0,12.1,0,.73.73,0,0,0,0-.115Z" transform="translate(-229.083 -84.579)" fill="#263238"/>
    <path id="Path_6010" data-name="Path 6010" d="M270.48,133.45v.417a6.353,6.353,0,1,0,12.705,0v-.417Z" transform="translate(-237.609 -84.776)" fill="#fff"/>
    <path id="Path_6011" data-name="Path 6011" d="M276.6,140.325a6.655,6.655,0,0,1-6.655-6.655v-.436a.3.3,0,0,1,.3-.284h12.681a.3.3,0,0,1,.3.284v.436A6.655,6.655,0,0,1,276.6,140.325Zm-6.014-6.74v.115a6.05,6.05,0,0,0,12.1,0v-.115Z" transform="translate(-237.396 -84.579)" fill="#263238"/>
    <path id="Path_6012" data-name="Path 6012" d="M291.52,133.45v.417a6.353,6.353,0,1,0,12.705,0v-.417Z" transform="translate(-245.92 -84.776)" fill="#92278f"/>
    <path id="Path_6013" data-name="Path 6013" d="M297.655,140.325A6.655,6.655,0,0,1,291,133.67v-.436a.3.3,0,0,1,.3-.284h12.657a.3.3,0,0,1,.3.284v.436a6.655,6.655,0,0,1-6.607,6.655Zm-6.05-6.74a.738.738,0,0,0,0,.115,6.05,6.05,0,1,0,12.1,0v-.115Z" transform="translate(-245.714 -84.579)" fill="#263238"/>
    <path id="Path_6014" data-name="Path 6014" d="M312.55,133.45v.417a6.353,6.353,0,1,0,12.705,0v-.417Z" transform="translate(-254.226 -84.776)" fill="#fff"/>
    <path id="Path_6015" data-name="Path 6015" d="M318.652,140.325A6.655,6.655,0,0,1,312,133.67a3.543,3.543,0,0,1,0-.357v-.079a.3.3,0,0,1,.3-.284h12.663a.3.3,0,0,1,.3.284v.091a3.3,3.3,0,0,1,0,.345,6.655,6.655,0,0,1-6.607,6.655Zm-6.05-6.74v.115a6.05,6.05,0,1,0,12.1,0v-.115Z" transform="translate(-254.006 -84.579)" fill="#263238"/>
    <path id="Path_6016" data-name="Path 6016" d="M333.84,133.45v.417a6.353,6.353,0,1,0,12.705,0v-.417Z" transform="translate(-262.635 -84.776)" fill="#92278f"/>
    <path id="Path_6017" data-name="Path 6017" d="M339.955,140.325a6.655,6.655,0,0,1-6.655-6.655v-.442a.3.3,0,0,1,.3-.278h12.657a.3.3,0,0,1,.3.278v.442a6.655,6.655,0,0,1-6.607,6.655Zm-6.05-6.77v.115a6.05,6.05,0,0,0,12.1,0,.738.738,0,0,0,0-.115Z" transform="translate(-262.422 -84.579)" fill="#263238"/>
    <path id="Path_6018" data-name="Path 6018" d="M354.88,133.45v.417a6.353,6.353,0,1,0,12.705,0v-.417Z" transform="translate(-270.946 -84.776)" fill="#fff"/>
    <path id="Path_6019" data-name="Path 6019" d="M361,140.325a6.655,6.655,0,0,1-6.655-6.655v-.442a.3.3,0,0,1,.3-.278h12.681a.3.3,0,0,1,.3.278v.442A6.655,6.655,0,0,1,361,140.325Zm-6.05-6.77v.115a6.05,6.05,0,0,0,12.1,0v-.115Z" transform="translate(-270.733 -84.579)" fill="#263238"/>
    <path id="Path_6020" data-name="Path 6020" d="M376.92,133.45v.417a6.353,6.353,0,1,0,12.705,0v-.417Z" transform="translate(-279.651 -84.776)" fill="#92278f"/>
    <path id="Path_6021" data-name="Path 6021" d="M383.035,140.325a6.655,6.655,0,0,1-6.655-6.655v-.442a.3.3,0,0,1,.3-.278H389.34a.3.3,0,0,1,.3.278v.442a6.655,6.655,0,0,1-6.607,6.655Zm-6.05-6.77v.115a6.05,6.05,0,0,0,12.1,0v-.115Z" transform="translate(-279.438 -84.579)" fill="#263238"/>
    <path id="Path_6022" data-name="Path 6022" d="M398,133.45v.417a6.353,6.353,0,0,0,12.705,0v-.417Z" transform="translate(-287.977 -84.776)" fill="#fff"/>
    <path id="Path_6023" data-name="Path 6023" d="M404.075,140.325a6.655,6.655,0,0,1-6.655-6.655v-.442a.3.3,0,0,1,.3-.278H410.38a.3.3,0,0,1,.3.278v.442a6.655,6.655,0,0,1-6.607,6.655Zm-6.05-6.77a.734.734,0,0,0,0,.115,6.05,6.05,0,0,0,12.1,0v-.085Z" transform="translate(-287.748 -84.579)" fill="#263238"/>
    <path id="Path_6024" data-name="Path 6024" d="M240.925,100.75,229.66,120.643H344.317L333.59,100.75Z" transform="translate(-221.486 -71.86)" fill="#fff"/>
    <path id="Path_6025" data-name="Path 6025" d="M344.122,120.748H229.465a.3.3,0,0,1-.26-.145.315.315,0,0,1,0-.3l11.271-19.893a.3.3,0,0,1,.26-.157h92.659a.3.3,0,0,1,.266.163l10.727,19.893a.29.29,0,0,1,0,.3A.3.3,0,0,1,344.122,120.748Zm-114.137-.605H343.62l-10.406-19.288h-92.3Z" transform="translate(-221.291 -71.663)" fill="#263238"/>
    <path id="Path_6026" data-name="Path 6026" d="M240.925,100.75,229.66,120.643H331.388l-8.246-19.893Z" transform="translate(-221.486 -71.86)" fill="#92278f"/>
    <path id="Path_6027" data-name="Path 6027" d="M331.193,120.748H229.465a.3.3,0,0,1-.26-.145.315.315,0,0,1,0-.3l11.271-19.893a.3.3,0,0,1,.26-.157h82.21a.3.3,0,0,1,.278.188l8.246,19.893a.3.3,0,0,1,0,.284.308.308,0,0,1-.278.133Zm-101.207-.605H330.739l-8-19.288H240.912Z" transform="translate(-221.291 -71.663)" fill="#263238"/>
    <path id="Path_6028" data-name="Path 6028" d="M240.925,100.75,229.66,120.643h88.69L312.6,100.75Z" transform="translate(-221.486 -71.86)" fill="#fff"/>
    <path id="Path_6029" data-name="Path 6029" d="M318.154,120.748h-88.69a.3.3,0,0,1-.26-.145.315.315,0,0,1,0-.3l11.271-19.893a.3.3,0,0,1,.26-.157h71.67a.3.3,0,0,1,.29.218l5.748,19.9a.284.284,0,0,1-.048.266.3.3,0,0,1-.242.115Zm-88.169-.605h87.77l-5.572-19.288H240.912Z" transform="translate(-221.291 -71.663)" fill="#263238"/>
    <path id="Path_6030" data-name="Path 6030" d="M240.925,100.75,229.66,120.643h75.96l-3.3-19.893Z" transform="translate(-221.486 -71.86)" fill="#92278f"/>
    <path id="Path_6031" data-name="Path 6031" d="M305.425,120.748h-75.96a.3.3,0,0,1-.26-.145.315.315,0,0,1,0-.3l11.271-19.893a.3.3,0,0,1,.26-.157h61.385a.3.3,0,0,1,.3.254l3.3,19.893a.284.284,0,0,1-.067.248A.3.3,0,0,1,305.425,120.748Zm-75.44-.605h75.083l-3.207-19.288H240.912Z" transform="translate(-221.291 -71.663)" fill="#263238"/>
    <path id="Path_6032" data-name="Path 6032" d="M240.925,100.75,229.66,120.643h62.867l-.793-19.893Z" transform="translate(-221.486 -71.86)" fill="#fff"/>
    <path id="Path_6033" data-name="Path 6033" d="M292.332,120.748H229.465a.3.3,0,0,1-.26-.145.315.315,0,0,1,0-.3l11.271-19.893a.3.3,0,0,1,.26-.157h50.822a.3.3,0,0,1,.3.29l.793,19.893a.333.333,0,0,1-.085.224A.309.309,0,0,1,292.332,120.748Zm-62.317-.605h62l-.768-19.288H240.912Z" transform="translate(-221.291 -71.663)" fill="#263238"/>
    <path id="Path_6034" data-name="Path 6034" d="M240.925,100.75,229.66,120.643h49.993l1.676-19.893Z" transform="translate(-221.486 -71.86)" fill="#92278f"/>
    <path id="Path_6035" data-name="Path 6035" d="M279.458,120.748H229.465a.3.3,0,0,1-.26-.145.315.315,0,0,1,0-.3l11.271-19.893a.3.3,0,0,1,.26-.157h40.4a.315.315,0,0,1,.224.1.333.333,0,0,1,.079.23l-1.676,19.9A.3.3,0,0,1,279.458,120.748Zm-49.472-.605h49.194l1.627-19.288H240.912Z" transform="translate(-221.291 -71.663)" fill="#263238"/>
    <path id="Path_6036" data-name="Path 6036" d="M240.925,100.75,229.66,120.643h37.426l4.09-19.893Z" transform="translate(-221.486 -71.86)" fill="#fff"/>
    <path id="Path_6037" data-name="Path 6037" d="M266.891,120.748H229.465a.3.3,0,0,1-.26-.145.315.315,0,0,1,0-.3l11.271-19.893a.3.3,0,0,1,.26-.157h30.251a.3.3,0,0,1,.3.363l-4.1,19.9A.3.3,0,0,1,266.891,120.748Zm-36.906-.605h36.664l3.963-19.288h-29.7Z" transform="translate(-221.291 -71.663)" fill="#263238"/>
    <path id="Path_6038" data-name="Path 6038" d="M240.925,100.75,229.66,120.643h24.757l6.522-19.893Z" transform="translate(-221.486 -71.86)" fill="#92278f"/>
    <path id="Path_6039" data-name="Path 6039" d="M254.222,120.748H229.465a.3.3,0,0,1-.26-.145.315.315,0,0,1,0-.3l11.271-19.893a.3.3,0,0,1,.26-.157H260.75a.3.3,0,0,1,.242.127.315.315,0,0,1,.042.272l-6.516,19.893A.3.3,0,0,1,254.222,120.748Zm-24.237-.605H254l6.322-19.288H240.912Z" transform="translate(-221.291 -71.663)" fill="#263238"/>
    <path id="Path_6040" data-name="Path 6040" d="M240.925,100.75,229.66,120.643h12.155l8.936-19.893Z" transform="translate(-221.486 -71.86)" fill="#fff"/>
    <path id="Path_6041" data-name="Path 6041" d="M241.626,120.748H229.465a.3.3,0,0,1-.26-.145.315.315,0,0,1,0-.3l11.271-19.893a.3.3,0,0,1,.26-.157h9.832a.321.321,0,0,1,.254.139.308.308,0,0,1,0,.29l-8.936,19.893A.3.3,0,0,1,241.626,120.748Zm-11.641-.605h11.441l8.664-19.288h-9.178Z" transform="translate(-221.291 -71.663)" fill="#263238"/>
  </g>
  <g id="freepik--Character--inject-15" transform="translate(6.406 68.983)">
    <path id="Path_6055" data-name="Path 6055" d="M52.434,412.39l-4.6,7.69,6.292,3.793,5.421-8.15Z" transform="translate(-33.945 -241.593)" fill="#fff"/>
    <path id="Path_6056" data-name="Path 6056" d="M53.925,423.977a.29.29,0,0,1-.157-.042l-6.286-3.8a.3.3,0,0,1-.109-.411l4.6-7.69a.309.309,0,0,1,.387-.121l7.109,3.34a.291.291,0,0,1,.163.194.3.3,0,0,1-.036.248l-5.445,8.15A.315.315,0,0,1,53.925,423.977Zm-5.875-4.2,5.784,3.491,5.064-7.617-6.546-3.092Z" transform="translate(-33.748 -241.394)" fill="#263238"/>
    <path id="Path_6057" data-name="Path 6057" d="M43.311,421.5s1.047-3.775-.175-4.568-2.42-.175-3.424.454A33.852,33.852,0,0,1,32.36,419.5c-1.494.169-4.362-.181-6,1.857s-.829,3.715-.036,4.447a46.216,46.216,0,0,0,7.472,4.332c2.583,1.162,8.912,5.6,9.517,5.445a3.124,3.124,0,0,0,1.96-2.13,13.233,13.233,0,0,0,0-2.311s1.863-1.628,2.087-2.989.182-3.243.684-3.793,2.807-1,1.815-1.67-3.412-.375-4.665-.6a10.484,10.484,0,0,1-1.882-.581Z" transform="translate(-25.088 -243.24)" fill="#313131"/>
    <path id="Path_6058" data-name="Path 6058" d="M43.1,435.69c-.436,0-1.373-.551-4.235-2.348a52.283,52.283,0,0,0-5.4-3.14,43.977,43.977,0,0,1-7.575-4.356c-1.029-.956-1.646-2.8,0-4.84,1.416-1.761,3.63-1.851,5.246-1.912a4.736,4.736,0,0,0,.962-.061,34.438,34.438,0,0,0,7.224-2.063c.793-.5,2.269-1.41,3.751-.454,1.21.787.605,3.685.363,4.634a12.287,12.287,0,0,0,1.621.436,12.207,12.207,0,0,0,1.664.127,6.507,6.507,0,0,1,3.11.544.72.72,0,0,1,.387.635c-.036.454-.605.714-1.264,1.01a3.493,3.493,0,0,0-.865.478,5.462,5.462,0,0,0-.448,2.226c-.048.478-.091.968-.163,1.416a6.808,6.808,0,0,1-2.075,3.061,12.875,12.875,0,0,1-.036,2.226,3.432,3.432,0,0,1-2.184,2.384Zm-1.392-19a4.083,4.083,0,0,0-2.039.781,33.943,33.943,0,0,1-7.478,2.154c-.29.03-.605.042-1,.06-1.506.061-3.564.139-4.8,1.688-1.815,2.232-.369,3.751-.067,4.029a41.5,41.5,0,0,0,7.405,4.235,53.117,53.117,0,0,1,5.475,3.188,28.436,28.436,0,0,0,3.89,2.257,2.862,2.862,0,0,0,1.7-1.87,12.959,12.959,0,0,0,0-2.251.3.3,0,0,1,.1-.254s1.815-1.573,1.984-2.807c.073-.424.115-.908.157-1.379a5.144,5.144,0,0,1,.605-2.571,3.632,3.632,0,0,1,1.059-.605,3.242,3.242,0,0,0,.908-.508l-.115-.079a6.32,6.32,0,0,0-2.789-.448,12.1,12.1,0,0,1-1.767-.139,10.484,10.484,0,0,1-1.978-.563.309.309,0,0,1-.175-.357c.387-1.379.708-3.745-.042-4.235a1.906,1.906,0,0,0-1.059-.327Z" transform="translate(-24.881 -243.057)" fill="#263238"/>
    <path id="Path_6059" data-name="Path 6059" d="M43.945,433.321c-1.059-.423-5.881-.774-8.585-1.579s-4.84-1.942-5.639-3.14-.817-3.449-1.053-4.979-2.462.726-2.462.726H26.06a3,3,0,0,0,.236,4.072,48.207,48.207,0,0,0,7.49,4.3c2.583,1.162,8.912,5.6,9.517,5.445a3.124,3.124,0,0,0,1.96-2.13,13.232,13.232,0,0,0,0-2.311C44.919,433.393,45.009,433.726,43.945,433.321Z" transform="translate(-25.081 -245.819)" fill="#fff"/>
    <path id="Path_6060" data-name="Path 6060" d="M43.111,438.242c-.436,0-1.373-.551-4.235-2.347a52.278,52.278,0,0,0-5.4-3.14A43.978,43.978,0,0,1,25.9,428.4a3.319,3.319,0,0,1-.29-4.465.3.3,0,0,1,.284-.127h0c.466-.454,1.591-1.446,2.329-1.21a.823.823,0,0,1,.545.75c.061.387.109.823.157,1.271a8.851,8.851,0,0,0,.847,3.588c.732,1.1,2.729,2.2,5.445,3.025a43.085,43.085,0,0,0,5.469,1,19.357,19.357,0,0,1,3.207.605h0a2.68,2.68,0,0,0,.859.224.811.811,0,0,1,.569.224.291.291,0,0,1,.109.206,13.178,13.178,0,0,1,0,2.378,3.432,3.432,0,0,1-2.184,2.384ZM26.02,424.424a2.637,2.637,0,0,0,.29,3.527,41.5,41.5,0,0,0,7.405,4.235,53.123,53.123,0,0,1,5.475,3.188,28.437,28.437,0,0,0,3.89,2.257,2.862,2.862,0,0,0,1.7-1.87,12.032,12.032,0,0,0,.03-2.111.2.2,0,0,0-.115,0,3.14,3.14,0,0,1-1.053-.266h0a20.854,20.854,0,0,0-3.067-.551,42.89,42.89,0,0,1-5.494-1.023c-2.886-.859-5-2.051-5.808-3.267a9.212,9.212,0,0,1-.95-3.86c-.042-.436-.091-.859-.145-1.24,0-.085-.054-.236-.133-.266-.3-.091-1.21.52-1.815,1.162A.3.3,0,0,1,26.02,424.424Z" transform="translate(-24.889 -245.61)" fill="#263238"/>
    <path id="Path_6061" data-name="Path 6061" d="M44.045,420s2.13.665,3.188,4.338l-1.863.327s-1.367-3.291-2.91-4.181Z" transform="translate(-31.824 -244.598)" fill="#fff"/>
    <path id="Path_6062" data-name="Path 6062" d="M45.177,424.749a.309.309,0,0,1-.284-.188c0-.03-1.343-3.207-2.771-4.029a.3.3,0,0,1,.061-.551l1.579-.49a.309.309,0,0,1,.182,0c.091.03,2.3.756,3.388,4.55a.339.339,0,0,1-.036.242.327.327,0,0,1-.206.139l-1.863.327Zm-2.245-4.35a11.934,11.934,0,0,1,2.42,3.727l1.289-.224c-.9-2.8-2.42-3.63-2.807-3.781Z" transform="translate(-31.631 -244.392)" fill="#263238"/>
    <path id="Path_6063" data-name="Path 6063" d="M39.825,420.63s2.13.666,3.182,4.344l-1.857.327s-1.367-3.3-2.91-4.181Z" transform="translate(-30.158 -244.847)" fill="#fff"/>
    <path id="Path_6064" data-name="Path 6064" d="M40.955,425.4a.309.309,0,0,1-.284-.188c0-.03-1.343-3.213-2.771-4.035a.29.29,0,0,1-.151-.3.309.309,0,0,1,.212-.254l1.579-.49a.308.308,0,0,1,.181,0c.091.03,2.3.762,3.388,4.55a.339.339,0,0,1-.036.242.327.327,0,0,1-.206.139L41,425.4ZM38.71,421.03a12.227,12.227,0,0,1,2.42,3.733l1.289-.23c-.9-2.8-2.42-3.63-2.807-3.781Z" transform="translate(-29.962 -244.649)" fill="#263238"/>
    <path id="Path_6065" data-name="Path 6065" d="M50,425.29a.3.3,0,0,1-.3-.254.29.29,0,0,1,.248-.345l2.88-.484a.307.307,0,1,1,.1.6l-2.886.484Z" transform="translate(-34.684 -246.258)" fill="#263238"/>
    <path id="Path_6066" data-name="Path 6066" d="M38.5,425.621A1.621,1.621,0,0,1,37.18,427.1c-1.21.151-6.129-4.078-5.615-4.8s4.023-.853,4.023-.853A12.234,12.234,0,0,1,38.5,425.621Z" transform="translate(-27.506 -245.167)" fill="#fff"/>
    <path id="Path_6067" data-name="Path 6067" d="M36.934,427.208c-1.283,0-4.84-3.025-5.693-4.374-.091-.145-.351-.605-.121-.914.557-.793,3.406-.95,4.235-.98a.3.3,0,0,1,.206.073,12.482,12.482,0,0,1,2.989,4.3.272.272,0,0,1,0,.139A1.882,1.882,0,0,1,36.97,427.2Zm-1.652-5.627c-1.591.066-3.412.351-3.666.72a6.011,6.011,0,0,0,1.531,1.815c1.676,1.561,3.358,2.571,3.8,2.529a1.265,1.265,0,0,0,1.041-1.137A12.1,12.1,0,0,0,35.282,421.581Z" transform="translate(-27.309 -244.97)" fill="#263238"/>
    <path id="Path_6068" data-name="Path 6068" d="M167.464,439.047l-.859,8.918-7.315-.678.472-9.777Z" transform="translate(-77.97 -251.515)" fill="#fff"/>
    <path id="Path_6069" data-name="Path 6069" d="M166.423,448.07h0l-7.321-.678a.3.3,0,0,1-.272-.315l.472-9.777a.315.315,0,0,1,.115-.224.308.308,0,0,1,.248-.061l7.7,1.537a.3.3,0,0,1,.242.327l-.859,8.918A.3.3,0,0,1,166.423,448.07Zm-7-1.252,6.728.605.8-8.349-7.091-1.41Z" transform="translate(-77.788 -251.318)" fill="#263238"/>
    <path id="Path_6070" data-name="Path 6070" d="M160.052,447.929s1.392-3.63,2.844-3.57,2.051,1.289,2.493,2.42a32.716,32.716,0,0,0,4.665,6.05c1.1,1.01,3.63,2.42,3.727,5.058s-1.537,3.479-2.608,3.6a43.152,43.152,0,0,1-8.579-.986c-2.765-.641-10.515-.756-10.89-1.252a3.181,3.181,0,0,1-.321-2.88,13.406,13.406,0,0,1,1.355-1.876s-.538-2.42.091-3.63,1.779-2.723,1.7-3.461-1.67-2.468-.454-2.42,2.971,1.718,4.126,2.257a10.508,10.508,0,0,0,1.851.69Z" transform="translate(-74.757 -254.22)" fill="#2d2d2d"/>
    <path id="Path_6071" data-name="Path 6071" d="M170.537,461.61a48.289,48.289,0,0,1-8.21-1.01,52.388,52.388,0,0,0-6.207-.672c-3.66-.266-4.616-.375-4.84-.69a3.421,3.421,0,0,1-.345-3.213,12.378,12.378,0,0,1,1.289-1.815,6.821,6.821,0,0,1,.151-3.7c.206-.4.46-.823.708-1.21a5.493,5.493,0,0,0,.956-2.057,3.432,3.432,0,0,0-.411-.9c-.351-.635-.653-1.18-.411-1.567a.69.69,0,0,1,.684-.278,6.5,6.5,0,0,1,2.831,1.4,11.546,11.546,0,0,0,1.41.883,12.588,12.588,0,0,0,1.561.605c.375-.9,1.6-3.594,3.025-3.509,1.761.1,2.42,1.718,2.753,2.583a34.191,34.191,0,0,0,4.592,5.953c.206.188.454.393.732.605,1.265,1.016,2.995,2.42,3.092,4.659.1,2.632-1.482,3.751-2.88,3.914Q170.833,461.61,170.537,461.61ZM153.8,445.081a.265.265,0,0,0-.121,0,4.478,4.478,0,0,0,.454.932,3.631,3.631,0,0,1,.484,1.125,4.988,4.988,0,0,1-1.041,2.42c-.242.405-.5.823-.69,1.21-.605,1.119-.073,3.424-.067,3.443a.321.321,0,0,1-.067.266,12.761,12.761,0,0,0-1.319,1.815,2.813,2.813,0,0,0,.29,2.541,33.728,33.728,0,0,0,4.441.466,52.226,52.226,0,0,1,6.3.678,42.23,42.23,0,0,0,8.47.98c.411-.042,2.456-.423,2.341-3.285-.085-1.984-1.688-3.267-2.862-4.235-.29-.23-.557-.442-.768-.641a33.737,33.737,0,0,1-4.743-6.165c-.43-1.077-.956-2.136-2.22-2.208h-.036c-.889,0-2.009,2.063-2.511,3.382a.3.3,0,0,1-.351.188,10.68,10.68,0,0,1-1.93-.72,11.493,11.493,0,0,1-1.5-.938,6.1,6.1,0,0,0-2.517-1.295Z" transform="translate(-74.563 -254.033)" fill="#263238"/>
    <path id="Path_6072" data-name="Path 6072" d="M154.056,461.567c1.107.29,5.2,2.874,7.865,3.824s5.052,1.313,6.407.817,2.7-2.287,3.8-3.382,1.555,2.045,1.555,2.045l.127.079a2.991,2.991,0,0,1-2.608,3.134,44.617,44.617,0,0,1-8.579-.986c-2.765-.641-10.515-.756-10.89-1.252a3.181,3.181,0,0,1-.321-2.88,13.4,13.4,0,0,1,1.355-1.876C153.221,461.065,152.955,461.276,154.056,461.567Z" transform="translate(-74.769 -260.827)" fill="#fff"/>
    <path id="Path_6073" data-name="Path 6073" d="M170.537,468.2a48.289,48.289,0,0,1-8.21-1.01,52.4,52.4,0,0,0-6.207-.672c-3.66-.266-4.616-.375-4.84-.69a3.421,3.421,0,0,1-.345-3.213,13.513,13.513,0,0,1,1.385-1.93.32.32,0,0,1,.212-.1.817.817,0,0,1,.605.157,2.324,2.324,0,0,0,.829.333,19.817,19.817,0,0,1,2.928,1.428,41.356,41.356,0,0,0,4.943,2.42c2.7.974,4.961,1.271,6.2.817a8.822,8.822,0,0,0,2.813-2.384c.309-.333.605-.653.877-.926a.841.841,0,0,1,.883-.284c.738.248,1.053,1.718,1.162,2.353h0a.3.3,0,0,1,.151.272,3.31,3.31,0,0,1-2.88,3.424Q170.833,468.2,170.537,468.2Zm-17.854-7.012a12.193,12.193,0,0,0-1.21,1.724,2.813,2.813,0,0,0,.29,2.541,33.721,33.721,0,0,0,4.441.466,52.243,52.243,0,0,1,6.3.678,42.23,42.23,0,0,0,8.47.98,2.654,2.654,0,0,0,2.329-2.668.321.321,0,0,1-.115-.194c-.127-.889-.472-1.912-.774-2.015a.458.458,0,0,0-.266.139c-.272.266-.557.605-.853.908a9.192,9.192,0,0,1-3.055,2.541c-1.373.5-3.781.206-6.613-.817a42.756,42.756,0,0,1-5.028-2.42,21.493,21.493,0,0,0-2.8-1.379h0a3.027,3.027,0,0,1-1-.405.272.272,0,0,0-.115-.079Z" transform="translate(-74.563 -260.626)" fill="#263238"/>
    <path id="Path_6074" data-name="Path 6074" d="M173.277,452.239s-2.105-.732-5.137,1.6l1.307,1.367s3.025-1.845,4.84-1.64Z" transform="translate(-81.466 -257.289)" fill="#fff"/>
    <path id="Path_6075" data-name="Path 6075" d="M169.249,455.309a.272.272,0,0,1-.218-.1l-1.307-1.367a.3.3,0,0,1-.085-.23.315.315,0,0,1,.115-.218c3.128-2.42,5.336-1.682,5.445-1.652a.369.369,0,0,1,.145.109l.98,1.331a.29.29,0,0,1,0,.333.3.3,0,0,1-.29.145c-1.64-.188-4.6,1.585-4.628,1.6A.357.357,0,0,1,169.249,455.309Zm-.853-1.634.908.95a12.108,12.108,0,0,1,4.163-1.561l-.563-.768c-.393-.085-2.13-.339-4.507,1.367Z" transform="translate(-81.268 -257.086)" fill="#263238"/>
    <path id="Path_6076" data-name="Path 6076" d="M176.287,455.269s-2.105-.732-5.137,1.6l1.307,1.367s3.055-1.845,4.84-1.64Z" transform="translate(-82.655 -258.486)" fill="#fff"/>
    <path id="Path_6077" data-name="Path 6077" d="M172.259,458.339a.3.3,0,0,1-.224-.1l-1.3-1.367a.3.3,0,0,1-.085-.23.314.314,0,0,1,.115-.218c3.128-2.42,5.336-1.682,5.445-1.652a.368.368,0,0,1,.145.109l.98,1.331a.3.3,0,0,1,0,.333.3.3,0,0,1-.3.145c-1.64-.181-4.6,1.585-4.628,1.6A.272.272,0,0,1,172.259,458.339Zm-.853-1.634.908.95a12.11,12.11,0,0,1,4.163-1.561l-.563-.768C175.52,455.242,173.784,454.987,171.406,456.706Z" transform="translate(-82.457 -258.283)" fill="#263238"/>
    <path id="Path_6078" data-name="Path 6078" d="M167.685,452.462a.29.29,0,0,1-.218-.1l-2.033-2.1a.3.3,0,1,1,.436-.417l2.033,2.1a.3.3,0,0,1,0,.43A.326.326,0,0,1,167.685,452.462Z" transform="translate(-80.358 -256.345)" fill="#263238"/>
    <path id="Path_6079" data-name="Path 6079" d="M173.145,459.18a1.628,1.628,0,0,0,.175,1.972c.883.829,7.357.351,7.375-.539s-2.735-3.074-2.735-3.074A12.294,12.294,0,0,0,173.145,459.18Z" transform="translate(-83.343 -259.426)" fill="#fff"/>
    <path id="Path_6080" data-name="Path 6080" d="M175.743,461.686a5.23,5.23,0,0,1-2.831-.514,1.894,1.894,0,0,1-.23-2.348.278.278,0,0,1,.1-.1,12.494,12.494,0,0,1,4.949-1.682.3.3,0,0,1,.212.067c.678.532,2.874,2.354,2.85,3.315,0,.4-.484.605-.605.666A14.352,14.352,0,0,1,175.743,461.686Zm-2.577-2.487a1.27,1.27,0,0,0,.163,1.531c.333.315,2.287.49,4.562.224a4.68,4.68,0,0,0,2.311-.6c0-.405-1.295-1.712-2.535-2.711a12.155,12.155,0,0,0-4.5,1.561Z" transform="translate(-83.139 -259.228)" fill="#263238"/>
    <path id="Path_6081" data-name="Path 6081" d="M94.326,276.65s-1.506,14.769-10.243,26.784S54.83,359.471,54.83,359.471l8.664,4.58s24.715-29.712,29.8-36.827S107.666,311.8,107.666,311.8l9.112,63.406,9.444,1.107s4.526-40.04,3.382-61.306-4.81-35.393-4.81-35.393Z" transform="translate(-36.71 -187.978)" fill="#2e2e2e"/>
    <path id="Path_6082" data-name="Path 6082" d="M126.024,376.429h-.036l-9.444-1.131a.3.3,0,0,1-.266-.26l-9.027-62.819c-1.863,1.712-9.5,8.851-13.915,15-5.058,7.042-29.561,36.543-29.809,36.84a.3.3,0,0,1-.375.073l-8.658-4.568a.29.29,0,0,1-.133-.393c.206-.442,20.619-44.166,29.277-56.091,8.591-11.8,10.176-26.488,10.195-26.621a.309.309,0,0,1,.327-.272l30.469,2.91a.3.3,0,0,1,.26.23,199.707,199.707,0,0,1,4.84,35.448c1.143,21.049-3.34,60.956-3.382,61.355a.351.351,0,0,1-.115.206A.309.309,0,0,1,126.024,376.429Zm-9.178-1.682,8.912,1.041c.411-3.739,4.423-40.923,3.352-60.95a202.293,202.293,0,0,0-4.755-35.127L94.393,276.8c-.272,2.166-2.263,15.628-10.285,26.621C75.85,314.8,56.737,355.5,55.025,359.156l8.18,4.332c2.118-2.553,24.806-29.888,29.646-36.622,5.07-7.061,14.333-15.4,14.424-15.482a.29.29,0,0,1,.3-.054.3.3,0,0,1,.2.236Z" transform="translate(-36.512 -187.796)" fill="#263238"/>
    <path id="Path_6083" data-name="Path 6083" d="M164.8,316.658a.309.309,0,0,1-.3-.3c0-.738-.048-1.591-.109-2.535a.3.3,0,1,1,.605-.042c.061.956.1,1.815.109,2.565a.3.3,0,0,1-.3.309Z" transform="translate(-79.984 -202.532)" fill="#fff"/>
    <path id="Path_6084" data-name="Path 6084" d="M163.019,299.417a.3.3,0,0,1-.3-.272c-.641-6.758-1.936-14.877-1.948-14.962a.309.309,0,0,1,.254-.345.3.3,0,0,1,.345.254c0,.079,1.313,8.216,1.954,15a.3.3,0,0,1-.272.327Z" transform="translate(-78.553 -190.815)" fill="#fff"/>
    <path id="Path_6085" data-name="Path 6085" d="M159.12,296.931a.3.3,0,0,1-.3-.26c-.4-2.717-.672-12.415-.684-12.826a.3.3,0,0,1,.29-.315.327.327,0,0,1,.315.3c0,.1.278,10.073.678,12.76a.3.3,0,0,1-.254.339Z" transform="translate(-77.516 -190.695)" fill="#fff"/>
    <path id="Path_6086" data-name="Path 6086" d="M123.351,304.979h-.067a.3.3,0,0,1-.23-.363c.127-.526.266-1.143.417-1.815a.31.31,0,0,1,.605.133c-.157.678-.3,1.295-.417,1.815A.309.309,0,0,1,123.351,304.979Z" transform="translate(-63.655 -198.211)" fill="#fff"/>
    <path id="Path_6087" data-name="Path 6087" d="M125.011,291.843h-.067a.3.3,0,0,1-.23-.363c1.089-4.931,2.372-10.89,2.372-10.89l.605.127s-1.283,5.984-2.372,10.921A.3.3,0,0,1,125.011,291.843Z" transform="translate(-64.311 -189.534)" fill="#fff"/>
    <path id="Path_6088" data-name="Path 6088" d="M123.8,289.473h-.061a.29.29,0,0,1-.236-.351l1.676-8.4a.308.308,0,0,1,.357-.242.3.3,0,0,1,.236.357l-1.706,8.428a.3.3,0,0,1-.266.212Z" transform="translate(-63.833 -189.487)" fill="#fff"/>
    <path id="Path_6089" data-name="Path 6089" d="M159.575,165.31s6.51,1.416,4.586,4.64-3.545,3.715-3.872,3.679-2.5-4.4-2.5-4.4Z" transform="translate(-77.378 -144)" fill="#263238"/>
    <path id="Path_6090" data-name="Path 6090" d="M160.152,173.737h-.067c-.182,0-.49-.054-2.735-4.568a.3.3,0,0,1,0-.26l1.785-3.914a.3.3,0,0,1,.339-.169c.169.036,4.126.92,5,2.946a2.251,2.251,0,0,1-.224,2.148C162.342,173.078,160.7,173.737,160.152,173.737ZM160.261,173.169Zm-2.305-4.144a36.639,36.639,0,0,0,2.263,4.1c.4-.048,1.815-.72,3.515-3.521a1.682,1.682,0,0,0,.188-1.6c-.647-1.488-3.5-2.323-4.344-2.541Z" transform="translate(-77.193 -143.806)" fill="#263238"/>
    <path id="Path_6091" data-name="Path 6091" d="M145.09,174.062c.1-.877.484-1.283-.236-1.815s-6.9-1.906-6.9-1.906-1.379.4-1.482,1.277c0,0-1.01,3.025-.248,4.09s3.63,4.979,3.594,5.53-2.971,16.239-2.971,16.239l-5.445-5.124c-.9-1.615-3.884-6.782-5.881-8.137a13.11,13.11,0,0,0-5.693-2.081c-.877-.1-5.312-.351-5.826-2.638a7.865,7.865,0,0,1,.635-4.6s4.005,1.016,4.774.1,1.083-8.47,1.083-8.47l.787-1.022c.78-1.022.98-2.565-.357-2.71s-2.45-.95-2.916-3.672a7.756,7.756,0,0,0-2.831-4.441c-6.286-3.394-9.481-.756-9.481-.756s-7.042,5.088-5.814,10.89,4.284,7.26,4.284,7.26a28.52,28.52,0,0,1-1.379,6.625,6.564,6.564,0,0,1-3.715-1c-2.051-1.337-2.317-.666-4.61-2.305s-9.4-9.348-9.4-9.348l-20.643-24.6-.7-2.91a3.158,3.158,0,0,0-1.246-1.815c-.926-.653-2.275-1.609-2.952-2.13-1.083-.829-1.767-5.149-3.346-3.679s1.1,4.84,1.1,4.84L52,134.44s-3.89-3.025-3.793-1.845,2.559,6.419,4.054,7.768c1.331,1.21,6.655,2.874,7.829,3.231,1.646,3.818,8.071,15.416,9.39,18.423,1.531,3.479,7.079,8.972,7.079,8.972l10.824,15.579,3.721,3.975c.169,1.755-.224,12.917.212,15.125.563,2.844.369,14.454.369,14.454l30.523,1.845V198.62l5.851,3.793.061-.169c2.608,1.507,8.137,4.616,10.8,5.445,3.545,1.077,4.32.163,4.647-2.692s0-25.042,0-25.042S144.994,174.94,145.09,174.062Z" transform="translate(-34.094 -130.294)" fill="#fff"/>
    <path id="Path_6092" data-name="Path 6092" d="M121.958,222h0l-30.535-1.815a.309.309,0,0,1-.284-.309c0-.115.188-11.61-.363-14.393a86.956,86.956,0,0,1-.194-9.886c0-2.341.036-4.38,0-5.143l-3.63-3.9-10.89-15.622c-.194-.182-5.572-5.524-7.109-9.021-.605-1.373-2.293-4.586-4.084-7.98-2.124-4.035-4.32-8.2-5.252-10.316-1.664-.514-6.5-2.069-7.8-3.255-1.5-1.355-4.048-6.655-4.156-7.968a.526.526,0,0,1,.254-.538c.605-.345,2.5.938,3.975,2.081l4.417,1.1c-.732-1.119-1.894-3.352-.605-4.568a1.137,1.137,0,0,1,1.016-.363c.762.151,1.21,1.21,1.736,2.323a5.306,5.306,0,0,0,.986,1.706c.7.532,2.142,1.555,2.94,2.118a3.436,3.436,0,0,1,1.361,2.015l.678,2.838,20.637,24.63c.06.067,7.1,7.69,9.348,9.293a7.8,7.8,0,0,0,2.42,1.271,7.968,7.968,0,0,1,2.154,1.029,6.189,6.189,0,0,0,3.34.95,28.547,28.547,0,0,0,1.264-6.153c-.714-.43-3.182-2.263-4.235-7.387-1.252-5.941,5.639-11,5.929-11.211.121-.1,3.412-2.717,9.807.732a7.986,7.986,0,0,1,2.983,4.659c.484,2.831,1.67,3.315,2.65,3.418a1.271,1.271,0,0,1,1.125.768,2.606,2.606,0,0,1-.563,2.42l-.726.944c-.061,1.47-.363,7.611-1.143,8.531s-3.781.309-4.84.06a7.418,7.418,0,0,0-.52,4.187c.43,1.9,4.1,2.263,5.306,2.378h.266a13.2,13.2,0,0,1,5.826,2.13c1.984,1.343,4.81,6.147,5.953,8.192l5.022,4.719c1.029-5.542,2.825-15.259,2.874-15.67a34.547,34.547,0,0,0-3.025-4.574l-.538-.75c-.811-1.156.048-3.9.194-4.332.151-1.041,1.634-1.482,1.694-1.5a.425.425,0,0,1,.151,0c.641.145,6.268,1.41,7.018,1.96a1.21,1.21,0,0,1,.46,1.525,5.008,5.008,0,0,0-.1.563h0c-.1.859-1.4,5.306-1.555,5.832,0,1.416.339,22.228,0,25.036-.169,1.44-.442,2.5-1.258,3.025s-1.9.472-3.781-.1c-2.553-.774-7.623-3.582-10.594-5.294l-.085.042a.29.29,0,0,1-.254-.036L122.23,198.9v22.791a.315.315,0,0,1-.1.224A.29.29,0,0,1,121.958,222Zm-30.215-2.42,29.93,1.815V198.4a.3.3,0,0,1,.163-.26.284.284,0,0,1,.309,0l5.578,3.63.067-.03a.3.3,0,0,1,.248,0c2.341,1.355,8.065,4.586,10.733,5.4,1.67.5,2.68.557,3.273.169s.817-1.107.986-2.608c.321-2.807,0-24.806,0-25.005a.236.236,0,0,1,0-.091c.5-1.7,1.47-5.1,1.549-5.778h0a4.844,4.844,0,0,1,.115-.605c.109-.484.139-.6-.23-.908a46.074,46.074,0,0,0-6.716-1.815c-.369.121-1.131.478-1.21,1v.061c-.272.793-.841,3.025-.29,3.818l.538.75c2.42,3.346,3.158,4.556,3.11,4.991-.061.551-2.862,15.615-2.977,16.257a.3.3,0,0,1-.508.169l-5.445-5.131a.284.284,0,0,1-.054-.073c-.871-1.549-3.848-6.716-5.79-8.029a12.706,12.706,0,0,0-5.56-2.033h-.254c-1.313-.133-5.306-.52-5.832-2.844a8.053,8.053,0,0,1,.666-4.84.3.3,0,0,1,.345-.157c1.585.4,4.017.726,4.465.2s.9-5.391,1.01-8.265a.291.291,0,0,1,.061-.169l.787-1.023a2.069,2.069,0,0,0,.484-1.815.7.7,0,0,0-.605-.4c-1.742-.188-2.753-1.434-3.182-3.927a7.68,7.68,0,0,0-2.7-4.235c-5.978-3.219-9.075-.787-9.118-.762s-6.879,5.052-5.705,10.606,4.09,7.061,4.114,7.073a.3.3,0,0,1,.169.3,27.433,27.433,0,0,1-1.4,6.716.3.3,0,0,1-.266.188,6.909,6.909,0,0,1-3.914-1.089,7.538,7.538,0,0,0-2.009-.962,8.313,8.313,0,0,1-2.614-1.355c-2.287-1.64-9.154-9.075-9.444-9.384l-20.686-24.7a.284.284,0,0,1-.06-.121l-.7-2.91a2.813,2.813,0,0,0-1.125-1.658c-.98-.69-2.293-1.621-2.959-2.136a5.373,5.373,0,0,1-1.168-1.936c-.375-.841-.847-1.888-1.307-1.978-.048,0-.206-.042-.484.212-1.125,1.047.43,3.551,1.125,4.429a.315.315,0,0,1-.327.484l-5.27-1.313a.4.4,0,0,1-.115-.054,12.844,12.844,0,0,0-3.3-2.057c.194,1.271,2.511,6.214,3.951,7.514,1.283,1.162,6.655,2.838,7.708,3.164a.315.315,0,0,1,.194.169c.883,2.051,3.122,6.3,5.282,10.4,1.815,3.412,3.5,6.655,4.108,8.023,1.488,3.388,6.958,8.821,7.012,8.876l10.86,15.628,3.691,3.939a.291.291,0,0,1,.079.182c.073.7.054,2.831,0,5.306a89.591,89.591,0,0,0,.182,9.765C91.882,207.985,91.767,217.762,91.743,219.577Z" transform="translate(-33.874 -130.088)" fill="#263238"/>
    <path id="Path_6093" data-name="Path 6093" d="M60.739,143.444a.278.278,0,0,1-.2-.079c-.859-.774-1.21-.871-1.361-.883-1.041-.048-4.979-1.022-5.143-1.065a.321.321,0,0,1-.127-.067l-3.279-2.91a.3.3,0,0,1,.4-.454l3.225,2.862c.545.133,4.048.986,4.955,1.035a3.291,3.291,0,0,1,1.736,1.035.3.3,0,0,1,0,.43A.3.3,0,0,1,60.739,143.444Z" transform="translate(-35.014 -133.182)" fill="#263238"/>
    <path id="Path_6094" data-name="Path 6094" d="M69.667,149.212a.3.3,0,0,1-.23-.115s-.254-.309-.605-.714a.3.3,0,0,1,0-.43.309.309,0,0,1,.43,0c.387.424.647.744.647.744a.3.3,0,0,1-.042.424A.284.284,0,0,1,69.667,149.212Z" transform="translate(-42.205 -137.11)" fill="#263238"/>
    <path id="Path_6095" data-name="Path 6095" d="M156.07,203.251l-2.91-.841,2.069,3.013Z" transform="translate(-75.549 -158.654)" fill="#263238"/>
    <path id="Path_6096" data-name="Path 6096" d="M155.031,205.519a.3.3,0,0,1-.248-.133l-2.069-3.025a.3.3,0,0,1,0-.351.3.3,0,0,1,.327-.109l2.91.841a.29.29,0,0,1,.188.157.309.309,0,0,1,0,.242l-.841,2.172a.3.3,0,0,1-.248.194Zm-1.343-2.789,1.271,1.845.514-1.331Z" transform="translate(-75.35 -158.448)" fill="#263238"/>
    <path id="Path_6097" data-name="Path 6097" d="M157.937,179.3h-.073a.6.6,0,0,1-.526-.665,3.43,3.43,0,0,1,.436-1.258,2.287,2.287,0,0,1,2.341-1.143.609.609,0,1,1-.139,1.21c-1.21-.139-1.4,1.1-1.434,1.343A.605.605,0,0,1,157.937,179.3Z" transform="translate(-77.198 -148.304)" fill="#263238"/>
    <path id="Path_6098" data-name="Path 6098" d="M162.492,192.251l-3.63-2.311s-.78,3.914.66,3.969S162.492,192.251,162.492,192.251Z" transform="translate(-77.718 -153.729)" fill="#263238"/>
    <path id="Path_6099" data-name="Path 6099" d="M159.4,194.008h-.079a.956.956,0,0,1-.744-.381c-.768-.974-.26-3.63-.2-3.951a.3.3,0,0,1,.182-.218.3.3,0,0,1,.278,0l3.63,2.311a.291.291,0,0,1,.139.212.321.321,0,0,1-.073.242C162.466,192.32,160.935,194.008,159.4,194.008Zm-.5-3.775c-.163,1.053-.236,2.517.157,3.025a.345.345,0,0,0,.29.151,4.148,4.148,0,0,0,2.481-1.3Z" transform="translate(-77.522 -153.525)" fill="#263238"/>
    <path id="Path_6100" data-name="Path 6100" d="M161.914,183.722a.3.3,0,0,1-.248-.127.95.95,0,0,0-.666-.436,1.815,1.815,0,0,0-1.21.436.3.3,0,1,1-.4-.46,2.493,2.493,0,0,1,1.646-.605,1.573,1.573,0,0,1,1.1.69.3.3,0,0,1-.073.423.314.314,0,0,1-.145.079Z" transform="translate(-77.969 -150.802)" fill="#263238"/>
    <path id="Path_6101" data-name="Path 6101" d="M158.73,191.182l3.328,1.519c.29-.26.472-.46.472-.46l-3.63-2.311S158.791,190.493,158.73,191.182Z" transform="translate(-77.749 -153.725)" fill="#fff"/>
    <path id="Path_6102" data-name="Path 6102" d="M161.859,192.805a.315.315,0,0,1-.127,0l-3.328-1.525a.29.29,0,0,1-.175-.3,12.439,12.439,0,0,1,.175-1.289.3.3,0,0,1,.182-.218.3.3,0,0,1,.278,0l3.63,2.311a.29.29,0,0,1,.139.212.3.3,0,0,1-.079.242,6.886,6.886,0,0,1-.5.49A.3.3,0,0,1,161.859,192.805Zm-3.025-2.009,2.946,1.349.054-.048-2.928-1.863c-.006.151-.03.363-.054.575Z" transform="translate(-77.55 -153.533)" fill="#263238"/>
    <path id="Path_6103" data-name="Path 6103" d="M108.165,192.5l-5.875,12.215,7.865,11.949L105.7,239.71l37.8,5.445.339-18.949,4.544,3.08,5.911-11.786s-6.292-9.075-7.865-10.061c-2-1.277-5.7-1.646-5.7-1.646l-5.373-1.815-6.758,7.7-4.465-8.47s-4.235-2.523-5.566-2.674S108.165,192.5,108.165,192.5Z" transform="translate(-55.456 -154.74)" fill="url(#linear-gradient)"/>
    <path id="Path_6104" data-name="Path 6104" d="M143.279,245.254h-.042l-37.8-5.445a.309.309,0,0,1-.206-.127.285.285,0,0,1-.048-.23l4.435-22.93-7.768-11.8a.3.3,0,0,1,0-.3l5.875-12.215a.284.284,0,0,1,.212-.163.315.315,0,0,1,.26.067c3.485,3.025,9.348,7.865,10.225,7.962,1.343.151,5.506,2.6,5.687,2.7a.3.3,0,0,1,.109.121l4.265,8.089,6.456-7.393a.3.3,0,0,1,.321-.091l5.348,1.815a15.964,15.964,0,0,1,5.8,1.688c1.585,1.016,7.678,9.771,7.932,10.146a.3.3,0,0,1,0,.309l-5.917,11.786a.3.3,0,0,1-.194.157.284.284,0,0,1-.242-.042l-4.084-2.771-.327,18.393a.3.3,0,0,1-.109.224.284.284,0,0,1-.188.055Zm-37.439-5.972,37.142,5.324.333-18.61a.3.3,0,0,1,.163-.26.284.284,0,0,1,.309,0l4.235,2.886,5.675-11.314c-1.815-2.614-6.45-9.075-7.66-9.832-1.912-1.21-5.53-1.6-5.566-1.6h-.067l-5.161-1.761-6.613,7.575a.3.3,0,0,1-.5-.061l-4.429-8.4c-1.21-.72-4.386-2.468-5.379-2.583-1.252-.145-8.21-6.08-10.285-7.865l-5.627,11.707,7.744,11.81a.284.284,0,0,1,.042.224Z" transform="translate(-55.268 -154.555)" fill="#263238"/>
    <path id="Path_6105" data-name="Path 6105" d="M170.459,243.033a.3.3,0,0,1-.3-.284l-.387-8.016a.3.3,0,0,1,.605-.03l.387,8.017a.3.3,0,0,1-.29.315Z" transform="translate(-82.109 -171.295)" fill="#263238"/>
    <path id="Path_6106" data-name="Path 6106" d="M111.22,206.157h0a.545.545,0,0,1-.472-.605l.321-2.789a.538.538,0,0,1,.605-.466h0a.532.532,0,0,1,.472.605l-.321,2.789a.539.539,0,0,1-.605.466Zm-.067,9.94.321-2.783a.526.526,0,0,0-.466-.6h0a.526.526,0,0,0-.605.466l-.321,2.789a.538.538,0,0,0,.472.6h0a.532.532,0,0,0,.6-.472Zm8.47,1.21.321-2.789a.526.526,0,0,0-.472-.605h0a.526.526,0,0,0-.605.466l-.321,2.789a.538.538,0,0,0,.466.605h0a.532.532,0,0,0,.605-.436Zm6.873,16.269.315-2.783a.526.526,0,0,0-.466-.605h0a.532.532,0,0,0-.605.472l-.321,2.783a.539.539,0,0,0,.472.605h0a.538.538,0,0,0,.605-.472Zm14.133-13.032.321-2.789a.538.538,0,0,0-.472-.605h0a.545.545,0,0,0-.605.472l-.321,2.789a.545.545,0,0,0,.472.605h0a.538.538,0,0,0,.605-.46Zm-9.856.351.321-2.789a.539.539,0,0,0-.472-.605h0a.538.538,0,0,0-.605.472l-.321,2.783a.538.538,0,0,0,.472.605h0a.532.532,0,0,0,.6-.454Zm3.63,18.834.321-2.789a.539.539,0,0,0-.472-.605h0a.532.532,0,0,0-.605.472l-.321,2.789a.538.538,0,0,0,.472.6h0a.532.532,0,0,0,.593-.46Zm-14.436-11.271.321-2.789a.532.532,0,0,0-.472-.605h0a.538.538,0,0,0-.605.466l-.321,2.789a.545.545,0,0,0,.472.605h0a.545.545,0,0,0,.593-.454Zm14.393-1.24.321-2.783a.526.526,0,0,0-.472-.6h0a.538.538,0,0,0-.605.466l-.315,2.789a.532.532,0,0,0,.466.605h0a.532.532,0,0,0,.593-.46Zm-4.743,15.694-2.662-.889a.538.538,0,0,0-.678.339h0a.539.539,0,0,0,.339.678l2.662.883a.538.538,0,0,0,.678-.339h0a.532.532,0,0,0-.351-.659Zm-13.74-2.281-2.662-.883a.526.526,0,0,0-.672.339h0a.526.526,0,0,0,.339.672l2.662.883a.526.526,0,0,0,.672-.339h0a.526.526,0,0,0-.351-.659Zm31.836-18.471.321-2.783a.532.532,0,0,0-.466-.605h0a.526.526,0,0,0-.605.472l-.321,2.783a.526.526,0,0,0,.472.605h0a.526.526,0,0,0,.587-.46ZM106.174,210.4l.321-2.789a.545.545,0,0,0-.472-.605h0a.539.539,0,0,0-.605.472l-.321,2.789a.538.538,0,0,0,.472.605h0a.544.544,0,0,0,.593-.46Zm9.68-.357,2.747-.575a.532.532,0,0,0,.411-.635h0a.532.532,0,0,0-.605-.411l-2.747.605a.532.532,0,0,0-.417.605h0a.538.538,0,0,0,.575.424ZM113.2,223.291l2.729-.605a.538.538,0,0,0,.417-.635h0a.538.538,0,0,0-.605-.411l-2.747.6a.532.532,0,0,0-.411.605h0a.538.538,0,0,0,.617.442Zm18.979,9.166,2.747-.569a.532.532,0,0,0,.411-.635h0a.526.526,0,0,0-.605-.411l-2.747.605a.526.526,0,0,0-.411.605h0a.526.526,0,0,0,.605.387Zm5.6,13.31,2.747-.575a.532.532,0,0,0,.411-.635h0a.532.532,0,0,0-.605-.411l-2.747.605a.532.532,0,0,0-.411.6h0a.532.532,0,0,0,.605.369Zm8.839-19.276,2.747-.575a.532.532,0,0,0,.411-.635h0a.532.532,0,0,0-.605-.411l-2.747.605a.532.532,0,0,0-.411.605h0a.532.532,0,0,0,.605.369Zm-4.641-12.651,2.747-.575a.532.532,0,0,0,.417-.605h0a.532.532,0,0,0-.605-.411l-2.747.569a.538.538,0,0,0-.411.6h0a.532.532,0,0,0,.6.375Zm-2.13,26.784,2.747-.575a.532.532,0,0,0,.411-.605h0a.532.532,0,0,0-.605-.417l-2.747.605a.532.532,0,0,0-.411.6h0a.532.532,0,0,0,.605.345Zm.787-12.1.605,2.741a.545.545,0,0,0,.641.411h0a.544.544,0,0,0,.405-.641l-.605-2.735a.538.538,0,0,0-.605-.411h0a.538.538,0,0,0-.442.581Zm-16.62-3.418,2.747-.575a.532.532,0,0,0,.411-.635h0a.532.532,0,0,0-.605-.411l-2.747.605a.532.532,0,0,0-.411.605h0a.532.532,0,0,0,.605.357ZM118.5,238.053l2.747-.575a.532.532,0,0,0,.411-.635h0a.532.532,0,0,0-.605-.411l-2.747.575a.532.532,0,0,0-.417.6h0a.538.538,0,0,0,.611.387Zm-5.857-4.035,2.747-.575a.532.532,0,0,0,.411-.605h0a.532.532,0,0,0-.605-.417l-2.747.575a.538.538,0,0,0-.417.635h0a.532.532,0,0,0,.611.333Z" transform="translate(-56.563 -158.608)" fill="#92278f"/>
    <path id="Path_6107" data-name="Path 6107" d="M120.08,179.07c.115,0,.242.048.4.067C120.346,179.124,120.213,179.094,120.08,179.07Z" transform="translate(-62.483 -149.435)" fill="#263238"/>
    <path id="Path_6108" data-name="Path 6108" d="M120.275,179.233h-.036a1.975,1.975,0,0,1-.43-.073.309.309,0,1,1,.127-.6h.073a2.324,2.324,0,0,0,.3.048h0a.3.3,0,0,1,.266.333A.309.309,0,0,1,120.275,179.233Z" transform="translate(-62.279 -149.23)" fill="#263238"/>
    <path id="Path_6109" data-name="Path 6109" d="M140.859,160.433a19.869,19.869,0,0,0-16.033-2.142,8.954,8.954,0,0,0-3.7,2.13c-1.615-2.347-4.35-4.411-6.419-4.647-1.7-.2-2.608.889-3.146,2.45l.1-.841s-3.025,4.175-3.182,6.722a4.441,4.441,0,0,0,1.972,3.842,11.269,11.269,0,0,1,.381-5.929c-.042.357-.085.714-.121,1.059a6.093,6.093,0,0,0,4.768,6.782c-1.373-.315.436-1.174,2.559-2.226a16.631,16.631,0,0,0,0,3.63s-3.1,3.412-1.815,6.873,8.628,6.268,10.691,6.655a7.605,7.605,0,0,0,.974-4.562,6.523,6.523,0,0,0,3.812-1.67c2.154-1.712,2.819-6.159,2.819-6.159h.169a5.79,5.79,0,0,1,2.154-3.176,18.03,18.03,0,0,0,3.691-4.556C142.2,162.091,142,161.165,140.859,160.433Z" transform="translate(-57.899 -140.225)" fill="#263238"/>
    <path id="Path_6110" data-name="Path 6110" d="M126.789,184.843h-.054c-2.184-.405-9.614-3.243-10.89-6.849-1.21-3.285,1.277-6.443,1.815-7.073a17.461,17.461,0,0,1-.054-3.025,11.4,11.4,0,0,0-2.354,1.361.971.971,0,0,0,.206.061.3.3,0,0,1,.23.357.3.3,0,0,1-.351.236,6.274,6.274,0,0,1-4.9-4.889,12.646,12.646,0,0,0,.224,2.614.3.3,0,0,1-.454.327,4.743,4.743,0,0,1-2.118-4.12c.145-2.608,3.116-6.71,3.243-6.885a.315.315,0,0,1,.315-.115,2.844,2.844,0,0,1,3.025-1.615c2.027.23,4.683,2.1,6.431,4.489a9.4,9.4,0,0,1,3.558-1.96,20.05,20.05,0,0,1,16.293,2.178,1.882,1.882,0,0,1,1.01,1.682,5.984,5.984,0,0,1-1.252,2.922,18.144,18.144,0,0,1-3.763,4.628,5.445,5.445,0,0,0-2.045,3.025.3.3,0,0,1-.2.2c-.163.944-.92,4.568-2.892,6.135a7.5,7.5,0,0,1-3.63,1.712,8.361,8.361,0,0,1-1.047,4.429A.3.3,0,0,1,126.789,184.843Zm-8.876-17.733a.284.284,0,0,1,.169.054.3.3,0,0,1,.133.278,16.092,16.092,0,0,0,0,3.527.309.309,0,0,1-.079.248s-2.965,3.322-1.779,6.564,7.962,5.9,10.243,6.413a7.3,7.3,0,0,0,.841-4.163.327.327,0,0,1,.067-.248.315.315,0,0,1,.242-.109,6.5,6.5,0,0,0,3.63-1.609c2.039-1.609,2.7-5.923,2.7-5.965a.3.3,0,0,1,.236-.248,6.05,6.05,0,0,1,2.214-3.152c1.736-1.246,3.588-4.429,3.63-4.459a6.078,6.078,0,0,0,1.162-2.62,1.264,1.264,0,0,0-.738-1.156h0a19.724,19.724,0,0,0-15.779-2.105,8.61,8.61,0,0,0-3.576,2.057.3.3,0,0,1-.242.079.284.284,0,0,1-.218-.127c-1.621-2.354-4.29-4.3-6.2-4.519-1.349-.151-2.245.563-2.825,2.251a.315.315,0,0,1-.357.2.357.357,0,0,1-.169-.109c-.877,1.331-2.42,3.957-2.547,5.705a3.987,3.987,0,0,0,1.21,3.086,10.727,10.727,0,0,1,.532-5.3.312.312,0,1,1,.605.151l-.121,1.059a5.857,5.857,0,0,0,3.727,6.232c.194-.49,1.137-.98,2.959-1.882l.212-.1a.254.254,0,0,1,.1-.03Zm16.65,5.016Z" transform="translate(-57.745 -140.004)" fill="#263238"/>
    <path id="Path_6111" data-name="Path 6111" d="M137.563,205.386l-2.686-.036-1.107,1.488,1.392,10.11,4.423-3.394-1.761-5.717Z" transform="translate(-67.89 -159.815)" fill="#fff"/>
    <path id="Path_6112" data-name="Path 6112" d="M134.963,217.049a.393.393,0,0,1-.115,0,.3.3,0,0,1-.181-.242l-1.4-10.11a.308.308,0,0,1,.061-.218l1.113-1.488a.29.29,0,0,1,.242-.121l2.686.036a.309.309,0,0,1,.3.272l.254,2.42,1.755,5.657a.315.315,0,0,1-.1.333l-4.423,3.388A.309.309,0,0,1,134.963,217.049Zm-1.077-10.334,1.307,9.475,3.842-2.946-1.694-5.506L137.1,205.5l-2.263-.036Z" transform="translate(-67.692 -159.626)" fill="#263238"/>
    <path id="Path_6113" data-name="Path 6113" d="M153.969,207.39l-.847,3.352-3.152,4.072,3.769,4.6,2.91-8.942-.52-2.481Z" transform="translate(-74.289 -160.621)" fill="#fff"/>
    <path id="Path_6114" data-name="Path 6114" d="M153.543,219.531a.309.309,0,0,1-.23-.109l-3.775-4.592a.3.3,0,0,1,0-.375l3.116-4.023.835-3.291a.315.315,0,0,1,.139-.188.3.3,0,0,1,.236-.03l2.154.605a.3.3,0,0,1,.218.224l.52,2.481a.344.344,0,0,1,0,.157l-2.91,8.948a.3.3,0,0,1-.23.2Zm-3.388-4.907,3.273,3.987,2.71-8.343-.466-2.22-1.682-.472-.768,3.025a.4.4,0,0,1-.054.115Zm2.771-4.072Z" transform="translate(-74.092 -160.432)" fill="#263238"/>
    <path id="Path_6115" data-name="Path 6115" d="M184.3,236.42l-2.644,8.271-1.488-.526Z" transform="translate(-86.217 -172.088)" fill="#263238"/>
    <path id="Path_6116" data-name="Path 6116" d="M181.455,244.815a.274.274,0,0,1-.1,0l-1.494-.526a.278.278,0,0,1-.181-.175.3.3,0,0,1,0-.248l4.132-7.75a.3.3,0,0,1,.551.236l-2.638,8.277a.308.308,0,0,1-.151.175A.278.278,0,0,1,181.455,244.815Zm-1.059-.962.865.3,1.537-4.8Z" transform="translate(-86.014 -171.91)" fill="#263238"/>
    <path id="Path_6117" data-name="Path 6117" d="M203.316,200.153l-12.246-3.1.357-3.1a.533.533,0,1,1,1.059.121l-.248,2.172,10.243,2.6.466-2.493a.526.526,0,0,1,.6-.424.532.532,0,0,1,.424.605Z" transform="translate(-90.523 -155.127)" fill="#263238"/>
    <path id="Path_6118" data-name="Path 6118" d="M195.64,199.121l6.734,1.44.714-2.366-6.9-1.906Z" transform="translate(-92.328 -156.237)" fill="#fff"/>
    <path id="Path_6119" data-name="Path 6119" d="M202.177,200.67h-.067l-6.734-1.44a.3.3,0,0,1-.23-.351l.545-2.831a.3.3,0,0,1,.139-.2.272.272,0,0,1,.236-.036l6.9,1.924a.3.3,0,0,1,.188.145.309.309,0,0,1,0,.23l-.714,2.372A.309.309,0,0,1,202.177,200.67Zm-6.383-1.978,6.171,1.325.545-1.815-6.286-1.736Z" transform="translate(-92.131 -156.043)" fill="#263238"/>
    <path id="Path_6120" data-name="Path 6120" d="M193.58,199.362s.315-2.747.666-2.928,5.04.69,4.967,1.349-.115.986-.666.92-1.658-.079-1.658-.079,2.263,2.6,1.252,4.6" transform="translate(-91.514 -156.284)" fill="#fff"/>
    <path id="Path_6121" data-name="Path 6121" d="M197.943,203.368a.356.356,0,0,1-.133,0,.309.309,0,0,1-.139-.411c.908-1.815-1.21-4.235-1.21-4.235a.3.3,0,0,1-.042-.327.278.278,0,0,1,.278-.175,15.347,15.347,0,0,1,1.688.085c.23,0,.248,0,.321-.605-.424-.454-3.866-1.137-4.5-1.1a12.646,12.646,0,0,0-.526,2.686.29.29,0,0,1-.333.266.3.3,0,0,1-.266-.333c.333-2.91.708-3.1.835-3.164.466-.242,4.2.5,5.082,1.107a.605.605,0,0,1,.321.545c-.073.635-.151,1.289-1,1.21-.266,0-.666-.048-1-.061.605.9,1.706,2.8.9,4.411a.3.3,0,0,1-.272.1Z" transform="translate(-91.315 -156.127)" fill="#263238"/>
    <path id="Path_6122" data-name="Path 6122" d="M192.879,246.035h-.036a.309.309,0,0,1-.236-.357l1-4.786a.3.3,0,0,1,.357-.236.3.3,0,0,1,.23.357L193.2,245.8a.3.3,0,0,1-.321.236Z" transform="translate(-91.128 -173.758)" fill="#263238"/>
    <path id="Path_6123" data-name="Path 6123" d="M197.912,200.139h0l-1.44-.054a.3.3,0,1,1,0-.605l1.44.048a.308.308,0,0,1,.29.315A.3.3,0,0,1,197.912,200.139Z" transform="translate(-92.537 -157.497)" fill="#263238"/>
    <path id="Path_6124" data-name="Path 6124" d="M182.4,180.916l36.023,9.323-1.87-27.649L181.98,174.6Z" transform="translate(-86.932 -142.926)" fill="#92278f"/>
    <path id="Path_6125" data-name="Path 6125" d="M218.216,190.342h-.073l-36.017-9.317a.315.315,0,0,1-.23-.272l-.417-6.316a.3.3,0,0,1,.2-.309l34.6-12.028a.3.3,0,0,1,.4.266l1.863,27.655a.308.308,0,0,1-.3.321Zm-35.7-9.862,35.4,9.16L216.1,162.8,182.1,174.611Z" transform="translate(-86.734 -142.726)" fill="#263238"/>
    <rect id="Rectangle_226" data-name="Rectangle 226" width="5.566" height="6.298" transform="translate(89.482 32.056) rotate(-3.81)" fill="#92278f"/>
    <path id="Path_6126" data-name="Path 6126" d="M173.019,189.256a.309.309,0,0,1-.3-.284l-.417-6.286a.29.29,0,0,1,.073-.218.308.308,0,0,1,.206-.1l5.554-.375a.339.339,0,0,1,.224.079.3.3,0,0,1,.1.206l.417,6.286a.315.315,0,0,1-.073.218.321.321,0,0,1-.212.1l-5.554.369Zm-.1-6.31.375,5.681,4.955-.327-.381-5.681Z" transform="translate(-83.108 -150.589)" fill="#263238"/>
  </g>
</svg>
