<svg xmlns="http://www.w3.org/2000/svg" xmlns:xlink="http://www.w3.org/1999/xlink" width="48" height="47" viewBox="0 0 48 47">
  <defs>
    <clipPath id="clip-path">
      <rect id="Rectangle_371" data-name="Rectangle 371" width="48" height="47" transform="translate(0.419 0)" fill="#fcdf31"/>
    </clipPath>
  </defs>
  <g id="snapchat" transform="translate(-0.419)" clip-path="url(#clip-path)">
    <path id="Path_6339" data-name="Path 6339" d="M17.964,12.058l6.484-2.918,14.264,2.918s2.918,4.539,3.242,6.16S44.547,29.24,44.547,29.24v5.187s2.593,2.594,0,3.89-2.593,3.566-5.835,4.539A35.574,35.574,0,0,0,33.525,44.8H22.5a22.462,22.462,0,0,1-7.132-1.945c-3.242-1.621-2.593,1.62-3.89-2.918s-1.945-7.456-2.593-10.7-.648-2.594,0-5.187,1.945-2.269,2.593-3.566A4.964,4.964,0,0,1,13.1,18.218C14.4,16.921,17.964,12.058,17.964,12.058Z" transform="translate(-3.847 -4.556)" fill="#fff"/>
    <path id="snapchat-2" data-name="snapchat" d="M31.223,7.348A23.853,23.853,0,1,0,55.076,31.2,23.853,23.853,0,0,0,31.223,7.348Zm10.4,33.41c-.018.1-.034.191-.048.28-.089.535-.253,1.533-1.385,1.533a5.6,5.6,0,0,1-.943-.133,10.132,10.132,0,0,0-1.786-.226,1.555,1.555,0,0,0-.921.2c-.165.123-.339.269-.525.425a7.787,7.787,0,0,1-3.738,1.97,6.132,6.132,0,0,1-1.036.12h-.015a6.173,6.173,0,0,1-1.051-.121,7.794,7.794,0,0,1-3.737-1.969c-.186-.156-.359-.3-.525-.425a1.56,1.56,0,0,0-.922-.2,10.132,10.132,0,0,0-1.786.226,5.569,5.569,0,0,1-.944.133c-1.131,0-1.3-1-1.384-1.532q-.023-.141-.048-.281c-2.029-.272-3.876-.782-3.981-2.624a.825.825,0,0,1,.724-.866,6.884,6.884,0,0,0,5.595-4.757c.07-.48-.485-.6-.6-.617l-.058-.012c-1.941-.472-2.925-1.159-2.925-2.042a1.493,1.493,0,0,1,1.64-1.468,2.548,2.548,0,0,1,.958.191,1.765,1.765,0,0,0,.66.1,3.942,3.942,0,0,0,.425-.024,22.515,22.515,0,0,1-.3-4.194c0-5.141,4.387-6.966,8.144-6.966l.134,0,.095,0a11.034,11.034,0,0,1,4.387.934,6.246,6.246,0,0,1,3.757,6.031,22.519,22.519,0,0,1-.3,4.194,4.057,4.057,0,0,0,.425.024,1.766,1.766,0,0,0,.661-.1,2.542,2.542,0,0,1,.958-.191,1.494,1.494,0,0,1,1.641,1.468c0,.883-.984,1.57-2.926,2.042l-.058.012c-.244.047-.659.192-.6.617a6.885,6.885,0,0,0,5.6,4.757.825.825,0,0,1,.724.866c-.106,1.841-1.952,2.352-3.982,2.624Z" transform="translate(-7.346 -7.693)" fill="#fcdf31"/>
  </g>
</svg>
