<svg xmlns="http://www.w3.org/2000/svg" xmlns:xlink="http://www.w3.org/1999/xlink" width="355.886" height="102.102" viewBox="0 0 355.886 102.102">
  <defs>
    <linearGradient id="linear-gradient" x1="0.5" y1="-0.003" x2="0.5" y2="0.993" gradientUnits="objectBoundingBox">
      <stop offset="0" stop-color="#267caf"/>
      <stop offset="0.286" stop-color="#4a92b4"/>
      <stop offset="0.767" stop-color="#79bcba"/>
      <stop offset="1" stop-color="#88cebc"/>
    </linearGradient>
    <linearGradient id="linear-gradient-2" x1="0.638" y1="0.141" x2="0.339" y2="0.948" gradientUnits="objectBoundingBox">
      <stop offset="0" stop-color="#f48879"/>
      <stop offset="0.119" stop-color="#f5907a"/>
      <stop offset="0.713" stop-color="#fbb777"/>
      <stop offset="1" stop-color="#fdc874"/>
    </linearGradient>
    <linearGradient id="linear-gradient-3" x1="0.866" y1="0.172" x2="0.048" y2="1.029" gradientUnits="objectBoundingBox">
      <stop offset="0" stop-color="#eb413d"/>
      <stop offset="0.167" stop-color="#d94452"/>
      <stop offset="0.575" stop-color="#af487a"/>
      <stop offset="0.862" stop-color="#954b92"/>
      <stop offset="1" stop-color="#894a9c"/>
    </linearGradient>
    <linearGradient id="linear-gradient-4" x1="0.106" y1="0.073" x2="0.888" y2="0.85" gradientUnits="objectBoundingBox">
      <stop offset="0" stop-color="#54c0ac"/>
      <stop offset="1" stop-color="#dde79a"/>
    </linearGradient>
  </defs>
  <g id="store" transform="translate(-2.379 -2.379)">
    <path id="Path_5026" data-name="Path 5026" d="M513.679,396.47A10.236,10.236,0,0,1,503.441,406.7H168.055a10.249,10.249,0,0,1-10.262-10.234V314.851A10.263,10.263,0,0,1,168.055,304.6H503.428a10.247,10.247,0,0,1,10.248,10.246v0l0,81.619Z" transform="translate(-155.414 -302.225)" fill="#fff"/>
    <path id="Path_5028" data-name="Path 5028" d="M513.679,396.47A10.236,10.236,0,0,1,503.441,406.7H168.055a10.249,10.249,0,0,1-10.262-10.234V314.851A10.263,10.263,0,0,1,168.055,304.6H503.428a10.247,10.247,0,0,1,10.248,10.246v0l0,81.619Z" transform="translate(-155.414 -302.225)" fill="#fff"/>
    <g id="Group_337" data-name="Group 337" transform="translate(37.77 20.826)">
      <path id="Path_5030" data-name="Path 5030" d="M451.568,367.39a7.117,7.117,0,0,1-1.829,5.224,8.127,8.127,0,1,1-5.747-13.845,6.958,6.958,0,0,1,3.135.784,5.688,5.688,0,0,1,2.351,1.828l-1.306,1.306a4.87,4.87,0,0,0-4.179-1.829,5.2,5.2,0,0,0-4.18,1.829,6.306,6.306,0,0,0,0,8.881,6.726,6.726,0,0,0,4.18,1.829,5.728,5.728,0,0,0,4.44-1.829,4.324,4.324,0,0,0,1.306-3.134h-5.747v-2.09h7.575v1.045Zm12.016-6.531H456.53v4.963h6.531v1.829H456.53v4.963h7.053V374.7h-9.142V359.032h9.142ZM472.2,374.7h-2.09V360.86h-4.44v-1.828h10.971v1.828H472.2Zm12.016,0V359.032h2.089V374.7Zm10.971,0H493.1V360.86h-4.441v-1.828h10.71v1.828h-4.44V374.7Zm24.815-2.089a8.2,8.2,0,1,1,2.351-5.747A7.681,7.681,0,0,1,520.005,372.615Zm-9.926-1.306a6.165,6.165,0,0,0,4.179,1.829,5.2,5.2,0,0,0,4.179-1.829,6.3,6.3,0,0,0,1.829-4.441,5.38,5.38,0,0,0-1.829-4.44,6.163,6.163,0,0,0-4.179-1.829,5.2,5.2,0,0,0-4.179,1.829,6.3,6.3,0,0,0-1.828,4.44A5.382,5.382,0,0,0,510.079,371.308Zm15.15,3.4V359.032h2.351l7.575,12.277V359.032h2.089V374.7h-2.089l-8.1-12.8v12.8Z" transform="translate(-361.9 -355.912)"/>
      <path id="Path_5031" data-name="Path 5031" d="M504.429,430.147A10.99,10.99,0,0,0,493.2,441.379a11.149,11.149,0,0,0,11.232,11.232,10.989,10.989,0,0,0,11.232-11.232A10.837,10.837,0,0,0,504.429,430.147Zm0,17.763a6.813,6.813,0,0,1,0-13.583c3.4,0,6.269,2.612,6.269,6.791A6.484,6.484,0,0,1,504.429,447.91Zm-24.293-17.763A10.99,10.99,0,0,0,468.9,441.379a11.149,11.149,0,0,0,11.232,11.232,10.989,10.989,0,0,0,11.232-11.232A10.837,10.837,0,0,0,480.137,430.147Zm0,17.763a6.813,6.813,0,0,1,0-13.583c3.4,0,6.269,2.612,6.269,6.791A6.484,6.484,0,0,1,480.137,447.91Zm-28.995-14.367v4.7h11.232a9.877,9.877,0,0,1-2.612,6.008,11.561,11.561,0,0,1-8.62,3.4,12.161,12.161,0,0,1-12.277-12.538,12.322,12.322,0,0,1,12.277-12.538,12.953,12.953,0,0,1,8.62,3.4l3.4-3.4a16.738,16.738,0,0,0-11.754-4.7c-9.4,0-17.5,7.836-17.5,17.24s8.1,17.24,17.5,17.24c5.224,0,8.881-1.567,12.016-4.963a15.725,15.725,0,0,0,4.179-10.971,9.8,9.8,0,0,0-.261-2.873Zm118.59,3.657c-1.045-2.612-3.657-7.053-9.4-7.053s-10.449,4.441-10.449,11.232a10.931,10.931,0,0,0,10.971,11.232,10.716,10.716,0,0,0,9.143-4.963l-3.657-2.612a6.367,6.367,0,0,1-5.485,3.135c-2.612,0-4.179-1.045-5.485-3.4l14.889-6.269-.522-1.306Zm-15.15,3.657a6.345,6.345,0,0,1,5.747-6.53,4.621,4.621,0,0,1,4.18,2.351l-9.926,4.18Zm-12.277,10.71h4.963V418.915h-4.963ZM534.469,432.5a8.6,8.6,0,0,0-6.008-2.612c-5.485,0-10.71,4.963-10.71,11.232a10.816,10.816,0,0,0,10.71,10.971,7.5,7.5,0,0,0,5.747-2.612h.261v1.567c0,4.179-2.351,6.53-6.008,6.53a5.8,5.8,0,0,1-5.485-3.918l-4.179,1.828a10.776,10.776,0,0,0,9.926,6.531c5.747,0,10.448-3.4,10.448-11.493V430.669h-4.7V432.5Zm-5.747,15.412a6.813,6.813,0,0,1,0-13.583c3.4,0,6.008,2.873,6.008,6.791S532.118,447.91,528.722,447.91Zm63.735-28.995H580.7v32.651h4.963V439.289h6.791c5.485,0,10.71-3.918,10.71-10.187S597.943,418.915,592.457,418.915Zm.261,15.673h-7.053V423.355h7.053a5.738,5.738,0,0,1,5.746,5.486c-.261,2.873-2.35,5.747-5.746,5.747Zm30.039-4.7c-3.657,0-7.314,1.567-8.62,4.963l4.441,1.828a4.615,4.615,0,0,1,4.441-2.351c2.612,0,4.963,1.567,5.224,4.179v.261a10.362,10.362,0,0,0-4.963-1.306c-4.7,0-9.4,2.612-9.4,7.314,0,4.441,3.919,7.314,8.1,7.314a7.35,7.35,0,0,0,6.269-3.134h.261v2.612h4.7V439.028c-.522-5.747-4.963-9.142-10.448-9.142Zm-.522,18.024c-1.567,0-3.918-.784-3.918-2.873,0-2.612,2.873-3.4,5.224-3.4a10.1,10.1,0,0,1,4.44,1.045A6.084,6.084,0,0,1,622.236,447.91Zm27.427-17.24-5.485,14.105h-.261l-5.747-14.105h-5.224l8.62,19.852L636.6,461.493h4.963l13.321-30.823h-5.224Zm-43.883,20.9h4.963V418.915h-4.963Z" transform="translate(-360.69 -391.766)"/>
      <g id="Group_336" data-name="Group 336" transform="translate(0)">
        <path id="Path_5032" data-name="Path 5032" d="M248.816,353.686a5.108,5.108,0,0,0-1.045,3.657v57.727a5.168,5.168,0,0,0,1.306,3.657l.261.262,32.39-32.39v-.523Z" transform="translate(-247.771 -352.827)" fill="url(#linear-gradient)"/>
        <path id="Path_5033" data-name="Path 5033" d="M344.149,431.009l-10.71-10.71v-.784l10.71-10.71.261.261,12.8,7.314c3.657,2.09,3.657,5.485,0,7.575Z" transform="translate(-299.743 -386.267)" fill="url(#linear-gradient-2)"/>
        <path id="Path_5034" data-name="Path 5034" d="M294.049,447.669,283.078,436.7,250.427,469.35c1.306,1.306,3.134,1.306,5.485.261l38.137-21.942" transform="translate(-249.382 -403.188)" fill="url(#linear-gradient-3)"/>
        <path id="Path_5035" data-name="Path 5035" d="M294.049,374.042l-38.137-21.681c-2.351-1.306-4.179-1.045-5.485.261l32.651,32.39,10.971-10.971Z" transform="translate(-249.382 -351.503)" fill="url(#linear-gradient-4)"/>
      </g>
    </g>
  </g>
</svg>
