<svg xmlns="http://www.w3.org/2000/svg" xmlns:xlink="http://www.w3.org/1999/xlink" width="177.94" height="51.05" viewBox="0 0 177.94 51.05">
  <defs>
    <linearGradient id="linear-gradient" x1="0.5" y1="-0.003" x2="0.5" y2="0.993" gradientUnits="objectBoundingBox">
      <stop offset="0" stop-color="#267caf"/>
      <stop offset="0.286" stop-color="#4a92b4"/>
      <stop offset="0.767" stop-color="#79bcba"/>
      <stop offset="1" stop-color="#88cebc"/>
    </linearGradient>
    <linearGradient id="linear-gradient-2" x1="0.638" y1="0.141" x2="0.339" y2="0.948" gradientUnits="objectBoundingBox">
      <stop offset="0" stop-color="#f48879"/>
      <stop offset="0.119" stop-color="#f5907a"/>
      <stop offset="0.713" stop-color="#fbb777"/>
      <stop offset="1" stop-color="#fdc874"/>
    </linearGradient>
    <linearGradient id="linear-gradient-3" x1="0.866" y1="0.172" x2="0.048" y2="1.029" gradientUnits="objectBoundingBox">
      <stop offset="0" stop-color="#eb413d"/>
      <stop offset="0.167" stop-color="#d94452"/>
      <stop offset="0.575" stop-color="#af487a"/>
      <stop offset="0.862" stop-color="#954b92"/>
      <stop offset="1" stop-color="#894a9c"/>
    </linearGradient>
    <linearGradient id="linear-gradient-4" x1="0.106" y1="0.073" x2="0.888" y2="0.85" gradientUnits="objectBoundingBox">
      <stop offset="0" stop-color="#54c0ac"/>
      <stop offset="1" stop-color="#dde79a"/>
    </linearGradient>
  </defs>
  <g id="store" transform="translate(0)">
    <path id="Path_5026" data-name="Path 5026" d="M335.733,350.536a5.118,5.118,0,0,1-5.119,5.117H162.924a5.125,5.125,0,0,1-5.131-5.117V309.727a5.131,5.131,0,0,1,5.131-5.124H330.607a5.123,5.123,0,0,1,5.124,5.123h0v40.809Z" transform="translate(-157.793 -304.603)" fill="#fff"/>
    <path id="Path_5028" data-name="Path 5028" d="M335.733,350.536a5.118,5.118,0,0,1-5.119,5.117H162.924a5.125,5.125,0,0,1-5.131-5.117V309.727a5.131,5.131,0,0,1,5.131-5.124H330.607a5.123,5.123,0,0,1,5.124,5.123h0v40.809Z" transform="translate(-157.793 -304.603)" fill="#fff"/>
    <g id="Group_337" data-name="Group 337" transform="translate(17.695 9.224)">
      <path id="Path_5030" data-name="Path 5030" d="M443.731,363.08a3.558,3.558,0,0,1-.914,2.612,4.064,4.064,0,1,1-2.873-6.922,3.479,3.479,0,0,1,1.567.392,2.844,2.844,0,0,1,1.175.914l-.653.653a2.435,2.435,0,0,0-2.09-.914,2.6,2.6,0,0,0-2.09.914,3.153,3.153,0,0,0,0,4.441,3.363,3.363,0,0,0,2.09.914,2.864,2.864,0,0,0,2.22-.914,2.162,2.162,0,0,0,.653-1.567h-2.873v-1.045h3.788v.523Zm6.008-3.265h-3.526V362.3h3.265v.914h-3.265v2.481h3.526v1.045h-4.571V358.9h4.571Zm4.31,6.922H453v-6.922h-2.22V358.9h5.485v.914h-2.22Zm6.008,0V358.9H461.1v7.836Zm5.485,0H464.5v-6.922h-2.22V358.9h5.355v.914h-2.22v6.922Zm12.407-1.045a4.1,4.1,0,1,1,1.175-2.873A3.841,3.841,0,0,1,477.949,365.692Zm-4.963-.653a3.083,3.083,0,0,0,2.09.914,2.6,2.6,0,0,0,2.09-.914,3.15,3.15,0,0,0,.914-2.22,2.69,2.69,0,0,0-.914-2.22,3.081,3.081,0,0,0-2.09-.914,2.6,2.6,0,0,0-2.09.914,3.151,3.151,0,0,0-.914,2.22A2.691,2.691,0,0,0,472.986,365.039Zm7.575,1.7V358.9h1.175l3.788,6.138V358.9h1.045v7.836h-1.045l-4.049-6.4v6.4Z" transform="translate(-398.898 -357.341)"/>
      <path id="Path_5031" data-name="Path 5031" d="M469.165,424.008a5.5,5.5,0,0,0-5.616,5.616,5.574,5.574,0,0,0,5.616,5.616,5.5,5.5,0,0,0,5.616-5.616A5.418,5.418,0,0,0,469.165,424.008Zm0,8.881a3.407,3.407,0,0,1,0-6.791,3.164,3.164,0,0,1,3.134,3.4A3.242,3.242,0,0,1,469.165,432.89Zm-12.146-8.881a5.5,5.5,0,0,0-5.616,5.616,5.574,5.574,0,0,0,5.616,5.616,5.5,5.5,0,0,0,5.616-5.616A5.418,5.418,0,0,0,457.019,424.008Zm0,8.881a3.407,3.407,0,0,1,0-6.791,3.164,3.164,0,0,1,3.134,3.4A3.242,3.242,0,0,1,457.019,432.89Zm-14.5-7.183v2.351h5.616a4.939,4.939,0,0,1-1.306,3,5.781,5.781,0,0,1-4.31,1.7,6.081,6.081,0,0,1-6.138-6.269,6.161,6.161,0,0,1,6.138-6.269,6.476,6.476,0,0,1,4.31,1.7l1.7-1.7a8.369,8.369,0,0,0-5.877-2.351,8.621,8.621,0,1,0,0,17.24,7.516,7.516,0,0,0,6.008-2.481,7.862,7.862,0,0,0,2.09-5.485,4.9,4.9,0,0,0-.131-1.437Zm59.294,1.829a5.075,5.075,0,0,0-4.7-3.526,5.26,5.26,0,0,0-5.224,5.616,5.466,5.466,0,0,0,5.485,5.616,5.358,5.358,0,0,0,4.571-2.481l-1.829-1.306a3.184,3.184,0,0,1-2.743,1.567,2.834,2.834,0,0,1-2.743-1.7l7.444-3.134-.261-.653Zm-7.575,1.828a3.173,3.173,0,0,1,2.873-3.265,2.31,2.31,0,0,1,2.09,1.175l-4.963,2.09Zm-6.138,5.355h2.481V418.393H488.1Zm-3.918-9.534a4.3,4.3,0,0,0-3-1.306,5.612,5.612,0,0,0-5.355,5.616,5.408,5.408,0,0,0,5.355,5.485,3.75,3.75,0,0,0,2.873-1.306h.131v.784c0,2.09-1.175,3.265-3,3.265a2.9,2.9,0,0,1-2.743-1.959l-2.09.914a5.388,5.388,0,0,0,4.963,3.265c2.873,0,5.224-1.7,5.224-5.746V424.27h-2.351v.914Zm-2.873,7.706a3.407,3.407,0,0,1,0-6.791,3.421,3.421,0,0,1,0,6.791Zm31.867-14.5H507.3v16.325h2.481V428.58h3.4a5.1,5.1,0,1,0,0-10.187Zm.131,7.836h-3.526v-5.616h3.526a2.869,2.869,0,0,1,2.873,2.743,2.989,2.989,0,0,1-2.873,2.873Zm15.019-2.351a4.39,4.39,0,0,0-4.31,2.482l2.22.914a2.307,2.307,0,0,1,2.22-1.175,2.454,2.454,0,0,1,2.612,2.09v.131a5.181,5.181,0,0,0-2.481-.653c-2.351,0-4.7,1.306-4.7,3.657a3.826,3.826,0,0,0,4.049,3.657,3.675,3.675,0,0,0,3.134-1.567h.131v1.306h2.351v-6.269a4.943,4.943,0,0,0-5.224-4.571Zm-.261,9.012c-.784,0-1.959-.392-1.959-1.437,0-1.306,1.437-1.7,2.612-1.7a5.048,5.048,0,0,1,2.22.523A3.042,3.042,0,0,1,528.067,432.89Zm13.713-8.62-2.743,7.053h-.131l-2.873-7.053h-2.612l4.31,9.926-2.482,5.485h2.482l6.661-15.411H541.78Zm-21.941,10.448h2.482V418.393h-2.482Z" transform="translate(-397.297 -404.818)"/>
      <g id="Group_336" data-name="Group 336" transform="translate(0)">
        <path id="Path_5032" data-name="Path 5032" d="M248.293,353.686a2.554,2.554,0,0,0-.522,1.829v28.863a2.584,2.584,0,0,0,.653,1.828l.131.131,16.195-16.195v-.261Z" transform="translate(-247.771 -353.257)" fill="url(#linear-gradient)"/>
        <path id="Path_5033" data-name="Path 5033" d="M338.794,419.907l-5.355-5.355v-.392l5.355-5.355.131.13,6.4,3.657c1.828,1.045,1.828,2.743,0,3.788Z" transform="translate(-316.591 -397.537)" fill="url(#linear-gradient-2)"/>
        <path id="Path_5034" data-name="Path 5034" d="M272.238,442.183l-5.485-5.485-16.325,16.326c.653.653,1.567.653,2.743.131l19.068-10.971" transform="translate(-249.905 -419.943)" fill="url(#linear-gradient-3)"/>
        <path id="Path_5035" data-name="Path 5035" d="M272.238,362.773l-19.068-10.84a2.117,2.117,0,0,0-2.743.131l16.325,16.195,5.485-5.485Z" transform="translate(-249.905 -351.503)" fill="url(#linear-gradient-4)"/>
      </g>
    </g>
  </g>
</svg>
