<svg id="Thrift_shop-rafiki" data-name="Thrift shop-rafiki" xmlns="http://www.w3.org/2000/svg" xmlns:xlink="http://www.w3.org/1999/xlink" width="330.014" height="249.137" viewBox="0 0 330.014 249.137">
  <defs>
    <linearGradient id="linear-gradient" x1="0.5" x2="0.5" y2="1" gradientUnits="objectBoundingBox">
      <stop offset="0" stop-color="#fdd001"/>
      <stop offset="1" stop-color="#fff000"/>
    </linearGradient>
  </defs>
  <g id="freepik--background-complete--inject-73" transform="translate(0 0)">
    <path id="Path_6127" data-name="Path 6127" d="M89.73,93.6V254.158h79.2V93.6Zm73.554,154.618h-68.4V99.54h68.4Z" transform="translate(-30.506 -68.123)" fill="#e0e0e0"/>
    <path id="Path_6128" data-name="Path 6128" d="M170.1,255.438H84.54V89.6H170.1Zm-80.279-5.28h75V94.88h-75Z" transform="translate(-28.741 -66.763)" fill="#ebebeb"/>
    <path id="Path_6129" data-name="Path 6129" d="M166.585,138.1v-3.96H133.043V100.6h-3.96v33.536H95.54v3.96h33.543v36.183H95.54v3.96h33.543v36.176H95.54v3.96h33.543v33.543h3.96V218.375h33.543v-3.96H133.043V178.239h33.543v-3.96H133.043V138.1Z" transform="translate(-32.481 -70.503)" fill="#f5f5f5"/>
    <path id="Path_6130" data-name="Path 6130" d="M291,93.6V254.158h79.2V93.6Zm73.567,154.618h-68.4V99.54h68.4Z" transform="translate(-98.932 -68.123)" fill="#e0e0e0"/>
    <path id="Path_6131" data-name="Path 6131" d="M371.389,255.438H285.83V89.6h85.559Zm-80.279-5.28h75V94.88h-75Z" transform="translate(-97.174 -66.763)" fill="#ebebeb"/>
    <path id="Path_6132" data-name="Path 6132" d="M367.865,138.1v-3.96H334.323V100.6h-3.96v33.536H296.82v3.96h33.543v36.183H296.82v3.96h33.543v36.176H296.82v3.96h33.543v33.543h3.96V218.375h33.543v-3.96H334.323V178.239h33.543v-3.96H334.323V138.1Z" transform="translate(-100.91 -70.503)" fill="#f5f5f5"/>
    <rect id="Rectangle_228" data-name="Rectangle 228" width="24.48" height="6.567" rx="1.32" transform="translate(43.885 4.897)" fill="#f5f5f5"/>
    <rect id="Rectangle_229" data-name="Rectangle 229" width="24.48" height="6.567" rx="1.32" transform="translate(36.407 13.036)" fill="#f5f5f5"/>
    <rect id="Rectangle_230" data-name="Rectangle 230" width="24.48" height="6.567" rx="1.32" transform="translate(62.029 13.036)" fill="#f0f0f0"/>
    <rect id="Rectangle_231" data-name="Rectangle 231" width="24.48" height="6.567" rx="1.32" transform="translate(285.356 18.824) rotate(180)" fill="#f5f5f5"/>
    <rect id="Rectangle_232" data-name="Rectangle 232" width="24.48" height="6.567" rx="1.32" transform="translate(292.835 10.679) rotate(180)" fill="#f5f5f5"/>
    <rect id="Rectangle_233" data-name="Rectangle 233" width="24.48" height="6.567" rx="1.32" transform="translate(267.212 10.679) rotate(180)" fill="#f0f0f0"/>
    <rect id="Rectangle_234" data-name="Rectangle 234" width="24.48" height="6.567" rx="1.32" transform="translate(182.392 18.824) rotate(180)" fill="#f5f5f5"/>
    <rect id="Rectangle_235" data-name="Rectangle 235" width="24.48" height="6.567" rx="1.32" transform="translate(193.824 10.679) rotate(180)" fill="#f5f5f5"/>
    <rect id="Rectangle_236" data-name="Rectangle 236" width="24.48" height="6.567" rx="1.32" transform="translate(168.208 10.679) rotate(180)" fill="#f0f0f0"/>
    <rect id="Rectangle_237" data-name="Rectangle 237" width="24.48" height="6.567" rx="1.32" transform="translate(285.356 209.209) rotate(180)" fill="#f5f5f5"/>
    <rect id="Rectangle_238" data-name="Rectangle 238" width="24.48" height="6.567" rx="1.32" transform="translate(292.835 201.064) rotate(180)" fill="#f5f5f5"/>
    <rect id="Rectangle_239" data-name="Rectangle 239" width="24.48" height="6.567" rx="1.32" transform="translate(267.212 201.064) rotate(180)" fill="#f0f0f0"/>
    <rect id="Rectangle_240" data-name="Rectangle 240" width="24.48" height="6.567" rx="1.32" transform="translate(43.885 195.282)" fill="#f5f5f5"/>
    <rect id="Rectangle_241" data-name="Rectangle 241" width="24.48" height="6.567" rx="1.32" transform="translate(36.407 203.42)" fill="#f5f5f5"/>
    <rect id="Rectangle_242" data-name="Rectangle 242" width="24.48" height="6.567" rx="1.32" transform="translate(62.029 203.42)" fill="#f0f0f0"/>
    <rect id="Rectangle_243" data-name="Rectangle 243" width="24.48" height="6.567" rx="1.32" transform="translate(146.85 195.282)" fill="#f5f5f5"/>
    <rect id="Rectangle_244" data-name="Rectangle 244" width="24.48" height="6.567" rx="1.32" transform="translate(135.411 203.42)" fill="#f5f5f5"/>
    <rect id="Rectangle_245" data-name="Rectangle 245" width="24.48" height="6.567" rx="1.32" transform="translate(161.034 203.42)" fill="#f0f0f0"/>
    <rect id="Rectangle_246" data-name="Rectangle 246" width="21.86" height="0.165" transform="translate(275.086 226.713)" fill="#ebebeb"/>
    <rect id="Rectangle_247" data-name="Rectangle 247" width="5.736" height="0.165" transform="translate(212.879 228.508)" fill="#ebebeb"/>
    <rect id="Rectangle_248" data-name="Rectangle 248" width="12.666" height="0.165" transform="translate(261.76 220.588)" fill="#ebebeb"/>
    <rect id="Rectangle_249" data-name="Rectangle 249" width="28.507" height="0.165" transform="translate(34.625 221.697)" fill="#ebebeb"/>
    <rect id="Rectangle_250" data-name="Rectangle 250" width="4.178" height="0.165" transform="translate(69.013 221.697)" fill="#ebebeb"/>
    <rect id="Rectangle_251" data-name="Rectangle 251" width="61.831" height="0.165" transform="translate(86.774 224.482)" fill="#ebebeb"/>
    <path id="Path_6133" data-name="Path 6133" d="M169.417,241.656H41.979a3.769,3.769,0,0,1-3.769-3.769V58.736A3.769,3.769,0,0,1,41.979,55H169.417a3.769,3.769,0,0,1,3.769,3.769V237.887A3.769,3.769,0,0,1,169.417,241.656ZM41.979,55.132a3.61,3.61,0,0,0-3.6,3.6V237.887a3.61,3.61,0,0,0,3.6,3.6H169.417a3.61,3.61,0,0,0,3.6-3.6V58.736a3.61,3.61,0,0,0-3.6-3.6Z" transform="translate(-12.99 -55)" fill="#ebebeb"/>
    <path id="Path_6134" data-name="Path 6134" d="M385.72,241.656H258.269a3.775,3.775,0,0,1-3.769-3.769V58.736A3.775,3.775,0,0,1,258.269,55H385.72a3.769,3.769,0,0,1,3.756,3.736V237.887A3.769,3.769,0,0,1,385.72,241.656ZM258.269,55.132a3.61,3.61,0,0,0-3.6,3.6V237.887a3.61,3.61,0,0,0,3.6,3.6H385.72a3.61,3.61,0,0,0,3.6-3.6V58.736a3.61,3.61,0,0,0-3.6-3.6Z" transform="translate(-86.523 -55)" fill="#ebebeb"/>
    <rect id="Rectangle_252" data-name="Rectangle 252" width="330.014" height="0.165" transform="translate(0 216.093)" fill="#ebebeb"/>
  </g>
  <g id="freepik--Shadow--inject-73" transform="translate(33.853 228.416)">
    <ellipse id="freepik--path--inject-73" cx="127.973" cy="7.472" rx="127.973" ry="7.472" fill="#f5f5f5"/>
  </g>
  <g id="freepik--Basket--inject-73" transform="translate(148.513 170.452)">
    <path id="Path_6135" data-name="Path 6135" d="M309.25,344.416,313.4,313.25l4.145,31.166Z" transform="translate(-253.649 -313.25)" fill="url(#linear-gradient)"/>
    <path id="Path_6136" data-name="Path 6136" d="M309.25,344.416,313.4,313.25l4.145,31.166Z" transform="translate(-253.649 -313.25)" opacity="0.3"/>
    <path id="Path_6137" data-name="Path 6137" d="M285.2,344.416l4.145-31.166h15.88l-4.152,31.166Z" transform="translate(-245.473 -313.25)" fill="url(#linear-gradient)"/>
    <path id="Path_6139" data-name="Path 6139" d="M295.337,324.879a.944.944,0,0,1,.257.878,1.425,1.425,0,0,1-.284.66,1.485,1.485,0,0,1-.614.462,2.2,2.2,0,0,1-.924.178,2.9,2.9,0,0,1-.792-.112,1.6,1.6,0,0,1-.62-.3l.462-.66a1.59,1.59,0,0,0,.469.257,1.875,1.875,0,0,0,.581.086,1.017,1.017,0,0,0,.554-.132.5.5,0,0,0,.251-.37.356.356,0,0,0-.139-.376,1.28,1.28,0,0,0-.66-.132h-.99l.541-2.185h2.37l-.112.726H294.07l-.178.733h.317A1.631,1.631,0,0,1,295.337,324.879Z" transform="translate(-247.907 -316.609)" fill="#92278f"/>
    <path id="Path_6140" data-name="Path 6140" d="M298.491,326.762a1.275,1.275,0,0,1-.482-.693,2.409,2.409,0,0,1-.033-1.089,2.818,2.818,0,0,1,.389-1.076,1.98,1.98,0,0,1,.7-.693,1.775,1.775,0,0,1,.891-.211,1.412,1.412,0,0,1,.825.238,1.32,1.32,0,0,1,.482.693,2.4,2.4,0,0,1,.013,1.049,2.917,2.917,0,0,1-.383,1.083,1.981,1.981,0,0,1-.7.693,1.789,1.789,0,0,1-.9.238A1.4,1.4,0,0,1,298.491,326.762Zm1.551-.832a1.981,1.981,0,0,0,.35-.944,1.644,1.644,0,0,0-.053-.937.528.528,0,0,0-.508-.31.746.746,0,0,0-.6.31,1.98,1.98,0,0,0-.356.937,1.664,1.664,0,0,0,.053.944.528.528,0,0,0,.508.31.772.772,0,0,0,.607-.31Z" transform="translate(-249.8 -316.564)" fill="#92278f"/>
    <path id="Path_6141" data-name="Path 6141" d="M303.912,324.853a1,1,0,0,1-.145-.779,1.281,1.281,0,0,1,.4-.779,1.043,1.043,0,0,1,.739-.3.752.752,0,0,1,.66.3.957.957,0,0,1,.145.779,1.321,1.321,0,0,1-.389.779,1.063,1.063,0,0,1-.739.29A.785.785,0,0,1,303.912,324.853Zm1.049-.317a.971.971,0,0,0,.178-.462.772.772,0,0,0-.033-.462.3.3,0,0,0-.277-.158.416.416,0,0,0-.317.158.9.9,0,0,0-.185.462.7.7,0,0,0,.04.455.284.284,0,0,0,.271.158.429.429,0,0,0,.343-.152Zm2.251-1.492h.66l-3.247,3.914h-.66Zm-.779,3.8a.72.72,0,0,1-.284-.376,1.148,1.148,0,0,1,0-.568,1.372,1.372,0,0,1,.211-.568,1.082,1.082,0,0,1,.917-.5.766.766,0,0,1,.66.29.963.963,0,0,1,.145.779,1.241,1.241,0,0,1-.389.779,1.05,1.05,0,0,1-.746.29.852.852,0,0,1-.5-.125Zm.871-.482a.931.931,0,0,0,.178-.462.759.759,0,0,0-.033-.455.277.277,0,0,0-.271-.158.409.409,0,0,0-.317.152.9.9,0,0,0-.185.462.772.772,0,0,0,0,.462.291.291,0,0,0,.271.158.409.409,0,0,0,.376-.158Z" transform="translate(-251.777 -316.564)" fill="#92278f"/>
    <path id="Path_6142" data-name="Path 6142" d="M292.466,335.415a1.518,1.518,0,0,1-.66-.719,1.776,1.776,0,0,1-.112-1.03,2.3,2.3,0,0,1,.436-1.03,2.468,2.468,0,0,1,.878-.719,2.529,2.529,0,0,1,1.129-.258,2.059,2.059,0,0,1,1.049.258,1.623,1.623,0,0,1,.66.719,1.848,1.848,0,0,1,.112,1.03,2.25,2.25,0,0,1-.442,1.03,2.429,2.429,0,0,1-.871.719,2.534,2.534,0,0,1-1.129.264,2.026,2.026,0,0,1-1.049-.264Zm1.815-.66a1.485,1.485,0,0,0,.508-.442,1.551,1.551,0,0,0,.257-.66,1.142,1.142,0,0,0-.059-.66.858.858,0,0,0-.363-.442,1.1,1.1,0,0,0-.594-.158,1.359,1.359,0,0,0-.66.158,1.419,1.419,0,0,0-.508.442,1.445,1.445,0,0,0-.257.66,1.227,1.227,0,0,0,.053.66.93.93,0,0,0,.37.442,1.076,1.076,0,0,0,.594.158,1.38,1.38,0,0,0,.66-.158Z" transform="translate(-247.67 -319.509)" fill="#92278f"/>
    <path id="Path_6143" data-name="Path 6143" d="M300.129,332.479l-.165,1.03h1.8l-.119.719h-1.8l-.224,1.419h-.9l.614-3.888h2.937l-.112.719Z" transform="translate(-250.073 -319.543)" fill="#92278f"/>
    <path id="Path_6144" data-name="Path 6144" d="M305.5,332.479l-.158,1.03h1.8l-.112.719h-1.8L305,335.648h-.9l.614-3.888h2.937l-.112.719Z" transform="translate(-251.898 -319.543)" fill="#92278f"/>
    <path id="Path_6145" data-name="Path 6145" d="M239.485,378.8l-2.475-18.21,12.376-14.851,16.5,1.98,13.7-2.97,13.7,2.97.99,6.93-2.64,25.616-5.61,2.429Z" transform="translate(-229.09 -323.959)" fill="#92278f"/>
    <path id="Path_6146" data-name="Path 6146" d="M294.659,348.25l-20.712,17.379-4.257-5.5L286.626,348.8Z" transform="translate(-240.2 -325.149)" opacity="0.2"/>
    <path id="Path_6147" data-name="Path 6147" d="M294.749,355.79H227.155a2.152,2.152,0,0,1-2.145-2.145h0a2.152,2.152,0,0,1,2.145-2.145h67.593a2.145,2.145,0,0,1,2.145,2.145h0A2.145,2.145,0,0,1,294.749,355.79Z" transform="translate(-225.01 -326.254)" fill="#263238"/>
    <path id="Path_6148" data-name="Path 6148" d="M294.749,355.79H227.155a2.152,2.152,0,0,1-2.145-2.145h0a2.152,2.152,0,0,1,2.145-2.145h67.593a2.145,2.145,0,0,1,2.145,2.145h0A2.145,2.145,0,0,1,294.749,355.79Z" transform="translate(-225.01 -326.254)" fill="#fff" opacity="0.5"/>
    <path id="Path_6149" data-name="Path 6149" d="M230.87,358l2.191,26.8a5.94,5.94,0,0,0,5.894,5.432h47.977a5.94,5.94,0,0,0,5.894-5.432l2.2-26.8Zm12.039,22.3a2.191,2.191,0,1,1-4.383,0V364.151a2.191,2.191,0,1,1,4.383,0Zm11.115,0a2.191,2.191,0,1,1-4.383,0V364.151a2.191,2.191,0,1,1,4.383,0Zm11.115,0a2.191,2.191,0,0,1-4.383,0V364.151a2.191,2.191,0,0,1,4.383,0Zm11.115,0a2.2,2.2,0,0,1-4.389,0V364.151a2.2,2.2,0,0,1,4.389,0Zm11.108,0a2.191,2.191,0,1,1-4.383,0V364.151a2.191,2.191,0,1,1,4.383,0Z" transform="translate(-227.002 -328.464)" fill="#263238"/>
    <path id="Path_6150" data-name="Path 6150" d="M230.87,358l2.191,26.8a5.94,5.94,0,0,0,5.894,5.432h47.977a5.94,5.94,0,0,0,5.894-5.432l2.2-26.8Zm12.039,22.3a2.191,2.191,0,1,1-4.383,0V364.151a2.191,2.191,0,1,1,4.383,0Zm11.115,0a2.191,2.191,0,1,1-4.383,0V364.151a2.191,2.191,0,1,1,4.383,0Zm11.115,0a2.191,2.191,0,0,1-4.383,0V364.151a2.191,2.191,0,0,1,4.383,0Zm11.115,0a2.2,2.2,0,0,1-4.389,0V364.151a2.2,2.2,0,0,1,4.389,0Zm11.108,0a2.191,2.191,0,1,1-4.383,0V364.151a2.191,2.191,0,1,1,4.383,0Z" transform="translate(-227.002 -328.464)" fill="#fff" opacity="0.7"/>
    <path id="Path_6151" data-name="Path 6151" d="M305.51,347.885l8.759-3.135,12.692,3.135,2.97,15.834-10.4,1.327-3.63-15.676Z" transform="translate(-252.378 -323.959)" fill="#92278f"/>
    <path id="Path_6152" data-name="Path 6152" d="M325.26,372.04l.772,2.64,11.333-1.65-.719-2.7Z" transform="translate(-259.092 -332.656)" fill="#92278f"/>
    <path id="Path_6153" data-name="Path 6153" d="M325.26,372.04l.772,2.64,11.333-1.65-.719-2.7Z" transform="translate(-259.092 -332.656)" fill="#fff" opacity="0.6"/>
    <path id="Path_6154" data-name="Path 6154" d="M328.3,367.351a.851.851,0,1,1-.851-.852A.851.851,0,0,1,328.3,367.351Z" transform="translate(-259.548 -331.354)" fill="#fff" opacity="0.7"/>
    <path id="Path_6155" data-name="Path 6155" d="M326.383,360.978a.851.851,0,1,1-.247-.606A.851.851,0,0,1,326.383,360.978Z" transform="translate(-258.895 -329.185)" fill="#fff" opacity="0.7"/>
  </g>
  <g id="freepik--Rack--inject-73" transform="translate(67.395 76.26)">
    <path id="Path_6158" data-name="Path 6158" d="M277.361,333.357H266.695V210.8a11.319,11.319,0,0,0-11.306-11.313H126.683A11.319,11.319,0,0,0,115.377,210.8V333.357h-10.7a2.568,2.568,0,0,0-2.568,2.561v.429h28.54v-.429a2.561,2.561,0,0,0-2.561-2.561H117.436V210.8a9.24,9.24,0,0,1,9.24-9.24H255.382a9.24,9.24,0,0,1,9.24,9.24V333.357H253.949a2.568,2.568,0,0,0-2.568,2.561v.429h28.546v-.429a2.567,2.567,0,0,0-2.567-2.561Z" transform="translate(-102.11 -180.382)" fill="#263238"/>
    <path id="Path_6159" data-name="Path 6159" d="M277.361,333.357H266.695V210.8a11.319,11.319,0,0,0-11.306-11.313H126.683A11.319,11.319,0,0,0,115.377,210.8V333.357h-10.7a2.568,2.568,0,0,0-2.568,2.561v.429h28.54v-.429a2.561,2.561,0,0,0-2.561-2.561H117.436V210.8a9.24,9.24,0,0,1,9.24-9.24H255.382a9.24,9.24,0,0,1,9.24,9.24V333.357H253.949a2.568,2.568,0,0,0-2.568,2.561v.429h28.546v-.429a2.567,2.567,0,0,0-2.567-2.561Z" transform="translate(-102.11 -180.382)" fill="#fff" opacity="0.4"/>
    <path id="Path_6160" data-name="Path 6160" d="M185.462,203.26a2.923,2.923,0,0,1,.132-.66h-1.069a4.878,4.878,0,0,0-.106.66C184.366,203.927,185.409,203.92,185.462,203.26Z" transform="translate(-130.092 -181.44)" fill="#263238"/>
    <path id="Path_6161" data-name="Path 6161" d="M197.153,217.8l-14.012-8.409v-4.006c2.9-.62,4.561-4.086,2.185-6.462a3.61,3.61,0,0,0-5.241,0h2.1a2.468,2.468,0,0,1,2.35.8,2.779,2.779,0,0,1-1.914,4.713.528.528,0,0,0-.521.515v4.449l-13.966,8.4c-.574.343-.053,1.247.521.9l6.831-4.105,4.963-2.983c.561-.337,1.168-.66,1.7-1.023.112-.079.4-.211.554-.3.35.29,1.564.99,1.9,1.188q2.449,1.478,4.9,2.944l7.122,4.284a.521.521,0,0,0,.528-.9Z" transform="translate(-124.471 -179.805)" fill="#263238"/>
    <path id="Path_6162" data-name="Path 6162" d="M191.356,247.137l1.32,25.319-36.2-.271.772-24L152.408,282.3l-9.168-1.109a184.293,184.293,0,0,1,3.835-34.751c3.841-17.5,12.937-20.494,12.937-20.494a33.068,33.068,0,0,0,28.5,0s10.026,2.713,12.541,17.992,3.888,37.516,3.888,37.516l-9.168.832Z" transform="translate(-116.093 -189.378)" fill="#92278f"/>
    <g id="Group_502" data-name="Group 502" transform="translate(34.077 60.729)" opacity="0.2">
      <path id="Path_6163" data-name="Path 6163" d="M153.74,294.462l2.238.271,4.567-32.183a17.814,17.814,0,0,0-2.713,7.207C156.671,275.658,154.611,288.806,153.74,294.462Z" transform="translate(-153.74 -262.55)"/>
    </g>
    <g id="Group_503" data-name="Group 503" transform="translate(75.567 60.214)" opacity="0.2">
      <path id="Path_6164" data-name="Path 6164" d="M223.827,294.184c-.878-5.663-2.931-18.8-4.092-24.692-.884-4.462-2.191-6.66-3.135-7.722l4.1,32.7Z" transform="translate(-216.6 -261.77)"/>
    </g>
    <g id="Group_504" data-name="Group 504" transform="translate(40.612 69.904)" opacity="0.8">
      <path id="Path_6165" data-name="Path 6165" d="M198.912,276.45h-35.08l-.191,5.887h35.569Z" transform="translate(-163.64 -276.45)" fill="#fff"/>
    </g>
    <path id="Path_6166" data-name="Path 6166" d="M168.9,236.11l-3.3,11.26S164.238,240.611,168.9,236.11Z" transform="translate(-123.633 -192.832)" opacity="0.1"/>
    <path id="Path_6167" data-name="Path 6167" d="M210.78,236.11l3.3,11.26S215.453,240.611,210.78,236.11Z" transform="translate(-139.055 -192.832)" opacity="0.1"/>
    <path id="Path_6168" data-name="Path 6168" d="M211.235,203.26a3.372,3.372,0,0,1,.132-.66H210.3a3.962,3.962,0,0,0-.106.66C210.139,203.927,211.176,203.92,211.235,203.26Z" transform="translate(-138.856 -181.439)" fill="#263238"/>
    <path id="Path_6169" data-name="Path 6169" d="M222.921,217.8l-13.993-8.409v-4.006c2.9-.62,4.561-4.086,2.185-6.462a3.6,3.6,0,0,0-5.234,0h2.1a2.455,2.455,0,0,1,2.343.8,2.779,2.779,0,0,1-1.907,4.713.528.528,0,0,0-.521.515v4.449l-14.012,8.4a.521.521,0,0,0,.528.9l6.825-4.105,4.963-2.983c.568-.337,1.175-.66,1.709-1.023.112-.079.4-.211.548-.3.35.29,1.571.99,1.9,1.188l4.911,2.964,7.128,4.284C222.967,219.051,223.488,218.14,222.921,217.8Z" transform="translate(-133.23 -179.806)" fill="#263238"/>
    <path id="Path_6170" data-name="Path 6170" d="M188.365,226a33.054,33.054,0,0,0,28.493,0s9.821,3.822,13.2,18.8l-10.336,2.383,1.32,25.319-36.17-.284.779-24-9.042-3.1S178.517,229.333,188.365,226Z" transform="translate(-127.438 -189.395)" fill="#92278f"/>
    <path id="Path_6171" data-name="Path 6171" d="M188.365,226a33.054,33.054,0,0,0,28.493,0s9.821,3.822,13.2,18.8l-10.336,2.383,1.32,25.319-36.17-.284.779-24-9.042-3.1S178.517,229.333,188.365,226Z" transform="translate(-127.438 -189.395)" fill="#fff" opacity="0.5"/>
    <path id="Path_6172" data-name="Path 6172" d="M188.13,254.542l1.28.442.739-8.884Z" transform="translate(-131.354 -196.228)" opacity="0.2"/>
    <path id="Path_6173" data-name="Path 6173" d="M240.02,242.56l1.241,10.224,2.013-.462Z" transform="translate(-148.996 -195.025)" opacity="0.2"/>
    <ellipse id="Ellipse_30" data-name="Ellipse 30" cx="11.319" cy="4.62" rx="11.319" ry="4.62" transform="translate(63.878 46.407)" fill="#92278f"/>
    <path id="Path_6174" data-name="Path 6174" d="M258.462,203.26a2.924,2.924,0,0,1,.132-.66h-1.063a3.96,3.96,0,0,0-.112.66C257.373,203.927,258.416,203.92,258.462,203.26Z" transform="translate(-154.91 -181.44)" fill="#263238"/>
    <path id="Path_6175" data-name="Path 6175" d="M270.149,217.8l-14.019-8.409v-4.006c2.9-.62,4.561-4.086,2.185-6.462a3.617,3.617,0,0,0-5.241,0h2.105a2.455,2.455,0,0,1,2.343.8,2.779,2.779,0,0,1-1.914,4.713.521.521,0,0,0-.515.515V209.4L241.1,217.8c-.574.343-.053,1.247.521.9l6.831-4.105,4.963-2.983c.561-.337,1.175-.66,1.71-1.023.112-.079.4-.211.548-.3.35.29,1.571.99,1.9,1.188l4.9,2.944L269.6,218.7A.529.529,0,0,0,270.149,217.8Z" transform="translate(-149.279 -179.807)" fill="#263238"/>
    <path id="Path_6176" data-name="Path 6176" d="M277.936,274.588s-1.386-22.23-3.888-37.516a26.488,26.488,0,0,0-5.221-12.607,14.58,14.58,0,0,0-11.366-5.386h-4.944l-2.878,3.01H244.79l-2.541-3.01h-2.858a17.227,17.227,0,0,0-15.049,8.759,42.527,42.527,0,0,0-4.251,11.735,183.992,183.992,0,0,0-3.841,34.737l9.174,1.109,4.838-34.117-.554,40.777,36.169.284-1.511-42.1,4.4,35.153Z" transform="translate(-140.914 -187.042)" fill="#263238"/>
    <path id="Path_6177" data-name="Path 6177" d="M232.99,243.059c-.343,4.62-6.93,39.522-6.93,39.522l1.723.475.977.119,4.838-34.117S233.34,238.432,232.99,243.059Z" transform="translate(-144.25 -194.798)" opacity="0.2"/>
    <path id="Path_6178" data-name="Path 6178" d="M295.74,282.954c-.911-6.376-3.214-22.494-4.62-31.259-1.729-11.088-2.02-9.828-2.02-9.828V248l4.4,35.153Z" transform="translate(-165.681 -194.775)" opacity="0.2"/>
    <path id="Path_6179" data-name="Path 6179" d="M254.415,217.91l5.1,3.313,4.653-3.313,2.911.561-3.36,6.613-4.2-2.468-4.653,2.468-2.574-6.613Z" transform="translate(-153.167 -186.645)" fill="#263238"/>
    <path id="Path_6180" data-name="Path 6180" d="M254.415,217.91l5.1,3.313,4.653-3.313,2.911.561-3.36,6.613-4.2-2.468-4.653,2.468-2.574-6.613Z" transform="translate(-153.167 -186.645)" fill="#fff" opacity="0.2"/>
    <path id="Path_6181" data-name="Path 6181" d="M215.34,300.86l10.356,1.32-.35,2.224L215.34,303.15Z" transform="translate(-140.605 -214.845)" fill="#263238"/>
    <path id="Path_6182" data-name="Path 6182" d="M215.34,300.86l10.356,1.32-.35,2.224L215.34,303.15Z" transform="translate(-140.605 -214.845)" fill="#fff" opacity="0.2"/>
    <path id="Path_6183" data-name="Path 6183" d="M305.019,301.14l-10.389.95.264,2.238,10.283-.917Z" transform="translate(-167.561 -214.94)" fill="#263238"/>
    <path id="Path_6184" data-name="Path 6184" d="M305.019,301.14l-10.389.95.264,2.238,10.283-.917Z" transform="translate(-167.561 -214.94)" fill="#fff" opacity="0.2"/>
    <path id="Path_6185" data-name="Path 6185" d="M263.387,243.228a.838.838,0,1,1-.838-.838.838.838,0,0,1,.838.838Z" transform="translate(-156.37 -194.967)" fill="#fff" opacity="0.7"/>
    <path id="Path_6186" data-name="Path 6186" d="M263.9,262.825a.845.845,0,1,1-.838-.825.845.845,0,0,1,.838.825Z" transform="translate(-156.54 -201.634)" fill="#fff" opacity="0.7"/>
    <path id="Path_6187" data-name="Path 6187" d="M264.66,283.108a.845.845,0,1,1-.845-.838A.845.845,0,0,1,264.66,283.108Z" transform="translate(-156.798 -208.525)" fill="#fff" opacity="0.7"/>
    <path id="Path_6188" data-name="Path 6188" d="M264.66,303.858a.838.838,0,1,1-.248-.6.845.845,0,0,1,.248.6Z" transform="translate(-156.798 -215.58)" fill="#fff" opacity="0.7"/>
    <path id="Path_6189" data-name="Path 6189" d="M289.565,203.26a3.369,3.369,0,0,1,.132-.66h-1.063a4.874,4.874,0,0,0-.106.66C288.469,203.927,289.5,203.92,289.565,203.26Z" transform="translate(-165.486 -181.439)" fill="#263238"/>
    <path id="Path_6190" data-name="Path 6190" d="M301.245,217.8l-13.986-8.409v-4.006c2.9-.62,4.554-4.086,2.178-6.462a3.6,3.6,0,0,0-5.234,0h2.1a2.468,2.468,0,0,1,2.35.8,2.779,2.779,0,0,1-1.914,4.713.528.528,0,0,0-.521.515v4.449L272.224,217.8c-.568.343-.046,1.247.528.9l6.825-4.105,4.963-2.983c.568-.337,1.175-.66,1.709-1.023.112-.079.4-.211.548-.3.35.29,1.571.99,1.9,1.188l4.9,2.944q3.551,2.145,7.122,4.284C301.3,219.051,301.82,218.14,301.245,217.8Z" transform="translate(-159.861 -179.806)" fill="#263238"/>
    <path id="Path_6191" data-name="Path 6191" d="M269.166,227.033l4.02-3.393s5.564,4.8,12.58,4.046a34.916,34.916,0,0,0,12.58-4.046l3.36,2.488s-4.818,7.518.812,16.685l-.845,28.144H270.361l-1.241-28.771S275.641,234.181,269.166,227.033Z" transform="translate(-158.889 -188.593)" fill="#92278f"/>
    <path id="Path_6192" data-name="Path 6192" d="M302.484,260.006l-.066-.066-5.518,5.511-5.511-5.511-5.511,5.511-5.511-5.511-5.518,5.511-5.4-5.406.218,5.115,5.181,5.181,5.518-5.511,5.511,5.511,5.511-5.511,5.511,5.511,5.432-5.432Z" transform="translate(-159.001 -200.934)" fill="#fff" opacity="0.5"/>
    <path id="Path_6193" data-name="Path 6193" d="M302.445,267.429l-5.432,5.432L291.5,267.35l-5.511,5.511-5.511-5.511-5.518,5.511-5.181-5.181.224,5.109,4.957,4.963,5.518-5.518,5.511,5.518,5.511-5.518,5.511,5.518,5.28-5.28Z" transform="translate(-159.113 -203.453)" fill="#fff" opacity="0.7"/>
    <path id="Path_6194" data-name="Path 6194" d="M302.409,274.988l-5.28,5.28-5.511-5.518-5.511,5.518-5.511-5.518-5.518,5.518L270.12,275.3l.218,5.109,4.739,4.746,5.518-5.518,5.511,5.518,5.511-5.518,5.511,5.518,5.128-5.128Z" transform="translate(-159.229 -205.968)" fill="#fff" opacity="0.9"/>
    <rect id="Rectangle_253" data-name="Rectangle 253" width="37.773" height="13.194" rx="2.8" transform="translate(72.227)" fill="#92278f"/>
    <rect id="Rectangle_254" data-name="Rectangle 254" width="2.64" height="6.58" transform="translate(89.797 12.527)" fill="#92278f"/>
    <path id="Path_6195" data-name="Path 6195" d="M233.688,177.365v-2.086L232.658,177H232.3l-1.023-1.683v2.046h-.752V173.88h.66l1.32,2.165,1.28-2.165h.66v3.485Z" transform="translate(-145.766 -171.675)" fill="#fff"/>
    <path id="Path_6196" data-name="Path 6196" d="M237.72,173.88h.845v3.485h-.812Z" transform="translate(-148.214 -171.675)" fill="#fff"/>
    <path id="Path_6197" data-name="Path 6197" d="M243.368,173.88v3.485h-.66l-1.736-2.112v2.112H240.2V173.88h.66L242.6,176V173.88Z" transform="translate(-149.057 -171.675)" fill="#fff"/>
    <path id="Path_6198" data-name="Path 6198" d="M246.815,174.54H245.7v-.66h3.036v.66h-1.115v2.825h-.805Z" transform="translate(-150.927 -171.675)" fill="#fff"/>
    <path id="Path_6199" data-name="Path 6199" d="M218.244,184.942a1.716,1.716,0,0,1-.66-.66,1.894,1.894,0,0,1,0-1.861,1.716,1.716,0,0,1,.66-.66,2.02,2.02,0,0,1,.964-.231,2.066,2.066,0,0,1,.825.158,1.578,1.578,0,0,1,.614.462l-.521.475a1.109,1.109,0,0,0-.871-.409,1.135,1.135,0,0,0-.581.145.957.957,0,0,0-.4.4,1.155,1.155,0,0,0-.139.574,1.2,1.2,0,0,0,.139.581,1.037,1.037,0,0,0,.4.4,1.2,1.2,0,0,0,.581.139,1.109,1.109,0,0,0,.871-.409l.521.475a1.6,1.6,0,0,1-.62.462,2.033,2.033,0,0,1-.818.158A1.98,1.98,0,0,1,218.244,184.942Z" transform="translate(-141.285 -174.276)" fill="#fff"/>
    <path id="Path_6200" data-name="Path 6200" d="M223.654,184.954a1.736,1.736,0,0,1-.924-1.571,1.756,1.756,0,0,1,.244-.924,1.782,1.782,0,0,1,.66-.66,2.2,2.2,0,0,1,1.98,0,1.828,1.828,0,0,1,.66.66,1.782,1.782,0,0,1-.66,2.495,2.2,2.2,0,0,1-1.98,0Zm1.538-.594a1.069,1.069,0,0,0,.389-.4,1.136,1.136,0,0,0,.145-.581,1.1,1.1,0,0,0-.145-.574.977.977,0,0,0-.389-.4,1.142,1.142,0,0,0-1.115,0,.977.977,0,0,0-.389.4,1.1,1.1,0,0,0-.145.574,1.135,1.135,0,0,0,.145.581,1.069,1.069,0,0,0,.389.4,1.2,1.2,0,0,0,1.115,0Z" transform="translate(-143.117 -174.288)" fill="#fff"/>
    <path id="Path_6201" data-name="Path 6201" d="M232.625,181.68v3.511h-.66l-1.742-2.112v2.112h-.792v-3.485h.66l1.729,2.119v-2.119Z" transform="translate(-145.395 -174.327)" fill="#fff"/>
    <path id="Path_6202" data-name="Path 6202" d="M235.52,181.68H237.1a2.2,2.2,0,0,1,1,.218,1.6,1.6,0,0,1,.66.607,1.848,1.848,0,0,1,0,1.835,1.525,1.525,0,0,1-.66.607,2.2,2.2,0,0,1-1,.218H235.52Zm1.544,2.825a1.2,1.2,0,0,0,.838-.29,1.056,1.056,0,0,0,.31-.792,1.03,1.03,0,0,0-.31-.785,1.175,1.175,0,0,0-.838-.3h-.733v2.191Z" transform="translate(-147.466 -174.327)" fill="#fff"/>
    <path id="Path_6203" data-name="Path 6203" d="M241.76,181.68h.818v3.511h-.805Z" transform="translate(-149.587 -174.327)" fill="#fff"/>
    <path id="Path_6204" data-name="Path 6204" d="M244.755,182.34H243.64v-.66h3.036v.66h-1.115v2.851h-.805Z" transform="translate(-150.226 -174.327)" fill="#fff"/>
    <path id="Path_6205" data-name="Path 6205" d="M248.9,181.68h.805v3.511H248.9Z" transform="translate(-152.015 -174.327)" fill="#fff"/>
    <path id="Path_6206" data-name="Path 6206" d="M251.981,184.952a1.825,1.825,0,0,1,0-3.155,2.178,2.178,0,0,1,1.98,0,1.791,1.791,0,0,1,0,3.142,2.178,2.178,0,0,1-1.98,0Zm1.538-.594a1.122,1.122,0,0,0,.389-.4,1.2,1.2,0,0,0,.139-.581,1.155,1.155,0,0,0-.139-.574,1.023,1.023,0,0,0-.389-.4,1.1,1.1,0,0,0-.561-.145,1.056,1.056,0,0,0-.554.145,1,1,0,0,0-.4.4,1.155,1.155,0,0,0-.139.574,1.2,1.2,0,0,0,.139.581,1.082,1.082,0,0,0,.4.4,1.116,1.116,0,0,0,.554.139A1.162,1.162,0,0,0,253.519,184.358Z" transform="translate(-152.752 -174.286)" fill="#fff"/>
    <path id="Path_6207" data-name="Path 6207" d="M260.945,181.68v3.511h-.66l-1.736-2.112v2.112h-.8v-3.485h.66l1.736,2.119v-2.119Z" transform="translate(-155.023 -174.327)" fill="#fff"/>
  </g>
  <g id="freepik--character-2--inject-73" transform="translate(210.437 69.841)">
    <path id="Path_6208" data-name="Path 6208" d="M384.024,244.43s-8.58,34.876-10.56,46.684c-1.921,11.636-4.924,46.921-4.924,46.921l9.148,1.406s5.557-34.368,9.148-45.278c2.732-8.3,12.323-22.85,14.309-31.2,1.036-4.336,0-17.821,0-17.821Z" transform="translate(-335.73 -189.242)" fill="#313131"/>
    <path id="Path_6209" data-name="Path 6209" d="M370.59,387.58l-1.03,9.306,4.752.561,1.657-9.306Z" transform="translate(-336.077 -237.91)" fill="#ffb573"/>
    <path id="Path_6210" data-name="Path 6210" d="M364.476,400.759a2.356,2.356,0,0,1-1.564-.587.5.5,0,0,1,.073-.561.66.66,0,0,1,.436-.257c.937-.152,2.726,1.129,2.805,1.188a.119.119,0,0,1,.046.139.132.132,0,0,1-.112.1A10.237,10.237,0,0,1,364.476,400.759Zm-.759-1.155a1.078,1.078,0,0,0-.251,0,.37.37,0,0,0-.271.152c-.112.152-.086.231-.053.284.211.383,1.584.535,2.64.515A5.9,5.9,0,0,0,363.717,399.6Z" transform="translate(-333.798 -241.908)" fill="#92278f"/>
    <path id="Path_6211" data-name="Path 6211" d="M366.954,400.177a.053.053,0,0,1-.053,0c-.62-.356-1.808-1.676-1.63-2.277.033-.145.158-.31.521-.31a.964.964,0,0,1,.693.3,3.556,3.556,0,0,1,.627,2.2.106.106,0,0,1-.158.106Zm-1.1-2.317h-.073c-.238,0-.264.086-.277.119-.066.37.693,1.386,1.32,1.855a3.069,3.069,0,0,0-.548-1.749.7.7,0,0,0-.429-.211Z" transform="translate(-334.612 -241.313)" fill="#92278f"/>
    <path id="Path_6212" data-name="Path 6212" d="M364.324,400.439l5.94.62a.475.475,0,0,1,.422.429l.568,4.95a.8.8,0,0,1-.66.891h-.211c-2.138-.264-4.033-.581-6.706-.858-3.148-.33-2.389.132-6.1-.2-2.238-.2-2.383-2.785-1.419-2.812,4.389-.092,4.977-1.32,6.8-2.726A1.98,1.98,0,0,1,364.324,400.439Z" transform="translate(-331.329 -242.274)" fill="#263238"/>
    <path id="Path_6213" data-name="Path 6213" d="M399.969,270.163c-4.574,10.125-4.059,26.223-3.756,31.4,1.485-4.462,4.924-10.719,8.1-16.844l-.475-5.531S405.48,257.966,399.969,270.163Z" transform="translate(-345.074 -196.706)" opacity="0.1"/>
    <path id="Path_6214" data-name="Path 6214" d="M366.833,383.23l-.073,3.465,11.1,1.7.792-3.254Z" transform="translate(-335.125 -236.431)" fill="#171717"/>
    <path id="Path_6215" data-name="Path 6215" d="M366.833,383.23l-.073,3.465,11.1,1.7.792-3.254Z" transform="translate(-335.125 -236.431)" fill="#fff" opacity="0.3"/>
    <path id="Path_6216" data-name="Path 6216" d="M401.263,244.82s-.891,35.7-.706,47.6,2.191,47.152,2.191,47.152h9.313s1.056-35.4,2.112-47.152,5.94-27.451-2.112-47.159Z" transform="translate(-346.606 -189.375)" fill="#313131"/>
    <path id="Path_6217" data-name="Path 6217" d="M407.03,388.92v8.91h4.878l.64-8.91Z" transform="translate(-348.816 -238.365)" fill="#ffb573"/>
    <path id="Path_6218" data-name="Path 6218" d="M402.047,401.812a2.324,2.324,0,0,1-1.6-.436.475.475,0,0,1,0-.561.7.7,0,0,1,.409-.3c.917-.244,2.825.865,2.9.917a.132.132,0,0,1,.066.132.125.125,0,0,1-.106.106A9.557,9.557,0,0,1,402.047,401.812Zm-.858-1.076a1.044,1.044,0,0,0-.251,0,.369.369,0,0,0-.257.185c-.1.158-.066.238,0,.284.251.356,1.63.376,2.64.257a6.077,6.077,0,0,0-2.132-.726Z" transform="translate(-346.545 -242.294)" fill="#92278f"/>
    <path id="Path_6219" data-name="Path 6219" d="M404.452,401.006a.053.053,0,0,1-.053,0c-.66-.3-1.98-1.492-1.835-2.112,0-.145.125-.323.488-.356a.957.957,0,0,1,.719.224,3.718,3.718,0,0,1,.832,2.132.125.125,0,0,1-.059.112A.112.112,0,0,1,404.452,401.006Zm-1.32-2.231h-.079c-.231,0-.251.112-.257.145-.04.37.818,1.32,1.492,1.716a3.05,3.05,0,0,0-.713-1.69.66.66,0,0,0-.442-.165Z" transform="translate(-347.294 -241.633)" fill="#92278f"/>
    <path id="Path_6220" data-name="Path 6220" d="M402.04,401.129l5.986.053a.482.482,0,0,1,.462.383l1.043,4.878a.8.8,0,0,1-.614.95.7.7,0,0,1-.165,0c-2.158-.059-4.072-.191-6.759-.211-3.168,0-2.369.356-6.092.376-2.244,0-2.64-2.548-1.683-2.64,4.363-.508,4.825-1.822,6.521-3.366a1.908,1.908,0,0,1,1.3-.422Z" transform="translate(-344.294 -242.515)" fill="#263238"/>
    <path id="Path_6221" data-name="Path 6221" d="M401.68,385.56l.4,3.445,11.227.172.343-3.333Z" transform="translate(-346.997 -237.223)" fill="#171717"/>
    <path id="Path_6222" data-name="Path 6222" d="M401.68,385.56l.4,3.445,11.227.172.343-3.333Z" transform="translate(-346.997 -237.223)" fill="#fff" opacity="0.3"/>
    <path id="Path_6223" data-name="Path 6223" d="M412.13,192.09l5.28,1.2c-.409-2.29.66-5.28,1.571-7.452l-6.363,3.492A4.068,4.068,0,0,1,412.13,192.09Z" transform="translate(-350.549 -169.324)" fill="#ffb573"/>
    <path id="Path_6224" data-name="Path 6224" d="M416.642,188l-3.749,2.092a8.822,8.822,0,0,1-.053,1.617c1.247.079,3.353-.554,3.881-1.815A3.842,3.842,0,0,0,416.642,188Z" transform="translate(-350.791 -170.058)" opacity="0.2"/>
    <path id="Path_6225" data-name="Path 6225" d="M421.7,174.607c-2.218,4.369-3.069,6.264-6.336,7.577-4.911,1.98-9.788-1.709-8.917-6.653.792-4.449,4.31-10.864,9.471-10.712a6.673,6.673,0,0,1,5.782,9.788Z" transform="translate(-348.583 -162.176)" fill="#ffb573"/>
    <path id="Path_6226" data-name="Path 6226" d="M417.51,176.269c-.165.363-.488.574-.719.475s-.3-.488-.152-.851.488-.574.719-.475S417.649,175.912,417.51,176.269Z" transform="translate(-352.055 -165.772)" fill="#263238"/>
    <path id="Path_6227" data-name="Path 6227" d="M411.26,173.548c-.158.37-.482.574-.719.475s-.3-.488-.145-.851.482-.581.719-.475S411.425,173.191,411.26,173.548Z" transform="translate(-349.93 -164.846)" fill="#263238"/>
    <path id="Path_6228" data-name="Path 6228" d="M411.276,172.49l-.766-.66S410.662,172.741,411.276,172.49Z" transform="translate(-349.999 -164.56)" fill="#263238"/>
    <path id="Path_6229" data-name="Path 6229" d="M412.053,175.86a11,11,0,0,1-2.323,1.762,1.756,1.756,0,0,0,1.2.812Z" transform="translate(-349.733 -165.931)" fill="#ed893e"/>
    <path id="Path_6230" data-name="Path 6230" d="M413.3,182.959a3.235,3.235,0,0,1-.554-.191.119.119,0,0,1-.066-.152h0a.119.119,0,0,1,.158-.059,3.188,3.188,0,0,0,2.851-.106.114.114,0,1,1,.125.191A3.254,3.254,0,0,1,413.3,182.959Z" transform="translate(-350.732 -168.165)" fill="#263238"/>
    <path id="Path_6231" data-name="Path 6231" d="M420.278,175.284a.238.238,0,0,1-.178-.218,2.765,2.765,0,0,0-1.247-1.822.244.244,0,0,1-.079-.33.231.231,0,0,1,.317-.073h0a3.2,3.2,0,0,1,1.472,2.2.231.231,0,0,1-.218.244h-.073Z" transform="translate(-352.796 -164.893)" fill="#263238"/>
    <path id="Path_6232" data-name="Path 6232" d="M411.038,170.027a.264.264,0,0,1-.172-.172.244.244,0,0,1,.165-.29,2.3,2.3,0,0,1,2.125.389.224.224,0,0,1,.033.31h0a.231.231,0,0,1-.323,0h0a1.861,1.861,0,0,0-1.67-.271.251.251,0,0,1-.158.033Z" transform="translate(-350.118 -163.754)" fill="#263238"/>
    <path id="Path_6233" data-name="Path 6233" d="M417.526,175.25l-.766-.66S416.918,175.468,417.526,175.25Z" transform="translate(-352.124 -165.499)" fill="#263238"/>
    <path id="Path_6234" data-name="Path 6234" d="M421.255,169.34a7.306,7.306,0,0,1-7.221-2.818l2.818.449-6.343-2.818a12.844,12.844,0,0,1,4.937-2.2l-1.412-.964s10.039-2.026,10.917,7.742a5.559,5.559,0,0,1-1.063,4.218C422.391,174.593,421.255,169.34,421.255,169.34Z" transform="translate(-349.999 -160.816)" fill="#263238"/>
    <path id="Path_6235" data-name="Path 6235" d="M427.457,174.35s-2.323,3.036-1.591,6.158c0,0,3.96-2.4,4.218-5.683C430.388,170.6,427.457,174.35,427.457,174.35Z" transform="translate(-355.171 -164.896)" fill="#263238"/>
    <path id="Path_6236" data-name="Path 6236" d="M427.291,184.276a3.491,3.491,0,0,1-2.429,1.129c-1.234.033-1.564-1.142-.97-2.158.541-.911,1.822-2.026,2.95-1.6a1.591,1.591,0,0,1,.851,2.072,1.564,1.564,0,0,1-.4.561Z" transform="translate(-354.451 -167.865)" fill="#ffb573"/>
    <path id="Path_6237" data-name="Path 6237" d="M426.774,186.3a2.851,2.851,0,0,1,.3,2.079c-.165.66-.739,1.551-1.5.957-.878-.693-.917-3.366.482-3.5.2,0,.2-.337,0-.317-1.749.178-1.822,3.3-.594,4.145a1.115,1.115,0,0,0,1.617-.462,3.1,3.1,0,0,0,0-3.056.16.16,0,1,0-.277.158Z" transform="translate(-354.798 -169.214)" fill="#263238"/>
    <g id="Group_505" data-name="Group 505" transform="translate(69.829 16.304)" opacity="0.5">
      <path id="Path_6238" data-name="Path 6238" d="M426.774,186.3a2.851,2.851,0,0,1,.3,2.079c-.165.66-.739,1.551-1.5.957-.878-.693-.917-3.366.482-3.5.2,0,.2-.337,0-.317-1.749.178-1.822,3.3-.594,4.145a1.115,1.115,0,0,0,1.617-.462,3.1,3.1,0,0,0,0-3.056.16.16,0,1,0-.277.158Z" transform="translate(-424.628 -185.519)" fill="#fff"/>
    </g>
    <path id="Path_6239" data-name="Path 6239" d="M357.579,189.01l-3.756-3.756.66-3.617a1.894,1.894,0,0,0-.66-1.775l-1.393-1.175-.158-.442a1.894,1.894,0,0,0-2.964-.838h0a1.98,1.98,0,0,0-.462.535l-1.637,2.845a1.874,1.874,0,0,0-.165,1.5l.924,2.964,2.581,1.525,3.525,5.043Z" transform="translate(-328.393 -166.316)" fill="#ffb573"/>
    <path id="Path_6240" data-name="Path 6240" d="M384.779,196.134a.964.964,0,0,0-1.32-.693c-1.445.607-4.772,2.086-12.29,5.65-2.231,1.056-7.557-3.828-11.148-8.58l-4.792,4.284s8.58,11.438,14.072,11.557,16.54-7.26,16.54-7.26Z" transform="translate(-331.205 -171.591)" fill="#263238"/>
    <path id="Path_6241" data-name="Path 6241" d="M387.2,209.124a68.841,68.841,0,0,0,7.538-4.053v-1.9l-2.561-2.64A44.959,44.959,0,0,0,387.2,209.124Z" transform="translate(-342.074 -174.318)" opacity="0.5"/>
    <path id="Path_6242" data-name="Path 6242" d="M390.154,230.478s-.818-13.722,1.162-24.164,2.343-11.729,14.072-8.8,12.085,2.231,10.323,7.98c-1.512,4.937-4.336,19.141-5.511,25.8Z" transform="translate(-343.021 -172.829)" fill="#263238"/>
    <path id="Path_6243" data-name="Path 6243" d="M409.42,195.45l.66-1.142a2.759,2.759,0,0,0,.383-1.406v-.62a.4.4,0,0,1,.568-.37,17.821,17.821,0,0,0,6.013,1.61.554.554,0,0,1,.475.779l-.33.752a2.33,2.33,0,0,0-.2.944v1.32A8.118,8.118,0,0,1,409.42,195.45Z" transform="translate(-349.628 -171.376)" fill="#263238"/>
    <path id="Path_6244" data-name="Path 6244" d="M410.31,198s1.432,2.178,6.125,1.551C416.435,199.564,410.864,202.845,410.31,198Z" transform="translate(-349.931 -173.458)" opacity="0.5"/>
    <path id="Path_6245" data-name="Path 6245" d="M411.075,252.25l-3.3,2.93H404.25a3.611,3.611,0,0,0-1.941.561l-1.234.766a2.792,2.792,0,0,0-.832,3.927l.469.7a2.8,2.8,0,0,0,4.145.548l1-.871.614-.152a3.591,3.591,0,0,0,2.436-2.073h0l4.033-2.937Z" transform="translate(-346.346 -191.901)" fill="#ffb573"/>
    <path id="Path_6246" data-name="Path 6246" d="M421.419,201.577s6.752,1.049,6.977,6.6,1.98,14.857.66,19.616-11.518,12.329-11.518,12.329l-2.838-4.944s8.257-6.125,8.264-12.937S418.522,200.62,421.419,201.577Z" transform="translate(-351.423 -174.659)" fill="#263238"/>
    <path id="Path_6247" data-name="Path 6247" d="M426,219.1a47.151,47.151,0,0,1,.779,7.036,8.867,8.867,0,0,1-.178,1.723c1.069-3.67.99-10.666.832-14.791C427.023,214.713,426.535,216.806,426,219.1Z" transform="translate(-355.265 -178.581)" opacity="0.5"/>
    <path id="Path_6248" data-name="Path 6248" d="M362.023,201.51q-7.1-4.29-14.21-8.58v-4.072c2.944-.66,4.62-4.145,2.218-6.561-2.554-2.554-6.343-.515-6.64,2.746-.059.66,1,.66,1.056,0,.211-2.323,2.99-3.861,4.785-1.94a2.825,2.825,0,0,1-1.941,4.812.535.535,0,0,0-.528.528v4.488l-14.21,8.58a.528.528,0,0,0,.528.911l6.95-4.211,5.043-3.03c.568-.343,1.188-.66,1.736-1.043.112-.079.4-.211.554-.31.356.3,1.591,1.01,1.934,1.214l4.97,2.99q3.624,2.165,7.26,4.35a.528.528,0,0,0,.5-.871Z" transform="translate(-323.418 -167.727)" fill="#263238"/>
    <path id="Path_6249" data-name="Path 6249" d="M362.023,201.51q-7.1-4.29-14.21-8.58v-4.072c2.944-.66,4.62-4.145,2.218-6.561-2.554-2.554-6.343-.515-6.64,2.746-.059.66,1,.66,1.056,0,.211-2.323,2.99-3.861,4.785-1.94a2.825,2.825,0,0,1-1.941,4.812.535.535,0,0,0-.528.528v4.488l-14.21,8.58a.528.528,0,0,0,.528.911l6.95-4.211,5.043-3.03c.568-.343,1.188-.66,1.736-1.043.112-.079.4-.211.554-.31.356.3,1.591,1.01,1.934,1.214l4.97,2.99q3.624,2.165,7.26,4.35a.528.528,0,0,0,.5-.871Z" transform="translate(-323.418 -167.727)" fill="#fff" opacity="0.5"/>
    <path id="Path_6250" data-name="Path 6250" d="M335.83,204.53s6.706,4.666,16.639,0c0,0,10.105,4.31,10.633,9.062s1.67,22.441,1.67,22.441h-7.65l.35,24.718H329.936l.97-24.718H321.23s2.31-23.009,4.759-25.893S335.83,204.53,335.83,204.53Z" transform="translate(-319.646 -175.678)" fill="#92278f"/>
    <path id="Path_6251" data-name="Path 6251" d="M342.238,204.53s-.891.33-2.158.878c1.247,1.261,4.2,3.439,9.841,3.61a17.511,17.511,0,0,0,11.049-3.485c-1.234-.66-2.092-1-2.092-1C348.944,209.2,342.238,204.53,342.238,204.53Z" transform="translate(-326.054 -175.678)" fill="#fff" opacity="0.3"/>
    <path id="Path_6252" data-name="Path 6252" d="M334.815,232.6l-2.535,12.884,2.383.086.455-12.97Z" transform="translate(-323.403 -185.221)" opacity="0.2"/>
    <path id="Path_6253" data-name="Path 6253" d="M319.358,250.12l-.528,2.726,11.188.429v-2.719Z" transform="translate(-318.83 -191.177)" fill="#92278f"/>
    <path id="Path_6254" data-name="Path 6254" d="M319.358,250.12l-.528,2.726,11.188.429v-2.719Z" transform="translate(-318.83 -191.177)" fill="#fff" opacity="0.3"/>
    <path id="Path_6255" data-name="Path 6255" d="M375,232.6l.4,12.97,1.379-.086L375.119,232.6Z" transform="translate(-337.926 -185.221)" opacity="0.2"/>
    <path id="Path_6256" data-name="Path 6256" d="M375.61,250.12v2.634h8.884l-.35-2.634Z" transform="translate(-338.134 -191.177)" fill="#92278f"/>
    <path id="Path_6257" data-name="Path 6257" d="M375.61,250.12v2.634h8.884l-.35-2.634Z" transform="translate(-338.134 -191.177)" fill="#fff" opacity="0.3"/>
    <path id="Path_6258" data-name="Path 6258" d="M361.945,281.88H334.679l-.079,2.112h27.378Z" transform="translate(-324.191 -201.974)" fill="#fff" opacity="0.3"/>
    <path id="Path_6259" data-name="Path 6259" d="M352.782,180.29v3.069l-2.673,2.6-1.432-.343-.647-2.495,2.033-2.528Z" transform="translate(-328.757 -167.437)" fill="#ffb573"/>
  </g>
  <g id="freepik--character-1--inject-73" transform="translate(23.584 61.731)">
    <path id="Path_6260" data-name="Path 6260" d="M49.618,406.24l-1.894,10.3H42.08l1.089-10.3Z" transform="translate(-37.89 -236.143)" fill="#ce7a63"/>
    <path id="Path_6261" data-name="Path 6261" d="M52.377,420.992a.158.158,0,0,1-.119-.125.132.132,0,0,1,.073-.152c.092-.059,2.3-1.32,3.353-1.063a.832.832,0,0,1,.482.35.574.574,0,0,1,0,.66,2.723,2.723,0,0,1-1.861.5A10.646,10.646,0,0,1,52.377,420.992Zm.488-.2c1.181.132,2.779.106,3.069-.3.04-.053.079-.145,0-.33a.409.409,0,0,0-.3-.211,1.379,1.379,0,0,0-.284-.033A6.884,6.884,0,0,0,52.865,420.787Z" transform="translate(-41.348 -240.691)" fill="#92278f"/>
    <path id="Path_6262" data-name="Path 6262" d="M52.286,420.212a.152.152,0,0,1-.066-.139,4.229,4.229,0,0,1,.964-2.462,1.122,1.122,0,0,1,.832-.264c.416.04.548.244.561.416.145.713-1.366,2.105-2.125,2.449h-.059A.191.191,0,0,1,52.286,420.212Zm1.63-2.581a.785.785,0,0,0-.515.2,3.485,3.485,0,0,0-.825,1.927c.779-.469,1.769-1.551,1.729-1.98,0,0-.033-.145-.3-.165Z" transform="translate(-41.337 -239.918)" fill="#92278f"/>
    <path id="Path_6263" data-name="Path 6263" d="M46.978,420.358l-6.924.066a.561.561,0,0,0-.541.442L38.319,426.5a.931.931,0,0,0,.706,1.109.9.9,0,0,0,.191,0c2.495-.066,4.713-.224,7.821-.244,3.663-.033,2.739.409,7.049.436,2.594,0,3.043-2.944,1.94-3.082-5.043-.587-5.577-2.105-7.538-3.894a2.271,2.271,0,0,0-1.511-.469Z" transform="translate(-36.603 -240.942)" fill="#263238"/>
    <path id="Path_6264" data-name="Path 6264" d="M42.78,413.227l5.881.568.587-3.208L43.9,409.32l-.772.535Z" transform="translate(-38.128 -237.19)" opacity="0.2"/>
    <path id="Path_6265" data-name="Path 6265" d="M86.035,406.24l-.508,10.3H79.884l-.3-10.3Z" transform="translate(-50.639 -236.143)" fill="#ce7a63"/>
    <path id="Path_6266" data-name="Path 6266" d="M90.337,420.992a.158.158,0,0,1-.119-.125.139.139,0,0,1,.066-.152c.1-.059,2.3-1.32,3.36-1.063a.832.832,0,0,1,.482.35.574.574,0,0,1,0,.66,2.723,2.723,0,0,1-1.861.5A10.646,10.646,0,0,1,90.337,420.992Zm.488-.2c1.181.132,2.779.106,3.069-.3.04-.053.079-.145-.033-.33a.409.409,0,0,0-.3-.211,1.4,1.4,0,0,0-.29-.033,6.9,6.9,0,0,0-2.449.878Z" transform="translate(-54.254 -240.691)" fill="#92278f"/>
    <path id="Path_6267" data-name="Path 6267" d="M90.246,420.212a.152.152,0,0,1-.066-.139,4.229,4.229,0,0,1,.964-2.462,1.122,1.122,0,0,1,.832-.264c.416.04.548.244.561.416.145.713-1.366,2.105-2.125,2.449h-.059A.191.191,0,0,1,90.246,420.212Zm1.63-2.581a.785.785,0,0,0-.515.2,3.485,3.485,0,0,0-.825,1.927c.779-.469,1.769-1.551,1.729-1.98,0,0,0-.145-.3-.165Z" transform="translate(-54.242 -239.918)" fill="#92278f"/>
    <path id="Path_6268" data-name="Path 6268" d="M84.938,420.358l-6.924.066a.561.561,0,0,0-.541.442L76.278,426.5a.931.931,0,0,0,.7,1.109h.2c2.495-.066,4.713-.224,7.821-.244,3.663-.033,2.739.409,7.049.436,2.594,0,3.043-2.944,1.94-3.082-5.043-.587-5.584-2.105-7.544-3.894A2.244,2.244,0,0,0,84.938,420.358Z" transform="translate(-49.509 -240.942)" fill="#263238"/>
    <path id="Path_6269" data-name="Path 6269" d="M79.812,413.795h5.94l.2-3.94L84.6,409.32l-3.723.264-1.181.35Z" transform="translate(-50.679 -237.19)" opacity="0.2"/>
    <path id="Path_6270" data-name="Path 6270" d="M82.989,264.94s2.105,35.437,2.079,47.258c0,12.435-2.416,49.667-2.416,49.667H73.181s-.125-36.42-1.155-48.512C71.148,303.116,66.02,272.7,66.02,272.7V264.94Z" transform="translate(-46.029 -188.105)" fill="#263238"/>
    <path id="Path_6271" data-name="Path 6271" d="M75.68,408.3l.079,3.8,11.135.125.1-3.742Z" transform="translate(-49.313 -236.844)" fill="#263238"/>
    <path id="Path_6272" data-name="Path 6272" d="M71.748,308.171c2.422-15.973,1.28-35.681,1.28-35.681L67.88,282.727C69.015,289.7,70.685,300.211,71.748,308.171Z" transform="translate(-46.661 -190.672)" opacity="0.4"/>
    <path id="Path_6273" data-name="Path 6273" d="M75.68,408.3l.079,3.8,11.135.125.1-3.742Z" transform="translate(-49.313 -236.844)" fill="#fff" opacity="0.3"/>
    <path id="Path_6274" data-name="Path 6274" d="M64.6,264.94s-5.049,37.371-6.924,49.8c-1.782,11.808-7.683,47.126-7.683,47.126l-9.471-.693s3.393-36,3.927-48.05c.383-8.765.165-25.985.462-35.113.231-7.161.66-13.069.66-13.069Z" transform="translate(-37.359 -188.105)" fill="#263238"/>
    <path id="Path_6275" data-name="Path 6275" d="M39.383,407.16l-.4,3.808,11.088.924.581-3.7Z" transform="translate(-36.836 -236.456)" fill="#263238"/>
    <path id="Path_6276" data-name="Path 6276" d="M39.383,407.16l-.4,3.808,11.088.924.581-3.7Z" transform="translate(-36.836 -236.456)" fill="#fff" opacity="0.3"/>
    <path id="Path_6277" data-name="Path 6277" d="M77.269,190.031s4.508-1.036,9.24,5.194c3.419,4.515,14.111,15.94,12.032,20.91-1.584,3.775-5.28,3.234-11.663-4.97S73.685,188.8,77.269,190.031Z" transform="translate(-49.516 -162.613)" fill="#92278f"/>
    <path id="Path_6278" data-name="Path 6278" d="M77.269,190.031s4.508-1.036,9.24,5.194c3.419,4.515,14.111,15.94,12.032,20.91-1.584,3.775-5.28,3.234-11.663-4.97S73.685,188.8,77.269,190.031Z" transform="translate(-49.516 -162.613)" fill="#fff" opacity="0.7"/>
    <path id="Path_6279" data-name="Path 6279" d="M99.762,222.771s-7.92,7.821-1.98,9.584c5.656,1.676,7.26-2.95,7.524-6.349C105.5,223.695,104.732,220.461,99.762,222.771Z" transform="translate(-56.076 -173.499)" fill="#92278f"/>
    <path id="Path_6280" data-name="Path 6280" d="M99.762,222.771s-7.92,7.821-1.98,9.584c5.656,1.676,7.26-2.95,7.524-6.349C105.5,223.695,104.732,220.461,99.762,222.771Z" transform="translate(-56.076 -173.499)" fill="#fff" opacity="0.7"/>
    <path id="Path_6281" data-name="Path 6281" d="M47.131,240.946a1.267,1.267,0,0,1-1.155-1.32c.257-4.884,1.082-23.325-.409-32.744-1.736-10.917-2.772-16.289,9.009-17.821s19.227.172,20.962,8.838c1.485,7.445.931,33.833.746,41.1a2.178,2.178,0,0,1-1.94,2.105A154.986,154.986,0,0,1,47.131,240.946Z" transform="translate(-38.716 -162.138)" fill="#92278f"/>
    <path id="Path_6282" data-name="Path 6282" d="M47.131,240.946a1.267,1.267,0,0,1-1.155-1.32c.257-4.884,1.082-23.325-.409-32.744-1.736-10.917-2.772-16.289,9.009-17.821s19.227.172,20.962,8.838c1.485,7.445.931,33.833.746,41.1a2.178,2.178,0,0,1-1.94,2.105A154.986,154.986,0,0,1,47.131,240.946Z" transform="translate(-38.716 -162.138)" fill="#fff" opacity="0.5"/>
    <path id="Path_6283" data-name="Path 6283" d="M71.862,186.714l.587-1.32-.917-1.518-1.558.158a5.333,5.333,0,0,1-.04-1.558,12.878,12.878,0,0,1,.257-1.591l-3.907-3.3L63.42,175.21c.66,3,1.406,7.887.066,10.653l6.963,3.96,2.3-2.739A5.5,5.5,0,0,1,71.862,186.714Z" transform="translate(-45.145 -157.599)" fill="#ce7a63"/>
    <path id="Path_6284" data-name="Path 6284" d="M56,189.032s5.518-6.039,11.755,4.244a38.466,38.466,0,0,0-.271-5.194,2.527,2.527,0,0,1,3.8.838c.924,1.393.218,4.006-3.3,5.392A119.221,119.221,0,0,0,56,189.032Z" transform="translate(-42.622 -161.7)" fill="#92278f"/>
    <path id="Path_6285" data-name="Path 6285" d="M71.552,181.887a12.875,12.875,0,0,0-.257,1.591c-1.472-.3-3.67-1.6-3.874-3.254a6.91,6.91,0,0,1,.224-1.6Z" transform="translate(-46.504 -158.759)" opacity="0.2"/>
    <path id="Path_6286" data-name="Path 6286" d="M81.549,160.71s4.257,2.125,3.129,3.907-3.228-.739-3.228-.739Z" transform="translate(-51.274 -152.67)" fill="#263238"/>
    <path id="Path_6287" data-name="Path 6287" d="M63.561,161.493c-.594,4.693-1.188,7.4.713,10.277a6.151,6.151,0,0,0,10.838-.97c1.789-3.96,2.416-10.956-1.729-13.762a6.244,6.244,0,0,0-9.821,4.455Z" transform="translate(-44.996 -151.031)" fill="#ce7a63"/>
    <path id="Path_6288" data-name="Path 6288" d="M74.13,170.5c-.073.383.066.726.31.779s.5-.2.594-.594-.066-.726-.31-.779S74.2,170.124,74.13,170.5Z" transform="translate(-48.779 -155.794)" fill="#263238"/>
    <path id="Path_6289" data-name="Path 6289" d="M80.792,171.767c-.066.376.073.726.317.772s.5-.2.594-.594a.607.607,0,0,0-.317-.779C81.141,171.114,80.864,171.384,80.792,171.767Z" transform="translate(-51.045 -156.223)" fill="#263238"/>
    <path id="Path_6290" data-name="Path 6290" d="M77.847,172a14.3,14.3,0,0,0,.977,3.109,1.98,1.98,0,0,1-1.643,0Z" transform="translate(-49.823 -156.508)" fill="#ba4d3c"/>
    <path id="Path_6291" data-name="Path 6291" d="M75.061,179.884a3.34,3.34,0,0,1-2.455-.752.125.125,0,0,1,0-.158.106.106,0,0,1,.152-.033h0a3.168,3.168,0,0,0,2.7.66.112.112,0,0,1,.132.079h0a.119.119,0,0,1-.086.139C75.338,179.844,75.2,179.871,75.061,179.884Z" transform="translate(-48.258 -158.861)" fill="#263238"/>
    <path id="Path_6292" data-name="Path 6292" d="M72.551,167.771a.2.2,0,0,1-.1,0,.224.224,0,0,1-.053-.31h0a2.152,2.152,0,0,1,1.782-.931.218.218,0,0,1,.2.231h0a.231.231,0,0,1-.238.2,1.723,1.723,0,0,0-1.419.746A.2.2,0,0,1,72.551,167.771Z" transform="translate(-48.184 -154.648)" fill="#263238"/>
    <path id="Path_6293" data-name="Path 6293" d="M83.032,169.095a.231.231,0,0,1-.178-.112,1.848,1.848,0,0,0-1.32-.957.218.218,0,0,1-.2-.244h0a.238.238,0,0,1,.238-.211h0a2.27,2.27,0,0,1,1.7,1.195.231.231,0,0,1-.079.31.277.277,0,0,1-.152.02Z" transform="translate(-51.233 -155.002)" fill="#263238"/>
    <path id="Path_6294" data-name="Path 6294" d="M60.751,153.552s-5.94,1.063-2.607,3.247c0,0-3.485,2.574.66,3.195,0,0-1.241,3.412,2.805,2.145,0,0,3.577.561,1.822-4.62,0,0,5.465,1.406,7.2-.759,0,0,5.94,4.152,6.871.317.713-2.964-2.911-3.063-2.911-3.063s1.439-2.455-.264-3.406a2.961,2.961,0,0,0-3.247.416s1.32-2.436-.937-2.495c-1.907-.053-3.247,1.98-3.247,1.98S59.068,149.09,60.751,153.552Z" transform="translate(-42.885 -148.528)" fill="#263238"/>
    <path id="Path_6295" data-name="Path 6295" d="M59.9,169.053a4.983,4.983,0,0,0,1.835,2.865c1.188.878,2.086-.185,2.02-1.676-.059-1.32-.746-3.419-2.066-3.69S59.587,167.621,59.9,169.053Z" transform="translate(-43.925 -154.644)" fill="#ce7a63"/>
    <path id="Path_6296" data-name="Path 6296" d="M79.47,207.706l-1.063,11.729a1.32,1.32,0,0,1-.832,1.115,47.314,47.314,0,0,1-4.62,1.624,53.723,53.723,0,0,1-5.465.594,1.32,1.32,0,0,0-1.221,1.109h0a1.32,1.32,0,0,0,1.135,1.538l17.161,2.865a1.32,1.32,0,0,0,1.525-1.056l3.452-17.5a1.32,1.32,0,0,0-1.016-1.577l-7.432-1.63a1.32,1.32,0,0,0-1.624,1.195Z" transform="translate(-46.107 -168.229)" fill="#263238"/>
    <path id="Path_6297" data-name="Path 6297" d="M71.576,236.264h4.957a1.446,1.446,0,0,0,.759-.211l2.64-1.65a1.485,1.485,0,0,1,.759-.218h1.063a1.576,1.576,0,0,0,.35-.04l1.412-.356a1.452,1.452,0,0,1,1.419.436h0a1.426,1.426,0,0,1,.238,1.558l-1.65,3.624a1.432,1.432,0,0,1-1.32.845H78.889l-3.089-.475a1.322,1.322,0,0,0-.363,0l-3.861.4a1.432,1.432,0,0,1-1.584-1.637l.145-1.01A1.445,1.445,0,0,1,71.576,236.264Z" transform="translate(-47.373 -177.501)" fill="#ce7a63"/>
    <path id="Path_6298" data-name="Path 6298" d="M46.74,191.319c-1.155,0-6.006-.35-9.009,12.125s-3,21.834,2.64,23.332,17.042,2.541,17.042,0l1.868-.139a1.32,1.32,0,0,0,1.188-1.28V222.13a1.32,1.32,0,0,0-1.32-1.32l-1.043.053s0-1.386-2.574-1.5-11.22,1.32-11.359-1.478S52.515,191.313,46.74,191.319Z" transform="translate(-35.731 -163.076)" fill="#92278f"/>
    <path id="Path_6299" data-name="Path 6299" d="M46.74,191.319c-1.155,0-6.006-.35-9.009,12.125s-3,21.834,2.64,23.332,17.042,2.541,17.042,0l1.868-.139a1.32,1.32,0,0,0,1.188-1.28V222.13a1.32,1.32,0,0,0-1.32-1.32l-1.043.053s0-1.386-2.574-1.5-11.22,1.32-11.359-1.478S52.515,191.313,46.74,191.319Z" transform="translate(-35.731 -163.076)" fill="#fff" opacity="0.7"/>
    <path id="Path_6300" data-name="Path 6300" d="M98.728,224.076l-1.709,1.214a.977.977,0,0,0-.409.66l-.515,3.459-.838.878a.99.99,0,0,0,0,1.379l.185.178a.97.97,0,0,0,.931.244l1.683-.436a.957.957,0,0,0,.66-.528l1.789-3.775a.944.944,0,0,0,.1-.422v-1.749a.983.983,0,0,0-.37-.766l-.33-.271a.983.983,0,0,0-1.175-.066Z" transform="translate(-55.873 -174.157)" fill="#ce7a63"/>
  </g>
  <g id="freepik--Table--inject-73" transform="translate(61.112 158.57)">
    <path id="Path_6301" data-name="Path 6301" d="M186.875,316.1a3.577,3.577,0,0,1-2.475-.66.752.752,0,0,1,0-.865,1.049,1.049,0,0,1,.66-.462c1.412-.376,4.336,1.32,4.468,1.406a.2.2,0,0,1-.073.37A14.1,14.1,0,0,1,186.875,316.1Zm-1.32-1.65a1.091,1.091,0,0,0-.383.046.541.541,0,0,0-.389.271c-.152.251-.106.37-.046.436.383.554,2.515.587,4.086.409a9.181,9.181,0,0,0-3.274-1.162Z" transform="translate(-123.756 -301.643)" fill="#92278f"/>
    <path id="Path_6302" data-name="Path 6302" d="M190.584,314.855a.126.126,0,0,1-.086,0c-1-.462-3.016-2.3-2.825-3.254,0-.224.2-.5.746-.554a1.472,1.472,0,0,1,1.109.35c1.069.9,1.274,3.168,1.28,3.3a.191.191,0,0,1-.092.185A.185.185,0,0,1,190.584,314.855Zm-2.033-3.432h-.112c-.363,0-.389.172-.4.224-.059.568,1.261,2.013,2.3,2.64a4.713,4.713,0,0,0-1.1-2.594,1.023,1.023,0,0,0-.66-.257Z" transform="translate(-124.911 -300.617)" fill="#92278f"/>
    <g id="Group_506" data-name="Group 506" transform="translate(60.507 10.422)" opacity="0.7">
      <path id="Path_6303" data-name="Path 6303" d="M186.875,316.1a3.577,3.577,0,0,1-2.475-.66.752.752,0,0,1,0-.865,1.049,1.049,0,0,1,.66-.462c1.412-.376,4.336,1.32,4.468,1.406a.2.2,0,0,1-.073.37A14.1,14.1,0,0,1,186.875,316.1Zm-1.32-1.65a1.091,1.091,0,0,0-.383.046.541.541,0,0,0-.389.271c-.152.251-.106.37-.046.436.383.554,2.515.587,4.086.409a9.181,9.181,0,0,0-3.274-1.162Z" transform="translate(-184.263 -312.065)" fill="#fff"/>
      <path id="Path_6304" data-name="Path 6304" d="M190.584,314.855a.126.126,0,0,1-.086,0c-1-.462-3.016-2.3-2.825-3.254,0-.224.2-.5.746-.554a1.472,1.472,0,0,1,1.109.35c1.069.9,1.274,3.168,1.28,3.3a.191.191,0,0,1-.092.185A.185.185,0,0,1,190.584,314.855Zm-2.033-3.432h-.112c-.363,0-.389.172-.4.224-.059.568,1.261,2.013,2.3,2.64a4.713,4.713,0,0,0-1.1-2.594,1.023,1.023,0,0,0-.66-.257Z" transform="translate(-185.418 -311.039)" fill="#fff"/>
    </g>
    <path id="Path_6305" data-name="Path 6305" d="M186.883,315.048l9.24.079a.746.746,0,0,1,.719.587l1.6,7.5a1.234,1.234,0,0,1-.937,1.465,1.207,1.207,0,0,1-.264.033c-3.3-.092-6.264-.3-10.4-.33-4.878-.04-3.643.554-9.379.581-3.452,0-4.046-3.914-2.581-4.1,6.706-.779,7.425-2.8,10.032-5.175A2.918,2.918,0,0,1,186.883,315.048Z" transform="translate(-120.313 -301.979)" fill="#92278f"/>
    <path id="Path_6306" data-name="Path 6306" d="M197.456,327.943a1.234,1.234,0,0,0,.937-1.465l-.185-.851c-.964-.073-2.092-.165-3.419-.3-6.7-.66-10.217.337-14.824.4a12.779,12.779,0,0,1-5.749-1.1c-.488,1.1.442,3.61,3.2,3.6,5.736,0,4.5-.62,9.379-.581,4.132.033,7.082.238,10.4.33A1.208,1.208,0,0,0,197.456,327.943Z" transform="translate(-120.298 -305.237)" fill="#fff" opacity="0.6"/>
    <path id="Path_6307" data-name="Path 6307" d="M203.9,319.637a1.947,1.947,0,1,1-1.947-1.947,1.947,1.947,0,0,1,1.947,1.947Z" transform="translate(-129.11 -302.878)" fill="#fff"/>
    <path id="Path_6308" data-name="Path 6308" d="M160.247,316.019a3.569,3.569,0,0,1-2.469-.66.746.746,0,0,1,0-.865,1.049,1.049,0,0,1,.66-.462c1.412-.376,4.336,1.32,4.468,1.406a.191.191,0,0,1,.092.211.2.2,0,0,1-.158.158,14.213,14.213,0,0,1-2.594.211Zm-1.32-1.65a1.037,1.037,0,0,0-.376.046.542.542,0,0,0-.4.271c-.152.251-.1.37-.046.436.389.554,2.515.587,4.086.409a9.134,9.134,0,0,0-3.274-1.162Z" transform="translate(-114.705 -301.616)" fill="#92278f"/>
    <path id="Path_6309" data-name="Path 6309" d="M163.955,314.775a.132.132,0,0,1-.086,0c-1-.462-3.01-2.3-2.825-3.254,0-.231.2-.5.746-.554a1.472,1.472,0,0,1,1.109.35c1.069.891,1.274,3.168,1.28,3.3a.165.165,0,0,1-.224.191Zm-2.033-3.432h-.112c-.363,0-.383.172-.4.224-.053.568,1.261,2.013,2.3,2.64a4.62,4.62,0,0,0-1.1-2.594.99.99,0,0,0-.66-.257Z" transform="translate(-115.858 -300.589)" fill="#92278f"/>
    <g id="Group_507" data-name="Group 507" transform="translate(42.935 10.369)" opacity="0.7">
      <path id="Path_6310" data-name="Path 6310" d="M160.247,316.019a3.569,3.569,0,0,1-2.469-.66.746.746,0,0,1,0-.865,1.049,1.049,0,0,1,.66-.462c1.412-.376,4.336,1.32,4.468,1.406a.191.191,0,0,1,.092.211.2.2,0,0,1-.158.158,14.213,14.213,0,0,1-2.594.211Zm-1.32-1.65a1.037,1.037,0,0,0-.376.046.542.542,0,0,0-.4.271c-.152.251-.1.37-.046.436.389.554,2.515.587,4.086.409a9.134,9.134,0,0,0-3.274-1.162Z" transform="translate(-157.641 -311.985)" fill="#fff"/>
      <path id="Path_6311" data-name="Path 6311" d="M163.955,314.775a.132.132,0,0,1-.086,0c-1-.462-3.01-2.3-2.825-3.254,0-.231.2-.5.746-.554a1.472,1.472,0,0,1,1.109.35c1.069.891,1.274,3.168,1.28,3.3a.165.165,0,0,1-.224.191Zm-2.033-3.432h-.112c-.363,0-.383.172-.4.224-.053.568,1.261,2.013,2.3,2.64a4.62,4.62,0,0,0-1.1-2.594.99.99,0,0,0-.66-.257Z" transform="translate(-158.794 -310.959)" fill="#fff"/>
    </g>
    <path id="Path_6312" data-name="Path 6312" d="M160.243,315l9.2.079a.746.746,0,0,1,.719.587l1.6,7.5a1.234,1.234,0,0,1-.937,1.465,1.154,1.154,0,0,1-.264.033c-3.3-.092-6.264-.3-10.4-.33-4.878-.046-3.643.554-9.372.581-3.459,0-4.053-3.914-2.587-4.1,6.712-.779,7.425-2.8,10.032-5.175A2.95,2.95,0,0,1,160.243,315Z" transform="translate(-111.243 -301.961)" fill="#92278f"/>
    <path id="Path_6313" data-name="Path 6313" d="M170.826,327.863a1.234,1.234,0,0,0,.937-1.465l-.185-.851c-.964-.073-2.086-.165-3.419-.3-6.7-.66-10.217.337-14.824.4a12.778,12.778,0,0,1-5.749-1.1c-.488,1.1.442,3.61,3.208,3.6,5.729,0,4.495-.627,9.372-.581,4.132.033,7.082.238,10.4.33a1.161,1.161,0,0,0,.264-.033Z" transform="translate(-111.245 -305.21)" fill="#fff" opacity="0.8"/>
    <path id="Path_6314" data-name="Path 6314" d="M177.274,319.557a1.94,1.94,0,1,1-.566-1.376A1.947,1.947,0,0,1,177.274,319.557Z" transform="translate(-120.056 -302.851)" fill="#fff"/>
    <path id="Path_6315" data-name="Path 6315" d="M137.822,296.833l.977,12.943a1.465,1.465,0,0,1-.706,1.366,51.3,51.3,0,0,1-4.713,2.6,57,57,0,0,1-5.828,1.637,1.472,1.472,0,0,0-1.122,1.432h0a1.472,1.472,0,0,0,1.472,1.472h19.187a1.472,1.472,0,0,0,1.5-1.419l.574-19.662a1.478,1.478,0,0,0-1.4-1.511l-8.415-.442a1.472,1.472,0,0,0-1.525,1.584Z" transform="translate(-104.095 -295.248)" fill="#263238"/>
    <path id="Path_6316" data-name="Path 6316" d="M217.369,398.069l1.643-.086-2.983-55.9a6.8,6.8,0,0,0-6.792-6.435H193.568a6.8,6.8,0,0,0-6.792,6.435l-2.977,55.9,1.637.086.66-12.626h30.586ZM186.2,383.8l2.224-41.628a5.155,5.155,0,0,1,5.148-4.884h15.669a5.162,5.162,0,0,1,5.155,4.885L216.61,383.8Z" transform="translate(-123.599 -308.984)" fill="#263238"/>
    <path id="Path_6317" data-name="Path 6317" d="M217.369,398.069l1.643-.086-2.983-55.9a6.8,6.8,0,0,0-6.792-6.435H193.568a6.8,6.8,0,0,0-6.792,6.435l-2.977,55.9,1.637.086.66-12.626h30.586ZM186.2,383.8l2.224-41.628a5.155,5.155,0,0,1,5.148-4.884h15.669a5.162,5.162,0,0,1,5.155,4.885L216.61,383.8Z" transform="translate(-123.599 -308.984)" fill="#fff" opacity="0.2"/>
    <path id="Path_6318" data-name="Path 6318" d="M234.681,427.8l.937-.053a.766.766,0,0,0,.719-.8l-.4-7.6a.66.66,0,0,0-.66-.607H234.1a.66.66,0,0,0-.66.66l.409,7.656a.772.772,0,0,0,.832.739Z" transform="translate(-140.475 -337.232)" fill="#263238"/>
    <path id="Path_6319" data-name="Path 6319" d="M185.324,418.74h-1.175a.66.66,0,0,0-.66.607l-.409,7.6a.766.766,0,0,0,.719.8l.937.053a.772.772,0,0,0,.805-.719l.409-7.656A.66.66,0,0,0,185.324,418.74Z" transform="translate(-123.354 -337.232)" fill="#263238"/>
    <rect id="Rectangle_255" data-name="Rectangle 255" width="33.576" height="7.663" transform="translate(3.016 25.023)" fill="#92278f"/>
    <rect id="Rectangle_256" data-name="Rectangle 256" width="33.576" height="7.663" transform="translate(3.016 25.023)" fill="#fff" opacity="0.2"/>
    <rect id="Rectangle_257" data-name="Rectangle 257" width="58.082" height="7.663" transform="translate(36.592 25.023)" fill="#92278f"/>
    <rect id="Rectangle_258" data-name="Rectangle 258" width="58.082" height="7.663" transform="translate(36.592 25.023)" fill="#fff" opacity="0.4"/>
    <rect id="Rectangle_259" data-name="Rectangle 259" width="33.107" height="4.105" transform="translate(0 22.561)" fill="#92278f"/>
    <rect id="Rectangle_260" data-name="Rectangle 260" width="33.107" height="4.105" transform="translate(0 22.561)" fill="#fff" opacity="0.5"/>
    <rect id="Rectangle_261" data-name="Rectangle 261" width="64.412" height="4.105" transform="translate(33.114 22.561)" fill="#92278f"/>
    <rect id="Rectangle_262" data-name="Rectangle 262" width="64.412" height="4.105" transform="translate(33.114 22.561)" fill="#fff" opacity="0.7"/>
    <path id="Path_6320" data-name="Path 6320" d="M129.376,398.069l1.637-.086-2.983-55.9a6.792,6.792,0,0,0-6.785-6.435H105.568a6.8,6.8,0,0,0-6.792,6.435l-2.977,55.9,1.637.086.66-12.626h30.586ZM98.2,383.8l2.224-41.628a5.155,5.155,0,0,1,5.148-4.884h15.676a5.155,5.155,0,0,1,5.148,4.885L128.61,383.8Z" transform="translate(-93.681 -308.984)" fill="#263238"/>
    <path id="Path_6321" data-name="Path 6321" d="M129.376,398.069l1.637-.086-2.983-55.9a6.792,6.792,0,0,0-6.785-6.435H105.568a6.8,6.8,0,0,0-6.792,6.435l-2.977,55.9,1.637.086.66-12.626h30.586ZM98.2,383.8l2.224-41.628a5.155,5.155,0,0,1,5.148-4.884h15.676a5.155,5.155,0,0,1,5.148,4.885L128.61,383.8Z" transform="translate(-93.681 -308.984)" fill="#fff" opacity="0.2"/>
    <path id="Path_6322" data-name="Path 6322" d="M146.681,427.8l.937-.053a.759.759,0,0,0,.719-.8l-.4-7.6a.66.66,0,0,0-.66-.607H146.1a.66.66,0,0,0-.66.66l.409,7.656a.759.759,0,0,0,.832.739Z" transform="translate(-110.558 -337.232)" fill="#263238"/>
    <path id="Path_6323" data-name="Path 6323" d="M97.333,418.74H96.152a.66.66,0,0,0-.66.607l-.4,7.6a.752.752,0,0,0,.719.8l.937.053a.766.766,0,0,0,.8-.719l.409-7.656A.66.66,0,0,0,97.333,418.74Z" transform="translate(-93.439 -337.232)" fill="#263238"/>
    <path id="Path_6324" data-name="Path 6324" d="M141.511,347.849c5.221.422,34.176,2.535,56.446,0a.66.66,0,0,1,.713.66,158.917,158.917,0,0,0,1.234,21.827.66.66,0,0,1-.568.733c-3.888.4-24.771,2.244-56.762,0a.66.66,0,0,1-.6-.713c.224-2.2.759-9.821-1.168-21.735a.66.66,0,0,1,.706-.772Z" transform="translate(-108.978 -313.13)" fill="url(#linear-gradient)"/>
    <path id="Path_6325" data-name="Path 6325" d="M176.954,354.462l4.435-2.772,1.558,3.749,6.118-1.049-1.729,3.723,6.158.95-4.554,2.693,4.554,2.7-6.158.95,1.729,3.723-6.118-1.056-1.558,3.749-4.435-2.766-4.429,2.766-1.558-3.749-6.118,1.056,1.729-3.723-6.158-.95,4.554-2.7-4.554-2.693,6.158-.95-1.729-3.723,6.118,1.049,1.558-3.749Z" transform="translate(-115.65 -314.437)" fill="#92278f"/>
    <path id="Path_6326" data-name="Path 6326" d="M172.848,368a2.641,2.641,0,0,1-.858-.4l.376-.845a2.639,2.639,0,0,0,.739.37,2.746,2.746,0,0,0,.858.139,1.32,1.32,0,0,0,.7-.145.429.429,0,0,0,.231-.376.35.35,0,0,0-.139-.284.944.944,0,0,0-.343-.185c-.139-.046-.33-.092-.568-.152a7.68,7.68,0,0,1-.9-.257,1.485,1.485,0,0,1-.6-.422,1.109,1.109,0,0,1-.251-.772,1.32,1.32,0,0,1,.224-.759,1.511,1.511,0,0,1,.66-.541,2.707,2.707,0,0,1,1.122-.2,3.713,3.713,0,0,1,.9.112,2.56,2.56,0,0,1,.772.317l-.343.845a2.692,2.692,0,0,0-1.32-.376,1.255,1.255,0,0,0-.693.152.462.462,0,0,0-.224.4.4.4,0,0,0,.257.37,4.258,4.258,0,0,0,.785.238,7.681,7.681,0,0,1,.9.257,1.471,1.471,0,0,1,.607.416,1.115,1.115,0,0,1,.251.766,1.32,1.32,0,0,1-.231.752,1.571,1.571,0,0,1-.693.541,2.866,2.866,0,0,1-1.122.2A3.88,3.88,0,0,1,172.848,368Z" transform="translate(-119.584 -318.336)" fill="url(#linear-gradient)"/>
    <path id="Path_6327" data-name="Path 6327" d="M182.052,367.059h-2.237l-.4,1.056H178.27l2.145-4.825h1.1l2.158,4.825h-1.168Zm-.35-.845-.766-1.848-.766,1.848Z" transform="translate(-121.719 -318.381)" fill="url(#linear-gradient)"/>
    <path id="Path_6328" data-name="Path 6328" d="M187.23,363.29h1.115V367.2h2.416v.911H187.23Z" transform="translate(-124.765 -318.381)" fill="url(#linear-gradient)"/>
    <path id="Path_6329" data-name="Path 6329" d="M197.266,367.217v.9H193.53V363.29h3.65v.9h-2.541v1.043h2.244v.871h-2.244v1.115Z" transform="translate(-126.907 -318.381)" fill="url(#linear-gradient)"/>
    <path id="Path_6330" data-name="Path 6330" d="M139.342,349.309a2.013,2.013,0,0,1,2.231,0c.363.264.706-.337.35-.594a2.68,2.68,0,0,0-2.931,0,.345.345,0,1,0,.35.594Z" transform="translate(-108.308 -313.277)" fill="#92278f"/>
    <g id="Group_508" data-name="Group 508" transform="translate(30.515 35.002)" opacity="0.5">
      <path id="Path_6331" data-name="Path 6331" d="M139.342,349.309a2.013,2.013,0,0,1,2.231,0c.363.264.706-.337.35-.594a2.68,2.68,0,0,0-2.931,0,.345.345,0,1,0,.35.594Z" transform="translate(-138.823 -348.279)" fill="#fff"/>
    </g>
    <path id="Path_6332" data-name="Path 6332" d="M226.232,349.309a2.013,2.013,0,0,1,2.231,0c.363.264.706-.337.35-.594a2.68,2.68,0,0,0-2.931,0,.345.345,0,0,0,.35.594Z" transform="translate(-137.848 -313.277)" fill="#92278f"/>
    <g id="Group_509" data-name="Group 509" transform="translate(87.865 35.002)" opacity="0.5">
      <path id="Path_6333" data-name="Path 6333" d="M226.232,349.309a2.013,2.013,0,0,1,2.231,0c.363.264.706-.337.35-.594a2.68,2.68,0,0,0-2.931,0,.345.345,0,0,0,.35.594Z" transform="translate(-225.713 -348.279)" fill="#fff"/>
    </g>
    <path id="Path_6334" data-name="Path 6334" d="M227.9,381.307a1.98,1.98,0,0,1,2.231,0c.356.257.706-.343.35-.6a2.693,2.693,0,0,0-2.931,0,.35.35,0,0,0,.35.6Z" transform="translate(-138.424 -324.154)" fill="#92278f"/>
    <g id="Group_510" data-name="Group 510" transform="translate(88.983 56.119)" opacity="0.5">
      <path id="Path_6335" data-name="Path 6335" d="M227.9,381.307a1.98,1.98,0,0,1,2.231,0c.356.257.706-.343.35-.6a2.693,2.693,0,0,0-2.931,0,.35.35,0,0,0,.35.6Z" transform="translate(-227.407 -380.273)" fill="#fff"/>
    </g>
    <path id="Path_6336" data-name="Path 6336" d="M141.142,381.589a2.013,2.013,0,0,1,2.231,0c.363.264.706-.337.35-.594a2.68,2.68,0,0,0-2.93,0,.345.345,0,1,0,.35.594Z" transform="translate(-108.92 -324.252)" fill="#92278f"/>
    <g id="Group_511" data-name="Group 511" transform="translate(31.703 56.308)" opacity="0.5">
      <path id="Path_6337" data-name="Path 6337" d="M141.142,381.589a2.013,2.013,0,0,1,2.231,0c.363.264.706-.337.35-.594a2.68,2.68,0,0,0-2.93,0,.345.345,0,1,0,.35.594Z" transform="translate(-140.623 -380.559)" fill="#fff"/>
    </g>
  </g>
</svg>
