<svg xmlns="http://www.w3.org/2000/svg" width="48" height="47" viewBox="0 0 48 47">
  <g id="twitter" transform="translate(-0.218)">
    <ellipse id="Ellipse_118" data-name="Ellipse 118" cx="24" cy="23.5" rx="24" ry="23.5" transform="translate(0.218 0)" fill="#2daae1"/>
    <path id="Path_4978" data-name="Path 4978" d="M262.544,146.249a12.463,12.463,0,0,1-3.585.983,6.26,6.26,0,0,0,2.745-3.453,12.472,12.472,0,0,1-3.965,1.515,6.245,6.245,0,0,0-10.8,4.272,6.313,6.313,0,0,0,.161,1.423,17.724,17.724,0,0,1-12.866-6.522,6.249,6.249,0,0,0,1.932,8.334,6.214,6.214,0,0,1-2.828-.78v.079a6.245,6.245,0,0,0,5.007,6.12,6.21,6.21,0,0,1-1.645.219,6.335,6.335,0,0,1-1.175-.11,6.25,6.25,0,0,0,5.831,4.335,12.569,12.569,0,0,1-9.242,2.584,17.666,17.666,0,0,0,9.569,2.806c11.481,0,17.76-9.512,17.76-17.76q0-.406-.019-.807A12.719,12.719,0,0,0,262.544,146.249Z" transform="translate(-223.039 -132.304)" fill="#fff"/>
  </g>
</svg>
