<svg xmlns="http://www.w3.org/2000/svg" width="326.917" height="243.593" viewBox="0 0 326.917 243.593">
  <g id="Wallet-rafiki" transform="translate(0 -55)">
    <g id="freepik--background-complete--inject-6" transform="translate(0 55)">
      <rect id="Rectangle_319" data-name="Rectangle 319" width="326.917" height="0.163" transform="translate(0 214.066)" fill="#ebebeb"/>
      <rect id="Rectangle_320" data-name="Rectangle 320" width="15.156" height="0.163" transform="translate(98.101 218.237)" fill="#ebebeb"/>
      <rect id="Rectangle_321" data-name="Rectangle 321" width="37.053" height="0.163" transform="translate(262.907 221.742)" fill="#ebebeb"/>
      <rect id="Rectangle_322" data-name="Rectangle 322" width="37.053" height="0.163" transform="translate(27.932 221.742)" fill="#ebebeb"/>
      <path id="Path_2478" data-name="Path 2478" d="M168.186,239.9H41.937a3.733,3.733,0,0,1-3.727-3.733V58.7A3.733,3.733,0,0,1,41.937,55H168.186a3.733,3.733,0,0,1,3.733,3.733h0V236.171A3.733,3.733,0,0,1,168.186,239.9ZM41.937,55.131a3.57,3.57,0,0,0-3.563,3.57v177.47a3.57,3.57,0,0,0,3.563,3.57H168.186a3.583,3.583,0,0,0,3.57-3.57V58.7a3.583,3.583,0,0,0-3.57-3.57Z" transform="translate(-13.227 -55)" fill="#ebebeb"/>
      <path id="Path_2479" data-name="Path 2479" d="M384.489,239.9H258.233a3.746,3.746,0,0,1-3.733-3.733V58.7a3.74,3.74,0,0,1,3.733-3.7H384.489a3.733,3.733,0,0,1,3.72,3.7v177.47A3.727,3.727,0,0,1,384.489,239.9ZM258.233,55.131a3.583,3.583,0,0,0-3.57,3.57v177.47a3.583,3.583,0,0,0,3.57,3.57H384.489a3.583,3.583,0,0,0,3.57-3.57V58.7a3.583,3.583,0,0,0-3.57-3.57Z" transform="translate(-88.099 -55)" fill="#ebebeb"/>
      <rect id="Rectangle_323" data-name="Rectangle 323" width="15.097" height="52.248" transform="translate(190.907 162.171)" fill="#e6e6e6"/>
      <rect id="Rectangle_324" data-name="Rectangle 324" width="15.097" height="52.248" transform="translate(180.217 162.171)" fill="#e6e6e6"/>
      <path id="Path_2480" data-name="Path 2480" d="M292.744,378.62h2.864v-8.16H289.73Z" transform="translate(-100.294 -164.201)" fill="#f0f0f0"/>
      <rect id="Rectangle_325" data-name="Rectangle 325" width="15.097" height="52.248" transform="translate(104.326 162.171)" fill="#e6e6e6"/>
      <rect id="Rectangle_326" data-name="Rectangle 326" width="78.395" height="48.233" transform="translate(116.925 162.171)" fill="#f0f0f0"/>
      <path id="Path_2481" data-name="Path 2481" d="M273.408,341.493h-30.73a3,3,0,0,1-2.988-2.988V309.141a2.988,2.988,0,0,1,2.988-2.981h30.7a2.988,2.988,0,0,1,2.988,2.981v29.364a3,3,0,0,1-2.955,2.988Zm-30.73-34.653a2.328,2.328,0,0,0-2.328,2.315v29.364a2.328,2.328,0,0,0,2.3,2.354h30.73a2.328,2.328,0,0,0,2.341-2.308V309.141a2.315,2.315,0,0,0-2.321-2.315Z" transform="translate(-82.972 -141.943)" fill="#e0e0e0"/>
      <path id="Path_2482" data-name="Path 2482" d="M215.388,341.493h-30.73a3,3,0,0,1-2.988-2.988V309.141a2.988,2.988,0,0,1,2.988-2.981h30.73a2.988,2.988,0,0,1,2.988,2.982h0v29.364A3,3,0,0,1,215.388,341.493Zm-30.73-34.653a2.315,2.315,0,0,0-2.321,2.315v29.364a2.321,2.321,0,0,0,2.321,2.321h30.73a2.334,2.334,0,0,0,2.328-2.321V309.141a2.328,2.328,0,0,0-2.328-2.315Z" transform="translate(-62.888 -141.943)" fill="#e0e0e0"/>
      <path id="Path_2483" data-name="Path 2483" d="M227.353,317.3a2.883,2.883,0,1,1,2.883-2.89h0a2.89,2.89,0,0,1-2.883,2.89Z" transform="translate(-77.704 -143.802)" fill="#fafafa"/>
      <path id="Path_2484" data-name="Path 2484" d="M247.123,317.3a2.883,2.883,0,1,1,2.864-2.9v.059A2.877,2.877,0,0,1,247.123,317.3Z" transform="translate(-84.54 -143.802)" fill="#fafafa"/>
      <path id="Path_2485" data-name="Path 2485" d="M181.69,378.62h-2.87v-8.16H184.7Z" transform="translate(-61.901 -164.201)" fill="#f0f0f0"/>
      <rect id="Rectangle_327" data-name="Rectangle 327" width="15.097" height="52.248" transform="translate(99.52 162.171)" fill="#e6e6e6"/>
      <path id="Path_2486" data-name="Path 2486" d="M169.318,378.62h2.87v-8.16H166.31Z" transform="translate(-57.571 -164.201)" fill="#f0f0f0"/>
      <rect id="Rectangle_328" data-name="Rectangle 328" width="78.395" height="48.233" transform="translate(36.222 162.171)" fill="#f0f0f0"/>
      <path id="Path_2487" data-name="Path 2487" d="M149.978,341.493h-30.73a2.988,2.988,0,0,1-2.988-2.988V309.141a2.988,2.988,0,0,1,2.988-2.981h30.7a2.988,2.988,0,0,1,2.988,2.982v29.364a2.988,2.988,0,0,1-2.956,2.988Zm-30.73-34.653a2.315,2.315,0,0,0-2.321,2.315v29.364a2.328,2.328,0,0,0,2.3,2.354h30.73a2.334,2.334,0,0,0,2.347-2.308V309.141a2.328,2.328,0,0,0-2.321-2.315Z" transform="translate(-40.245 -141.943)" fill="#e0e0e0"/>
      <path id="Path_2488" data-name="Path 2488" d="M91.979,341.493H61.288a2.988,2.988,0,0,1-2.988-2.988h0V309.141a2.981,2.981,0,0,1,2.988-2.981H91.979a2.981,2.981,0,0,1,2.988,2.981v29.364A3,3,0,0,1,91.979,341.493ZM61.288,306.84a2.315,2.315,0,0,0-2.328,2.315v29.364a2.328,2.328,0,0,0,2.3,2.354h30.73a2.321,2.321,0,0,0,2.328-2.321V309.128a2.315,2.315,0,0,0-2.328-2.315Z" transform="translate(-20.181 -141.943)" fill="#e0e0e0"/>
      <path id="Path_2489" data-name="Path 2489" d="M103.93,317.3a2.883,2.883,0,1,1,2.877-2.89h0a2.877,2.877,0,0,1-2.877,2.89Z" transform="translate(-34.977 -143.802)" fill="#fafafa"/>
      <path id="Path_2490" data-name="Path 2490" d="M123.7,317.3a2.883,2.883,0,1,1,2.864-2.9v.059A2.877,2.877,0,0,1,123.7,317.3Z" transform="translate(-41.817 -143.802)" fill="#fafafa"/>
      <path id="Path_2491" data-name="Path 2491" d="M58.264,378.62H55.4v-8.16h5.871Z" transform="translate(-19.178 -164.201)" fill="#f0f0f0"/>
      <rect id="Rectangle_329" data-name="Rectangle 329" width="28.089" height="28.089" transform="translate(146.668 17.34)" fill="#ebebeb"/>
      <rect id="Rectangle_330" data-name="Rectangle 330" width="1.242" height="28.089" transform="translate(174.764 17.346)" fill="#e0e0e0"/>
      <rect id="Rectangle_331" data-name="Rectangle 331" width="20.478" height="20.478" transform="translate(150.48 21.152)" fill="#fff"/>
      <path id="Path_2492" data-name="Path 2492" d="M246.669,103.862h0a4.845,4.845,0,0,1-6.859,0h0a4.851,4.851,0,0,1,0-6.852h0a4.858,4.858,0,0,1,6.859,0h0A4.851,4.851,0,0,1,246.669,103.862Z" transform="translate(-82.523 -69.052)" fill="#f5f5f5"/>
      <rect id="Rectangle_332" data-name="Rectangle 332" width="32.934" height="32.934" transform="translate(114.31 53.458)" fill="#ebebeb"/>
      <rect id="Rectangle_333" data-name="Rectangle 333" width="1.458" height="32.934" transform="translate(147.244 53.464)" fill="#e0e0e0"/>
      <rect id="Rectangle_334" data-name="Rectangle 334" width="24.009" height="24.009" transform="translate(118.776 57.923)" fill="#fff"/>
      <rect id="Rectangle_335" data-name="Rectangle 335" width="10.239" height="10.239" transform="translate(125.654 64.802)" fill="#f5f5f5"/>
      <rect id="Rectangle_336" data-name="Rectangle 336" width="17.83" height="4.165" transform="translate(276.723 42.865)" fill="#e6e6e6"/>
      <rect id="Rectangle_337" data-name="Rectangle 337" width="73.805" height="4.165" transform="translate(202.918 42.865)" fill="#f5f5f5"/>
      <rect id="Rectangle_338" data-name="Rectangle 338" width="20.779" height="22.119" transform="translate(224.076 20.753)" fill="#e0e0e0"/>
      <rect id="Rectangle_339" data-name="Rectangle 339" width="5.322" height="22.119" transform="translate(218.754 20.753)" fill="#f0f0f0"/>
      <rect id="Rectangle_340" data-name="Rectangle 340" width="15.607" height="25.526" transform="translate(234.694 17.34)" fill="#e6e6e6"/>
      <rect id="Rectangle_341" data-name="Rectangle 341" width="4.511" height="25.526" transform="translate(230.189 17.34)" fill="#f0f0f0"/>
      <rect id="Rectangle_342" data-name="Rectangle 342" width="13.162" height="22.119" transform="translate(239.297 20.753)" fill="#f0f0f0"/>
      <rect id="Rectangle_343" data-name="Rectangle 343" width="3.008" height="22.119" transform="translate(236.289 20.753)" fill="#fafafa"/>
      <rect id="Rectangle_344" data-name="Rectangle 344" width="17.261" height="18.373" transform="translate(250.066 24.493)" fill="#e6e6e6"/>
      <rect id="Rectangle_345" data-name="Rectangle 345" width="4.42" height="18.373" transform="translate(245.646 24.493)" fill="#fafafa"/>
      <rect id="Rectangle_346" data-name="Rectangle 346" width="12.966" height="21.21" transform="translate(258.886 21.662)" fill="#e6e6e6"/>
      <rect id="Rectangle_347" data-name="Rectangle 347" width="3.746" height="21.21" transform="translate(255.139 21.662)" fill="#f0f0f0"/>
      <rect id="Rectangle_348" data-name="Rectangle 348" width="12.593" height="18.373" transform="translate(262.704 24.493)" fill="#f0f0f0"/>
      <rect id="Rectangle_349" data-name="Rectangle 349" width="2.498" height="18.373" transform="translate(260.207 24.493)" fill="#fafafa"/>
      <path id="Path_2493" data-name="Path 2493" d="M390.8,283.164c5.584-7.3,18.876-10.01,23.473-14.613,6.015-6.035,5.989-15.091.863-18.36-4.446-2.838-19.2,16.346-20.851,18.5-5.721,7.382-7.375,12.854-8.448,18.157.124-4.5.242-8.65.34-11.841.307-10.416.693-13.77.876-14.8.654-.51,1.347-1.092,1.765-1.406,3.57-2.661,11.481-5.832,15.437-9.7,5.78-5.649,4.845-12.423.791-14.927-4.23-2.615-11.723,3.59-15.692,9.755s-2.275,12.076-3.387,17.157a99.83,99.83,0,0,0-.7,10.108,20.923,20.923,0,0,0-8.068-13.044c-5.473-4.368-10.2-9.69-14.711-9s-2.06,7.728,1.484,12.671c3.178,4.4,18.863,8.794,21.171,12.331-.275,7.192-.517,16.248-.687,24.708-1.236-4.368-.386-4.734-5.453-11.442-3.008-3.975-15.365-8.892-16.83-6.146s.765,7.9,5.427,11.514c3.76,2.916,12.07,2.91,14.038,4.721.451.418,1.962,2.04,2.785,2.975-.2,10.318-.288,19.425-.19,22.538l.811.033c-.039-.8.052-6.054.216-13,2.027-3.694,15.692-5.885,19.883-9.7,4.407-4.021,7.571-8.716,5.682-11.861-1.576-2.615-13.979.942-19.059,5.283a18.049,18.049,0,0,0-6.355,10.128c.111-4.734.248-9.808.373-14.613C386.822,288.12,389.13,285.354,390.8,283.164Z" transform="translate(-124.635 -116.815)" fill="#e6e6e6"/>
      <path id="Path_2494" data-name="Path 2494" d="M400.034,376.61H385.872c-.778,0-1.445-1.007-1.6-2.406l-1.007-9.154h19.36l-1,9.154C401.466,375.6,400.806,376.61,400.034,376.61Z" transform="translate(-132.675 -162.329)" fill="#f0f0f0"/>
      <path id="Path_2495" data-name="Path 2495" d="M402.1,365.011H381.93c-.484,0-.889-.654-.942-1.556l-.412-6.774c-.065-1.04.373-1.962.942-1.962h21c.562,0,1,.909.935,1.962l-.412,6.774C403,364.344,402.585,365.011,402.1,365.011Z" transform="translate(-131.74 -158.753)" fill="#f0f0f0"/>
      <g id="freepik--Shadow--inject-62--inject-6" transform="translate(36.687 228.79)">
        <ellipse id="freepik--path--inject-62--inject-6" cx="126.772" cy="7.401" rx="126.772" ry="7.401" fill="#f5f5f5"/>
      </g>
    </g>
    <g id="freepik--Coins--inject-6" transform="translate(107.624 56.442)">
      <path id="Path_2496" data-name="Path 2496" d="M197.228,146.133c-1.445,3.511-9.951,3.269-18.863-.405s-14.973-9.5-13.528-13.011c.34-.811,1.308-3.851,2.275-4.27,3.321-1.406,9.644,1.752,16.49,4.577,6.375,2.615,13.665,4.322,14.8,7.781C199.079,142.91,197.64,145.133,197.228,146.133Z" transform="translate(-164.611 -81.747)" fill="#fff000"/>
      <path id="Path_2497" data-name="Path 2497" d="M198.392,140.829c.543,2.753-.654,4.073-1.17,5.329s-2.027,2.079-4.139,2.367a7.428,7.428,0,0,1-.8.092,21.837,21.837,0,0,1-4.845-.255,4.361,4.361,0,0,1-.693-.111,38.518,38.518,0,0,1-5.538-1.425l-.654-.222c-.726-.255-1.471-.536-2.217-.843s-1.452-.654-2.151-.961l-.6-.288a38.944,38.944,0,0,1-4.753-2.785l-.536-.379a21.347,21.347,0,0,1-3.616-3.23c-.163-.183-.314-.36-.458-.543-1.406-1.778-1.962-3.478-1.406-4.832.366-.87,1.151-3.845,2.275-4.276a7.8,7.8,0,0,1,4.23,0l.654.157c3.269.837,7.388,2.7,11.592,4.433,4.956,2.047,10.821,4.171,13.7,6.623a6.533,6.533,0,0,1,.49.458A5.881,5.881,0,0,1,198.392,140.829Z" transform="translate(-164.605 -81.771)" opacity="0.2"/>
      <g id="Group_195" data-name="Group 195" transform="translate(1.632 45.975)" opacity="0.2">
        <path id="Path_2498" data-name="Path 2498" d="M173.168,127.834l-.3.549-5.309,9.5c-.163-.183-.314-.36-.458-.543l5.1-9.114.4-.706Z" transform="translate(-167.1 -127.52)"/>
      </g>
      <g id="Group_196" data-name="Group 196" transform="translate(5.705 49.865)" opacity="0.2">
        <path id="Path_2499" data-name="Path 2499" d="M179.339,133.771l-5.473,9.808-.536-.379,5.44-9.729Z" transform="translate(-173.33 -133.47)"/>
      </g>
      <g id="Group_197" data-name="Group 197" transform="translate(15.95 55.442)" opacity="0.2">
        <path id="Path_2500" data-name="Path 2500" d="M194.826,142.347l-5.172,9.265-.654-.222L194.231,142Z" transform="translate(-189 -142)"/>
      </g>
      <g id="Group_198" data-name="Group 198" transform="translate(10.994 52.827)" opacity="0.2">
        <path id="Path_2501" data-name="Path 2501" d="M187.52,138.347l-5.5,9.853-.6-.288L186.951,138Z" transform="translate(-181.42 -138)"/>
      </g>
      <g id="Group_199" data-name="Group 199" transform="translate(22.142 57.253)" opacity="0.2">
        <path id="Path_2502" data-name="Path 2502" d="M204.2,145.1l-5.041,9.01a4.361,4.361,0,0,1-.693-.111l5.159-9.226Z" transform="translate(-198.47 -144.77)"/>
      </g>
      <path id="Path_2503" data-name="Path 2503" d="M199.013,142.6c-1.445,3.511-9.847,3.374-18.765-.307s-14.973-9.5-13.521-13.011,9.847-3.367,18.765.307S200.458,139.071,199.013,142.6Z" transform="translate(-165.265 -81.275)" fill="#fff000"/>
      <path id="Path_2504" data-name="Path 2504" d="M197.981,142.595c-1.02,2.478-7.571,2.132-14.626-.778s-11.946-7.284-10.926-9.762,7.571-2.131,14.633.778S199.007,140.116,197.981,142.595Z" transform="translate(-167.267 -82.543)" fill="#b4a904" opacity="0.2"/>
      <path id="Path_2505" data-name="Path 2505" d="M267.352,105.152c2.328,3-2.105,10.265-9.736,16.169s-15.692,8.258-18.013,5.231c-.536-.693-2.707-3.014-2.576-4.1.438-3.576,6.316-7.486,12.174-12.024,5.453-4.224,10.546-9.7,14.11-8.964C265.475,101.942,266.691,104.3,267.352,105.152Z" transform="translate(-189.673 -72.502)" fill="#fff000"/>
      <path id="Path_2506" data-name="Path 2506" d="M263.318,101.54c2.661.9,3.21,2.615,4.041,3.661s.8,2.792,0,4.773c-.092.242-.2.484-.32.732a21.654,21.654,0,0,1-2.615,4.08c-.137.183-.288.36-.438.543a38.4,38.4,0,0,1-4,4.106l-.5.438c-.582.5-1.2,1.007-1.831,1.5s-1.268.955-1.909,1.393c-.177.131-.366.255-.543.379a38.3,38.3,0,0,1-4.786,2.733c-.2.1-.4.19-.588.281a21.574,21.574,0,0,1-4.609,1.53c-.235.052-.464.092-.693.124-2.243.333-3.995,0-4.891-1.183-.575-.745-2.766-2.91-2.576-4.093a7.709,7.709,0,0,1,2.1-3.681c.144-.163.3-.327.464-.5,2.36-2.445,6.015-5.067,9.611-7.846,4.243-3.269,9-7.316,12.554-8.585a6.673,6.673,0,0,1,.654-.2,6.166,6.166,0,0,1,.883-.183Z" transform="translate(-189.68 -72.552)" opacity="0.2"/>
      <g id="Group_200" data-name="Group 200" transform="translate(49.035 45.268)" opacity="0.2">
        <path id="Path_2507" data-name="Path 2507" d="M240.156,126.44l.327.536,5.6,9.33c-.235.052-.464.092-.693.124l-5.368-8.971-.418-.654Z" transform="translate(-239.6 -126.44)"/>
      </g>
      <g id="Group_201" data-name="Group 201" transform="translate(54.383 43.712)" opacity="0.2">
        <path id="Path_2508" data-name="Path 2508" d="M248.342,124.06l5.767,9.611c-.2.1-.4.19-.588.281l-5.741-9.559Z" transform="translate(-247.78 -124.06)"/>
      </g>
      <g id="Group_202" data-name="Group 202" transform="translate(64.262 37.789)" opacity="0.2">
        <path id="Path_2509" data-name="Path 2509" d="M263.452,115l5.46,9.1-.5.438-5.518-9.206Z" transform="translate(-262.89 -115)"/>
      </g>
      <g id="Group_203" data-name="Group 203" transform="translate(59.666 40.541)" opacity="0.2">
        <path id="Path_2510" data-name="Path 2510" d="M256.429,119.21l5.806,9.67c-.177.131-.366.255-.543.379l-5.832-9.716Z" transform="translate(-255.86 -119.21)"/>
      </g>
      <g id="Group_204" data-name="Group 204" transform="translate(68.852 33.375)" opacity="0.2">
        <path id="Path_2511" data-name="Path 2511" d="M270.472,108.25l5.309,8.859c-.137.183-.288.36-.438.543l-5.433-9.062Z" transform="translate(-269.91 -108.25)"/>
      </g>
      <ellipse id="Ellipse_81" data-name="Ellipse 81" cx="17.464" cy="6.872" rx="17.464" ry="6.872" transform="translate(43.741 46.081) rotate(-37.76)" fill="#fff000"/>
      <ellipse id="Ellipse_82" data-name="Ellipse 82" cx="13.822" cy="4.858" rx="13.822" ry="4.858" transform="translate(48.141 45.215) rotate(-37.76)" fill="#b4a904" opacity="0.2"/>
      <path id="Path_2512" data-name="Path 2512" d="M214.074,78.42c-.745,4.3-10.4,6.12-21.328,4.158s-19.177-7.016-18.412-11.318c.177-1,.484-4.642,1.51-5.368,3.393-2.393,11.279-.392,19.674,1.1,7.846,1.393,16.431,1.5,18.556,5.12C215.362,74.333,214.29,77.191,214.074,78.42Z" transform="translate(-167.956 -59.828)" fill="#fff000"/>
      <path id="Path_2513" data-name="Path 2513" d="M214.071,72.158c1.308,2.968.268,4.74,0,6.283s-1.765,2.831-4.067,3.681c-.281.111-.575.2-.876.294a25.3,25.3,0,0,1-5.518.909,4.782,4.782,0,0,0-.8.046,44.937,44.937,0,0,1-6.591-.242l-.765-.1c-.883-.111-1.792-.242-2.7-.405s-1.792-.347-2.661-.549c-.248-.052-.5-.118-.745-.177a43.765,43.765,0,0,1-6.028-1.962c-.242-.092-.471-.2-.7-.288A24.89,24.89,0,0,1,177.75,76.9c-.229-.163-.438-.327-.654-.5-2.027-1.654-3.067-3.433-2.772-5.087.2-1.072.353-4.577,1.5-5.368a8.521,8.521,0,0,1,4.76-1.046h.785c3.923.131,8.977,1.223,14.136,2.138,6.081,1.085,13.2,2.033,17.032,4.086a7.191,7.191,0,0,1,.654.392,6.958,6.958,0,0,1,.876.641Z" transform="translate(-167.952 -59.869)" opacity="0.2"/>
      <g id="Group_205" data-name="Group 205" transform="translate(9.138 4.149)" opacity="0.2">
        <path id="Path_2514" data-name="Path 2514" d="M183.078,63.766l-.209.687-3.635,11.991c-.229-.163-.438-.327-.654-.5l3.491-11.5.275-.9Z" transform="translate(-178.58 -63.55)"/>
      </g>
      <g id="Group_206" data-name="Group 206" transform="translate(14.656 7.483)" opacity="0.2">
        <path id="Path_2515" data-name="Path 2515" d="M191.466,68.879,187.72,81.23c-.242-.092-.471-.2-.7-.288l3.727-12.292Z" transform="translate(-187.02 -68.65)"/>
      </g>
      <g id="Group_207" data-name="Group 207" transform="translate(27.491 11.361)" opacity="0.2">
        <path id="Path_2516" data-name="Path 2516" d="M210.965,74.8l-3.55,11.7-.765-.1,3.59-11.821Z" transform="translate(-206.65 -74.58)"/>
      </g>
      <g id="Group_208" data-name="Group 208" transform="translate(21.384 9.556)" opacity="0.2">
        <path id="Path_2517" data-name="Path 2517" d="M201.828,72.055l-3.773,12.423c-.248-.052-.5-.118-.745-.177L201.1,71.82Z" transform="translate(-197.31 -71.82)"/>
      </g>
      <g id="Group_209" data-name="Group 209" transform="translate(34.846 11.877)" opacity="0.2">
        <path id="Path_2518" data-name="Path 2518" d="M222.163,75.586,218.7,86.969a4.781,4.781,0,0,0-.8.046l3.537-11.645Z" transform="translate(-217.9 -75.37)"/>
      </g>
      <ellipse id="Ellipse_83" data-name="Ellipse 83" cx="7.911" cy="20.112" rx="7.911" ry="20.112" transform="translate(5.639 15.578) rotate(-79.91)" fill="#fff000"/>
      <ellipse id="Ellipse_84" data-name="Ellipse 84" cx="5.59" cy="15.914" rx="5.59" ry="15.914" transform="translate(10.589 14.106) rotate(-79.91)" fill="#b4a904" opacity="0.2"/>
    </g>
    <g id="freepik--Wallet--inject-6" transform="translate(40.453 120.753)">
      <path id="Path_2519" data-name="Path 2519" d="M242.54,253.629l-67.286,3.923a19.825,19.825,0,0,0-6.885,1.674L95.284,291.918a6.12,6.12,0,0,0-3.531,6.839l12.076,57.113a6.179,6.179,0,0,0,8.827,4.171l72.138-36.013,66.613-2.23a5.773,5.773,0,0,0,5.551-6.656l-8.912-54.687C247.581,257.631,245.437,253.544,242.54,253.629Z" transform="translate(-72.17 -189.511)" fill="#92278f"/>
      <path id="Path_2520" data-name="Path 2520" d="M242.54,253.629l-67.286,3.923a19.825,19.825,0,0,0-6.885,1.674L95.284,291.918a6.12,6.12,0,0,0-3.531,6.839l12.076,57.113a6.179,6.179,0,0,0,8.827,4.171l72.138-36.013,66.613-2.23a5.773,5.773,0,0,0,5.551-6.656l-8.912-54.687C247.581,257.631,245.437,253.544,242.54,253.629Z" transform="translate(-72.17 -189.511)" opacity="0.1"/>
      <rect id="Rectangle_350" data-name="Rectangle 350" width="48.024" height="93.492" transform="matrix(0.735, -0.678, 0.678, 0.735, 0.002, 59.481)" fill="#92278f"/>
      <path id="Path_2521" data-name="Path 2521" d="M160.54,265.5l-35.314,32.548L61.87,229.314l23.172-21.361L97.184,196.76l2.02,2.2Z" transform="translate(-61.87 -169.826)" fill="#fafafa" opacity="0.5"/>
      <rect id="Rectangle_351" data-name="Rectangle 351" width="42.375" height="87.45" transform="matrix(0.735, -0.678, 0.678, 0.735, 4.382, 59.854)" fill="none" stroke="#92278f" stroke-width="1"/>
      <ellipse id="Ellipse_85" data-name="Ellipse 85" cx="8.801" cy="11.037" rx="8.801" ry="11.037" transform="matrix(0.735, -0.678, 0.678, 0.735, 35.175, 74.991)" fill="#92278f"/>
      <path id="Path_2522" data-name="Path 2522" d="M137.122,270.153l-12.547,4.335L97.31,207.954l12.142-11.194,2.02,2.2Z" transform="translate(-74.138 -169.826)" opacity="0.1"/>
      <rect id="Rectangle_352" data-name="Rectangle 352" width="48.024" height="93.492" transform="translate(20.28 16.37) rotate(-19.93)" fill="#92278f"/>
      <rect id="Rectangle_353" data-name="Rectangle 353" width="48.024" height="93.492" transform="translate(20.28 16.37) rotate(-19.93)" fill="#fafafa" opacity="0.5"/>
      <rect id="Rectangle_354" data-name="Rectangle 354" width="42.375" height="87.45" transform="translate(24.172 18.408) rotate(-19.93)" fill="none" stroke="#92278f" stroke-width="1"/>
      <ellipse id="Ellipse_86" data-name="Ellipse 86" cx="8.801" cy="11.037" rx="8.801" ry="11.037" transform="translate(46.729 44.266) rotate(-19.93)" fill="#92278f"/>
      <path id="Path_2523" data-name="Path 2523" d="M244.34,257.179l-66.364,3.74a19,19,0,0,0-6.806,1.667L99.156,295.1a6.113,6.113,0,0,0-3.465,6.826l12.076,57.139a6.113,6.113,0,0,0,8.722,4.191l71.072-35.811,65.7-2.079a5.721,5.721,0,0,0,5.466-6.636l-8.938-54.68C249.322,261.194,247.2,257.1,244.34,257.179Z" transform="translate(-73.532 -190.74)" fill="#92278f"/>
      <line id="Line_14" data-name="Line 14" y1="3.505" x2="56.942" transform="translate(107.144 76.678)" fill="none" stroke="#000" stroke-linecap="round" stroke-linejoin="round" stroke-width="2" opacity="0.2"/>
      <line id="Line_15" data-name="Line 15" x2="10.403" y2="47.782" transform="translate(100.324 81.654)" fill="none" stroke="#000" stroke-linecap="round" stroke-linejoin="round" stroke-width="2" opacity="0.2"/>
      <path id="Path_2524" data-name="Path 2524" d="M109.23,346.43l7.336,36.752S122.189,368.6,109.23,346.43Z" transform="translate(-78.264 -221.636)" fill="#fafafa" opacity="0.2"/>
      <path id="Path_2525" data-name="Path 2525" d="M110.7,332.69c.255.654,65.161-27.2,65.161-27.2a34.156,34.156,0,0,1-17.889,30.992C138.436,347.434,110.7,332.69,110.7,332.69Z" transform="translate(-78.773 -207.464)" fill="#fafafa" opacity="0.2"/>
      <circle id="Ellipse_87" data-name="Ellipse 87" cx="2.811" cy="2.811" r="2.811" transform="translate(72.229 120.688)" fill="#92278f"/>
      <path id="Path_2526" data-name="Path 2526" d="M210.41,305.49s8.049,12.116,6.1,32.751" transform="translate(-113.289 -207.464)" opacity="0.2"/>
      <g id="Group_210" data-name="Group 210" transform="translate(27.86 80.183)" opacity="0.2">
        <line id="Line_16" data-name="Line 16" y1="0.66" x2="1.497" transform="translate(0 29.514)" fill="none" stroke="#fafafa" stroke-linecap="round" stroke-linejoin="round" stroke-width="1"/>
        <line id="Line_17" data-name="Line 17" y1="26.794" x2="60.611" transform="translate(4.603 1.347)" fill="none" stroke="#fafafa" stroke-linecap="round" stroke-linejoin="round" stroke-width="1" stroke-dasharray="5.198 5.198"/>
        <line id="Line_18" data-name="Line 18" y1="0.66" x2="1.491" transform="translate(66.77)" fill="none" stroke="#fafafa" stroke-linecap="round" stroke-linejoin="round" stroke-width="1"/>
      </g>
      <line id="Line_19" data-name="Line 19" y1="3.511" x2="56.942" transform="translate(109.053 87.414)" fill="none" stroke="#000" stroke-linecap="round" stroke-linejoin="round" stroke-width="2" opacity="0.2"/>
      <line id="Line_20" data-name="Line 20" y1="3.511" x2="56.942" transform="translate(111.616 100.811)" fill="none" stroke="#000" stroke-linecap="round" stroke-linejoin="round" stroke-width="2" opacity="0.2"/>
    </g>
    <g id="freepik--Character--inject-6" transform="translate(172.109 90.498)">
      <path id="Path_2527" data-name="Path 2527" d="M287.651,169.56s-1.432,15.254-7.1,16.568a17.1,17.1,0,0,1-10.461-1.046l-4.61-3.544-2.249,7.846s2.458,3.341,7.591,1.027c0,0,9.154,4.028,14.214,0s6.682-15.077,6.682-15.077Z" transform="translate(-263.23 -130.155)" fill="#b97964"/>
      <path id="Path_2528" data-name="Path 2528" d="M306.16,141.309S302.2,134.568,304,122.348s12.044-13.731,16-12.848,7.192,4.681,9.886,11.913,3.688,9.114,8.179,7.846,16.444-5.231,19.772-1.706a8.264,8.264,0,0,1,2.243,7.454s16.627-4.041,15.189,10.788-25.434,28.671-48.26,14.018S306.16,141.309,306.16,141.309Z" transform="translate(-277.182 -109.292)" fill="#263238"/>
      <path id="Path_2529" data-name="Path 2529" d="M304.956,213.147s-4.518,38.857-4.368,57.08,6.623,61.166,6.623,61.166h7.983s-1.053-34.339-.9-46.089,2.256-31.188,2.256-31.188,2.556,17.47,5.571,23.643,19.733,28.017,31.332,34.8l5.42-4.976s-12.05-14.907-16.568-22.289-8.578-9.474-10.239-23.2,1.21-35.693-3.609-48.946Z" transform="translate(-276.161 -145.241)" fill="#263238"/>
      <path id="Path_2530" data-name="Path 2530" d="M322.794,262.77l-3.472-24.63a77.258,77.258,0,0,0,2.655,32.881Z" transform="translate(-282.406 -153.895)" opacity="0.2"/>
      <path id="Path_2531" data-name="Path 2531" d="M313.23,397.046l.268,7.63,5.355.445.268-.713v-7.9Z" transform="translate(-280.538 -208.717)" fill="#b97964"/>
      <path id="Path_2532" data-name="Path 2532" d="M309.34,392.7l.49,2.857,9.193.222.582-3.433Z" transform="translate(-279.192 -207.277)" fill="#92278f"/>
      <path id="Path_2533" data-name="Path 2533" d="M377.59,361.8l8.519-7.938,1.877,2.988-7.316,6.7Z" transform="translate(-302.817 -193.953)" fill="#92278f"/>
      <path id="Path_2534" data-name="Path 2534" d="M383.87,363.733l5.623,4.734,3.609-4.243-4.616-4.773Z" transform="translate(-304.991 -195.888)" fill="#b97964"/>
      <path id="Path_2535" data-name="Path 2535" d="M395.6,366.146l3.4,2.092a1.249,1.249,0,0,1,.281,1.89c-2.465,2.785-8.761,9.86-9.389,10.357-.778.654-1.72-.445-1.961-1.425,0,0,1.785-2.367,1.961-3.884a27.781,27.781,0,0,0,0-3.518,1.157,1.157,0,0,1,.275-.8l3.8-4.459a1.255,1.255,0,0,1,1.635-.248Z" transform="translate(-306.397 -198.138)" fill="#263238"/>
      <path id="Path_2536" data-name="Path 2536" d="M315.783,409.449l.706,3.923a1.249,1.249,0,0,1-1.223,1.471c-3.72,0-13.188.039-13.979-.092-.987-.163-.811-1.576-.229-2.4,0,0,2.949-.248,4.185-1.144a28.235,28.235,0,0,0,2.615-2.328,1.171,1.171,0,0,1,.785-.333l5.852-.137A1.262,1.262,0,0,1,315.783,409.449Z" transform="translate(-276.161 -212.836)" fill="#263238"/>
      <path id="Path_2537" data-name="Path 2537" d="M327.928,171.462l8.16-5.728s-2.171-8.683-5.388-9.114-19.184-3.472-29.338,0c0,0-3.648,1.04-4.773,11.285l4.341,1.386s1.556,19.184,2.517,22.139h23.172S326.882,174.934,327.928,171.462Z" transform="translate(-274.778 -125.107)" fill="#fff000"/>
      <path id="Path_2538" data-name="Path 2538" d="M340.141,176.389s3.093,8.827,3.642,13.574c0,0-7.349-2.929-9.245-4.27l-1.438-5.165-4.865-2.373-1.445,3.923,4.06,5.035s11.069,10.357,16.679,7.99-2.216-22.322-2.216-22.322Z" transform="translate(-285.232 -131.27)" fill="#b97964"/>
      <path id="Path_2539" data-name="Path 2539" d="M314.069,117.909s-2.831,5.649-2.615,10.246,2.537,6.473,6.95,7.12c0,0,1.883,5.885-3.06,6.479-.379.046-.51,1.543-.484,1.785.131.955,1.079,1.478,1.962,1.7a13.274,13.274,0,0,0,2.831.314,6.6,6.6,0,0,0,5.276-2.347c.1-.124,1.1-1.393,1.1-1.393s-2.36-1.17-1.53-8.833a6.362,6.362,0,0,0,2.471-3.06,3.845,3.845,0,0,0,1.883-2.3c.353-1.53-1-3.648-3.472-1.53,0,0-4.655-2.354-6.421-10.6A8.258,8.258,0,0,1,314.069,117.909Z" transform="translate(-279.919 -111.438)" fill="#b97964"/>
      <path id="Path_2540" data-name="Path 2540" d="M316.569,131.341l.4-3.021-2.138,2.367A2.105,2.105,0,0,0,316.569,131.341Z" transform="translate(-281.092 -115.879)" fill="#a24e3f"/>
      <path id="Path_2541" data-name="Path 2541" d="M319.39,135.738s2.256.347,3.341-1.1" transform="translate(-282.671 -118.067)" fill="none" stroke="#222221" stroke-linecap="round" stroke-linejoin="round" stroke-width="0.75"/>
      <path id="Path_2542" data-name="Path 2542" d="M322.84,121.79a2.955,2.955,0,0,1,2.923.778" transform="translate(-283.865 -113.58)" fill="none" stroke="#222221" stroke-linecap="round" stroke-linejoin="round" stroke-width="1"/>
      <path id="Path_2543" data-name="Path 2543" d="M315.87,120.837s-1.308-.2-1.89.536" transform="translate(-280.798 -113.28)" fill="none" stroke="#222221" stroke-linecap="round" stroke-linejoin="round" stroke-width="1"/>
      <path id="Path_2544" data-name="Path 2544" d="M323.643,127.454c-.059.458-.353.791-.654.752s-.5-.438-.445-.9.353-.791.654-.752S323.7,127,323.643,127.454Z" transform="translate(-283.759 -115.268)" fill="#222221"/>
      <ellipse id="Ellipse_88" data-name="Ellipse 88" cx="0.83" cy="0.556" rx="0.83" ry="0.556" transform="matrix(0.129, -0.992, 0.992, 0.129, 33.456, 11.855)" fill="#222221"/>
      <path id="Path_2545" data-name="Path 2545" d="M323.013,126.321l-1.033-.451a.654.654,0,0,0,1.033.451Z" transform="translate(-283.567 -115.031)" fill="#222221"/>
      <path id="Path_2546" data-name="Path 2546" d="M315.173,124.841l-1.033-.451a.654.654,0,0,0,1.033.451Z" transform="translate(-280.853 -114.519)" fill="#222221"/>
      <path id="Path_2547" data-name="Path 2547" d="M305.84,209.007v2.726l25.107.209-.673-3.243Z" transform="translate(-277.98 -143.704)" fill="#c5b900"/>
      <path id="Path_2548" data-name="Path 2548" d="M305.84,209.007v2.726l25.107.209-.673-3.243Z" transform="translate(-277.98 -143.704)" fill="#fff" opacity="0.4"/>
    </g>
    <g id="freepik--Card--inject-6" transform="translate(143.663 124.288)">
      <path id="Path_2549" data-name="Path 2549" d="M276.337,179.252l-13.809,48.031a8.369,8.369,0,0,1-7.192,6.028,8.54,8.54,0,0,1-3.151-.288l-26.4-7.591a8.389,8.389,0,0,1-5.741-10.363l13.816-48.044A8.382,8.382,0,0,1,244.22,161.3l26.415,7.584A8.382,8.382,0,0,1,276.337,179.252Z" transform="translate(-219.724 -160.972)" fill="#92278f"/>
      <path id="Path_2550" data-name="Path 2550" d="M276.337,179.252l-13.809,48.031a8.369,8.369,0,0,1-7.192,6.028,8.54,8.54,0,0,1-3.151-.288l-26.4-7.591a8.389,8.389,0,0,1-5.741-10.363l13.816-48.044A8.382,8.382,0,0,1,244.22,161.3l26.415,7.584A8.382,8.382,0,0,1,276.337,179.252Z" transform="translate(-219.724 -160.972)" opacity="0.2"/>
      <path id="Path_2551" data-name="Path 2551" d="M274.042,180.123,260.233,228.16a8.349,8.349,0,0,1-4.91,5.453,8.539,8.539,0,0,1-3.151-.288l-26.382-7.591a8.389,8.389,0,0,1-5.741-10.363l13.816-48.044a5.979,5.979,0,0,1,8.062-5.152l26.363,7.617A8.382,8.382,0,0,1,274.042,180.123Z" transform="translate(-219.724 -161.274)" fill="#92278f"/>
      <path id="Path_2552" data-name="Path 2552" d="M274.042,180.123,260.233,228.16a8.349,8.349,0,0,1-4.91,5.453,8.539,8.539,0,0,1-3.151-.288l-26.382-7.591a8.389,8.389,0,0,1-5.741-10.363l13.816-48.044a5.979,5.979,0,0,1,8.062-5.152l26.363,7.617A8.382,8.382,0,0,1,274.042,180.123Z" transform="translate(-219.724 -161.274)" fill="#fafafa" opacity="0.5"/>
      <rect id="Rectangle_355" data-name="Rectangle 355" width="2.936" height="37.491" transform="translate(14.368 22.136) rotate(15.74)" fill="#fafafa"/>
      <path id="Path_2553" data-name="Path 2553" d="M235.175,233.459l-2.825-.817,10.167-36.072,2.818.811Z" transform="translate(-224.094 -173.295)" fill="#fafafa"/>
      <path id="Path_2554" data-name="Path 2554" d="M241.455,235.263l-2.825-.811L248.8,198.38l2.825.811Z" transform="translate(-226.268 -173.922)" fill="#fafafa"/>
      <rect id="Rectangle_356" data-name="Rectangle 356" width="2.936" height="37.491" transform="translate(38.97 29.199) rotate(15.74)" opacity="0.5"/>
      <path id="Path_2555" data-name="Path 2555" d="M280.261,189.786l-1.373,4.9-1.674-.471a3.184,3.184,0,0,1-2.2-3.923l.915-3.269,3.38.968a1.438,1.438,0,0,1,.948,1.8Z" transform="translate(-238.823 -169.989)" fill="#fafafa"/>
      <path id="Path_2556" data-name="Path 2556" d="M280.08,183.944l-3.38-.968,1.013-3.583a3.178,3.178,0,0,1,3.923-2.2l1.739.49-1.517,5.276a1.419,1.419,0,0,1-1.778.981Z" transform="translate(-239.447 -166.547)" fill="#fafafa"/>
      <path id="Path_2557" data-name="Path 2557" d="M285.081,189.969l3.4.974-.9,3.2a3.165,3.165,0,0,1-3.923,2.2l-1.765-.5,1.406-4.891a1.432,1.432,0,0,1,1.785-.981Z" transform="translate(-241.243 -170.989)" fill="#fafafa"/>
      <path id="Path_2558" data-name="Path 2558" d="M290.918,182.677l-1.026,3.635-3.4-.974a1.438,1.438,0,0,1-.981-1.772l1.517-5.276,1.693.477A3.171,3.171,0,0,1,290.918,182.677Z" transform="translate(-242.478 -166.967)" fill="#fafafa"/>
    </g>
  </g>
</svg>
